<svg xmlns="http://www.w3.org/2000/svg" width="21" height="21" viewBox="0 0 21 21"><path fill="none" d="M18 0H3C1.344 0 0 1.344 0 3v15c0 1.657 1.344 3 3 3h15c1.656 0 3-1.343 3-3V3c0-1.656-1.344-3-3-3zm2 18c0 1.103-.897 2-2 2H3c-1.104 0-2-.897-2-2V3c0-1.104.896-2 2-2h15c1.103 0 2 .896 2 2v15zM17.526 4.68c-.59.35-1.243.603-1.938.74-.557-.594-1.35-.964-2.228-.964-1.685 0-3.052 1.366-3.052 3.052 0 .238.027.472.08.695-2.536-.127-4.785-1.343-6.29-3.188-.263.45-.412.975-.412 1.534 0 1.058.538 1.992 1.357 2.54-.5-.018-.972-.154-1.383-.383v.038c0 1.48 1.052 2.712 2.447 2.992-.256.07-.525.107-.803.107-.197 0-.39-.02-.574-.055.388 1.212 1.516 2.094 2.85 2.12-1.044.817-2.36 1.305-3.79 1.305-.246 0-.49-.015-.728-.042 1.35.865 2.955 1.37 4.678 1.37 5.613 0 8.683-4.65 8.683-8.683 0-.132-.003-.264-.01-.395.598-.43 1.114-.968 1.523-1.58-.547.243-1.135.407-1.752.48.63-.375 1.114-.973 1.342-1.686z"/></svg>