<svg id="Layer_1" data-name="Layer 1" xmlns="http://www.w3.org/2000/svg" viewBox="0 0 20 20"><defs><style>.cls-1{fill:#414141;}</style></defs><title>16-LDSF-Recap-Slide-Image</title><path class="cls-1" d="M18.93,3.7a0.25,0.25,0,0,0,.25-0.25V2.2A0.25,0.25,0,0,0,18.93,2H1.07a0.25,0.25,0,0,0-.25.25V3.46a0.25,0.25,0,0,0,.25.25H1.77v8.36H1.07a0.25,0.25,0,0,0-.25.25v1.26a0.25,0.25,0,0,0,.25.25H9.75V15.4L7.08,17.61A0.25,0.25,0,0,0,7.4,18L10,15.84,12.6,18a0.25,0.25,0,0,0,.31-0.38L10.25,15.4V13.81h8.69a0.25,0.25,0,0,0,.25-0.25V12.31a0.25,0.25,0,0,0-.25-0.25H18.23V3.7h0.71ZM1.31,2.45H18.69V3.21H1.31V2.45ZM18.69,13.32H1.31V12.55H18.69v0.76Zm-1-1.26H2.27V3.7H17.73v8.36Z"/><path class="cls-1" d="M9.48,7.7v2.6a0.25,0.25,0,0,0,.25.25H11.4a0.25,0.25,0,0,0,.25-0.25V7.7a0.25,0.25,0,0,0-.25-0.25H9.73A0.25,0.25,0,0,0,9.48,7.7ZM10,7.95h1.18v2.11H10V7.95Z"/><path class="cls-1" d="M12.25,10.55h1.67a0.25,0.25,0,0,0,.25-0.25V9a0.25,0.25,0,0,0-.25-0.25H12.25A0.25,0.25,0,0,0,12,9v1.33A0.25,0.25,0,0,0,12.25,10.55ZM12.5,9.22h1.18v0.84H12.5V9.22Z"/><path class="cls-1" d="M14.78,10.55h1.67a0.25,0.25,0,0,0,.25-0.25V6a0.25,0.25,0,0,0-.25-0.25H14.78a0.25,0.25,0,0,0-.25.25v4.35A0.25,0.25,0,0,0,14.78,10.55ZM15,6.2h1.18v3.86H15V6.2Z"/><path class="cls-1" d="M3.54,6.47H9.34a0.25,0.25,0,1,0,0-.49H3.54A0.25,0.25,0,1,0,3.54,6.47Z"/><path class="cls-1" d="M3.54,7.83H7.66a0.25,0.25,0,1,0,0-.49H3.54A0.25,0.25,0,1,0,3.54,7.83Z"/><path class="cls-1" d="M3.54,9.19H7.66a0.25,0.25,0,0,0,0-.49H3.54A0.25,0.25,0,0,0,3.54,9.19Z"/><path class="cls-1" d="M3.54,10.56H7.66a0.25,0.25,0,0,0,0-.49H3.54A0.25,0.25,0,0,0,3.54,10.56Z"/></svg>