<svg xmlns="http://www.w3.org/2000/svg" width="80" height="80" viewBox="0 0 80 80"><path fill="#3AC3E3" d="M4.45 20.002L40 0l35.55 20v40L40 80 4.45 60"/><path fill="#97D8E6" d="M11.93 24.205L39.998 8.417l28.07 15.788.002 31.588L40 71.583l-28.07-15.79"/><path fill="#FFF" d="M40 61.716c-12.31 0-22.285-9.722-22.285-21.714 0-11.996 9.977-21.718 22.285-21.718 12.307 0 22.283 9.722 22.285 21.718 0 11.988-9.978 21.714-22.285 21.714"/><path fill="#E31E26" d="M39.998 59.998c-11.338 0-20.525-8.955-20.525-19.996 0-11.047 9.188-20 20.525-20s20.527 8.953 20.53 20c0 11.04-9.192 19.996-20.53 19.996"/><path fill="#FFF" d="M42.934 54.335h-5.867v-5.172h5.867v5.172zm0-7.983h-5.867V25.665h5.867v20.687z"/></svg>