<svg xmlns="http://www.w3.org/2000/svg" width="80" height="80" viewBox="0 0 80 80"><g transform="translate(0 -1)"><defs><filter id="a" filterUnits="userSpaceOnUse" x="19.5" y="1" width="55" height="43.8"><feColorMatrix values="1 0 0 0 0 0 1 0 0 0 0 0 1 0 0 0 0 0 1 0"/></filter></defs><mask maskUnits="userSpaceOnUse" x="19.5" y="1" width="55" height="43.8" id="b"><path fill="#FFF" d="M5.5 1h69v80h-69" filter="url(#a)"/></mask><path mask="url(#b)" fill="#29AAE1" d="M23.2 35.4c2.2 3.8 5.2 7 8.8 9.4l-2.9-10.2 9.5-2.4 1.3-.9c4.2-2.2 8.8-3.4 13.6-3.4 8 0 15.6 3.4 21 9.1V21L40 1 21.2 11.9c-2.8 7.7-2.1 16.3 2 23.5"/></g><defs><filter id="c" filterUnits="userSpaceOnUse" x="26" y="28.1" width="48.5" height="51.9"><feColorMatrix values="1 0 0 0 0 0 1 0 0 0 0 0 1 0 0 0 0 0 1 0"/></filter></defs><mask maskUnits="userSpaceOnUse" x="26" y="28.1" width="48.5" height="51.9" id="d"><path fill="#FFF" d="M5.5 0h69v80h-69V0z" filter="url(#c)"/></mask><path mask="url(#d)" fill="#29AAE1" d="M74.5 60V37.7c-5.2-6.1-12.9-9.6-21-9.6-4.4 0-8.7 1-12.5 3l10.2 2.5-2.8 9.6.1 1.1c-.1 4.7-1.4 9.4-3.8 13.6-4 7.2-10.8 12.2-18.7 14L40 80l34.5-20z"/><path fill="#29AAE1" d="M43.8 57.4c2.1-3.7 3.4-7.9 3.6-12.2l-7.3 7.6-7-7.3-1.1-.4c-4-2.5-7.4-6-9.7-10.1-4.1-7.1-4.9-15.5-2.5-23.2L5.5 20v40l19.1 11.1c8-1.5 15.1-6.4 19.2-13.7"/></svg>