<?xml version="1.0" encoding="utf-8"?>
<!-- Generator: Adobe Illustrator 16.0.0, SVG Export Plug-In . SVG Version: 6.00 Build 0)  -->
<!DOCTYPE svg PUBLIC "-//W3C//DTD SVG 1.1//EN" "http://www.w3.org/Graphics/SVG/1.1/DTD/svg11.dtd">
<svg version="1.1" id="Layer_1" xmlns="http://www.w3.org/2000/svg" xmlns:xlink="http://www.w3.org/1999/xlink" x="0px" y="0px"
	 width="80px" height="80px" viewBox="0 0 80 80" enable-background="new 0 0 80 80" xml:space="preserve">
<path fill="#1C75B9" d="M29.778,31.545H22.31v-7.41h7.469V31.545z M29.778,22.238H22.31V14.77h7.469V22.238z M39.083,31.545h-7.441
	v-7.41h7.441V31.545z M39.083,22.238h-7.441V14.77h7.441V22.238z M48.388,22.238h-7.441V14.77h7.441V22.238z M63.273,33.004V11.02
	c0-0.701-1.122-1.855-1.819-1.855H18.542c-0.695,0-1.788,1.154-1.788,1.855v21.957l5.556,2.443v-1.947h7.467v5.236l10.222,4.084
	l4.465-1.877h-3.519v-7.443h7.443v5.793l1.862-0.783v-5.01h7.438v1.881L63.273,33.004z M57.69,31.545h-7.44v-7.41h7.44V31.545z"/>
<polygon fill="#1C75B9" points="39.083,70.836 39.083,47.563 30.504,56.119 11.156,47.449 11.156,59.611 "/>
<polygon fill="#1C75B9" points="39.095,44.682 30.47,53.42 1.83,40.922 11.2,33.518 "/>
<polygon fill="#1C75B9" points="14.876,29.75 14.876,18.053 0,24.172 11.216,31.633 "/>
<polygon fill="#1C75B9" points="14.874,31.557 12.659,32.613 14.904,33.479 "/>
<polygon fill="#1C75B9" points="40.917,70.836 40.917,47.563 49.496,56.119 68.844,47.449 68.844,59.611 "/>
<polygon fill="#1C75B9" points="40.903,44.682 49.528,53.42 78.166,40.922 68.795,33.518 "/>
<polygon fill="#1C75B9" points="64.977,29.75 64.977,18.053 79.765,24.172 68.613,31.633 "/>
<polygon fill="#1C75B9" points="64.979,31.557 67.406,32.518 64.979,33.479 "/>
<rect y="9.164" fill="none" width="80" height="61.672"/>
</svg>
