<svg xmlns="http://www.w3.org/2000/svg" width="80" height="80" viewBox="0 0 80 80"><path fill="#1C75B9" d="M29.778 31.545H22.31v-7.41h7.47v7.41zm0-9.307H22.31V14.77h7.47v7.468zm9.305 9.307h-7.44v-7.41h7.44v7.41zm0-9.307h-7.44V14.77h7.44v7.468zm9.305 0h-7.44V14.77h7.44v7.468zm14.885 10.766V11.02c0-.7-1.122-1.855-1.82-1.855h-42.91c-.696 0-1.79 1.154-1.79 1.855v21.957l5.557 2.443v-1.947h7.467v5.236L40 42.792l4.464-1.877h-3.52v-7.443h7.444v5.793l1.862-.783v-5.01h7.438v1.88l5.585-2.35zm-5.583-1.46h-7.44v-7.41h7.44v7.41zM39.083 70.836V47.563l-8.58 8.556-19.347-8.67v12.16"/><path fill="#1C75B9" d="M39.095 44.682L30.47 53.42 1.83 40.922l9.37-7.404M14.876 29.75V18.053L0 24.173l11.216 7.46M14.874 31.557l-2.215 1.056 2.244.866M40.917 70.836V47.563l8.58 8.556 19.347-8.67v12.16"/><path fill="#1C75B9" d="M40.903 44.682l8.625 8.738 28.638-12.498-9.37-7.404M64.977 29.75V18.053l14.788 6.12-11.152 7.46M64.98 31.557l2.426.96-2.427.962"/><path fill="none" d="M0 9.164h80v61.672H0z"/></svg>