<?xml version="1.0" encoding="utf-8"?>
<!-- Generator: Adobe Illustrator 16.0.0, SVG Export Plug-In . SVG Version: 6.00 Build 0)  -->
<!DOCTYPE svg PUBLIC "-//W3C//DTD SVG 1.1//EN" "http://www.w3.org/Graphics/SVG/1.1/DTD/svg11.dtd">
<svg version="1.1" id="Layer_1" xmlns="http://www.w3.org/2000/svg" xmlns:xlink="http://www.w3.org/1999/xlink" x="0px" y="0px"
	 width="80px" height="80px" viewBox="0 0 80 80" enable-background="new 0 0 80 80" xml:space="preserve">
<polygon fill="#009DB7" points="23.891,31.625 24.736,32.063 40.9,1.562 40.055,1.124 "/>
<polygon fill="#005B96" points="40.44,58.081 39.964,57.302 54.84,48.354 55.316,49.132 "/>
<polygon fill="#1A75B8" points="27.783,71.121 27.097,70.494 39.757,56.896 40.444,57.523 "/>
<polygon fill="#1A75B8" points="40.099,78.603 6.393,59.329 6.852,58.54 40.099,77.554 55.596,68.69 56.055,69.479 "/>
<polygon fill="#1A75B8" points="39.802,58.085 24.32,49.137 24.783,48.352 40.266,57.299 "/>
<rect x="24.092" y="30.896" fill="#038AB5" width="0.917" height="17.849"/>
<rect x="6.758" y="21.691" fill="#038AB5" width="0.919" height="37.001"/>
<polygon fill="#009DB7" points="24.759,31.29 24.299,30.501 39.973,21.51 40.431,22.296 "/>
<polygon fill="#009DB7" points="73.483,21.101 24.434,10.864 24.624,9.974 73.675,20.211 "/>
<polygon fill="#00B6B7" points="40.52,22.229 39.884,21.573 53.229,8.877 53.864,9.533 "/>
<polygon fill="#038AB5" points="18.72,27.482 17.857,27.172 24.099,10.263 24.961,10.574 "/>
<polygon fill="#038AB5" points="7.054,59.091 6.189,58.777 17.856,27.171 18.72,27.482 "/>
<polygon fill="#1A75B8" points="26.888,50.62 6.413,40.203 6.831,39.393 27.309,49.81 "/>
<rect x="39.933" y="67.009" transform="matrix(0.9794 0.2021 -0.2021 0.9794 14.6249 -8.3013)" fill="#1A75B8" width="16.056" height="0.909"/>
<rect x="6.269" y="61.933" transform="matrix(0.9794 0.202 -0.202 0.9794 13.0867 -3.4331)" fill="#1A75B8" width="34.182" height="0.911"/>
<polygon fill="#005B96" points="40.505,78.29 39.693,77.866 55.279,48.532 56.092,48.956 "/>
<polygon fill="#00B6B7" points="56.057,31.289 55.594,30.502 73.348,20.263 73.811,21.047 "/>
<polygon fill="#00B6B7" points="39.869,1.909 73.349,21.049 73.81,20.261 40.329,1.124 "/>
<polygon fill="#00B6B7" points="55.597,31.2 39.973,22.296 40.43,21.508 56.055,30.411 "/>
<polygon fill="#009DB7" points="24.299,10.025 24.76,10.813 40.329,1.91 39.869,1.124 "/>
<polygon fill="#009DB7" points="6.852,21.051 6.392,20.263 24.299,10.025 24.759,10.813 "/>
<path fill="#00B6B7" d="M42.223,2.103c0,1.162-0.95,2.102-2.124,2.102s-2.124-0.94-2.124-2.102S38.925,0,40.099,0
	S42.223,0.941,42.223,2.103"/>
<path fill="#009DB7" d="M26.882,10.813c0,1.163-0.95,2.104-2.123,2.104c-1.172,0-2.123-0.94-2.123-2.104
	c0-1.161,0.951-2.103,2.123-2.103C25.932,8.71,26.882,9.651,26.882,10.813"/>
<path fill="#038AB5" d="M9.342,21.692c0,1.142-0.951,2.066-2.124,2.066s-2.125-0.925-2.125-2.066c0-1.143,0.952-2.068,2.125-2.068
	S9.342,20.55,9.342,21.692"/>
<path fill="#038AB5" d="M9.342,40.521c0,1.142-0.951,2.065-2.124,2.065s-2.125-0.924-2.125-2.065c0-1.143,0.952-2.066,2.125-2.066
	S9.342,39.379,9.342,40.521"/>
<path fill="#1A75B8" d="M9.246,58.916c0,1.142-0.949,2.066-2.122,2.066S5,60.058,5,58.916s0.951-2.065,2.124-2.065
	S9.246,57.774,9.246,58.916"/>
<path fill="#1A75B8" d="M26.676,48.744c0,1.162-0.949,2.104-2.124,2.104s-2.124-0.941-2.124-2.104s0.949-2.103,2.124-2.103
	S26.676,47.582,26.676,48.744"/>
<path fill="#038AB5" d="M26.676,30.896c0,1.163-0.949,2.103-2.124,2.103s-2.124-0.939-2.124-2.103s0.949-2.104,2.124-2.104
	S26.676,29.732,26.676,30.896"/>
<path fill="#009DB7" d="M42.452,21.902c0,1.162-0.95,2.101-2.123,2.101c-1.175,0-2.125-0.938-2.125-2.101
	c0-1.164,0.95-2.104,2.125-2.104C41.502,19.798,42.452,20.738,42.452,21.902"/>
<path fill="#00B6B7" d="M55.594,9.533c0,1.163-0.949,2.104-2.123,2.104c-1.173,0-2.124-0.94-2.124-2.104
	c0-1.161,0.951-2.103,2.124-2.103C54.645,7.431,55.594,8.372,55.594,9.533"/>
<path fill="#00B6B7" d="M76.072,21.426c0,1.144-0.95,2.068-2.124,2.068c-1.172,0-2.122-0.925-2.122-2.068
	c0-1.141,0.95-2.063,2.122-2.063C75.122,19.362,76.072,20.285,76.072,21.426"/>
<path fill="#00B6B7" d="M58.11,30.896c0,1.162-0.948,2.103-2.122,2.103c-1.173,0-2.124-0.94-2.124-2.103
	c0-1.164,0.951-2.104,2.124-2.104C57.162,28.792,58.11,29.731,58.11,30.896"/>
<path fill="#006AA0" d="M42.087,57.692c0,1.161-0.95,2.102-2.123,2.102c-1.174,0-2.124-0.94-2.124-2.102
	c0-1.163,0.95-2.104,2.124-2.104C41.137,55.589,42.087,56.529,42.087,57.692"/>
<path fill="#005B96" d="M56.975,49.306c0,1.16-0.949,2.102-2.123,2.102c-1.172,0-2.123-0.941-2.123-2.102
	c0-1.164,0.951-2.104,2.123-2.104C56.025,47.201,56.975,48.142,56.975,49.306"/>
<path fill="#005B96" d="M75.781,59.365c0,1.143-0.949,2.067-2.123,2.067c-1.173,0-2.124-0.925-2.124-2.067
	c0-1.142,0.951-2.065,2.124-2.065C74.832,57.3,75.781,58.224,75.781,59.365"/>
<path fill="#005B96" d="M57.949,69.085c0,1.162-0.951,2.104-2.124,2.104s-2.124-0.941-2.124-2.104c0-1.161,0.951-2.103,2.124-2.103
	S57.949,67.924,57.949,69.085"/>
<path fill="#006AA0" d="M42.224,77.895c0,1.164-0.95,2.105-2.124,2.105c-1.173,0-2.124-0.941-2.124-2.105
	c0-1.159,0.951-2.101,2.124-2.101C41.273,75.794,42.224,76.735,42.224,77.895"/>
<path fill="#1A75B8" d="M29.431,70.6c0,1.164-0.95,2.104-2.122,2.104c-1.173,0-2.124-0.939-2.124-2.104
	c0-1.161,0.951-2.102,2.124-2.102C28.48,68.498,29.431,69.438,29.431,70.6"/>
<polygon fill="#005B96" points="73.353,59.484 54.852,49.139 55.303,48.349 73.805,58.693 "/>
<polygon fill="#005B96" points="56.056,69.478 55.596,68.691 73.349,58.541 73.81,59.328 "/>
<rect x="5" y="1.397" fill="none" width="71.072" height="78.603"/>
</svg>
