<svg xmlns="http://www.w3.org/2000/svg" width="80" height="80" viewBox="0 0 80 80"><path fill="#9ECDEE" d="M5.6 20v40L40 80l34.4-20V20L40 0 5.6 20zm34.3 20z"/><path fill="#2462A6" d="M49.7 60h6.9v-7h-6.9v7z"/><defs><filter id="a" filterUnits="userSpaceOnUse" x="5.6" y="0" width="55.1" height="80"><feColorMatrix values="1 0 0 0 0 0 1 0 0 0 0 0 1 0 0 0 0 0 1 0"/></filter></defs><mask maskUnits="userSpaceOnUse" x="5.6" y="0" width="55.1" height="80" id="b"><path fill="#FFF" d="M5.6 20v40L40 80l34.4-20V20L40 0 5.6 20zm34.3 20z" filter="url(#a)"/></mask><path mask="url(#b)" fill="#0075B3" d="M40 40zM29.4 29.2h-6.9v-7h6.9v7zM19.2 57.6c11.3 3.6 16.1 1.2 17.4.2l-2.5-16.6h10.2l-1.7-16.6s4-4.5 17.6-.1l.6-2.1c-10.8-3.5-16.2-1.7-18.5-.3L40 0 5.6 20v40L40 80l-3-19.9c-1.3.7-3.7 1.5-7.2 1.5-2.8 0-6.5-.5-11.2-2l.6-2z"/></svg>