<svg xmlns="http://www.w3.org/2000/svg" width="80" height="80" viewBox="0 0 80 80"><path fill="#208DBF" d="M40.003 0L6.196 20v40l33.807 20 33.8-20V20"/><path fill="#53BFE5" d="M13.31 24.208L40 8.418l26.69 15.79v31.584L40 71.582l-26.69-15.79"/><path fill="#FFF" d="M49.946 56.596c0 1.168-.933 2.125-2.072 2.125H32.128c-1.14 0-2.072-.956-2.072-2.124V23.404c0-1.168.934-2.125 2.072-2.125h15.746c1.14 0 2.072.956 2.072 2.124v33.192z"/><path fill="#208DBF" d="M31.71 26.815h16.576V54.18H31.71zM37.41 23.61h5.183v1.142H37.41z"/><path fill="#FFF" d="M62.1 31.635c0-1.544-.935-2.87-2.257-3.41v4.198l-1.328.786-1.328-.787v-4.2c-1.32.54-2.255 1.868-2.255 3.412 0 1.526.905 2.836 2.198 3.393 0 0 .74.247 1.385.25.646 0 1.333-.23 1.333-.23 1.32-.54 2.253-1.865 2.253-3.413"/><path fill="#FFF" d="M56.992 34.466h3.047v17.31H56.99zM22.154 26.98H20.54l-.51 3.185.773.782H21.89l.77-.782"/><path fill="#FFF" d="M20.66 30.34h1.377v11.957H20.66z"/><path fill="#FFF" d="M19.46 40.53h3.772v12.49H19.46zM55.578 50.167c0-1.663 1.316-3.01 2.938-3.01 1.62 0 2.938 1.347 2.938 3.01 0 1.664-1.318 3.013-2.938 3.013s-2.938-1.35-2.938-3.013"/><path fill="#53BFE5" d="M57.096 50.167c0-.803.637-1.455 1.42-1.455.786 0 1.42.652 1.42 1.455 0 .805-.634 1.455-1.42 1.455-.784 0-1.42-.65-1.42-1.455"/></svg>