<svg xmlns="http://www.w3.org/2000/svg" width="80" height="80" viewBox="0 0 80 80"><path fill="#009DB7" d="M23.89 31.625l.846.438L40.9 1.563l-.845-.44"/><path fill="#005B96" d="M40.44 58.08l-.476-.778 14.876-8.948.476.778"/><path fill="#1A75B8" d="M27.783 71.12l-.686-.626 12.66-13.598.687.627"/><path fill="#1A75B8" d="M40.1 78.603L6.392 59.33l.46-.79 33.246 19.014 15.496-8.864.46.79M39.802 58.085L24.32 49.137l.463-.785L40.266 57.3"/><path fill="#038AB5" d="M24.092 30.896h.917v17.85h-.918zM6.758 21.69h.92v37.002h-.92z"/><path fill="#009DB7" d="M24.76 31.29l-.46-.79 15.673-8.99.458.786M73.483 21.1l-49.05-10.236.19-.89L73.676 20.21"/><path fill="#00B6B7" d="M40.52 22.23l-.636-.657L53.23 8.877l.634.656"/><path fill="#038AB5" d="M18.72 27.482l-.863-.31 6.242-16.91.86.312"/><path fill="#038AB5" d="M7.054 59.09l-.865-.313L17.855 27.17l.864.312"/><path fill="#1A75B8" d="M26.888 50.62L6.413 40.203l.418-.81L27.31 49.81M40.193 65.398l15.725 3.245-.184.89-15.725-3.245z"/><path fill="#1A75B8" d="M6.716 58.49l33.478 6.905-.184.892-33.478-6.904z"/><path fill="#005B96" d="M40.505 78.29l-.812-.424L55.28 48.532l.812.424"/><path fill="#00B6B7" d="M56.057 31.29l-.463-.788 17.754-10.24.463.785"/><path fill="#00B6B7" d="M39.87 1.91l33.48 19.14.46-.79L40.33 1.125M55.597 31.2l-15.624-8.904.457-.788 15.625 8.903"/><path fill="#009DB7" d="M24.3 10.025l.46.788L40.33 1.91l-.46-.786"/><path fill="#009DB7" d="M6.852 21.05l-.46-.787L24.3 10.025l.46.788"/><path fill="#00B6B7" d="M42.223 2.103c0 1.162-.95 2.102-2.124 2.102s-2.125-.94-2.125-2.102S38.925 0 40.1 0s2.123.94 2.123 2.103"/><path fill="#009DB7" d="M26.882 10.813c0 1.163-.95 2.104-2.123 2.104-1.173 0-2.124-.94-2.124-2.104 0-1.16.95-2.103 2.123-2.103 1.172 0 2.122.94 2.122 2.103"/><path fill="#038AB5" d="M9.342 21.692c0 1.142-.95 2.066-2.124 2.066s-2.125-.925-2.125-2.066c0-1.143.952-2.068 2.125-2.068s2.124.926 2.124 2.068M9.342 40.52c0 1.143-.95 2.066-2.124 2.066s-2.125-.924-2.125-2.065c0-1.142.952-2.065 2.125-2.065s2.124.924 2.124 2.066"/><path fill="#1A75B8" d="M9.246 58.916c0 1.142-.95 2.066-2.122 2.066S5 60.058 5 58.916s.95-2.065 2.124-2.065 2.122.924 2.122 2.066M26.676 48.744c0 1.162-.95 2.104-2.124 2.104s-2.124-.94-2.124-2.104.95-2.103 2.124-2.103 2.124.942 2.124 2.104"/><path fill="#038AB5" d="M26.676 30.896c0 1.163-.95 2.103-2.124 2.103s-2.124-.94-2.124-2.104.95-2.104 2.124-2.104 2.124.94 2.124 2.104"/><path fill="#009DB7" d="M42.452 21.902c0 1.162-.95 2.1-2.123 2.1-1.176 0-2.126-.937-2.126-2.1 0-1.164.95-2.104 2.125-2.104 1.172 0 2.122.94 2.122 2.104"/><path fill="#00B6B7" d="M55.594 9.533c0 1.163-.95 2.104-2.123 2.104-1.172 0-2.123-.94-2.123-2.104 0-1.16.95-2.103 2.124-2.103 1.175 0 2.124.942 2.124 2.103M76.072 21.426c0 1.144-.95 2.068-2.124 2.068-1.172 0-2.122-.925-2.122-2.068 0-1.14.95-2.063 2.122-2.063 1.174 0 2.124.922 2.124 2.063M58.11 30.896c0 1.162-.948 2.103-2.122 2.103-1.173 0-2.124-.94-2.124-2.104 0-1.164.95-2.104 2.124-2.104 1.174 0 2.122.94 2.122 2.104"/><path fill="#006AA0" d="M42.087 57.692c0 1.16-.95 2.102-2.123 2.102-1.174 0-2.124-.94-2.124-2.102 0-1.163.95-2.104 2.124-2.104 1.173 0 2.123.94 2.123 2.104"/><path fill="#005B96" d="M56.975 49.306c0 1.16-.95 2.102-2.123 2.102-1.172 0-2.123-.94-2.123-2.102 0-1.164.95-2.104 2.122-2.104 1.173 0 2.123.94 2.123 2.104M75.78 59.365c0 1.143-.948 2.067-2.122 2.067-1.173 0-2.124-.925-2.124-2.067 0-1.142.95-2.065 2.124-2.065 1.174 0 2.123.924 2.123 2.065M57.95 69.085c0 1.162-.952 2.104-2.125 2.104s-2.124-.942-2.124-2.105c0-1.16.952-2.103 2.125-2.103s2.124.942 2.124 2.103"/><path fill="#006AA0" d="M42.224 77.895c0 1.164-.95 2.105-2.124 2.105-1.173 0-2.124-.94-2.124-2.105 0-1.16.95-2.1 2.124-2.1 1.173 0 2.124.94 2.124 2.1"/><path fill="#1A75B8" d="M29.43 70.6c0 1.164-.95 2.104-2.12 2.104-1.174 0-2.125-.94-2.125-2.104 0-1.16.95-2.102 2.124-2.102 1.17 0 2.12.94 2.12 2.102"/><path fill="#005B96" d="M73.353 59.484l-18.5-10.345.45-.79 18.502 10.343"/><path fill="#005B96" d="M56.056 69.478l-.46-.787L73.35 58.54l.46.788"/><path fill="none" d="M5 1.397h71.072V80H5z"/></svg>