<?xml version="1.0" encoding="utf-8"?>
<!-- Generator: Adobe Illustrator 16.0.0, SVG Export Plug-In . SVG Version: 6.00 Build 0)  -->
<!DOCTYPE svg PUBLIC "-//W3C//DTD SVG 1.1//EN" "http://www.w3.org/Graphics/SVG/1.1/DTD/svg11.dtd">
<svg version="1.1" id="Layer_1" xmlns="http://www.w3.org/2000/svg" xmlns:xlink="http://www.w3.org/1999/xlink" x="0px" y="0px"
	 width="80px" height="80px" viewBox="0 0 80 80" enable-background="new 0 0 80 80" xml:space="preserve">
<polygon fill="#3AC3E3" points="4.449,20.002 40,0 75.551,20 75.551,59.999 40,80 4.449,59.999 "/>
<polygon fill="#97D8E6" points="11.93,24.205 39.998,8.417 68.068,24.205 68.07,55.793 40,71.583 11.93,55.793 "/>
<path fill="#FFFFFF" d="M40,61.716c-12.309,0-22.285-9.722-22.285-21.714c0-11.996,9.977-21.718,22.285-21.718
	c12.307,0,22.283,9.722,22.285,21.718C62.285,51.99,52.307,61.716,40,61.716"/>
<path fill="#E31E26" d="M39.998,59.998c-11.338,0-20.525-8.955-20.525-19.996c0-11.047,9.188-20,20.525-20s20.527,8.953,20.529,20
	C60.527,51.043,51.336,59.998,39.998,59.998"/>
<path fill="#FFFFFF" d="M42.934,54.335h-5.867v-5.172h5.867V54.335z M42.934,46.352h-5.867V25.665h5.867V46.352z"/>
</svg>
