<?xml version="1.0" encoding="utf-8"?>
<!-- Generator: Adobe Illustrator 16.0.0, SVG Export Plug-In . SVG Version: 6.00 Build 0)  -->
<!DOCTYPE svg PUBLIC "-//W3C//DTD SVG 1.1//EN" "http://www.w3.org/Graphics/SVG/1.1/DTD/svg11.dtd">
<svg version="1.1" id="Layer_1" xmlns="http://www.w3.org/2000/svg" xmlns:xlink="http://www.w3.org/1999/xlink" x="0px" y="0px"
	 width="80px" height="80px" viewBox="0 0 80 80" enable-background="new 0 0 80 80" xml:space="preserve">
<polygon fill="#208DBF" points="40.003,0 6.196,20.001 6.196,60 40.003,80 73.804,60 73.804,20.001 "/>
<polygon fill="#53BFE5" points="13.31,24.208 40.001,8.418 66.69,24.208 66.69,55.792 40.001,71.582 13.31,55.792 "/>
<path fill="#FFFFFF" d="M49.946,56.596c0,1.168-0.933,2.125-2.072,2.125H32.128c-1.139,0-2.072-0.957-2.072-2.125V23.404
	c0-1.168,0.934-2.125,2.072-2.125h15.746c1.14,0,2.072,0.957,2.072,2.125V56.596z"/>
<rect x="31.711" y="26.815" fill="#208DBF" width="16.575" height="27.365"/>
<rect x="37.41" y="23.611" fill="#208DBF" width="5.183" height="1.141"/>
<path fill="#FFFFFF" d="M62.101,31.635c0-1.544-0.936-2.869-2.258-3.411v4.199l-1.328,0.786l-1.328-0.786v-4.199
	c-1.32,0.54-2.255,1.867-2.255,3.411c0,1.526,0.905,2.836,2.198,3.393c0,0,0.741,0.247,1.385,0.25c0.646,0,1.333-0.23,1.333-0.23
	C61.167,34.507,62.101,33.183,62.101,31.635"/>
<rect x="56.992" y="34.466" fill="#FFFFFF" width="3.047" height="17.311"/>
<polygon fill="#FFFFFF" points="22.154,26.979 21.345,26.979 20.54,26.979 20.03,30.165 20.803,30.947 21.345,30.947 21.89,30.947 
	22.661,30.165 "/>
<rect x="20.659" y="30.34" fill="#FFFFFF" width="1.378" height="11.957"/>
<rect x="19.46" y="40.531" fill="#FFFFFF" width="3.772" height="12.488"/>
<path fill="#FFFFFF" d="M55.578,50.167c0-1.663,1.316-3.011,2.938-3.011c1.62,0,2.938,1.348,2.938,3.011
	c0,1.664-1.318,3.013-2.938,3.013C56.895,53.18,55.578,51.831,55.578,50.167"/>
<path fill="#53BFE5" d="M57.096,50.167c0-0.803,0.637-1.455,1.421-1.455c0.785,0,1.42,0.652,1.42,1.455
	c0,0.805-0.635,1.455-1.42,1.455C57.732,51.622,57.096,50.972,57.096,50.167"/>
</svg>
