<?xml version="1.0"?>
<svg width="988" height="270" xmlns="http://www.w3.org/2000/svg" xmlns:svg="http://www.w3.org/2000/svg">
 <g>
  <title>Layer 1</title>
  <g id="svg_1">
   <g id="svg_7">
    <path id="svg_8" d="m10.545007,116.797l31.682,0l0,4.114l-36.552,0l0,-66.911l4.87,0l0,62.797z" fill="#4C4C4E"/>
    <path id="svg_9" d="m62.134007,57.64c0,0.567 -0.119,1.096 -0.355,1.584c-0.236,0.489 -0.543,0.922 -0.922,1.3s-0.82,0.678 -1.324,0.898c-0.504,0.221 -1.04,0.331 -1.607,0.331s-1.104,-0.11 -1.608,-0.331c-0.504,-0.22 -0.946,-0.52 -1.324,-0.898c-0.378,-0.378 -0.678,-0.811 -0.898,-1.3c-0.221,-0.488 -0.331,-1.017 -0.331,-1.584s0.11,-1.111 0.331,-1.631c0.22,-0.521 0.52,-0.97 0.898,-1.348c0.378,-0.378 0.819,-0.678 1.324,-0.898c0.504,-0.22 1.041,-0.331 1.608,-0.331s1.103,0.111 1.607,0.331c0.504,0.221 0.946,0.52 1.324,0.898c0.378,0.378 0.686,0.827 0.922,1.348c0.236,0.52 0.355,1.064 0.355,1.631zm-1.939,16.219l0,47.051l-4.492,0l0,-47.051l4.492,0z" fill="#4C4C4E"/>
    <path id="svg_10" d="m82.796007,120.91l0,-42.133l-6.62,-0.426c-0.883,-0.094 -1.324,-0.488 -1.324,-1.182l0,-1.844l7.944,0l0,-5.958c0,-2.679 0.346,-5.036 1.04,-7.069c0.693,-2.033 1.67,-3.728 2.932,-5.083c1.261,-1.355 2.774,-2.372 4.54,-3.05c1.765,-0.678 3.719,-1.017 5.863,-1.017c0.977,0 1.962,0.087 2.956,0.26c0.993,0.174 1.883,0.418 2.671,0.733l-0.142,2.175c-0.063,0.284 -0.197,0.465 -0.402,0.544c-0.206,0.079 -0.497,0.111 -0.875,0.094c-0.378,-0.015 -0.867,-0.062 -1.466,-0.142c-0.599,-0.078 -1.293,-0.118 -2.081,-0.118c-1.545,0 -2.972,0.229 -4.279,0.686c-1.309,0.458 -2.435,1.19 -3.381,2.199c-0.946,1.009 -1.679,2.325 -2.199,3.949c-0.521,1.624 -0.78,3.617 -0.78,5.982l0,5.816l15.273,0l0,3.357l-15.131,0l0,42.228l-4.539,0l0,-0.001z" fill="#4C4C4E"/>
    <path id="svg_11" d="m132.494007,73.103c2.648,0 5.107,0.457 7.376,1.371c2.27,0.915 4.24,2.246 5.911,3.996c1.671,1.75 2.987,3.901 3.949,6.455c0.961,2.553 1.442,5.485 1.442,8.795c0,0.694 -0.094,1.167 -0.284,1.418c-0.189,0.253 -0.504,0.378 -0.945,0.378l-34.235,0l0,0.898c0,3.531 0.409,6.636 1.229,9.315c0.819,2.68 1.986,4.926 3.5,6.738c1.513,1.813 3.341,3.177 5.485,4.09c2.144,0.915 4.54,1.372 7.188,1.372c2.364,0 4.413,-0.26 6.147,-0.78c1.733,-0.521 3.192,-1.104 4.374,-1.75c1.182,-0.646 2.12,-1.229 2.813,-1.75c0.693,-0.52 1.198,-0.78 1.513,-0.78c0.409,0 0.725,0.158 0.946,0.473l1.229,1.513c-0.757,0.946 -1.758,1.829 -3.003,2.648c-1.246,0.82 -2.632,1.521 -4.161,2.104c-1.529,0.583 -3.168,1.048 -4.917,1.396c-1.75,0.346 -3.507,0.52 -5.272,0.52c-3.215,0 -6.147,-0.56 -8.795,-1.679s-4.918,-2.75 -6.809,-4.894c-1.892,-2.144 -3.35,-4.768 -4.374,-7.874c-1.025,-3.104 -1.537,-6.659 -1.537,-10.663c0,-3.373 0.48,-6.486 1.442,-9.339c0.961,-2.853 2.348,-5.312 4.161,-7.377c1.812,-2.064 4.035,-3.68 6.667,-4.847c2.632,-1.164 5.619,-1.747 8.96,-1.747zm0.048,3.357c-2.428,0 -4.603,0.378 -6.525,1.135c-1.923,0.756 -3.586,1.844 -4.989,3.263c-1.403,1.418 -2.538,3.121 -3.404,5.107c-0.868,1.986 -1.442,4.208 -1.726,6.667l31.208,0c0,-2.521 -0.354,-4.783 -1.064,-6.786c-0.709,-2.001 -1.71,-3.696 -3.002,-5.083c-1.293,-1.387 -2.83,-2.451 -4.61,-3.191c-1.782,-0.741 -3.745,-1.112 -5.888,-1.112z" fill="#4C4C4E"/>
    <path id="svg_12" d="m167.202007,120.909l0,-47.051l2.412,0c0.536,0 0.914,0.111 1.135,0.331c0.22,0.221 0.362,0.599 0.426,1.135l0.331,9.883c0.725,-1.923 1.553,-3.633 2.483,-5.131c0.929,-1.497 2.001,-2.766 3.215,-3.807c1.213,-1.04 2.569,-1.836 4.066,-2.388c1.497,-0.551 3.16,-0.828 4.989,-0.828c0.977,0 1.938,0.087 2.884,0.26c0.946,0.173 1.781,0.481 2.506,0.922l-0.378,3.121c-0.158,0.504 -0.458,0.756 -0.898,0.756c-0.378,0 -0.954,-0.11 -1.726,-0.331c-0.772,-0.22 -1.789,-0.331 -3.05,-0.331c-1.829,0 -3.452,0.284 -4.871,0.852c-1.418,0.567 -2.68,1.395 -3.783,2.482c-1.104,1.087 -2.073,2.443 -2.908,4.066c-0.835,1.624 -1.6,3.492 -2.293,5.604l0,30.453l-4.54,0l0,0.002z" fill="#4C4C4E"/>
    <path id="svg_13" d="m232.408007,120.909c-0.946,0 -1.53,-0.441 -1.75,-1.324l-0.662,-6.005c-1.293,1.261 -2.577,2.396 -3.854,3.405c-1.276,1.009 -2.609,1.86 -3.996,2.554c-1.388,0.693 -2.884,1.222 -4.492,1.584c-1.607,0.362 -3.374,0.544 -5.296,0.544c-1.608,0 -3.168,-0.237 -4.681,-0.709c-1.513,-0.473 -2.861,-1.198 -4.043,-2.175c-1.182,-0.977 -2.128,-2.23 -2.837,-3.759c-0.709,-1.529 -1.064,-3.365 -1.064,-5.509c0,-1.986 0.568,-3.831 1.703,-5.533c1.135,-1.703 2.916,-3.184 5.343,-4.445c2.427,-1.261 5.54,-2.27 9.339,-3.027c3.798,-0.756 8.361,-1.197 13.689,-1.324l0,-4.918c0,-4.351 -0.938,-7.7 -2.813,-10.048c-1.875,-2.348 -4.657,-3.523 -8.346,-3.523c-2.27,0 -4.201,0.315 -5.792,0.946c-1.592,0.631 -2.94,1.324 -4.043,2.081c-1.104,0.756 -2.002,1.45 -2.695,2.081c-0.694,0.631 -1.277,0.946 -1.75,0.946c-0.347,0 -0.631,-0.079 -0.851,-0.236c-0.221,-0.158 -0.41,-0.362 -0.567,-0.615l-0.804,-1.372c2.459,-2.459 5.043,-4.318 7.755,-5.58c2.711,-1.261 5.785,-1.892 9.221,-1.892c2.522,0 4.729,0.402 6.62,1.206c1.892,0.804 3.459,1.955 4.705,3.452c1.245,1.498 2.183,3.31 2.813,5.438c0.63,2.128 0.946,4.5 0.946,7.117l0,30.642l-1.798,0l0,-0.002zm-18.914,-2.507c1.828,0 3.507,-0.196 5.036,-0.591c1.529,-0.394 2.947,-0.946 4.256,-1.655c1.308,-0.709 2.53,-1.552 3.665,-2.53c1.135,-0.977 2.253,-2.033 3.357,-3.168l0,-12.247c-4.477,0.126 -8.338,0.465 -11.585,1.017c-3.247,0.552 -5.918,1.3 -8.015,2.246c-2.097,0.946 -3.641,2.073 -4.634,3.381c-0.993,1.309 -1.489,2.798 -1.489,4.469c0,1.577 0.26,2.94 0.78,4.09c0.52,1.151 1.213,2.097 2.081,2.837c0.867,0.741 1.868,1.285 3.002,1.631c1.134,0.347 2.316,0.52 3.546,0.52z" fill="#4C4C4E"/>
    <path id="svg_14" d="m263.144007,136.04c-0.189,0.44 -0.434,0.804 -0.732,1.087c-0.301,0.285 -0.733,0.426 -1.301,0.426l-3.215,0l8.274,-18.394l-19.907,-45.301l3.735,0c0.473,0 0.851,0.118 1.135,0.355c0.284,0.236 0.473,0.496 0.568,0.78l15.84,36.601c0.189,0.473 0.354,0.954 0.497,1.442c0.142,0.489 0.275,0.986 0.401,1.49c0.157,-0.504 0.323,-1 0.497,-1.49c0.172,-0.488 0.354,-0.969 0.543,-1.442l15.652,-36.601c0.156,-0.346 0.378,-0.622 0.662,-0.827c0.283,-0.205 0.598,-0.308 0.945,-0.308l3.451,0l-27.045,62.182z" fill="#4C4C4E"/>
    <path id="svg_15" d="m389.066007,87.427c0,5.171 -0.771,9.82 -2.316,13.95c-1.545,4.13 -3.721,7.646 -6.525,10.546c-2.807,2.9 -6.171,5.123 -10.096,6.667c-3.924,1.545 -8.251,2.317 -12.979,2.317l-24.446,0l0,-66.91l24.446,0c4.729,0 9.056,0.773 12.979,2.317c3.925,1.545 7.289,3.768 10.096,6.667c2.805,2.901 4.98,6.415 6.525,10.544c1.545,4.13 2.316,8.765 2.316,13.902zm-5.012,0c0,-4.665 -0.646,-8.826 -1.938,-12.483c-1.293,-3.657 -3.121,-6.746 -5.485,-9.269c-2.364,-2.521 -5.201,-4.445 -8.512,-5.769c-3.31,-1.324 -6.967,-1.986 -10.97,-1.986l-19.577,0l0,59.062l19.577,0c4.003,0 7.66,-0.662 10.97,-1.986c3.311,-1.324 6.147,-3.246 8.512,-5.769c2.364,-2.522 4.192,-5.611 5.485,-9.269c1.292,-3.656 1.938,-7.833 1.938,-12.531z" fill="#4C4C4E"/>
    <path id="svg_16" d="m412.143007,57.637c0,0.567 -0.118,1.096 -0.354,1.584c-0.236,0.489 -0.544,0.922 -0.922,1.3c-0.379,0.378 -0.82,0.678 -1.324,0.898c-0.505,0.221 -1.041,0.331 -1.607,0.331c-0.568,0 -1.104,-0.11 -1.608,-0.331c-0.505,-0.22 -0.946,-0.52 -1.323,-0.898c-0.379,-0.378 -0.679,-0.811 -0.898,-1.3c-0.222,-0.488 -0.332,-1.017 -0.332,-1.584s0.11,-1.111 0.332,-1.631c0.22,-0.521 0.52,-0.97 0.898,-1.348c0.377,-0.378 0.818,-0.678 1.323,-0.898c0.504,-0.22 1.04,-0.331 1.608,-0.331c0.566,0 1.103,0.111 1.607,0.331c0.504,0.221 0.945,0.52 1.324,0.898c0.378,0.378 0.686,0.827 0.922,1.348c0.236,0.519 0.354,1.063 0.354,1.631zm-1.938,16.219l0,47.051l-4.492,0l0,-47.051l4.492,0z" fill="#4C4C4E"/>
    <path id="svg_17" d="m445.384007,73.052c2.081,0 3.987,0.252 5.722,0.756c1.733,0.505 3.311,1.214 4.729,2.128l12.059,0l0,1.561c0,0.694 -0.442,1.12 -1.324,1.277l-7.188,0.52c0.882,1.199 1.561,2.546 2.033,4.043c0.473,1.498 0.709,3.098 0.709,4.8c0,2.27 -0.402,4.327 -1.205,6.171c-0.805,1.844 -1.939,3.421 -3.405,4.729c-1.466,1.309 -3.231,2.325 -5.296,3.05c-2.064,0.726 -4.343,1.087 -6.833,1.087c-2.712,0 -5.153,-0.409 -7.329,-1.229c-1.324,0.788 -2.373,1.695 -3.145,2.719c-0.773,1.025 -1.158,2.026 -1.158,3.003c0,1.355 0.48,2.396 1.441,3.121c0.962,0.726 2.223,1.253 3.783,1.584s3.342,0.543 5.344,0.638c2.001,0.095 4.043,0.197 6.123,0.308c2.08,0.111 4.121,0.307 6.123,0.591s3.783,0.78 5.344,1.49c1.561,0.709 2.82,1.702 3.783,2.979c0.961,1.277 1.441,2.971 1.441,5.083c0,1.954 -0.488,3.83 -1.465,5.627c-0.979,1.797 -2.389,3.388 -4.232,4.776c-1.844,1.387 -4.074,2.499 -6.691,3.334c-2.617,0.834 -5.549,1.252 -8.795,1.252c-3.31,0 -6.211,-0.338 -8.7,-1.016c-2.491,-0.679 -4.579,-1.593 -6.266,-2.742c-1.687,-1.152 -2.955,-2.483 -3.807,-3.996c-0.851,-1.513 -1.276,-3.121 -1.276,-4.823c0,-2.491 0.819,-4.627 2.459,-6.408c1.639,-1.781 3.877,-3.175 6.715,-4.185c-1.608,-0.536 -2.885,-1.308 -3.83,-2.317c-0.946,-1.008 -1.419,-2.412 -1.419,-4.208c0,-0.662 0.126,-1.355 0.378,-2.081c0.252,-0.725 0.631,-1.442 1.135,-2.151c0.504,-0.709 1.119,-1.379 1.844,-2.01c0.726,-0.63 1.545,-1.198 2.459,-1.703c-2.238,-1.292 -3.979,-3.009 -5.225,-5.154c-1.246,-2.143 -1.867,-4.649 -1.867,-7.519c0,-2.27 0.401,-4.327 1.205,-6.171c0.805,-1.844 1.946,-3.428 3.428,-4.753c1.482,-1.324 3.256,-2.348 5.32,-3.074c2.063,-0.724 4.356,-1.087 6.879,-1.087zm17.59,51.023c0,-1.482 -0.387,-2.672 -1.158,-3.57c-0.773,-0.898 -1.806,-1.6 -3.098,-2.104c-1.293,-0.504 -2.79,-0.851 -4.492,-1.04c-1.703,-0.189 -3.469,-0.338 -5.297,-0.449c-1.828,-0.11 -3.672,-0.213 -5.531,-0.308c-1.861,-0.094 -3.61,-0.284 -5.249,-0.567c-1.198,0.473 -2.302,1.025 -3.31,1.655c-1.01,0.631 -1.877,1.332 -2.602,2.104c-0.725,0.773 -1.293,1.624 -1.702,2.554c-0.41,0.929 -0.614,1.931 -0.614,3.002c0,1.387 0.354,2.672 1.063,3.854c0.71,1.182 1.749,2.206 3.121,3.073c1.371,0.867 3.05,1.552 5.036,2.057c1.986,0.504 4.271,0.756 6.855,0.756c2.396,0 4.627,-0.268 6.691,-0.803c2.064,-0.537 3.861,-1.293 5.391,-2.271c1.529,-0.978 2.727,-2.144 3.594,-3.499c0.869,-1.355 1.302,-2.837 1.302,-4.444zm-17.59,-23.975c2.017,0 3.813,-0.292 5.391,-0.875c1.576,-0.583 2.899,-1.395 3.972,-2.435c1.072,-1.041 1.892,-2.286 2.459,-3.736c0.568,-1.45 0.852,-3.058 0.852,-4.823c0,-1.765 -0.292,-3.381 -0.875,-4.847c-0.584,-1.466 -1.418,-2.719 -2.506,-3.759c-1.088,-1.04 -2.412,-1.844 -3.973,-2.412s-3.333,-0.851 -5.319,-0.851c-1.985,0 -3.759,0.284 -5.319,0.851s-2.885,1.372 -3.973,2.412c-1.087,1.041 -1.914,2.293 -2.482,3.759c-0.566,1.466 -0.851,3.082 -0.851,4.847c0,1.766 0.284,3.374 0.851,4.823c0.568,1.45 1.396,2.695 2.482,3.736c1.088,1.04 2.412,1.852 3.973,2.435c1.559,0.584 3.332,0.875 5.318,0.875z" fill="#4C4C4E"/>
    <path id="svg_18" d="m489.029007,57.636c0,0.567 -0.119,1.096 -0.355,1.584c-0.236,0.489 -0.543,0.922 -0.922,1.3s-0.82,0.678 -1.324,0.898c-0.504,0.221 -1.04,0.331 -1.607,0.331s-1.104,-0.11 -1.607,-0.331c-0.505,-0.22 -0.946,-0.52 -1.324,-0.898c-0.379,-0.378 -0.678,-0.811 -0.898,-1.3c-0.221,-0.488 -0.331,-1.017 -0.331,-1.584s0.11,-1.111 0.331,-1.631c0.221,-0.521 0.52,-0.97 0.898,-1.348c0.378,-0.378 0.819,-0.678 1.324,-0.898c0.504,-0.22 1.04,-0.331 1.607,-0.331s1.104,0.111 1.607,0.331c0.504,0.221 0.945,0.52 1.324,0.898c0.379,0.378 0.686,0.827 0.922,1.348c0.236,0.519 0.355,1.063 0.355,1.631zm-1.939,16.219l0,47.051l-4.492,0l0,-47.051l4.492,0z" fill="#4C4C4E"/>
    <path id="svg_19" d="m519.763007,121.663c-3.186,0 -5.668,-0.882 -7.448,-2.648c-1.781,-1.765 -2.671,-4.492 -2.671,-8.181l0,-32.156l-6.763,0c-0.347,0 -0.631,-0.094 -0.851,-0.284c-0.221,-0.189 -0.332,-0.457 -0.332,-0.804l0,-1.75l8.039,-0.567l1.135,-16.834c0.062,-0.284 0.189,-0.536 0.379,-0.756c0.189,-0.22 0.456,-0.331 0.804,-0.331l2.128,0l0,17.969l14.848,0l0,3.357l-14.848,0l0,31.919c0,1.293 0.165,2.404 0.496,3.334c0.331,0.93 0.787,1.695 1.371,2.293c0.584,0.6 1.27,1.041 2.057,1.324c0.788,0.284 1.639,0.426 2.555,0.426c1.135,0 2.111,-0.166 2.932,-0.497c0.818,-0.331 1.528,-0.693 2.127,-1.088c0.599,-0.394 1.088,-0.756 1.467,-1.087c0.378,-0.331 0.677,-0.497 0.898,-0.497c0.252,0 0.504,0.158 0.756,0.473l1.229,1.985c-1.198,1.325 -2.719,2.389 -4.563,3.192c-1.844,0.805 -3.759,1.208 -5.745,1.208z" fill="#4C4C4E"/>
    <path id="svg_20" d="m572.013007,120.905c-0.945,0 -1.529,-0.441 -1.75,-1.324l-0.662,-6.005c-1.293,1.261 -2.576,2.396 -3.854,3.405c-1.276,1.009 -2.609,1.86 -3.996,2.554s-2.884,1.222 -4.492,1.584c-1.607,0.362 -3.373,0.544 -5.295,0.544c-1.608,0 -3.168,-0.237 -4.682,-0.709c-1.514,-0.473 -2.861,-1.198 -4.043,-2.175c-1.182,-0.977 -2.128,-2.23 -2.838,-3.759c-0.709,-1.529 -1.063,-3.365 -1.063,-5.509c0,-1.986 0.567,-3.831 1.702,-5.533c1.135,-1.703 2.916,-3.184 5.344,-4.445c2.427,-1.261 5.539,-2.27 9.339,-3.027c3.798,-0.756 8.361,-1.197 13.688,-1.324l0,-4.918c0,-4.351 -0.938,-7.7 -2.812,-10.048c-1.876,-2.348 -4.658,-3.523 -8.346,-3.523c-2.27,0 -4.201,0.315 -5.793,0.946c-1.592,0.631 -2.939,1.324 -4.043,2.081c-1.104,0.756 -2.002,1.45 -2.695,2.081c-0.693,0.631 -1.277,0.946 -1.75,0.946c-0.347,0 -0.631,-0.079 -0.851,-0.236c-0.222,-0.158 -0.41,-0.362 -0.567,-0.615l-0.805,-1.372c2.459,-2.459 5.044,-4.318 7.756,-5.58c2.711,-1.261 5.784,-1.892 9.221,-1.892c2.521,0 4.729,0.402 6.619,1.206c1.893,0.804 3.46,1.955 4.705,3.452c1.245,1.498 2.184,3.31 2.814,5.438c0.63,2.128 0.945,4.5 0.945,7.117l0,30.642l-1.796,0l0,-0.002zm-18.914,-2.506c1.828,0 3.506,-0.196 5.035,-0.591c1.529,-0.394 2.947,-0.946 4.256,-1.655c1.309,-0.709 2.53,-1.552 3.665,-2.53c1.135,-0.977 2.253,-2.033 3.356,-3.168l0,-12.247c-4.477,0.126 -8.338,0.465 -11.584,1.017c-3.248,0.552 -5.919,1.3 -8.016,2.246c-2.096,0.946 -3.641,2.073 -4.634,3.381c-0.993,1.309 -1.489,2.798 -1.489,4.469c0,1.577 0.26,2.94 0.78,4.09c0.521,1.151 1.213,2.097 2.081,2.837c0.866,0.741 1.867,1.285 3.002,1.631c1.136,0.347 2.318,0.52 3.548,0.52z" fill="#4C4C4E"/>
    <path id="svg_21" d="m597.594007,52.102l0,68.803l-4.539,0l0,-68.803l4.539,0z" fill="#4C4C4E"/>
    <path id="svg_22" d="m38.160007,169.424c-0.284,0.535 -0.694,0.803 -1.229,0.803c-0.41,0 -0.938,-0.291 -1.584,-0.874c-0.646,-0.583 -1.521,-1.229 -2.625,-1.938c-1.104,-0.71 -2.482,-1.363 -4.138,-1.963c-1.655,-0.599 -3.696,-0.898 -6.124,-0.898c-2.428,0 -4.563,0.348 -6.407,1.041c-1.844,0.693 -3.389,1.639 -4.634,2.836c-1.246,1.199 -2.191,2.586 -2.837,4.162c-0.646,1.576 -0.97,3.231 -0.97,4.965c0,2.27 0.48,4.146 1.442,5.627c0.961,1.482 2.23,2.742 3.807,3.783c1.576,1.041 3.364,1.915 5.367,2.625c2.001,0.709 4.059,1.41 6.171,2.104c2.111,0.693 4.168,1.459 6.171,2.293c2.001,0.836 3.79,1.885 5.367,3.145c1.576,1.262 2.845,2.814 3.807,4.658c0.961,1.845 1.442,4.138 1.442,6.881c0,2.807 -0.481,5.445 -1.442,7.92c-0.962,2.476 -2.357,4.627 -4.185,6.455c-1.829,1.828 -4.066,3.271 -6.714,4.326c-2.648,1.057 -5.674,1.585 -9.079,1.585c-4.414,0 -8.212,-0.78 -11.396,-2.341c-3.185,-1.561 -5.975,-3.695 -8.37,-6.408l1.324,-2.08c0.378,-0.473 0.819,-0.709 1.324,-0.709c0.284,0 0.646,0.189 1.087,0.567c0.441,0.378 0.977,0.844 1.608,1.396c0.63,0.551 1.387,1.15 2.27,1.797c0.882,0.646 1.907,1.245 3.074,1.797c1.166,0.551 2.506,1.016 4.019,1.395c1.513,0.378 3.231,0.567 5.154,0.567c2.648,0 5.012,-0.401 7.093,-1.206c2.081,-0.804 3.838,-1.898 5.272,-3.286c1.434,-1.388 2.53,-3.034 3.287,-4.942c0.756,-1.906 1.135,-3.947 1.135,-6.123c0,-2.364 -0.481,-4.311 -1.442,-5.84c-0.962,-1.529 -2.23,-2.806 -3.807,-3.83c-1.577,-1.024 -3.365,-1.884 -5.367,-2.578c-2.002,-0.692 -4.059,-1.371 -6.171,-2.033c-2.112,-0.662 -4.169,-1.402 -6.171,-2.222c-2.002,-0.819 -3.791,-1.868 -5.367,-3.146c-1.577,-1.275 -2.845,-2.867 -3.807,-4.775c-0.962,-1.906 -1.442,-4.295 -1.442,-7.164c0,-2.238 0.425,-4.397 1.276,-6.479c0.851,-2.08 2.096,-3.916 3.736,-5.509c1.639,-1.591 3.665,-2.868 6.076,-3.83s5.162,-1.442 8.251,-1.442c3.467,0 6.58,0.553 9.339,1.655c2.758,1.104 5.272,2.79 7.542,5.06l-1.133,2.173z" fill="#4C4C4E"/>
    <path id="svg_23" d="m75.988007,180.394c3.373,0 6.391,0.575 9.055,1.726c2.664,1.151 4.91,2.783 6.738,4.895c1.828,2.111 3.223,4.657 4.185,7.637c0.961,2.979 1.442,6.312 1.442,10.001s-0.481,7.015 -1.442,9.978c-0.962,2.963 -2.357,5.502 -4.185,7.613c-1.829,2.113 -4.075,3.736 -6.738,4.871c-2.664,1.135 -5.682,1.702 -9.055,1.702c-3.374,0 -6.392,-0.567 -9.055,-1.702c-2.664,-1.135 -4.917,-2.758 -6.762,-4.871c-1.844,-2.111 -3.247,-4.649 -4.208,-7.613c-0.962,-2.963 -1.442,-6.289 -1.442,-9.977c0,-3.689 0.48,-7.023 1.442,-10.002c0.961,-2.979 2.364,-5.524 4.208,-7.637c1.844,-2.111 4.098,-3.743 6.762,-4.895c2.663,-1.151 5.681,-1.726 9.055,-1.726zm0,44.876c2.806,0 5.256,-0.48 7.353,-1.443c2.096,-0.961 3.846,-2.34 5.249,-4.137c1.402,-1.797 2.451,-3.965 3.145,-6.503c0.693,-2.537 1.041,-5.383 1.041,-8.535c0,-3.121 -0.347,-5.958 -1.041,-8.512s-1.742,-4.735 -3.145,-6.549c-1.403,-1.812 -3.152,-3.208 -5.249,-4.185c-2.097,-0.977 -4.547,-1.467 -7.353,-1.467c-2.806,0 -5.257,0.49 -7.353,1.467c-2.097,0.977 -3.847,2.372 -5.249,4.185c-1.403,1.813 -2.459,3.995 -3.168,6.55c-0.709,2.553 -1.064,5.391 -1.064,8.512c0,3.152 0.354,5.998 1.064,8.535c0.709,2.537 1.765,4.705 3.168,6.502c1.402,1.797 3.152,3.176 5.249,4.137c2.096,0.962 4.546,1.443 7.353,1.443z" fill="#4C4C4E"/>
    <path id="svg_24" d="m118.875007,159.397l0,68.803l-4.539,0l0,-68.803l4.539,0z" fill="#4C4C4E"/>
    <path id="svg_25" d="m142.612007,181.148l0,30.075c0,4.414 1.009,7.874 3.026,10.38c2.017,2.506 5.091,3.759 9.221,3.759c3.058,0 5.911,-0.78 8.559,-2.341c2.648,-1.561 5.027,-3.727 7.14,-6.502l0,-35.371l4.539,0l0,47.051l-2.506,0c-0.789,0 -1.246,-0.408 -1.372,-1.229l-0.425,-6.999c-2.175,2.712 -4.689,4.887 -7.542,6.526c-2.854,1.639 -6.029,2.459 -9.528,2.459c-2.617,0 -4.902,-0.41 -6.856,-1.23c-1.955,-0.819 -3.578,-2.002 -4.871,-3.547c-1.292,-1.543 -2.27,-3.404 -2.932,-5.578c-0.662,-2.176 -0.993,-4.635 -0.993,-7.377l0,-30.075l4.54,-0.001z" fill="#4C4C4E"/>
    <path id="svg_26" d="m233.401007,182.614l0,45.585l-4.54,0l0,-42.228l-27.237,0l0,31.919c0,1.293 0.166,2.404 0.497,3.334s0.788,1.695 1.372,2.293c0.583,0.6 1.269,1.041 2.057,1.324c0.788,0.283 1.639,0.426 2.554,0.426c1.135,0 2.111,-0.166 2.932,-0.496c0.819,-0.332 1.529,-0.693 2.128,-1.088c0.598,-0.395 1.087,-0.757 1.466,-1.088s0.677,-0.496 0.898,-0.496c0.252,0 0.504,0.158 0.756,0.473l1.229,1.986c-1.198,1.324 -2.719,2.388 -4.563,3.191s-3.759,1.206 -5.745,1.206c-3.185,0 -5.667,-0.882 -7.448,-2.648c-1.781,-1.765 -2.671,-4.492 -2.671,-8.181l0,-32.155l-6.762,0c-0.347,0 -0.631,-0.095 -0.851,-0.284c-0.221,-0.188 -0.331,-0.456 -0.331,-0.803l0,-1.75l8.039,-0.567l1.135,-16.835c0.062,-0.283 0.189,-0.535 0.378,-0.756c0.189,-0.221 0.457,-0.331 0.804,-0.331l2.127,0l0,17.969l31.776,0zm2.081,-18.253c0,0.568 -0.118,1.096 -0.355,1.584c-0.236,0.49 -0.552,0.922 -0.945,1.301c-0.395,0.379 -0.844,0.678 -1.348,0.898c-0.505,0.221 -1.041,0.331 -1.608,0.331s-1.104,-0.11 -1.608,-0.331c-0.504,-0.221 -0.945,-0.52 -1.324,-0.898s-0.678,-0.811 -0.898,-1.301c-0.221,-0.488 -0.331,-1.016 -0.331,-1.584c0,-0.567 0.11,-1.111 0.331,-1.631c0.22,-0.521 0.52,-0.97 0.898,-1.348c0.378,-0.379 0.819,-0.678 1.324,-0.898c0.504,-0.221 1.041,-0.332 1.608,-0.332s1.103,0.111 1.608,0.332c0.504,0.221 0.953,0.52 1.348,0.898c0.394,0.378 0.709,0.827 0.945,1.348c0.236,0.52 0.355,1.064 0.355,1.631z" fill="#4C4C4E"/>
    <path id="svg_27" d="m271.843007,180.392c3.373,0 6.391,0.575 9.055,1.726c2.664,1.151 4.91,2.783 6.738,4.895s3.223,4.657 4.186,7.637c0.961,2.979 1.441,6.312 1.441,10.001s-0.48,7.015 -1.441,9.978c-0.963,2.963 -2.357,5.502 -4.186,7.613c-1.828,2.113 -4.074,3.736 -6.738,4.871s-5.682,1.702 -9.055,1.702c-3.374,0 -6.393,-0.567 -9.056,-1.702c-2.664,-1.135 -4.917,-2.758 -6.762,-4.871c-1.845,-2.111 -3.247,-4.649 -4.208,-7.613c-0.962,-2.963 -1.442,-6.289 -1.442,-9.977c0,-3.689 0.48,-7.023 1.442,-10.002c0.961,-2.979 2.364,-5.524 4.208,-7.637c1.845,-2.111 4.098,-3.743 6.762,-4.895c2.664,-1.151 5.682,-1.726 9.056,-1.726zm0,44.876c2.805,0 5.256,-0.48 7.353,-1.443c2.097,-0.961 3.846,-2.34 5.249,-4.137c1.402,-1.797 2.451,-3.965 3.145,-6.503c0.693,-2.537 1.04,-5.383 1.04,-8.535c0,-3.121 -0.347,-5.958 -1.04,-8.512s-1.742,-4.735 -3.145,-6.549c-1.403,-1.812 -3.152,-3.208 -5.249,-4.185s-4.548,-1.467 -7.353,-1.467c-2.807,0 -5.258,0.49 -7.354,1.467c-2.097,0.977 -3.846,2.372 -5.248,4.185c-1.403,1.813 -2.459,3.995 -3.168,6.55c-0.71,2.553 -1.064,5.391 -1.064,8.512c0,3.152 0.354,5.998 1.064,8.535c0.709,2.537 1.765,4.705 3.168,6.502c1.402,1.797 3.151,3.176 5.248,4.137c2.097,0.962 4.548,1.443 7.354,1.443z" fill="#4C4C4E"/>
    <path id="svg_28" d="m309.765007,228.198l0,-47.051l2.507,0c0.788,0 1.245,0.395 1.371,1.183l0.425,7.093c2.176,-2.743 4.682,-4.934 7.52,-6.573c2.837,-1.639 6.021,-2.459 9.551,-2.459c2.585,0 4.863,0.41 6.834,1.229c1.969,0.819 3.601,2.002 4.894,3.546c1.292,1.545 2.27,3.405 2.932,5.58c0.662,2.176 0.993,4.635 0.993,7.377l0,30.074l-4.539,0l0,-30.074c0,-4.413 -1.01,-7.873 -3.027,-10.379c-2.018,-2.507 -5.091,-3.76 -9.221,-3.76c-3.09,0 -5.957,0.781 -8.605,2.342c-2.648,1.56 -5.012,3.728 -7.093,6.502l0,35.37l-4.542,0z" fill="#4C4C4E"/>
    <path id="svg_29" d="m391.427007,186.963c-0.253,0.441 -0.615,0.662 -1.088,0.662c-0.348,0 -0.789,-0.197 -1.324,-0.592c-0.536,-0.393 -1.253,-0.834 -2.151,-1.323s-2.01,-0.93 -3.333,-1.323c-1.324,-0.395 -2.933,-0.592 -4.824,-0.592c-1.702,0 -3.255,0.244 -4.657,0.733c-1.403,0.489 -2.601,1.143 -3.594,1.962c-0.993,0.82 -1.758,1.773 -2.294,2.861c-0.535,1.088 -0.803,2.23 -0.803,3.428c0,1.482 0.378,2.712 1.135,3.689c0.756,0.977 1.741,1.812 2.955,2.506c1.213,0.693 2.607,1.293 4.185,1.797c1.576,0.504 3.176,1.009 4.8,1.513c1.623,0.505 3.223,1.063 4.799,1.679c1.576,0.614 2.971,1.379 4.186,2.293c1.213,0.915 2.198,2.033 2.955,3.357c0.756,1.324 1.135,2.932 1.135,4.823c0,2.05 -0.363,3.957 -1.088,5.722c-0.725,1.766 -1.789,3.295 -3.191,4.587c-1.403,1.293 -3.129,2.317 -5.178,3.073c-2.05,0.758 -4.397,1.137 -7.046,1.137c-3.31,0 -6.163,-0.529 -8.559,-1.585s-4.539,-2.435 -6.431,-4.138l1.04,-1.607c0.157,-0.252 0.339,-0.441 0.544,-0.567s0.48,-0.189 0.828,-0.189c0.408,0 0.905,0.253 1.488,0.757c0.584,0.504 1.363,1.049 2.342,1.631c0.977,0.584 2.182,1.128 3.617,1.632c1.434,0.505 3.207,0.757 5.319,0.757c1.985,0 3.735,-0.275 5.249,-0.828c1.513,-0.551 2.773,-1.301 3.783,-2.246c1.008,-0.945 1.772,-2.057 2.293,-3.334c0.52,-1.277 0.779,-2.625 0.779,-4.043c0,-1.576 -0.378,-2.885 -1.135,-3.925c-0.756,-1.04 -1.749,-1.923 -2.979,-2.647c-1.229,-0.726 -2.625,-1.34 -4.185,-1.844c-1.561,-0.504 -3.161,-1.01 -4.8,-1.514s-3.238,-1.057 -4.799,-1.655s-2.956,-1.354 -4.186,-2.27c-1.229,-0.914 -2.223,-2.025 -2.979,-3.334c-0.757,-1.308 -1.135,-2.938 -1.135,-4.894c0,-1.672 0.361,-3.279 1.088,-4.824c0.725,-1.544 1.756,-2.9 3.097,-4.066c1.339,-1.166 2.971,-2.096 4.894,-2.79c1.923,-0.692 4.082,-1.04 6.479,-1.04c2.868,0 5.414,0.41 7.637,1.229c2.223,0.82 4.248,2.081 6.076,3.783l-0.944,1.559z" fill="#4C4C4E"/>
    <path id="svg_30" d="m481.221007,161.285l0,4.02l-35.228,0l0,28.137l30.499,0l0,4.019l-30.499,0l0,30.737l-4.871,0l0,-66.912l40.099,0l0,-0.001z" fill="#4C4C4E"/>
    <path id="svg_31" d="m510.823007,180.389c3.373,0 6.392,0.576 9.056,1.727c2.663,1.15 4.909,2.782 6.738,4.895c1.828,2.111 3.223,4.657 4.185,7.636c0.961,2.979 1.442,6.313 1.442,10.001c0,3.689 -0.481,7.016 -1.442,9.979c-0.962,2.963 -2.356,5.502 -4.185,7.613c-1.829,2.112 -4.075,3.735 -6.738,4.871c-2.664,1.135 -5.683,1.701 -9.056,1.701c-3.374,0 -6.392,-0.566 -9.056,-1.701c-2.664,-1.136 -4.917,-2.759 -6.762,-4.871c-1.844,-2.111 -3.246,-4.65 -4.208,-7.613s-1.442,-6.289 -1.442,-9.978s0.48,-7.022 1.442,-10.001c0.962,-2.979 2.364,-5.525 4.208,-7.637c1.845,-2.112 4.098,-3.744 6.762,-4.895s5.682,-1.727 9.056,-1.727zm0,44.876c2.806,0 5.257,-0.48 7.353,-1.442c2.097,-0.961 3.846,-2.341 5.249,-4.138c1.402,-1.797 2.451,-3.964 3.145,-6.502c0.693,-2.537 1.04,-5.383 1.04,-8.535c0,-3.121 -0.347,-5.958 -1.04,-8.512s-1.742,-4.736 -3.145,-6.55c-1.403,-1.812 -3.152,-3.207 -5.249,-4.185c-2.096,-0.977 -4.547,-1.466 -7.353,-1.466s-5.257,0.489 -7.353,1.466c-2.098,0.978 -3.847,2.372 -5.249,4.185c-1.403,1.813 -2.459,3.996 -3.168,6.55c-0.71,2.554 -1.063,5.391 -1.063,8.512c0,3.152 0.354,5.998 1.063,8.535c0.709,2.538 1.765,4.705 3.168,6.502c1.402,1.797 3.151,3.177 5.249,4.138c2.096,0.961 4.547,1.442 7.353,1.442z" fill="#4C4C4E"/>
    <path id="svg_32" d="m548.746007,228.195l0,-47.051l2.412,0c0.535,0 0.914,0.111 1.135,0.332c0.22,0.221 0.361,0.599 0.426,1.135l0.33,9.883c0.725,-1.923 1.553,-3.633 2.482,-5.131c0.93,-1.497 2.002,-2.766 3.216,-3.807c1.213,-1.04 2.569,-1.836 4.066,-2.388s3.16,-0.827 4.989,-0.827c0.977,0 1.938,0.086 2.884,0.26s1.78,0.48 2.507,0.922l-0.379,3.121c-0.158,0.504 -0.457,0.756 -0.898,0.756c-0.379,0 -0.953,-0.109 -1.727,-0.33c-0.771,-0.221 -1.789,-0.332 -3.049,-0.332c-1.829,0 -3.452,0.284 -4.871,0.852c-1.418,0.568 -2.68,1.395 -3.783,2.482s-2.072,2.443 -2.908,4.066c-0.835,1.625 -1.6,3.492 -2.293,5.604l0,30.453l-4.539,0z" fill="#4C4C4E"/>
    <path id="svg_33" d="m589.978007,181.145l0,30.074c0,4.414 1.008,7.874 3.025,10.38c2.018,2.507 5.092,3.759 9.221,3.759c3.059,0 5.911,-0.779 8.56,-2.34c2.647,-1.561 5.027,-3.728 7.14,-6.502l0,-35.371l4.539,0l0,47.051l-2.506,0c-0.788,0 -1.245,-0.409 -1.371,-1.229l-0.426,-6.999c-2.175,2.713 -4.689,4.887 -7.541,6.526c-2.854,1.64 -6.029,2.459 -9.529,2.459c-2.616,0 -4.902,-0.41 -6.855,-1.229c-1.955,-0.82 -3.578,-2.002 -4.871,-3.547c-1.293,-1.544 -2.27,-3.404 -2.932,-5.58c-0.662,-2.175 -0.992,-4.634 -0.992,-7.377l0,-30.074l4.538,0l0,-0.001z" fill="#4C4C4E"/>
    <path id="svg_34" d="m641.709007,228.195l0,-47.051l2.506,0c0.787,0 1.244,0.395 1.371,1.182l0.426,6.81c1.828,-2.616 3.924,-4.729 6.289,-6.337c2.363,-1.607 5.027,-2.411 7.99,-2.411c3.437,0 6.188,0.993 8.252,2.979c2.064,1.985 3.459,4.744 4.186,8.275c0.566,-1.924 1.362,-3.595 2.387,-5.014c1.024,-1.418 2.199,-2.593 3.523,-3.523c1.324,-0.929 2.766,-1.615 4.326,-2.057s3.16,-0.662 4.8,-0.662c2.333,0 4.429,0.387 6.289,1.158c1.86,0.773 3.436,1.916 4.729,3.43c1.292,1.513 2.285,3.373 2.979,5.579c0.692,2.207 1.04,4.729 1.04,7.565l0,30.075l-4.492,0l0,-30.075c0,-4.602 -0.993,-8.109 -2.979,-10.521c-1.986,-2.411 -4.822,-3.617 -8.512,-3.617c-1.639,0 -3.207,0.301 -4.704,0.898c-1.497,0.6 -2.821,1.49 -3.972,2.672c-1.151,1.183 -2.065,2.656 -2.743,4.422c-0.679,1.766 -1.017,3.814 -1.017,6.147l0,30.075l-4.539,0l0,-30.074c0,-4.57 -0.906,-8.069 -2.719,-10.497c-1.813,-2.428 -4.469,-3.642 -7.969,-3.642c-2.553,0 -4.917,0.757 -7.092,2.27c-2.176,1.513 -4.114,3.61 -5.816,6.29l0,35.654l-4.539,0z" fill="#4C4C4E"/>
   </g>
  </g>
 </g>
</svg>