<?xml version="1.0" encoding="UTF-8" standalone="no"?>
<svg
   xmlns:dc="http://purl.org/dc/elements/1.1/"
   xmlns:cc="http://creativecommons.org/ns#"
   xmlns:rdf="http://www.w3.org/1999/02/22-rdf-syntax-ns#"
   xmlns:svg="http://www.w3.org/2000/svg"
   xmlns="http://www.w3.org/2000/svg"
   xmlns:sodipodi="http://sodipodi.sourceforge.net/DTD/sodipodi-0.dtd"
   xmlns:inkscape="http://www.inkscape.org/namespaces/inkscape"
   version="1.1"
   id="Layer_1"
   x="0px"
   y="0px"
   width="133"
   height="133"
   viewBox="0 0 133 133"
   enable-background="new 0 0 988 270"
   xml:space="preserve"
   inkscape:version="0.91 r"
   sodipodi:docname="16 LDSF Logo - no text.svg"><sodipodi:namedview
     pagecolor="#ffffff"
     bordercolor="#666666"
     borderopacity="1"
     objecttolerance="10"
     gridtolerance="10"
     guidetolerance="10"
     inkscape:pageopacity="0"
     inkscape:pageshadow="2"
     inkscape:window-width="1694"
     inkscape:window-height="1124"
     id="namedview12"
     showgrid="false"
     inkscape:zoom="1.475"
     inkscape:cx="-29.282219"
     inkscape:cy="80"
     inkscape:window-x="0"
     inkscape:window-y="0"
     inkscape:window-maximized="0"
     inkscape:current-layer="Layer_1" /><metadata
     id="metadata75"><rdf:RDF><cc:Work
         rdf:about=""><dc:format>image/svg+xml</dc:format><dc:type
           rdf:resource="http://purl.org/dc/dcmitype/StillImage" /><dc:title></dc:title></cc:Work></rdf:RDF></metadata><defs
     id="defs73" /><g
     id="g3"
     transform="matrix(0.53933569,0,0,0.53933569,14.24828,-5.449772)"><g
       id="g5"><g
         id="g7"><g
           id="g9"><path
             d="M 158.057,40.494 C 142.034,24.481 120.746,15.664 98.1,15.667 c -46.75,0 -84.781,38.033 -84.781,84.789 0,23.336 9.266,45.063 26.113,61.208 0.047,0.067 0.107,0.13 0.174,0.193 0.179,0.203 13.205,14.287 20.674,33.695 0.053,0.13 0.113,0.256 0.155,0.383 2.945,7.726 4.983,16.288 4.983,25.134 0,0.186 0.021,0.366 0.063,0.556 0.275,5.097 4.784,9.553 11.806,12.513 1.072,10.577 10.031,18.858 20.886,18.858 10.88,0 19.842,-8.316 20.886,-18.93 6.912,-2.942 11.347,-7.357 11.658,-12.41 0.042,-0.184 0.069,-0.386 0.069,-0.587 0,-27.938 20.406,-53.01 24.925,-58.216 0.294,-0.255 0.579,-0.505 0.867,-0.771 0.237,-0.229 0.421,-0.492 0.543,-0.773 16.615,-16.108 25.765,-37.675 25.765,-60.853 0.001,-22.658 -8.811,-43.943 -24.829,-59.962 z M 98.174,185.372 c 15.438,0 30.328,-4.151 43.314,-11.884 -7.374,11.504 -15.628,28.495 -15.759,47.117 -0.036,0.165 -0.048,0.338 -0.048,0.514 0,2.592 -2.512,5.32 -6.81,7.499 -0.755,0.371 -1.543,0.735 -2.399,1.075 -0.769,0.309 -1.583,0.605 -2.438,0.875 -4.383,1.396 -9.805,2.271 -15.935,2.271 -6.056,0 -11.431,-0.858 -15.791,-2.228 -0.86,-0.269 -1.667,-0.562 -2.449,-0.863 -0.851,-0.34 -1.643,-0.7 -2.392,-1.082 -4.384,-2.178 -6.942,-4.955 -6.942,-7.597 0,-0.167 -0.011,-0.333 -0.047,-0.494 -0.055,-6.055 -0.958,-11.947 -2.42,-17.531 7.276,4.293 18.116,6.887 30.042,6.887 1.395,0 2.535,-1.124 2.535,-2.525 0,-1.396 -1.141,-2.527 -2.535,-2.527 -14.937,0 -28.669,-4.616 -32.987,-11.021 -7.198,-18.862 -19.308,-32.695 -21.51,-35.111 -0.11,-0.165 -0.232,-0.317 -0.37,-0.449 -16.028,-15.215 -24.857,-35.752 -24.857,-57.841 0,-43.966 35.771,-79.732 79.725,-79.732 21.298,0 41.32,8.291 56.376,23.351 15.054,15.055 23.357,35.078 23.357,56.382 0,22.089 -8.828,42.626 -24.852,57.841 -0.137,0.132 -0.258,0.266 -0.363,0.414 -0.143,0.16 -0.344,0.386 -0.576,0.653 -14.752,13.506 -33.812,20.95 -53.87,20.95 -1.398,0 -2.534,1.14 -2.534,2.529 0.001,1.399 1.137,2.527 2.535,2.527 z m 0,62.567 c -7.402,0 -13.625,-5.086 -15.407,-11.947 4.552,1.219 9.753,1.903 15.333,1.903 5.645,0 10.908,-0.701 15.49,-1.938 -1.761,6.875 -7.992,11.982 -15.416,11.982 z"
             id="path11"
             style="fill:#4c4c4e"
             inkscape:connector-curvature="0" /><path
             d="m 98.174,155.754 c 1.389,0 2.525,-1.127 2.525,-2.529 l 0,-43.709 c 0,-0.666 -0.266,-1.306 -0.74,-1.781 -0.475,-0.479 -1.115,-0.742 -1.785,-0.742 l -0.011,0 -35.172,0.018 35.109,-35.12 39.371,39.368 c 0.981,0.984 2.586,0.984 3.57,0 0.982,-0.993 0.982,-2.593 0,-3.582 L 99.891,66.525 c -0.946,-0.947 -2.625,-0.947 -3.574,0 l -41.225,41.23 c -0.723,0.715 -0.941,1.809 -0.549,2.752 0.395,0.948 1.314,1.56 2.344,1.56 l 0,0 38.752,-0.014 0,41.172 c 0.001,1.402 1.137,2.529 2.535,2.529 z"
             id="path13"
             style="fill:#4c4c4e"
             inkscape:connector-curvature="0" /></g></g></g><g
       id="g15" /></g></svg>