<?xml version="1.0" encoding="utf-8"?>
<!-- Generator: Adobe Illustrator 16.0.4, SVG Export Plug-In . SVG Version: 6.00 Build 0)  -->
<!DOCTYPE svg PUBLIC "-//W3C//DTD SVG 1.1//EN" "http://www.w3.org/Graphics/SVG/1.1/DTD/svg11.dtd">
<svg version="1.1" id="Layer_1" xmlns="http://www.w3.org/2000/svg" xmlns:xlink="http://www.w3.org/1999/xlink" x="0px" y="0px"
	 width="360.967px" height="363.22px" viewBox="0 0 360.967 363.22" enable-background="new 0 0 360.967 363.22"
	 xml:space="preserve">
<g>
	<g>
		<path fill="#FFFFFF" d="M20.935,302.154c-0.139-3.014-0.311-6.65-0.276-9.802h-0.104c-0.762,2.84-1.731,5.992-2.771,8.936
			L14.39,311.4h-3.291l-3.117-9.974c-0.9-2.979-1.731-6.165-2.355-9.074H5.558c-0.104,3.048-0.243,6.754-0.416,9.94l-0.52,9.385
			H0.639l1.56-23.343h5.609l3.049,9.386c0.831,2.736,1.559,5.506,2.147,8.106h0.103c0.625-2.529,1.422-5.404,2.321-8.14l3.221-9.352
			h5.542l1.351,23.343h-4.156L20.935,302.154z"/>
		<path fill="#FFFFFF" d="M67.897,299.765c0,7.827-4.744,12.294-11.186,12.294c-6.582,0-10.738-5.021-10.738-11.879
			c0-7.169,4.503-12.226,11.084-12.226C63.88,287.954,67.897,293.114,67.897,299.765z M50.477,300.11
			c0,4.746,2.39,8.521,6.477,8.521c4.122,0,6.442-3.81,6.442-8.693c0-4.398-2.182-8.555-6.442-8.555
			C52.729,291.383,50.477,295.297,50.477,300.11z"/>
		<path fill="#FFFFFF" d="M88.886,288.646c1.87-0.312,4.261-0.485,6.789-0.485c4.363,0,7.377,0.901,9.523,2.702
			c2.252,1.836,3.637,4.606,3.637,8.59c0,4.157-1.42,7.272-3.637,9.281c-2.32,2.113-6.026,3.188-10.563,3.188
			c-2.493,0-4.363-0.139-5.749-0.312V288.646z M93.146,308.422c0.588,0.104,1.488,0.104,2.354,0.104
			c5.541,0.035,8.832-3.011,8.832-8.934c0.034-5.161-2.944-8.105-8.278-8.105c-1.351,0-2.32,0.104-2.908,0.243V308.422z"/>
		<path fill="#FFFFFF" d="M134.083,288.335v13.611c0,4.572,1.905,6.685,4.78,6.685c3.082,0,4.917-2.113,4.917-6.685v-13.611h4.261
			v13.335c0,7.203-3.706,10.389-9.316,10.389c-5.403,0-8.901-3.012-8.901-10.354v-13.369H134.083z"/>
		<path fill="#FFFFFF" d="M170.239,288.335h4.261v19.776h9.594v3.566h-13.854V288.335z"/>
		<path fill="#FFFFFF" d="M209.446,305.063l-2.01,6.615h-4.398l7.481-23.343h5.437l7.586,23.343h-4.572l-2.112-6.615H209.446z
			 M216.131,301.843l-1.837-5.75c-0.449-1.42-0.831-3.013-1.177-4.363h-0.069c-0.347,1.351-0.693,2.979-1.107,4.363l-1.803,5.75
			H216.131z"/>
		<path fill="#FFFFFF" d="M244.113,288.646c1.593-0.276,3.982-0.485,6.441-0.485c3.359,0,5.646,0.555,7.204,1.871
			c1.282,1.073,2.01,2.701,2.01,4.676c0,3.013-2.044,5.057-4.227,5.854v0.104c1.663,0.623,2.668,2.251,3.257,4.501
			c0.727,2.91,1.351,5.611,1.835,6.511h-4.398c-0.346-0.691-0.9-2.598-1.559-5.505c-0.658-3.049-1.767-4.018-4.19-4.087h-2.147
			v9.593h-4.226V288.646z M248.339,298.968h2.527c2.875,0,4.676-1.524,4.676-3.845c0-2.562-1.801-3.74-4.571-3.74
			c-1.351,0-2.217,0.104-2.632,0.208V298.968z"/>
		<path fill="#FFFFFF" d="M285.396,288.335v23.343h-4.26v-23.343H285.396z"/>
		<path fill="#FFFFFF" d="M312.064,291.902h-6.649v-3.567h17.629v3.567h-6.719v19.775h-4.261V291.902z"/>
		<path fill="#FFFFFF" d="M348.948,311.678v-9.731l-7.377-13.611h4.849l2.806,5.992c0.797,1.731,1.385,3.048,2.008,4.641h0.07
			c0.588-1.489,1.246-2.944,2.043-4.641l2.806-5.992h4.814l-7.759,13.508v9.835H348.948z"/>
		<path fill="#FFFFFF" d="M17.957,362.146c-1.005,0.52-3.222,1.039-6.027,1.039c-7.412,0-11.914-4.641-11.914-11.742
			c0-7.688,5.333-12.33,12.469-12.33c2.805,0,4.814,0.59,5.68,1.039l-0.936,3.395c-1.108-0.484-2.632-0.9-4.571-0.9
			c-4.745,0-8.174,2.979-8.174,8.59c0,5.127,3.014,8.416,8.139,8.416c1.732,0,3.533-0.346,4.641-0.865L17.957,362.146z"/>
		<path fill="#FFFFFF" d="M59.066,350.924c0,7.828-4.745,12.295-11.187,12.295c-6.581,0-10.736-5.021-10.736-11.879
			c0-7.168,4.502-12.227,11.082-12.227C55.049,339.113,59.066,344.275,59.066,350.924z M41.646,351.271
			c0,4.744,2.391,8.52,6.477,8.52c4.121,0,6.442-3.811,6.442-8.693c0-4.398-2.183-8.555-6.442-8.555
			C43.897,342.543,41.646,346.457,41.646,351.271z"/>
		<path fill="#FFFFFF" d="M80.401,362.838v-23.344h4.85l6.025,10.01c1.559,2.598,2.909,5.299,3.983,7.828h0.068
			c-0.276-3.117-0.38-6.131-0.38-9.697v-8.141h3.947v23.344h-4.398l-6.096-10.25c-1.488-2.564-3.048-5.439-4.19-8.07l-0.104,0.033
			c0.173,3.014,0.208,6.096,0.208,9.941v8.346H80.401z"/>
		<path fill="#FFFFFF" d="M121.477,339.494h13.473v3.498h-9.213v6.443h8.589v3.498h-8.589v9.904h-4.26V339.494z"/>
		<path fill="#FFFFFF" d="M169.825,352.482h-8.797v6.857h9.835v3.498h-14.095v-23.344h13.576v3.498h-9.316v6.027h8.797V352.482z"/>
		<path fill="#FFFFFF" d="M192.268,339.807c1.593-0.277,3.982-0.484,6.441-0.484c3.359,0,5.646,0.555,7.204,1.869
			c1.282,1.074,2.01,2.703,2.01,4.676c0,3.014-2.044,5.057-4.227,5.854v0.104c1.662,0.625,2.668,2.252,3.256,4.504
			c0.728,2.908,1.352,5.609,1.836,6.51h-4.398c-0.347-0.691-0.9-2.596-1.559-5.506c-0.658-3.047-1.767-4.018-4.191-4.088h-2.147
			v9.594h-4.225V339.807z M196.492,350.129h2.528c2.875,0,4.676-1.525,4.676-3.846c0-2.562-1.801-3.74-4.572-3.74
			c-1.35,0-2.216,0.104-2.632,0.207V350.129z"/>
		<path fill="#FFFFFF" d="M242.694,352.482h-8.797v6.857h9.836v3.498h-14.096v-23.344h13.576v3.498h-9.316v6.027h8.797V352.482z"/>
		<path fill="#FFFFFF" d="M265.137,362.838v-23.344h4.849l6.026,10.01c1.56,2.598,2.909,5.299,3.983,7.828h0.069
			c-0.276-3.117-0.381-6.131-0.381-9.697v-8.141h3.948v23.344h-4.398l-6.096-10.25c-1.489-2.564-3.048-5.439-4.191-8.07
			l-0.104,0.033c0.174,3.014,0.208,6.096,0.208,9.941v8.346H265.137z"/>
		<path fill="#FFFFFF" d="M322.941,362.146c-1.005,0.52-3.222,1.039-6.027,1.039c-7.412,0-11.914-4.641-11.914-11.742
			c0-7.688,5.333-12.33,12.469-12.33c2.805,0,4.814,0.59,5.68,1.039l-0.936,3.395c-1.108-0.484-2.632-0.9-4.571-0.9
			c-4.745,0-8.174,2.979-8.174,8.59c0,5.127,3.014,8.416,8.139,8.416c1.732,0,3.533-0.346,4.641-0.865L322.941,362.146z"/>
		<path fill="#FFFFFF" d="M357.297,352.482h-8.798v6.857h9.838v3.498h-14.098v-23.344h13.577v3.498h-9.317v6.027h8.798V352.482z"/>
	</g>
	<g>
		<g>
			<path fill="#FFFFFF" d="M351.451,242.661H7.917V0h343.534V242.661z M19.866,230.713h319.637V11.949H19.866V230.713z"/>
		</g>
		<g>
			<path fill="#FFFFFF" d="M45.054,36.342h14.871l29.879,70.127l29.302-70.127h14.92V206.15h-15.774V76.828h-0.357l-21.81,51.664
				H82.93L61.116,76.828h-0.283v77.917H45.054V36.342z"/>
		</g>
		<g>
			<path fill="#FFFFFF" d="M150.161,91.021c0-12.521,0.354-20.899,1.07-25.143c0.762-4.242,1.93-7.662,3.506-10.276
				c2.521-4.952,6.567-9.362,12.141-13.23c5.475-3.921,12.311-5.932,20.502-6.029c8.288,0.098,15.191,2.113,20.717,6.053
				c5.475,3.887,9.428,8.316,11.859,13.282c1.761,2.604,2.974,6.021,3.641,10.259c0.616,4.227,0.93,12.586,0.93,25.085
				c0,12.298-0.313,20.615-0.93,24.941c-0.667,4.325-1.88,7.794-3.645,10.402c-2.428,4.971-6.381,9.345-11.855,13.134
				c-5.525,3.939-12.433,6.002-20.717,6.198c-8.195-0.196-15.027-2.259-20.502-6.198c-5.573-3.789-9.619-8.163-12.145-13.134
				c-0.766-1.625-1.451-3.174-2.072-4.648c-0.568-1.526-1.046-3.444-1.43-5.754C150.515,111.636,150.161,103.318,150.161,91.021z
				 M165.939,91.021c0,10.594,0.38,17.772,1.144,21.516c0.668,3.747,2.024,6.782,4.079,9.096c1.672,2.217,3.869,4.019,6.583,5.396
				c2.677,1.633,5.873,2.44,9.596,2.44c3.772,0,7.045-0.808,9.812-2.44c2.622-1.377,4.719-3.179,6.293-5.396
				c2.056-2.313,3.466-5.349,4.23-9.096c0.709-3.743,1.072-10.922,1.072-21.516c0-10.599-0.363-17.823-1.072-21.665
				c-0.765-3.649-2.175-6.633-4.23-8.951c-1.574-2.217-3.671-4.065-6.293-5.545c-2.768-1.427-6.04-2.193-9.812-2.286
				c-3.723,0.093-6.919,0.859-9.596,2.286c-2.714,1.479-4.911,3.328-6.583,5.545c-2.055,2.318-3.411,5.302-4.079,8.951
				C166.319,73.197,165.939,80.422,165.939,91.021z"/>
		</g>
		<g>
			<path fill="#FFFFFF" d="M240.655,36.342h36.463c14.108,0.098,24.688,6.151,31.746,18.154c2.52,4.032,4.116,8.261,4.779,12.685
				c0.526,4.435,0.788,12.084,0.788,22.952c0,11.562-0.405,19.631-1.213,24.199c-0.382,2.315-0.958,4.388-1.718,6.203
				c-0.812,1.773-1.788,3.611-2.932,5.535c-3.053,5.068-7.29,9.245-12.727,12.546c-5.382,3.537-11.984,5.311-19.798,5.311h-35.39
				V36.342z M256.434,128.587h18.894c8.872,0,15.312-3.138,19.319-9.396c1.765-2.315,2.886-5.251,3.361-8.798
				c0.431-3.5,0.649-10.058,0.649-19.672c0-9.361-0.219-16.064-0.649-20.11c-0.569-4.042-1.936-7.318-4.073-9.834
				c-4.392-6.258-10.591-9.292-18.607-9.091h-18.894V128.587z"/>
		</g>
		<path fill="#FFFFFF" d="M179.967,193.424c-0.945,4.097-2.737,7.248-5.383,9.451c-2.722,2.179-5.947,3.271-9.669,3.271
			c-3.37-0.084-6.18-0.933-8.429-2.548c-2.293-1.559-3.956-3.36-4.993-5.399c-0.317-0.668-0.6-1.307-0.854-1.914
			c-0.236-0.626-0.43-1.414-0.588-2.365c-0.293-1.779-0.441-5.195-0.441-10.255c0-5.134,0.148-8.572,0.441-10.313
			c0.314-1.736,0.795-3.146,1.441-4.215c1.037-2.044,2.7-3.864,4.995-5.461c2.251-1.618,5.064-2.45,8.433-2.487
			c4.132,0.037,7.504,1.302,10.106,3.785c2.606,2.506,4.252,5.605,4.939,9.297h-6.887c-0.532-1.782-1.493-3.3-2.884-4.56
			c-1.455-1.194-3.219-1.811-5.299-1.853c-1.528,0.042-2.845,0.354-3.943,0.942c-1.12,0.607-2.023,1.368-2.709,2.282
			c-0.842,0.951-1.401,2.175-1.675,3.679c-0.315,1.581-0.472,4.55-0.472,8.903c0,4.359,0.156,7.31,0.472,8.85
			c0.273,1.54,0.833,2.786,1.678,3.737c0.685,0.91,1.59,1.653,2.709,2.218c1.097,0.672,2.413,1.003,3.942,1.003
			c3.653,0,6.381-2.017,8.188-6.048H179.967z"/>
		<path fill="#FFFFFF" d="M193.983,183.664c0-5.147,0.146-8.592,0.439-10.332c0.312-1.747,0.793-3.155,1.441-4.229
			c1.035-2.034,2.703-3.845,4.99-5.437c2.254-1.615,5.062-2.441,8.432-2.479c3.408,0.037,6.244,0.869,8.514,2.487
			c2.254,1.597,3.88,3.417,4.877,5.461c0.723,1.068,1.224,2.479,1.498,4.215c0.252,1.741,0.382,5.18,0.382,10.313
			c0,5.06-0.13,8.476-0.382,10.255c-0.274,1.782-0.775,3.206-1.498,4.279c-0.997,2.039-2.623,3.841-4.877,5.399
			c-2.27,1.615-5.109,2.464-8.516,2.548c-3.367-0.084-6.176-0.933-8.43-2.548c-2.293-1.559-3.955-3.36-4.99-5.399
			c-0.318-0.668-0.597-1.307-0.853-1.914c-0.234-0.626-0.431-1.414-0.589-2.365C194.129,192.14,193.983,188.724,193.983,183.664z
			 M200.471,183.664c0,4.359,0.155,7.31,0.466,8.85c0.275,1.54,0.837,2.786,1.68,3.737c0.687,0.91,1.588,1.653,2.708,2.218
			c1.102,0.672,2.414,1.003,3.944,1.003c1.549,0,2.893-0.331,4.032-1.003c1.077-0.564,1.941-1.308,2.589-2.218
			c0.846-0.951,1.425-2.197,1.736-3.737c0.296-1.54,0.446-4.49,0.446-8.85c0-4.354-0.15-7.322-0.446-8.903
			c-0.312-1.504-0.891-2.728-1.736-3.679c-0.647-0.914-1.512-1.675-2.589-2.282c-1.14-0.588-2.483-0.9-4.032-0.942
			c-1.53,0.042-2.843,0.354-3.944,0.942c-1.12,0.607-2.021,1.368-2.708,2.282c-0.843,0.951-1.404,2.175-1.68,3.679
			C200.626,176.342,200.471,179.311,200.471,183.664z"/>
		<path fill="#FFFFFF" d="M239.817,161.552h6.115l19.401,31.441h0.117v-31.441h6.485v44.23h-6.145l-19.371-31.442h-0.117v31.442
			h-6.486V161.552z"/>
		<path fill="#FFFFFF" d="M287.064,161.552h27.367v6.306h-20.88v13.082h17.822v5.941h-17.822v18.901h-6.487V161.552z"/>
	</g>
</g>
</svg>
