<?xml version="1.0" encoding="utf-8"?>
<!-- Generator: Adobe Illustrator 16.0.4, SVG Export Plug-In . SVG Version: 6.00 Build 0)  -->
<!DOCTYPE svg PUBLIC "-//W3C//DTD SVG 1.1//EN" "http://www.w3.org/Graphics/SVG/1.1/DTD/svg11.dtd">
<svg version="1.1" id="Layer_1" xmlns="http://www.w3.org/2000/svg" xmlns:xlink="http://www.w3.org/1999/xlink" x="0px" y="0px"
	 width="898.183px" height="450.319px" viewBox="0 0 898.183 450.319" enable-background="new 0 0 898.183 450.319"
	 xml:space="preserve">
<g>
	<path fill="#FFFFFF" d="M24.026,438.593c-0.164-3.566-0.369-7.871-0.328-11.604h-0.123c-0.901,3.363-2.05,7.094-3.279,10.578
		l-4.019,11.973h-3.895l-3.69-11.809c-1.065-3.525-2.05-7.297-2.788-10.742H5.822c-0.123,3.609-0.287,7.996-0.492,11.768
		l-0.614,11.111H0l1.846-27.635h6.642l3.608,11.111c0.983,3.238,1.845,6.52,2.542,9.594h0.123c0.738-2.992,1.681-6.396,2.747-9.635
		l3.812-11.07h6.561l1.599,27.635h-4.92L24.026,438.593z"/>
	<path fill="#FFFFFF" d="M79.622,435.765c0,9.266-5.617,14.555-13.243,14.555c-7.79,0-12.71-5.945-12.71-14.064
		c0-8.486,5.33-14.473,13.12-14.473C74.866,421.782,79.622,427.892,79.622,435.765z M58.999,436.173
		c0,5.617,2.829,10.088,7.667,10.088c4.879,0,7.626-4.512,7.626-10.291c0-5.207-2.583-10.129-7.626-10.129
		C61.664,425.841,58.999,430.476,58.999,436.173z"/>
	<path fill="#FFFFFF" d="M104.468,422.603c2.214-0.369,5.043-0.574,8.036-0.574c5.166,0,8.733,1.066,11.275,3.199
		c2.665,2.172,4.305,5.453,4.305,10.168c0,4.92-1.681,8.609-4.305,10.988c-2.747,2.5-7.134,3.771-12.505,3.771
		c-2.952,0-5.166-0.164-6.807-0.369V422.603z M109.511,446.015c0.697,0.123,1.764,0.123,2.788,0.123
		c6.561,0.041,10.455-3.568,10.455-10.578c0.041-6.109-3.484-9.596-9.799-9.596c-1.599,0-2.747,0.123-3.444,0.287V446.015z"/>
	<path fill="#FFFFFF" d="M157.973,422.233v16.113c0,5.412,2.255,7.914,5.658,7.914c3.649,0,5.822-2.502,5.822-7.914v-16.113h5.043
		v15.785c0,8.529-4.387,12.301-11.029,12.301c-6.396,0-10.537-3.568-10.537-12.26v-15.826H157.973z"/>
	<path fill="#FFFFFF" d="M200.776,422.233h5.043v23.412h11.357v4.223h-16.4V422.233z"/>
	<path fill="#FFFFFF" d="M247.188,442.036l-2.379,7.832h-5.207l8.856-27.635h6.438l8.979,27.635h-5.412l-2.501-7.832H247.188z
		 M255.102,438.224l-2.174-6.807c-0.532-1.68-0.983-3.566-1.394-5.166h-0.082c-0.41,1.6-0.82,3.527-1.312,5.166l-2.132,6.807
		H255.102z"/>
	<path fill="#FFFFFF" d="M288.229,422.603c1.886-0.328,4.715-0.574,7.626-0.574c3.978,0,6.684,0.656,8.528,2.215
		c1.517,1.271,2.378,3.197,2.378,5.535c0,3.566-2.419,5.986-5.002,6.928v0.123c1.968,0.738,3.157,2.666,3.854,5.33
		c0.86,3.445,1.599,6.643,2.173,7.709h-5.207c-0.41-0.82-1.066-3.076-1.846-6.52c-0.778-3.607-2.091-4.756-4.961-4.838h-2.542
		v11.357h-5.002V422.603z M293.23,434.821h2.993c3.403,0,5.535-1.805,5.535-4.551c0-3.035-2.132-4.43-5.412-4.43
		c-1.599,0-2.624,0.123-3.116,0.246V434.821z"/>
	<path fill="#FFFFFF" d="M337.1,422.233v27.635h-5.043v-27.635H337.1z"/>
	<path fill="#FFFFFF" d="M368.67,426.456h-7.872v-4.223h20.869v4.223h-7.954v23.412h-5.043V426.456z"/>
	<path fill="#FFFFFF" d="M412.334,449.868v-11.521l-8.732-16.113h5.739l3.321,7.094c0.943,2.049,1.641,3.607,2.378,5.494h0.082
		c0.697-1.764,1.477-3.486,2.419-5.494l3.321-7.094h5.699l-9.185,15.99v11.645H412.334z"/>
	<path fill="#FFFFFF" d="M498.926,449.048c-1.189,0.615-3.813,1.23-7.135,1.23c-8.773,0-14.104-5.494-14.104-13.9
		c0-9.102,6.313-14.596,14.76-14.596c3.321,0,5.699,0.697,6.725,1.23l-1.107,4.018c-1.312-0.574-3.116-1.066-5.412-1.066
		c-5.617,0-9.676,3.527-9.676,10.168c0,6.068,3.566,9.965,9.635,9.965c2.05,0,4.182-0.41,5.494-1.025L498.926,449.048z"/>
	<path fill="#FFFFFF" d="M547.183,435.765c0,9.266-5.617,14.555-13.243,14.555c-7.79,0-12.71-5.945-12.71-14.064
		c0-8.486,5.33-14.473,13.12-14.473C542.427,421.782,547.183,427.892,547.183,435.765z M526.56,436.173
		c0,5.617,2.829,10.088,7.667,10.088c4.879,0,7.626-4.512,7.626-10.291c0-5.207-2.583-10.129-7.626-10.129
		C529.225,425.841,526.56,430.476,526.56,436.173z"/>
	<path fill="#FFFFFF" d="M572.028,449.868v-27.635h5.74l7.134,11.85c1.846,3.074,3.444,6.273,4.716,9.266h0.082
		c-0.328-3.689-0.451-7.256-0.451-11.48v-9.635h4.674v27.635h-5.207l-7.216-12.137c-1.764-3.033-3.608-6.438-4.962-9.553
		l-0.123,0.041c0.205,3.566,0.246,7.217,0.246,11.768v9.881H572.028z"/>
	<path fill="#FFFFFF" d="M620.245,422.233h15.949v4.141h-10.906v7.627h10.168v4.141h-10.168v11.727h-5.043V422.233z"/>
	<path fill="#FFFFFF" d="M677.07,437.608h-10.414v8.119h11.645v4.141h-16.688v-27.635h16.072v4.141h-11.029v7.135h10.414V437.608z"
		/>
	<path fill="#FFFFFF" d="M703.229,422.603c1.886-0.328,4.715-0.574,7.626-0.574c3.977,0,6.683,0.656,8.528,2.215
		c1.517,1.271,2.378,3.197,2.378,5.535c0,3.566-2.419,5.986-5.002,6.928v0.123c1.968,0.738,3.157,2.666,3.854,5.33
		c0.861,3.445,1.6,6.643,2.173,7.709h-5.207c-0.409-0.82-1.065-3.076-1.845-6.52c-0.779-3.607-2.091-4.756-4.961-4.838h-2.542
		v11.357h-5.002V422.603z M708.23,434.821h2.993c3.403,0,5.535-1.805,5.535-4.551c0-3.035-2.132-4.43-5.412-4.43
		c-1.6,0-2.624,0.123-3.116,0.246V434.821z"/>
	<path fill="#FFFFFF" d="M762.514,437.608H752.1v8.119h11.645v4.141h-16.688v-27.635h16.072v4.141H752.1v7.135h10.414V437.608z"/>
	<path fill="#FFFFFF" d="M788.672,449.868v-27.635h5.74l7.134,11.85c1.845,3.074,3.444,6.273,4.715,9.266h0.082
		c-0.328-3.689-0.451-7.256-0.451-11.48v-9.635h4.675v27.635h-5.207l-7.217-12.137c-1.763-3.033-3.607-6.438-4.961-9.553
		l-0.123,0.041c0.205,3.566,0.246,7.217,0.246,11.768v9.881H788.672z"/>
	<path fill="#FFFFFF" d="M856.69,449.048c-1.188,0.615-3.812,1.23-7.134,1.23c-8.774,0-14.104-5.494-14.104-13.9
		c0-9.102,6.314-14.596,14.761-14.596c3.321,0,5.699,0.697,6.724,1.23l-1.106,4.018c-1.312-0.574-3.116-1.066-5.412-1.066
		c-5.617,0-9.677,3.527-9.677,10.168c0,6.068,3.567,9.965,9.636,9.965c2.05,0,4.182-0.41,5.494-1.025L856.69,449.048z"/>
	<path fill="#FFFFFF" d="M896.952,437.608h-10.414v8.119h11.645v4.141h-16.688v-27.635h16.072v4.141h-11.029v7.135h10.414V437.608z"
		/>
</g>
<g>
	<g>
		<path fill="#FFFFFF" d="M688.858,324.74H229.126V0h459.732V324.74z M245.115,308.75H672.87V15.989H245.115V308.75z"/>
	</g>
	<g>
		<path fill="#FFFFFF" d="M278.823,48.632h19.902l39.984,93.848l39.213-93.848h19.967v227.247H376.78V102.813h-0.48l-29.184,69.14
			h-17.605l-29.19-69.14h-0.381v104.272h-21.116V48.632z"/>
	</g>
	<g>
		<path fill="#FFFFFF" d="M419.481,121.807c0-16.757,0.475-27.969,1.436-33.646c1.018-5.677,2.58-10.255,4.691-13.753
			c3.373-6.627,8.787-12.529,16.245-17.707c7.326-5.247,16.476-7.938,27.437-8.069c11.093,0.131,20.33,2.829,27.726,8.101
			c7.326,5.203,12.616,11.13,15.87,17.775c2.355,3.485,3.979,8.057,4.872,13.728c0.824,5.658,1.243,16.845,1.243,33.571
			c0,16.457-0.419,27.587-1.243,33.376c-0.894,5.79-2.517,10.431-4.878,13.922c-3.248,6.652-8.538,12.504-15.864,17.576
			c-7.396,5.271-16.639,8.032-27.726,8.294c-10.967-0.262-20.11-3.023-27.437-8.294c-7.458-5.072-12.872-10.924-16.252-17.576
			c-1.024-2.174-1.942-4.247-2.772-6.22c-0.762-2.042-1.399-4.609-1.912-7.702C419.956,149.394,419.481,138.264,419.481,121.807z
			 M440.599,121.807c0,14.178,0.506,23.784,1.529,28.792c0.894,5.016,2.711,9.075,5.459,12.173c2.236,2.967,5.178,5.377,8.812,7.22
			c3.58,2.186,7.857,3.267,12.841,3.267c5.047,0,9.426-1.081,13.13-3.267c3.509-1.843,6.313-4.253,8.424-7.22
			c2.749-3.098,4.636-7.157,5.659-12.173c0.95-5.009,1.437-14.615,1.437-28.792c0-14.184-0.486-23.853-1.437-28.993
			c-1.023-4.884-2.91-8.875-5.659-11.979c-2.11-2.966-4.915-5.44-8.424-7.42c-3.704-1.911-8.083-2.936-13.13-3.061
			c-4.983,0.125-9.261,1.149-12.841,3.061c-3.635,1.98-6.576,4.454-8.812,7.42c-2.748,3.104-4.565,7.095-5.459,11.979
			C441.104,97.955,440.599,107.623,440.599,121.807z"/>
	</g>
	<g>
		<path fill="#FFFFFF" d="M540.585,48.632h48.799c18.88,0.131,33.039,8.232,42.482,24.296c3.373,5.396,5.509,11.055,6.396,16.976
			c0.705,5.934,1.056,16.17,1.056,30.716c0,15.471-0.544,26.27-1.625,32.384c-0.511,3.098-1.28,5.871-2.298,8.301
			c-1.087,2.374-2.393,4.834-3.923,7.408c-4.084,6.783-9.755,12.373-17.031,16.789c-7.201,4.734-16.04,7.107-26.495,7.107h-47.361
			V48.632z M561.702,172.079h25.283c11.873,0,20.492-4.197,25.856-12.572c2.361-3.098,3.86-7.027,4.497-11.773
			c0.575-4.685,0.869-13.459,0.869-26.326c0-12.529-0.294-21.498-0.869-26.913c-0.762-5.409-2.592-9.793-5.452-13.16
			c-5.877-8.375-14.172-12.436-24.901-12.167h-25.283V172.079z"/>
	</g>
	<path fill="#FFFFFF" d="M459.37,258.847c-1.263,5.483-3.661,9.7-7.203,12.647c-3.644,2.917-7.959,4.379-12.939,4.379
		c-4.51-0.113-8.271-1.25-11.28-3.41c-3.067-2.086-5.296-4.498-6.683-7.227c-0.422-0.893-0.801-1.749-1.141-2.561
		c-0.314-0.838-0.577-1.893-0.786-3.167c-0.394-2.38-0.591-6.952-0.591-13.722c0-6.871,0.197-11.473,0.591-13.803
		c0.419-2.324,1.062-4.21,1.927-5.641c1.389-2.735,3.615-5.171,6.686-7.307c3.014-2.167,6.777-3.279,11.286-3.329
		c5.53,0.05,10.04,1.743,13.524,5.065c3.489,3.354,5.69,7.501,6.609,12.442h-9.216c-0.713-2.387-1.999-4.416-3.86-6.103
		c-1.945-1.599-4.307-2.423-7.089-2.479c-2.048,0.056-3.81,0.475-5.278,1.262c-1.498,0.812-2.707,1.83-3.625,3.055
		c-1.127,1.273-1.877,2.91-2.244,4.921c-0.42,2.117-0.629,6.089-0.629,11.917c0,5.833,0.209,9.781,0.631,11.842
		c0.365,2.061,1.115,3.729,2.246,5.003c0.918,1.218,2.126,2.211,3.625,2.967c1.468,0.899,3.229,1.343,5.277,1.343
		c4.888,0,8.538-2.698,10.955-8.095H459.37z"/>
	<path fill="#FFFFFF" d="M478.128,245.788c0-6.889,0.194-11.498,0.588-13.828c0.418-2.336,1.062-4.223,1.93-5.658
		c1.387-2.724,3.616-5.147,6.677-7.276c3.017-2.161,6.776-3.267,11.286-3.317c4.56,0.05,8.356,1.162,11.392,3.329
		c3.017,2.136,5.19,4.572,6.527,7.307c0.968,1.431,1.636,3.316,2.005,5.641c0.337,2.33,0.512,6.932,0.512,13.803
		c0,6.77-0.175,11.342-0.512,13.722c-0.369,2.386-1.037,4.291-2.005,5.728c-1.337,2.729-3.511,5.141-6.527,7.227
		c-3.035,2.16-6.839,3.297-11.397,3.41c-4.504-0.113-8.264-1.25-11.28-3.41c-3.066-2.086-5.29-4.498-6.677-7.227
		c-0.425-0.893-0.799-1.749-1.143-2.561c-0.312-0.838-0.574-1.893-0.787-3.167C478.322,257.129,478.128,252.557,478.128,245.788z
		 M486.811,245.788c0,5.833,0.206,9.781,0.624,11.842c0.368,2.061,1.117,3.729,2.248,5.003c0.918,1.218,2.123,2.211,3.623,2.967
		c1.474,0.899,3.229,1.343,5.277,1.343c2.073,0,3.872-0.443,5.396-1.343c1.442-0.756,2.598-1.749,3.466-2.967
		c1.131-1.274,1.905-2.942,2.323-5.003c0.395-2.061,0.594-6.009,0.594-11.842c0-5.828-0.199-9.8-0.594-11.917
		c-0.418-2.011-1.192-3.647-2.323-4.921c-0.868-1.225-2.023-2.243-3.466-3.055c-1.524-0.787-3.323-1.206-5.396-1.262
		c-2.048,0.056-3.804,0.475-5.277,1.262c-1.5,0.812-2.705,1.83-3.623,3.055c-1.131,1.273-1.88,2.91-2.248,4.921
		C487.017,235.988,486.811,239.959,486.811,245.788z"/>
	<path fill="#FFFFFF" d="M539.465,216.195h8.185l25.963,42.078h0.156v-42.078h8.682v59.19h-8.223l-25.926-42.076h-0.156v42.076
		h-8.681V216.195z"/>
	<path fill="#FFFFFF" d="M602.693,216.195h36.625v8.438h-27.943v17.506h23.852v7.951h-23.852v25.295h-8.682V216.195z"/>
</g>
</svg>
