<svg xmlns="http://www.w3.org/2000/svg" viewBox="0 0 180 90" width="180" height="90"><path fill="#909295" d="M170.6 58.4H9.4v-1.3h161.2M48.3 87.9c-1.3 1.5-3.1 2.1-5 2.1s-3.7-.6-5.1-1.9c-1.8-1.9-1.8-3.8-1.8-8 0-4 0-5.9 1.8-7.8 1.4-1.3 3.1-1.9 5.1-1.9 3.7 0 6.2 2.3 6.8 5.7H48c-.6-2.3-2.3-4-4.7-4-1.4 0-2.5.6-3.3 1.5-1.2 1.3-1.4 2.5-1.4 6.5 0 4.2.2 5.4 1.4 6.7.8.8 1.9 1.5 3.3 1.5s2.7-.6 3.7-1.7c.8-1 1-2.1 1-3.6v-1.5h-4.7v-1.9h6.8v3.1c0 2.5-.4 3.9-1.8 5.2zM71.9 90l-4.3-8.6h-4.7V90h-2.1V70.5h7.4c3.5 0 5.8 2.1 5.8 5.4 0 2.9-1.8 4.6-4.3 5.2l4.7 8.8-2.5.1zM68 72.4h-5.1v7.1H68c2.3 0 3.9-1.3 3.9-3.6 0-2.2-1.6-3.5-3.9-3.5zM95.6 88.1c-1.4 1.3-3.1 1.9-4.9 1.9-2.1 0-3.7-.6-5.1-1.9-1.8-1.9-1.8-3.8-1.8-8 0-4 0-5.9 1.8-7.8 1.4-1.3 2.9-1.9 5.1-1.9 1.8 0 3.5.6 4.9 1.9 1.8 1.9 1.8 3.8 1.8 7.8 0 4.2 0 6.1-1.8 8zm-1.5-14.4c-1-.8-2.1-1.5-3.3-1.5-1.4 0-2.5.6-3.5 1.5-1.2 1.3-1.4 2.5-1.4 6.5 0 4.2.2 5.4 1.4 6.7 1 .8 2.1 1.5 3.5 1.5 1.2 0 2.3-.6 3.3-1.5 1.2-1.3 1.4-2.5 1.4-6.7 0-4-.2-5.3-1.4-6.5zM114.7 90c-3.9 0-6.8-2.5-6.8-6.5v-13h2.1v12.8c0 2.9 2 5 4.7 5 2.9 0 4.7-2.1 4.7-5V70.5h2.1v13c.1 4-2.9 6.5-6.8 6.5zM140.1 82h-5.3v8h-1.9V70.5h7.2c3.5 0 6 2.3 6 5.7 0 3.5-2.5 5.8-6 5.8zm-.2-9.6h-5.1v7.8h5.1c2.3 0 4.1-1.3 4.1-4-.1-2.5-1.8-3.8-4.1-3.8zM175 9.6c-1.7 0-3-1.4-3-3 0-1.7 1.4-3 3-3 1.7 0 3 1.4 3 3 0 1.7-1.3 3-3 3zm0-5.6c-1.4 0-2.6 1.2-2.6 2.6s1.1 2.6 2.6 2.6c1.4 0 2.6-1.2 2.6-2.6-.1-1.4-1.2-2.6-2.6-2.6z"/><path fill="#909295" d="M175.7 8.3l-.7-1.4h-.5v1.4h-.5V4.9h1.1c.6 0 1.1.4 1.1 1 0 .5-.3.8-.7.9l.8 1.4h-.6v.1zm-.6-3h-.6v1.2h.6c.4 0 .6-.3.6-.6s-.3-.6-.6-.6zM71.8 7.4V0h7.4v7.4h-7.4zM17.5 40.8C9 40.8 2 33.8 2 25.3 2 16.7 9 9.9 17.5 9.9c3.3 0 6.3.9 8.9 2.7v-2.4h7.3v30h-7.3v-2c-2.5 1.7-5.5 2.6-8.9 2.6zM9.1 25.3c0 4.6 4 8.5 8.6 8.5 4.7 0 8.7-3.9 8.7-8.5s-4-8.6-8.7-8.6c-4.7 0-8.6 4-8.6 8.6zm42.8 15.5c-8.6 0-15.6-7-15.6-15.5 0-8.6 7-15.4 15.6-15.4 3.3 0 6.2.9 8.8 2.7V0h7.4v40.1h-7.4v-2c-2.5 1.8-5.5 2.7-8.8 2.7zm-8.5-15.5c0 4.6 4 8.5 8.7 8.5s8.6-3.9 8.6-8.5-4-8.6-8.6-8.6c-4.7 0-8.7 4-8.7 8.6zm35.8 14.8h-7.4v-30h7.4v30zM106.6 0h7.3v40.1h-7.3v-2c-2.5 1.7-5.5 2.7-8.9 2.7-8.5 0-15.5-7-15.5-15.5 0-8.6 7-15.4 15.5-15.4 3.4 0 6.3.9 8.9 2.7V0zM89.4 25.3c0 4.6 3.9 8.5 8.5 8.5 4.7 0 8.7-3.9 8.7-8.5s-3.9-8.6-8.7-8.6c-4.5 0-8.5 4-8.5 8.6zm42.5 15.5c-8.5 0-15.5-7-15.5-15.5 0-8.6 7-15.4 15.5-15.4 3.3 0 6.3.9 8.8 2.7v-2.4h7.4v30h-7.4v-2c-2.4 1.7-5.4 2.6-8.8 2.6zm-8.3-15.5c0 4.6 4 8.5 8.6 8.5 4.7 0 8.5-3.9 8.5-8.5s-3.8-8.6-8.5-8.6c-4.6 0-8.6 4-8.6 8.6zm41 15.5c-8.3 0-13.3-4.2-13.6-10.3h7.8c0 1.9 1.2 4.6 6.2 4.7 3.4 0 4.9-2 4.9-3.5-.2-2.4-3.2-2.6-6.3-3.1-3.2-.5-5.8-1.1-7.8-2.1-2.5-1.3-4.1-4-4.1-7.2 0-5.3 4.6-9.6 12.4-9.6 7.5 0 12.3 4 12.8 9.8h-7.5c-.1-1.6-.4-4.1-4.9-4.1-3 0-4.9.6-5.1 2.7 0 3.1 6.2 2.9 11.1 4.2 4.7 1.2 7.6 4.1 7.6 8.1-.1 7.6-6.1 10.4-13.5 10.4z"/></svg>