<svg version="1.1" xmlns="http://www.w3.org/2000/svg" xmlns:xlink="http://www.w3.org/1999/xlink" width="180" height="90"
	 viewBox="0 0 180 90" xml:space="preserve">
<path fill="#909295" d="M44.1,55.3h-7.8c1-0.8,1.2-4.3,1.7-10.2l0.1-1.4c0.2-3.4,0.4-6,0.4-7.8c0-1.6-0.2-2.6-0.6-2.9h8.8
	c2,0,6.2,0.1,6.2,4.4c0,2.9-2.8,4.7-5.2,5.4c3.5,0.1,6.1,1.8,6.1,5.4C53.8,52.1,50.1,55.3,44.1,55.3 M43.9,44.3h-1.6l-0.2,3.4
	c-0.2,1.4-0.2,2.6-0.2,4.1c0,0.2,0.6,0.6,2.2,0.6c3.1,0,5.2-1.6,5.2-4.2C49.1,45.4,46.7,44.3,43.9,44.3 M44.6,35.4
	c-0.5,0-1,0-1.6,0.1c-0.2,1.6-0.4,3.1-0.5,4.7c0,0-0.1,1.4-0.1,1.3H43c2.9,0,5.4-1,5.4-3.6C48.4,36.5,47.2,35.4,44.6,35.4
	 M72.2,55.4c-1.9,0-2,0-3.6-5.4L68,48.1c-1,0.5-2.6,0.6-5.3,0.6h-2.6l-0.5,1c-0.5,1.1-1.6,3.2-1.6,4.4c0,0.2,0,0.6,0.1,1h-5.4
	c1.6-1.6,3.5-5.2,6.2-10.9l1.6-3.4c1.4-3,2.9-6.5,2.9-7c0-0.5-0.1-0.8-0.2-1.2h4.9c0,0,1.3,4.8,2.4,8.9l1,3.6c1.7,6,2.6,8.9,4.1,10
	C74.4,55.4,72.8,55.4,72.2,55.4 M65.1,38.1l-3.6,7.8h5.9L65.1,38.1 M93.5,56.2c-1.7,0-2-0.2-2.6-1l-6.2-8.8
	c-0.5-0.7-0.8-1.2-1.7-1.2h-0.1l-0.1,1.6c-0.1,2.3-0.2,4.1-0.2,5.5c0,1.6,0.2,2.4,0.6,2.9h-6.1c0.8-0.8,1.2-3.4,1.7-10.2l0.1-1.4
	c0.2-3.4,0.4-6,0.4-7.8c0-1.6-0.2-2.6-0.6-2.9h8.3c2.8,0,6.4,0.5,6.4,4.8c0,3.6-2.4,5.5-5.4,6.5c0.2,0.2,0.8,1,1.1,1.3l4.6,6
	c2.9,3.7,3.1,4,4.1,4.4C96.2,56.1,94.6,56.2,93.5,56.2 M85.3,35.4c-0.6,0-1.2,0-1.8,0c-0.1,1-0.4,2.6-0.5,5.3l-0.1,1.6
	c0.2,0.1,0.7,0.1,1,0.1c2.8,0,4.7-1.7,4.7-4.2C88.7,36.5,87.5,35.4,85.3,35.4 M105.4,55.6c-5.8,0-9.1-4.8-9.1-10.1
	c0-7.4,4.1-13.2,11.8-13.2c2.4,0,3.6,0.5,5.5,0.5l-0.6,5.8c-1.1-2-2.9-3.4-5.3-3.4c-4.8,0-6.7,5.2-6.7,9.6c0,4.8,2.8,7.4,6.4,7.4
	c1.9,0,3.7-0.5,6.5-2.5C112.6,53.5,109.8,55.6,105.4,55.6 M145,55.4c-1.9,0-2,0-3.6-5.4l-0.6-1.9c-1,0.5-2.6,0.6-5.3,0.6h-2.6
	l-0.5,1c-0.7,1.4-1.6,3.2-1.6,4.4c0,0.2,0,0.6,0.1,1h-15.9c1-1,1.2-4.3,1.7-10.2l0.1-1.4c0.2-3.4,0.4-6,0.4-7.8
	c0-1.6-0.1-2.5-0.6-2.9h6.1c-0.8,0.7-1.2,4.3-1.6,10.2l-0.1,1.4c-0.1,2.2-0.5,4.4-0.5,6.7c0,1,0.4,1.2,1.4,1.2
	c3.7,0,4.7-0.1,6.4-1.2c1.1-1.9,2.3-4.3,3.4-6.8l1.6-3.4c1.4-3.1,2.9-6.4,2.9-7c0-0.5-0.1-0.8-0.2-1.2h4.9c0,0,1.9,7.3,2.4,8.9
	l1,3.6c1.7,6,2.8,8.9,4.1,10C147.3,55.4,145.6,55.4,145,55.4 M137.9,38.1l-3.6,7.8h5.9L137.9,38.1 M159.1,43.1
	c-0.5,0.8-1.2,2-1.6,2.9c-0.4,1.7-0.5,3.8-0.5,6.4c0,1,0.1,2.4,0.6,2.9h-6.1c1.1-1,1.6-7.3,1.4-9.3c-0.8-2.8-1.9-5.5-3.6-8.8
	c-1.1-2-2.3-4-3.1-4.4c1.3-0.1,3.1-0.2,4-0.2c1.6,0,1.9,0.2,2.9,2.3c1.4,3.2,2.5,5.8,3.1,7.6c1.6-2.4,2.6-4.1,4-6.4
	c0.4-0.6,0.6-1.2,0.6-1.9c0-0.5-0.1-1.1-0.4-1.3h6C165.5,33,160.2,41.2,159.1,43.1 M179.4,38.1c-1-1.7-2.9-3-5.2-3
	c-1.9,0-3.6,0.8-3.6,2.8c0,1.7,2.2,2.9,4.3,4.3c2.4,1.6,4.9,3.4,4.9,6.6c0,4.2-4.1,6.8-8.9,6.8c-1.9,0-4-0.4-6.2-1.2l0.4-5.6
	c1.1,2.3,3.1,4,6.2,4c2.4,0,4.1-1.1,4.1-3.1c0-1.7-1.4-2.8-3.1-3.7c-3.6-2.2-6-4-6-7.2c0-4.8,4-6.4,8.2-6.4c2.4,0,4,0.5,5.5,0.5
	L179.4,38.1z"/>
<path fill="#909295" d="M27.8,36.8c-0.4-1-0.7-1.7-1.2-2.3c-1-1.2-2.3-1.7-3.4-1.7c-0.6,0-1.2,0.1-1.7,0.4c-0.7,0.4-1.1,1-1.1,1.7
	c0,0.2,0.1,0.7,0.2,0.8c0.1,0.1,0.2,0.2,0.2,0.4c0.1,0,0.1,0.1,0.2,0.1c0.1,0,0.1,0,0.2,0.1l0,0c-0.2,0.5-0.7,0.7-1.3,0.8
	c-0.2,0-0.5,0-0.7,0c-1.7-0.1-2.6-1.3-2.6-3.6l0,0c0-0.2,0-0.5,0-0.7c0-0.4,0-0.6-0.1-0.8c-0.1-0.5-0.2-1-0.4-1.3
	c-0.1-0.1-0.1-0.2-0.2-0.4c-0.1-0.1-0.2-0.2-0.5-0.4c-0.1-0.1-0.4-0.2-0.6-0.2c-0.6-0.2-1.6-0.2-2-0.2c-0.2,0-0.5,0.1-0.6,0.2
	c-0.1,0-0.1,0.1-0.2,0.1h-0.5c-1,0-1.7,0.2-2.2,0.7c-0.2,0.1-0.4,0.4-0.5,0.6c-0.2,0.4-0.2,0.8,0,1.1C9,32,9.3,31.8,10,31.8
	c0.2,0,0.5,0,0.7,0.1c0.7,0.2,1.4,0.7,1.4,1.9c0,1-0.2,1.9-0.8,2.5c-0.5,0.5-1.2,0.8-2,0.8c-0.7,0-1.4-0.1-1.9-0.5
	C7.1,36.4,7,36.3,7,36.2c0.5-0.1,0.8-0.7,1-1.2c0-0.1,0-0.2,0-0.4c0-0.2-0.1-0.4-0.2-0.5c-0.1-0.2-0.2-0.4-0.4-0.5
	c-0.1-0.1-0.2-0.2-0.5-0.4C6.5,33,6,32.9,5.5,32.9c-0.1,0-0.2,0-0.4,0c-0.6,0-1.3,0.1-1.9,0.5c-0.2,0.1-0.5,0.4-0.7,0.5
	C2.4,34,2.3,34,2.3,34.1c-0.1,0.1-0.1,0.1-0.2,0.2l-0.1,0.1c-0.1,0.1-0.1,0.1-0.1,0.2l-0.1,0.1c-0.1,0.1-0.2,0.4-0.4,0.6
	c-0.5,0.8-0.8,2-1.1,3.5C0.1,39.8,0,40.7,0,41.8c0,3.1,0.7,5.8,2,8.3c0.1,0.2,0.2,0.4,0.4,0.6c0.1,0.2,0.2,0.4,0.4,0.6
	C2.9,51.5,3,51.8,3.2,52c0,0,0,0.1,0.1,0.1h0.1l0,0c0.4-0.4,0.6-0.6,0.8-1c0.5-0.6,1-1.3,1.3-1.9c0-0.1,0.1-0.1,0.1-0.1
	s0.1,0.1,0.1,0.2c0,0.1,0.1,0.2,0.1,0.4s0,0.2,0,0.4c0,0.4-0.1,0.7-0.2,1.1C5.5,52,5,52.9,4.7,53.6c-0.1,0.2-0.1,0.5,0,0.6
	c0.1,0.1,0.4,0.1,0.6,0c0.6-0.5,1.2-1.1,1.8-1.8c0.8-1.1,1.7-2.4,2.3-3.7l0,0h0.1c0,0,0,0,0,0.1c0.1,0.1,0.1,0.2,0.1,0.4v0.1l0,0
	c-0.1,1-0.8,3.4-3.4,6.5v0.1c0,0,0,0,0.1,0.1c0.6,0.6,1.3,1.1,2,1.6s1.6,1,2.4,1.4c1.2,0.6,2.4,1.1,3.6,1.6c2.2-0.7,4.2-1.8,6-3
	c0.7-0.5,1.4-1.1,2-1.6c0,0,0,0,0-0.1v-0.1c-2-2.5-2.9-4.6-3.2-5.8c0-0.1-0.1-0.4-0.1-0.5c0,0,0-0.1,0-0.2l0,0
	c0-0.4,0.1-0.6,0.2-0.6c0.5,1.2,1.3,2.5,2.2,3.5c0.1,0.1,0.1,0.1,0.2,0.2c0.6,0.7,1.2,1.3,1.8,1.8c0.1,0.1,0.2,0.1,0.5,0.1
	c0,0,0.1,0,0.1-0.1l0,0l0,0c0.1-0.1,0.2-0.4,0-0.6c-0.5-0.8-1.1-2-1.3-3c-0.1-0.4-0.1-0.6-0.1-0.8s0.1-0.5,0.2-0.6
	c0,0,0,0.1,0.1,0.1c0.2,0.4,0.5,0.7,0.7,1.1c0.2,0.2,0.4,0.6,0.6,0.8c0.2,0.4,0.6,0.7,1,1.1c0,0,0.1,0.1,0.1,0c0,0,0.1,0,0.1-0.1
	c0.2-0.4,0.6-0.8,0.8-1.3c1.4-2.5,2.3-5.5,2.3-8.9l0,0l0,0C28.5,39.7,28.2,38,27.8,36.8"/>
</svg>
