<svg xmlns="http://www.w3.org/2000/svg" viewBox="0 0 180 90" width="180" height="90"><path fill="#909295" d="M135.8 46.9c-.2 0-.8-.2-1.5-.3-5.8-1-10-5.1-10.3-10.2l-.2-1.4H134l.2.8c.2 1.5 1 2.5 2.5 3.2 1.2.5 3.9.5 4.7 0 1.9-1 2.4-2.5 1.2-3.9-.7-.8-1.4-1-6.4-2.5-5.9-1.7-7.5-2.4-9.3-4.2-1.4-1.4-1.9-2.4-2.4-4.1-.3-1.4-.2-2.2.2-3.7.5-1.9 1-2.9 2.5-4.4 2-2 4.6-3 8.1-3.6 4.1-.5 8.3 0 11.2 1.5 3 1.5 5.2 4.6 5.4 7.8v.8h-9.8l-.2-.7c-.2-1.5-1.7-2.7-3.9-2.9-4.4-.3-5.8 3.2-1.7 4.7.5.2 2.7.8 4.9 1.4 2.2.5 4.6 1.2 5.2 1.5 4.6 1.7 7.1 5.9 6.1 10.5-.3 1.5-1.5 3.9-2.5 4.9-2.5 2.7-6.4 4.1-11.7 4.1-1.1.7-2.3.7-2.5.7zM64.3 30.1V14H74c8.3 0 9.8 0 11 .3 3.2.7 5.4 2.5 6.4 5.4.5 1.5.5 3.9 0 5.2-.5 1.2-1.5 2.4-2.7 3.2l-.8.5 1.2.7c1.9 1 2.9 2 3.6 3.4.7 1.5 1 2.9.8 4.4-.3 3.2-2.2 6.1-5.1 7.5-2.5 1.2-2.5 1.2-13.9 1.4H64.3V30.1zM82 38.6c.8-.3 1.2-.7 1.5-1.5.7-1.4.3-2.7-.8-3.6-.5-.3-.7-.3-4.6-.3H74V38.9h3.6c3 0 3.8-.2 4.4-.3zm-1.6-12c2.9-.7 2.9-4.4.2-5.1-.5-.2-2-.2-3.7-.2h-2.7v5.1c0 .3 5 .3 6.2.2zm11.5 19.3c0-.2.2-.7.3-1.2s1-2.7 1.7-4.7c1.4-3.6 4.9-13.2 7.5-20.3.7-1.7 1.4-3.6 1.5-4.4l.5-1.4h10.4l5.9 15.9c3.2 8.8 5.9 15.9 5.9 16.1h-10.4l-.8-2.4-.8-2.4h-9.8l-.5 2c-.3 1.2-.7 2.2-.7 2.4l-.2.3h-5.1c-4.2.4-5.4.2-5.4.1zm19.5-11.7v-.5c0-.2-.7-2.4-1.4-4.7-1.5-5.2-1.5-5.4-1.7-5.2s-2.7 10.3-2.5 10.5c0 0 5.5 0 5.6-.1zm43.4-4.1V14h24.8v8.4h-15.1v5.4h13.2V36h-13.2v9.8h-9.8l.1-15.7zM0 30.1V14h32.2v32.2H0V30.1zm21.8 0v-5.8H10.2v11.6H22l-.2-5.8zm20.2 0v-6.3h12.2v12.6H42v-6.3zM4.1 73.8V63.1H.2v-1.4h9.5v1.4H5.8v10.7H4.1zm6.9 0v-12h1.5V66c.7-.8 1.5-1.2 2.5-1.2.7 0 1.2.2 1.7.3.5.2.8.7 1 1 .2.5.3 1 .3 2v5.6h-1.5v-5.6c0-.7-.2-1.4-.5-1.5-.3-.3-.8-.5-1.4-.5s-.8.2-1.2.3c-.3.2-.7.5-.8.8-.2.3-.2.8-.2 1.5v4.7H11v.4zm15.4-2.7l1.5.2c-.2.8-.7 1.5-1.4 2-.6.5-1.4.7-2.5.7-1.4 0-2.2-.3-3-1.2-.7-.8-1.2-1.9-1.2-3.2 0-1.5.3-2.5 1.2-3.4.7-.8 1.7-1.2 2.9-1.2s2 .3 2.9 1.2c.7.8 1.2 1.9 1.2 3.4v.3h-6.4c0 1 .3 1.7.8 2.2.5.5 1 .7 1.9.7.5 0 1-.2 1.4-.5 0-.2.4-.7.7-1.2zm-4.9-2.4h4.9c0-.7-.2-1.4-.5-1.7-.5-.5-1-.8-1.9-.8-.7 0-1.2.2-1.7.7-.5.3-.8 1-.8 1.8zm21.7.9l1.5.3c-.3 1.4-1 2.4-1.9 3-.8.7-1.9 1-3.2 1-1.4 0-2.4-.3-3.2-.8-.8-.5-1.4-1.4-1.9-2.4-.3-1-.7-2-.7-3.2s.2-2.4.7-3.2c.5-.8 1.2-1.7 2-2.2s1.9-.7 2.9-.7c1.2 0 2.2.3 3 .8.8.7 1.4 1.5 1.7 2.5l-1.5.3c-.3-.8-.7-1.5-1.2-1.9-.5-.3-1.2-.7-2-.7s-1.7.2-2.4.7c-.7.5-1 1-1.4 1.9-.2.7-.3 1.5-.3 2.4 0 1 .2 1.9.5 2.7.3.7.7 1.4 1.4 1.7.7.3 1.4.5 2 .5.8 0 1.7-.3 2.2-.8 1.1-.1 1.4-.9 1.8-1.9zm3.2 4.2v-12h1.5V66c.7-.8 1.5-1.2 2.5-1.2.7 0 1.2.2 1.7.3.5.2.8.7 1 1 .2.5.3 1 .3 2v5.6H52v-5.6c0-.7-.2-1.4-.5-1.5-.3-.3-.8-.5-1.4-.5-.5 0-.8.2-1.2.3-.3.2-.7.5-.8.8-.2.3-.2.8-.2 1.5v4.7h-1.5v.4zm15.4-2.7l1.5.2c-.2.8-.7 1.5-1.4 2s-1.4.7-2.5.7c-1.4 0-2.2-.3-3-1.2-.7-.8-1.2-1.9-1.2-3.2 0-1.5.3-2.5 1.2-3.4.7-.8 1.7-1.2 2.9-1.2s2 .3 2.9 1.2c.7.8 1.2 1.9 1.2 3.4v.3H57c0 1 .3 1.7.8 2.2.5.5 1 .7 1.9.7.5 0 1-.2 1.4-.5.2-.2.4-.7.7-1.2zm-4.9-2.4h4.9c0-.7-.2-1.4-.5-1.7-.5-.5-1-.8-1.9-.8-.7 0-1.2.2-1.7.7-.5.3-.8 1-.8 1.8zm8.3 5.1v-8.6h1.4v1.2c.3-.5.7-.8 1-1 .5-.3 1-.3 1.5-.3.7 0 1.2.2 1.5.3.3.3.7.7.8 1.2.7-1 1.5-1.5 2.7-1.5.8 0 1.5.2 2 .7.5.5.7 1.2.7 2.2v5.9h-1.5v-5.4c0-.5 0-1-.2-1.4-.2-.3-.3-.5-.5-.7-.2-.2-.5-.2-.8-.2-.7 0-1.2.2-1.5.7-.3.3-.7 1-.7 2V74h-1.5v-5.6c0-.7-.2-1.2-.3-1.5-.2-.3-.7-.5-1.2-.5-.3 0-.8.2-1.2.3-.3.2-.7.5-.8 1-.2.3-.2 1-.2 1.9v4.6h-1.2v-.4zm13.9-10.3v-1.7h1.5v1.7h-1.5zm0 10.3v-8.6h1.5v8.6h-1.5zm9.5-3.2l1.5.2c-.2 1-.5 1.9-1.2 2.4s-1.5.8-2.4.8c-1.2 0-2.2-.3-2.9-1.2-.7-.8-1-1.9-1-3.4 0-1 .2-1.7.5-2.5.3-.7.8-1.2 1.4-1.5.7-.3 1.4-.5 2-.5 1 0 1.7.2 2.4.7.7.5 1 1.2 1.2 2l-1.4.2c-.2-.5-.3-1-.7-1.4-.3-.3-.8-.5-1.2-.5-.7 0-1.4.3-1.9.8s-.7 1.4-.7 2.5.2 2 .7 2.5 1 .8 1.7.8c.5 0 1-.2 1.5-.5.1-.1.3-.6.5-1.4zm8.3 2.2c-.5.5-1 .8-1.5 1-.5.2-1 .3-1.7.3-1 0-1.7-.2-2.2-.7-.5-.5-.8-1-.8-1.9 0-.5.2-.8.3-1.2.2-.3.5-.7.7-.8.3-.2.7-.3 1-.5.3 0 .7-.2 1.4-.2 1.2-.2 2-.3 2.7-.5V68c0-.7-.2-1-.3-1.2-.3-.3-1-.5-1.7-.5s-1.2.2-1.5.3c-.3.2-.5.7-.7 1.4l-1.5-.5c.2-.7.3-1.2.7-1.5.3-.3.7-.7 1.4-.8.5-.2 1.2-.3 2-.3.7 0 1.4.2 1.9.3.5.2.8.3 1 .7.2.3.3.7.5 1v3.4c0 1.4 0 2.2.2 2.5 0 .3.2.7.3 1h-1.5c-.6-.3-.6-.7-.7-1zm0-3.4c-.5.2-1.4.3-2.4.5-.7.2-1 .2-1.4.3-.2.2-.5.3-.5.5-.2.2-.2.5-.2.7 0 .3.2.7.5 1 .3.3.7.3 1.4.3.5 0 1-.2 1.5-.3.5-.2.8-.5 1-1 .2-.3.2-.8.2-1.5v-.5h-.1zm3.7 4.4v-12h1.5v12h-1.5zm17.1-4.2l1.5.3c-.3 1.4-1 2.4-1.9 3-.8.7-1.9 1-3.2 1s-2.4-.3-3.2-.8c-.8-.5-1.4-1.4-1.9-2.4-.3-1-.7-2-.7-3.2s.2-2.4.7-3.2c.5-.8 1.2-1.7 2-2.2.8-.5 1.9-.7 2.9-.7 1.2 0 2.2.3 3 .8.8.7 1.4 1.5 1.7 2.5l-1.5.3c-.3-.8-.7-1.5-1.2-1.9-.5-.3-1.2-.7-2-.7s-1.7.2-2.4.7c-.7.5-1 1-1.4 1.9-.2.7-.3 1.5-.3 2.4 0 1 .2 1.9.5 2.7.3.7.7 1.4 1.4 1.7.7.3 1.4.5 2 .5.8 0 1.7-.3 2.2-.8 1.1-.1 1.6-.9 1.8-1.9zm2.9-.2c0-1.7.5-2.9 1.4-3.6.7-.7 1.7-1 2.7-1 1.2 0 2.2.3 2.9 1.2.7.8 1.2 1.9 1.2 3.2 0 1.2-.2 2-.5 2.7-.3.7-.8 1.2-1.5 1.5-.7.3-1.4.5-2 .5-1.2 0-2.2-.3-2.9-1.2-1-.6-1.3-1.8-1.3-3.3zm1.5 0c0 1.2.2 1.9.7 2.5.5.5 1 .8 1.9.8.7 0 1.4-.3 1.9-.8s.7-1.4.7-2.5c0-1-.2-1.9-.7-2.4-.5-.5-1-.8-1.9-.8-.7 0-1.4.3-1.9.8s-.7 1.4-.7 2.4zm8.3 4.4v-8.6h1.4v1.2c.3-.5.7-.8 1-1 .5-.3 1-.3 1.5-.3.7 0 1.2.2 1.5.3.3.3.7.7.8 1.2.7-1 1.5-1.5 2.7-1.5.8 0 1.5.2 2 .7s.7 1.2.7 2.2v5.9h-1.5v-5.4c0-.5 0-1-.2-1.4-.2-.3-.3-.5-.5-.7-.2-.2-.5-.2-.8-.2-.7 0-1.2.2-1.5.7-.3.3-.7 1-.7 2V74h-1.5v-5.6c0-.7-.2-1.2-.3-1.5-.2-.3-.7-.5-1.2-.5-.3 0-.8.2-1.2.3-.3.2-.7.5-.8 1-.2.3-.2 1-.2 1.9v4.6h-1.2v-.4zm14 3.4v-12h1.4v1.2c.3-.5.7-.8 1-1 .3-.2.8-.3 1.5-.3s1.4.2 2 .5c.5.3 1 .8 1.4 1.7.3.7.5 1.5.5 2.4 0 .8-.2 1.7-.5 2.4s-.8 1.2-1.4 1.7c-.7.3-1.2.5-1.9.5-.5 0-1-.2-1.4-.3-.3-.2-.7-.5-1-.8v4.2c.1-.2-1.6-.2-1.6-.2zm1.2-7.6c0 1.2.2 1.9.7 2.5.5.5 1 .8 1.7.8s1.2-.3 1.7-.8.7-1.4.7-2.5-.2-1.9-.7-2.5c-.5-.5-1-.8-1.7-.8s-1.2.3-1.7.8c-.3.4-.7 1.3-.7 2.5zm13.7 3.2c-.5.5-1 .8-1.5 1-.5.2-1 .3-1.7.3-1 0-1.7-.2-2.2-.7-.5-.5-.8-1-.8-1.9 0-.5.2-.8.3-1.2.2-.3.5-.7.7-.8.3-.2.7-.3 1-.5.3 0 .7-.2 1.4-.2 1.2-.2 2-.3 2.7-.5V68c0-.7-.2-1-.3-1.2-.3-.3-1-.5-1.7-.5s-1.2.2-1.5.3c-.3.2-.5.7-.7 1.4l-1.5-.2c.2-.7.3-1.2.7-1.5.3-.3.7-.7 1.4-.8.5-.2 1.2-.3 2-.3.7 0 1.4.2 1.9.3.5.2.8.3 1 .7.2.3.3.7.5 1v3.4c0 1.4 0 2.2.2 2.5 0 .3.2.7.3 1H160c-.5-.6-.7-1-.7-1.3zm-.1-3.4c-.5.2-1.4.3-2.4.5-.7.2-1 .2-1.4.3-.2.2-.5.3-.5.5-.2.2-.2.5-.2.7 0 .3.2.7.5 1 .3.3.7.3 1.4.3.5 0 1-.2 1.5-.3.5-.2.8-.5 1-1 .2-.3.2-.8.2-1.5v-.5h-.1zm3.9 4.4v-8.6h1.4v1.2c.7-1 1.5-1.4 2.7-1.4.5 0 1 .2 1.5.3.5.2.8.5 1 .7.2.3.3.7.5 1V73.8h-1.5v-5.2c0-.7 0-1-.2-1.4-.2-.3-.3-.5-.7-.7s-.7-.3-1-.3c-.7 0-1.2.2-1.7.7-.5.3-.7 1.2-.7 2.2v4.7h-1.3zm9.3 3.4l-.2-1.4c.3.2.7.2.8.2.3 0 .5 0 .8-.2l.5-.5c.2-.2.2-.5.5-1 0 0 0-.2.2-.3l-3.2-8.6h1.5l1.9 5.1c.2.7.5 1.4.7 2 .2-.7.3-1.4.7-2l1.9-5.1h1.5l-3.4 8.8c-.3 1-.7 1.7-.8 2-.3.5-.5.8-.8 1-.3.2-.7.3-1.2.3-.9-.1-1.1-.1-1.4-.3z"/></svg>