<?xml version="1.0" encoding="utf-8"?>
<!-- Generator: Adobe Illustrator 19.1.0, SVG Export Plug-In . SVG Version: 6.00 Build 0)  -->
<svg version="1.1" id="Layer_1" xmlns="http://www.w3.org/2000/svg" xmlns:xlink="http://www.w3.org/1999/xlink" x="0px" y="0px"
	 viewBox="0 0 180 90" style="enable-background:new 0 0 180 90;" xml:space="preserve">
<style type="text/css">
	.st0{fill:#909295;}
</style>
<g>
	<path class="st0" d="M24.8,20.3C11.1,20.3,0,31.4,0,45.1c0,13.6,11.1,24.6,24.8,24.6c13.6,0,24.8-11,24.8-24.6
		C49.5,31.4,38.4,20.3,24.8,20.3z M13.3,42.7L23.5,34c0.9-0.8,2.1-1.2,3.5-1.2c1.2,0,2.5,0.5,3.5,1.2l12.9,10.5v2.4L32,37.6
		c-0.9-0.6-1.8-1.1-3-1.1s-2.2,0.5-3.2,1.1h-0.1c-1.1,0.9-6.3,5.4-9,7.5c0.6,0.9,1.9,1,3.1,0.3c2.9-2.5,5.5-4.7,5.7-5
		c0.8-0.6,1.8-1.2,2.8-1.2c1.1,0,2,0.5,2.7,1l8.2,6.8l2.4,2l1.3,1.2h-0.3l0.3,0.3c0,0-11,9.3-13.6,11.7c-1.4,1.3-3.3,2.2-5.4,2.2
		c-2,0-3.8-0.8-5.1-2L5.2,51.4v-3.5l13.5,11c0.9,0.6,2,1,3.3,1c1.2,0,2.6-0.5,3.5-1.2c0.6-0.5,8.7-7.5,12.5-10.5l-2.4-2l-10,9.2
		c-1,0.6-2.1,1-3.5,1c-1.3,0-2.5-0.5-3.6-1.2L5.5,44.8v-2.4l11.5,9.3c0.8,0.6,1.8,1,3,1c1.2,0,2.2-0.5,3.2-1l0.1-0.2
		c1.2-0.9,6.3-5.2,9-7.5l-0.6-0.4c-0.6-0.3-1.7-0.2-2.5,0.3c-2.9,2.5-5.5,4.6-5.9,5c-0.8,0.8-1.8,1.2-2.8,1.2s-2-0.3-2.7-0.9
		l-8.1-6.9l-2.4-2l-0.6-0.8L6,38.9h0.1L6,38.8c0,0,10.9-9.3,13.6-11.7c1.4-1.4,3.3-2.2,5.4-2.2c2,0,3.8,0.8,5.1,1.9l13.7,11.1v3.5
		L30.3,30.2c-0.9-0.6-2-1-3.2-1c-1.3,0-2.5,0.5-3.4,1.2c-1,0.3-9.2,7.2-12.9,10.3L13.3,42.7z"/>
</g>
<path class="st0" d="M172.9,29.9c-0.2-0.9-0.6-1.9-1.2-3.3l1.7-0.4c0.6,1.1,1,2.2,1.2,3.8h5.4v1.6h-13.3v-1.6H172.9L172.9,29.9
	L172.9,29.9z M152.7,31.6c-0.4-0.2-1.7-0.9-3.4-1.6l1-0.9c0.6,0.2,1.1,0.2,2.1,0.6c0.5,0,1.1-0.6,1.7-1.2v-0.2h-7v-1.5h9.2l0.6,1.2
	c-1.3,1.1-2.4,1.8-2.8,2.4l0.8,0.6l-1.2,0.6h0.6h4.1v10c0,0.6-0.6,1-1.1,1.2c-0.4,0.3-0.9,0.6-1.7,0.6c0.2-0.1-0.2-0.8-0.8-1.6
	c0.6,0,0.6,0,1.1,0c0.6,0,0.6,0,0.6,0c0.2-0.2,0.2-0.3,0.2-0.6v-1.8H153v3.3l-1.7,0.3v-3.6h-3.6V43h-1.6V31.6h4.8H152.7L152.7,31.6z
	 M168,45.2v-5.8h10.9v5.8H168L168,45.2z M178.8,36.2v1.6H168v-1.6H178.8L178.8,36.2z M178.8,33.2v1.6H168v-1.6H178.8L178.8,33.2z
	 M164.1,34L164.1,34c-0.8,1-1.2,1.9-2.1,3.6l-1.2-2c2.1-2.2,3.5-5.1,4.7-9.3l2.2,1.2c-0.2,0.4-0.3,0-0.9,0.8c0,0-0.9,2.1-1,2.8
	c0,1.2,0,14.7,0,14.7h-1.7V34L164.1,34z M177.3,40.9h-7.8v2.7h7.8V40.9L177.3,40.9z M156.1,38.2v-1.7H153v1.7H156.1L156.1,38.2z
	 M147.7,38.2h3.6v-1.7h-3.6V38.2L147.7,38.2z M151.3,34.9v-1.6h-3.6v1.6H151.3L151.3,34.9z M156.1,34.9v-1.6H153v1.6H156.1
	L156.1,34.9z M140.8,28.3l1.5-1.1c1,1.2,1.9,2.1,2.8,3.4l-1.5,1.1C142.8,30.1,142,29.2,140.8,28.3L140.8,28.3z M141,45.8l-1.5-1.3
	c0.6-0.6,0.9-1.2,2.7-2.7v-6.9h-2.4v-1.5h4.1v8.6c0.8,0.9,1.6,1.5,2.8,1.8c1.1,0.3,3.8,0.5,6.5,0.5c0.6,0,1.9-0.2,2.5-0.2l4.1-0.2
	c-0.6,0.6-0.6,1.2-0.8,1.9l-9,0.2c-1.3,0-3.3-0.3-4.2-0.6c-1-0.3-1.8-1.2-2.7-2.1C142.6,43.6,141.3,45.2,141,45.8L141,45.8z
	 M130,38.6c0.3-1.5,0.6-2.7,0.6-3.8v-1.9h-3.3v-1.7h3.3v-5.1l2.1,0.3c0.8,0,0.3,0.4-0.1,0.6v4h4.6c-0.5,7.3-0.8,12-0.8,12.9
	c-0.1,0.9-1.1,1.6-2,1.6c-0.1,0-0.8,0-1.6,0c0-0.9-0.6-1.5-0.8-2.1c0.3,0,1.1,0.2,1.5,0.2c0.9,0,1.1-0.5,1.2-1.2
	c0.1-0.8,0.3-1.9,0.4-3.9c0-2,0.1-4.1,0.3-6h-3c0,3.9-0.6,6.9-1.7,9c-1,1.9-2.2,3.4-4.3,4.6l-2.1-1.5c1.3-0.3,2.8-1.2,3.5-2.1
	C127.6,43,129.3,41.2,130,38.6L130,38.6z M125.5,42.8c-0.2-0.5-0.3-0.8-0.5-1.2c-2.9,0.8-3.2,0.8-4.8,1.3l-0.8,0.8l-1.3-2.4
	c0.1-0.2,0.8-0.2,1-0.5c0.5-0.6,0.6-0.9,0.8-1.9c0.1-1.4,0.6-2.8,0.9-4.2h-2.5v-1.7h8.7v1.7h-4.5c-0.6,2.5-1.4,6.3-1.4,6.3l3.5-0.9
	c-0.1-0.1-0.5-1.9-0.9-3l1.5-0.6c0.6,1.3,1.6,3.9,2.2,5.6L125.5,42.8L125.5,42.8z M118.8,30.2v-1.6h7.6v1.6H118.8L118.8,30.2z
	 M96.7,32.5h3.5v-2.6c-0.6,0-1.3,0.1-2.5,0.4l-1-1.5c3-0.3,5.1-0.9,6.8-1.8l1.4,1.5c-1.2,0.6-2.1,0.8-2.9,0.9v3h2.9v1.7h-2.9v1.2
	l0.3-0.2c0.3,0.5,1.7,1.7,2.5,2.8l-1,1.4c-0.8-1.1-1.2-2.2-1.8-2.6v9.9h-1.6v-9l0,0c-0.5,1-1.2,2.2-2.4,3.6
	c-0.1,0.2-0.3,0.8-0.5,0.9l-1.2-1.7c2-2.1,3.2-4,3.9-5.7c0-0.2,0-0.3,0-0.6h-3.5v-1.8H96.7z M109.2,28.7h5.7l0.5,0.6
	c-0.1,0.4-0.1,0.6-0.1,0.9c-1.2,3.4-4.7,5.7-9.8,7.2l-0.3-0.9l-0.8-0.8c2.1-0.3,3.5-0.9,4.8-1.5c-0.2-0.8-0.8-1.2-1.8-1.7l1.2-1
	c0.8,0.4,1.5,1,2,1.9c1.3-1,2.4-2.1,3-3.1h-5c-1.2,1.1-1.5,1.8-2.4,2.9l-1.5-0.9c1.5-1.5,2.7-3.3,3.6-5.2c0,0,0-1.1,0.8-0.6
	c0.9,0.4,1.5,0.8,1.5,0.8c0,0.3-0.5,0.3-0.6,0.6C109.6,28.1,109.2,28.7,109.2,28.7L109.2,28.7z M110.8,37.1h5.2
	c-0.5,2.4-1.7,4.7-3.9,6.5c-2.8,2.2-3.9,2.1-7.5,2.8c-0.8,0-0.3-1.2-1.2-1.8c3.3-0.1,4.7-0.4,6.3-1.5c-0.5-0.8-1.2-1.2-2-1.8
	l1.2-1.1c0.6,0.3,1.5,1.2,2.1,2.2c1.6-1.6,2.1-2.4,2.8-3.9h-4.3c-1.2,1-2.2,1.9-4,3l-0.5-0.6l-1-0.6c1.6-0.4,5.4-3.1,6.6-5.2
	l1.8,0.3c0.2,0.4-0.3,0.4-0.8,0.6L110.8,37.1L110.8,37.1z M85.5,40.7h5.1v1.5H79.2v-1.5H84v-3.9h-3.9v-1.5H84v-2.4h-4.5v-1.5h10.8
	v1.5h-4.8v2.4h4.2v1.5h-4.2V40.7L85.5,40.7z M91.6,29.3H78v14.8h13.6V29.3L91.6,29.3z M76.3,46V27.7h17v18.1h-17V46z M86.4,38l1-0.6
	c1.4,0.8,2,1.2,2.5,2.1l-1.3,0.8C87.7,39.1,87.4,38.5,86.4,38L86.4,38z M66,39.1h5.5v-6.8H66V39.1L66,39.1z M58.6,40.6L58.6,40.6H57
	v-9.9h7.3v-2.8c0,0-0.9-1.5-0.1-1.3c1.2,0.3,1.5,0.1,2.1,0.4c0.5,0-0.1,1.1-0.1,1.1v2.8h7.3v9.8H66v6.3h-1.8v-6.3H58.6L58.6,40.6z
	 M58.6,39.1h5.5v-6.8h-5.5V39.1L58.6,39.1z M179.4,63.8v-1.6h-6.5v-3.9h6.5v-1.6h-6.5v-3.8h6.5v-1.6H171v12.9h8.4V63.8z M170.4,63.8
	v-1.6h-5.7V51.1h-1.8V64h7.5V63.8z M161.1,63.8V50.9h-2v12.9H161.1L161.1,63.8z M149.7,58h3.6c0.6,0,1.5,0,2.1,0.8
	c0.3,0.3,0.5,0.8,0.5,1.2c0,0.6-0.5,1.9-2.2,1.9h-3.9L149.7,58L149.7,58z M147.7,63.8h5.7c3.5,0,4.2-2.4,4.2-3.8
	c0-1.9-1.3-2.9-2-3.1c0.5-0.4,1.2-1,1.2-2.4c0-0.9-0.5-3.6-4.1-3.6h-5.2v12.9H147.7z M149.7,52.7h3.3c0.4,0,2.1,0,2.1,1.8
	c0,0.8-0.3,1.8-2.1,1.8h-3.5v-3.6H149.7z M144.7,57.4c0,1.9-1.5,4.9-4.8,4.9c-3.3,0-4.8-2.9-4.8-4.9c0-2.1,1.5-5,4.8-5
	C143.1,52.4,144.7,55.1,144.7,57.4L144.7,57.4z M146.5,57.4c0-3.8-2.8-6.8-6.8-6.8c-3.9,0-6.6,3.1-6.6,6.6c0,3.4,2.8,6.6,6.6,6.6
	C143.7,64,146.5,60.8,146.5,57.4L146.5,57.4z M132,63.8V50.9h-2.2l-4.7,9.9l-5-9.9h-2.2v12.9h1.8v-9.8l0,0l4.3,9.6h1.5l4.3-9.6l0,0
	v9.6h2.1V63.8z M112.6,63.8l-5.7-12.9H105l-5.8,12.9h2.2l1.6-3.8h5.7l1.7,3.8H112.6L112.6,63.8z M103.8,58.3l2.1-5l0,0l2.1,5H103.8
	L103.8,58.3z M98.8,63.8V50.9h-2v9.8l0,0l-8-9.8h-1.8v12.9h2v-9.9l0,0l8,9.9H98.8L98.8,63.8z M84.9,63.8V50.9h-1.8v12.9H84.9
	L84.9,63.8z M81.1,63.8V50.9h-2v5.2H72v-5.2h-1.8v12.9H72v-6.1h7.3v6.1H81.1L81.1,63.8z M69.3,54.2c-0.3-0.6-0.8-1.5-2-2.2
	c-1.4-1-2.9-1.2-3.9-1.2c-3.6,0-6.6,2.9-6.6,6.6c0,3.6,2.9,6.8,6.6,6.8c2,0,4.4-0.9,5.9-3.5H67c-0.9,1-2.1,1.6-3.5,1.6
	c-2.5,0-4.6-2.2-4.6-4.9c0-2.7,2.1-5,4.8-5c2.1,0,3.1,1.4,3.6,1.8L69.3,54.2L69.3,54.2z"/>
</svg>
