<svg xmlns="http://www.w3.org/2000/svg" viewBox="0 0 180 90"><path fill="#FFF" d="M57.785 58.588h8.25c8.5 0 14.25-6.625 14.25-14.875 0-8.5-5.875-14.875-14.25-14.875h-8.25v29.75zm5.5-24.5h1c6.625 0 9.875 3.25 9.875 9.875 0 5.875-2.625 9.875-9.875 9.875h-1v-19.75z"/><path id="_x36_" fill="#FFF" d="M99.284 34.088v-5H83.91v29.5h15.374v-5h-9.5v-8.25h9.25v-5h-9.25v-6.25z"/><path fill="#FFF" d="M166.408 30.088c-.25-1.375-1.625-1.875-2.625-1.875s-2.375.625-2.625 1.875l-11.125 28.5h6l2.375-6.375h10.25l2.375 6.375h6l-10.625-28.5zm-6.25 17.5l3.625-10.625 3.375 10.625h-7z"/><path id="_x38_" fill="#FFF" d="M110.034 41.338v-12.25h-5.75v29.5h5.75v-13.5l9.5 13.5h7.5L115.16 42.463l11.374-13.375h-7.25z"/><path id="_x39_" fill="#FFF" d="M138.658 33.713h-3v8.625h3c2.375 0 4.25-1.875 4.25-4.5 0-2.125-1.875-4.125-4.25-4.125zm3.125 12.625l8.25 12.25h-7.25l-7.25-11.875v11.875h-5.75V28.963h9.875c5 0 9 4 9 8.625 0 4.375-2.875 8.125-6.875 8.75z"/><path id="_x31_0" fill="#FFF" d="M12.036 21.213l25.124 14.5c1.875 1 4 3.375 4 6.625 0 3.375-2 5.625-4 6.875L2.786 69.087v-9l30.75-17.624-16.5-9.625v13.5l-7.875 4.5v-28c0-.625.626-1.375 1-1.625.626-.125 1.25-.125 1.876 0z"/></svg>
