<svg xmlns="http://www.w3.org/2000/svg" viewBox="0 0 180 90"><path fill="#FFF" d="M-.8 20h20.2v20.2H-.8zM19.4 40.2h20.2v40.3H19.4zM59.9 30.4V19.6h5.2v.9h-3.9v3.8h3.7v.9h-3.7v4.2h4.1v.9h-5.4zM69.9 30.4h-1.1L65.9 23h1.3l2.3 5.9 2-5.9h1.1l-2.7 7.4zM77.6 30.4v-1c-.1.1-.1.2-.3.3l-.4.4-.6.3c-.2.1-.5.1-.8.1-.3 0-.6-.1-.8-.2-.2-.1-.5-.2-.6-.4-.2-.2-.3-.4-.4-.6-.1-.2-.1-.5-.1-.7 0-.4.1-.7.2-.9.1-.3.3-.5.6-.6.2-.2.5-.3.8-.4.3-.1.6-.2.9-.2.3-.1.6-.1.9-.1.3 0 .6 0 .8-.1v-1-.6c0-.2-.1-.4-.2-.6-.1-.2-.2-.3-.4-.5-.2-.1-.4-.2-.7-.2-.3 0-.5.1-.7.2-.2.1-.3.2-.4.4-.1.1-.1.3-.2.5 0 .2 0 .3-.1.5h-1.3c0-.2.1-.5.1-.7.1-.2.2-.5.4-.7.2-.2.5-.4.8-.5.3-.1.8-.2 1.3-.2.4 0 .7 0 .9.1.3.1.5.2.7.3.2.1.3.3.4.4.1.2.2.3.3.5.1.2.1.4.1.6V30.5h-1.2zm0-3.5h-.4c-.2 0-.4 0-.6.1-.2 0-.4.1-.7.1l-.6.3c-.2.1-.4.3-.5.4-.1.2-.2.4-.2.7 0 .4.1.7.3.9.2.2.5.3.8.3.2 0 .5-.1.7-.2.2-.1.4-.2.6-.4.2-.2.3-.4.4-.6.1-.2.1-.5.1-.8v-.8zM85.6 30.4v-4.8-.6c0-.2 0-.4-.1-.6-.1-.2-.2-.3-.3-.4-.1-.1-.3-.2-.6-.2s-.5.1-.7.2c-.2.1-.4.2-.6.4-.2.2-.3.4-.4.6-.1.2-.2.5-.3.7-.1.3-.1.5-.2.8 0 .3-.1.5-.1.8v3.2h-1.1V23h1.1v1.8c.1-.2.2-.5.4-.7.2-.2.3-.5.6-.6.2-.2.5-.3.7-.5.3-.1.6-.2 1-.2.3 0 .6.1.8.2.2.1.4.3.5.5l.3.6c.1.2.1.4.1.7v5.6h-1.1zM93.8 32.9c-.6.5-1.4.8-2.5.8-.4 0-.8 0-1.1-.1-.3-.1-.6-.1-.8-.2v-1.3c.2.1.3.2.5.3.2.1.3.2.5.2.2.1.4.1.5.2.2 0 .4.1.6.1.3 0 .6 0 .9-.1.2-.1.4-.2.6-.4.2-.2.3-.3.3-.5.1-.2.1-.4.2-.6 0-.2.1-.4.1-.5v-1.9c0 .1-.1.3-.2.4-.1.2-.2.3-.4.5s-.4.3-.6.4c-.2.1-.5.2-.8.2-.5 0-.9-.1-1.2-.3-.3-.2-.6-.5-.8-.8-.2-.4-.4-.8-.5-1.2-.1-.5-.2-1-.2-1.5s.1-1 .2-1.5.3-.8.5-1.2c.2-.3.5-.6.8-.8.3-.2.7-.3 1.2-.3.4 0 .7.1.9.2.2.1.4.3.6.4.2.2.3.3.4.5.1.2.2.3.2.4V23h1.1v7.5c-.2 1-.5 1.9-1 2.4zm-.3-6.3c0-.3 0-.7-.1-1-.1-.4-.2-.7-.3-1-.1-.3-.3-.5-.6-.7-.2-.2-.5-.3-.8-.3-.3 0-.6.1-.8.3-.2.2-.4.4-.5.7-.1.3-.2.6-.3 1-.1.4-.1.7-.1 1 0 .3 0 .7.1 1 .1.4.1.7.3 1 .1.3.3.6.5.8.2.2.5.3.8.3.3 0 .6-.1.8-.3.2-.2.4-.4.6-.7.1-.3.3-.6.3-1s.1-.8.1-1.1zM97.9 25.8c0 .3 0 .6.1.9 0 .3.1.6.2.9l.3.9c.1.3.3.5.5.7.2.2.5.4.8.5.3.1.6.2 1 .2h.7c.1 0 .2 0 .3-.1.1 0 .2-.1.3-.1v.7c-.2 0-.3.1-.4.1-.1 0-.3.1-.4.1-.1 0-.3 0-.4.1h-.6c-.6 0-1.1-.1-1.5-.3-.4-.2-.8-.4-1.2-.8-.3-.3-.6-.8-.7-1.3-.2-.5-.3-1.1-.3-1.8 0-.5.1-1 .2-1.5.1-.4.3-.8.5-1.2.2-.3.5-.6.9-.8.4-.2.8-.3 1.4-.3.4 0 .8.1 1.1.2.3.1.6.3.7.5.2.2.3.4.5.6.1.2.2.5.2.7 0 .2.1.4.1.6v.4h-4.3zm3.1-1.2c0-.2-.1-.4-.2-.6-.1-.2-.3-.3-.5-.4-.2-.1-.5-.2-.8-.2-.2 0-.4 0-.6.1-.2.1-.3.1-.4.2l-.3.3c-.1.1-.1.3-.2.4 0 .1-.1.2-.1.4v.3h3.1v-.5zM104.2 30.4V19.6h1.1v10.7h-1.1zM107.9 21v-1.4h1.3V21h-1.3zm0 9.4V23h1.1v7.4h-1.1zM115.6 28.3c0 .3-.1.6-.2.8-.1.3-.3.5-.5.7-.2.2-.5.4-.9.5-.4.1-.8.2-1.3.2s-.9 0-1.3-.1c-.3-.1-.6-.1-.8-.2V29s.1.1.3.1c.1.1.3.2.5.2.2.1.4.2.6.2.2.1.5.1.7.1.2 0 .4 0 .6-.1.2 0 .4-.1.5-.2.1-.1.3-.2.3-.4.1-.1.1-.3.1-.5s0-.3-.1-.5c-.1-.1-.2-.3-.3-.4-.1-.1-.3-.2-.5-.3-.2-.1-.4-.2-.6-.4-.2-.1-.5-.3-.7-.4-.2-.1-.5-.3-.7-.4-.2-.2-.4-.4-.5-.6-.1-.2-.2-.5-.2-.8 0-.6.2-1.1.6-1.5.4-.4 1.1-.5 1.9-.5h.6c.2 0 .3 0 .5.1.1 0 .3.1.4.1.1 0 .2 0 .3.1V24c-.1 0-.2-.1-.3-.2-.1-.1-.3-.1-.4-.2-.2-.1-.3-.1-.5-.2-.2 0-.4-.1-.6-.1-.2 0-.3 0-.5.1-.2 0-.3.1-.4.2l-.3.3c-.1.1-.1.2-.1.4s.1.4.2.6c.1.2.3.3.5.4.2.1.5.3.8.4.3.1.6.3.9.5.2.1.3.2.5.3.2.1.3.3.4.4.1.2.2.3.3.5.2.5.2.7.2.9zM120.8 25.2v-.5c0-.2-.1-.4-.1-.6-.1-.2-.2-.4-.4-.5-.2-.1-.4-.2-.7-.2-.3 0-.6.1-.8.3-.2.2-.4.4-.5.7l-.3.9c-.1.3-.1.6-.1.9 0 .3 0 .5.1.8 0 .3.1.6.2.8.1.3.2.5.4.8.1.2.3.5.5.6.2.2.4.3.7.4.3.1.6.2 1 .2h.7c.1 0 .2 0 .3-.1.1 0 .2-.1.3-.1v.7c-.3.1-.5.2-.8.2-.3 0-.5.1-.9.1-.7 0-1.3-.1-1.8-.3-.5-.2-.9-.5-1.1-.9-.3-.4-.5-.8-.6-1.3-.1-.5-.2-1-.2-1.6 0-.6.1-1.1.2-1.6s.3-.8.6-1.1c.3-.3.6-.5 1-.7.4-.2.8-.2 1.2-.2.5 0 .9.1 1.2.2.3.1.6.3.8.5.2.2.4.5.4.8.1.3.1.6.1.9h-1.4zM128.2 30.4v-5-.6c0-.2-.1-.4-.2-.5-.1-.2-.2-.3-.3-.4-.1-.1-.3-.1-.6-.1-.2 0-.4.1-.6.2-.2.1-.4.2-.5.4-.2.2-.3.4-.4.6-.1.2-.2.5-.3.7-.1.2-.2.5-.2.8 0 .3-.1.5-.1.7v3.3h-1.1V19.6h1.1v5.3c0-.1.1-.2.2-.4.1-.1.2-.3.3-.5.1-.2.2-.3.3-.5.1-.2.3-.3.5-.4l.6-.3c.2-.1.4-.1.7-.1.2 0 .5 0 .7.1.2.1.4.2.6.4.2.2.3.4.4.7.1.3.2.6.2 1v5.5h-1.3zM132.6 25.8c0 .3 0 .6.1.9 0 .3.1.6.2.9l.3.9c.1.3.3.5.5.7.2.2.5.4.8.5.3.1.6.2 1 .2h.7c.1 0 .2 0 .3-.1.1 0 .2-.1.3-.1v.7c-.2 0-.3.1-.4.1-.1 0-.3.1-.4.1-.1 0-.3 0-.4.1h-.6c-.6 0-1.1-.1-1.5-.3-.4-.2-.8-.4-1.2-.8-.3-.3-.6-.8-.7-1.3-.2-.5-.3-1.1-.3-1.8 0-.5.1-1 .2-1.5.1-.4.3-.8.5-1.2.2-.3.5-.6.9-.8.4-.2.8-.3 1.4-.3.4 0 .8.1 1.1.2.3.1.6.3.7.5.2.2.3.4.5.6.1.2.2.5.2.7 0 .2.1.4.1.6v.4h-4.3zm3.1-1.2c0-.2-.1-.4-.2-.6-.1-.2-.3-.3-.5-.4-.2-.1-.5-.2-.8-.2-.2 0-.4 0-.6.1-.2.1-.3.1-.4.2l-.3.3c-.1.1-.1.3-.2.4 0 .1-.1.2-.1.4v.3h3.1c.1-.2.1-.3 0-.5zM147.8 30.4l-4.1-5.2v5.2h-1.3V19.6h1.3v4.8l3.8-4.8h1.4l-4.1 5 4.6 5.7h-1.6zM150.7 21v-1.4h1.3V21h-1.3zm.1 9.4V23h1.1v7.4h-1.1zM157.7 24.1c-.4 0-.7.1-1 .2-.3.2-.5.4-.6.6-.2.3-.3.5-.3.9-.1.3-.1.7-.1 1v3.5h-1.1V23h1.1v1.8c.1-.2.2-.4.4-.6.1-.2.3-.4.5-.6.2-.2.4-.3.7-.5.3-.1.5-.2.8-.2v1.4h-.4zM163.1 25.2v-.5c0-.2-.1-.4-.1-.6-.1-.2-.2-.4-.4-.5-.2-.1-.4-.2-.7-.2-.3 0-.6.1-.8.3-.2.2-.4.4-.5.7l-.3.9c0 .3-.1.6-.1.9 0 .3 0 .5.1.8 0 .3.1.6.2.8.1.3.2.5.3.8.1.2.3.5.5.6.2.2.5.3.7.4.3.1.6.2 1 .2h.7c.1 0 .2 0 .3-.1.1 0 .2-.1.3-.1v.7c-.3.1-.5.2-.8.2-.3 0-.5.1-.9.1-.7 0-1.3-.1-1.8-.3-.5-.2-.9-.5-1.1-.9-.3-.4-.5-.8-.6-1.3-.1-.5-.2-1-.2-1.6 0-.6.1-1.1.2-1.6s.3-.8.6-1.1c.3-.3.6-.5.9-.7.4-.2.8-.2 1.2-.2.5 0 .9.1 1.2.2.3.1.6.3.8.5.2.2.4.5.4.8.1.3.1.6.1.9h-1.2zM170.4 30.4v-5-.6c0-.2-.1-.4-.2-.5-.1-.2-.2-.3-.3-.4-.1-.1-.3-.1-.6-.1-.2 0-.4.1-.6.2-.2.1-.4.2-.5.4-.2.2-.3.4-.4.6-.1.2-.2.5-.3.7-.1.2-.1.5-.2.8 0 .3-.1.5-.1.7v3.3H166V19.6h1.1v5.3c0-.1.1-.2.2-.4.1-.1.2-.3.3-.5.1-.2.2-.3.3-.5.1-.2.3-.3.5-.4l.6-.3c.2-.1.4-.1.7-.1.2 0 .5 0 .7.1.2.1.4.2.6.4.2.2.3.4.4.7.1.3.2.6.2 1v5.5h-1.2zM174.8 25.8c0 .3 0 .6.1.9 0 .3.1.6.2.9l.3.9c.1.3.3.5.5.7.2.2.5.4.8.5.3.1.6.2 1 .2h.7c.1 0 .2 0 .3-.1.1 0 .2-.1.3-.1v.7c-.1 0-.3.1-.4.1-.1 0-.3.1-.4.1-.1 0-.3 0-.4.1h-.6c-.6 0-1.1-.1-1.5-.3-.4-.2-.8-.4-1.2-.8-.3-.3-.6-.8-.7-1.3-.2-.5-.3-1.1-.3-1.8 0-.5.1-1 .2-1.5.1-.4.3-.8.5-1.2.2-.3.5-.6.9-.8.4-.2.8-.3 1.4-.3.4 0 .8.1 1.1.2.3.1.5.3.7.5.2.2.3.4.5.6.1.2.2.5.2.7 0 .2.1.4.1.6v.4h-4.3zm3.1-1.2c0-.2-.1-.4-.2-.6-.1-.2-.3-.3-.5-.4-.2-.1-.5-.2-.8-.2-.2 0-.4 0-.6.1-.2.1-.3.1-.4.2l-.3.3c-.1.1-.1.3-.2.4 0 .1-.1.2-.1.4v.3h3.1c.1-.2.1-.3 0-.5zM63.3 47.6h-1.1l-2.9-7.4h1.3l2.3 5.9 2-5.9H66l-2.7 7.4zM73.2 44c0 .6-.1 1.1-.2 1.6s-.3.9-.6 1.2c-.3.3-.6.6-1 .7-.4.2-.9.3-1.4.3-.6 0-1-.1-1.4-.3-.4-.2-.7-.4-1-.7-.3-.3-.4-.7-.6-1.2-.1-.5-.2-1-.2-1.6 0-.6.1-1.1.2-1.6s.3-.9.6-1.2c.3-.3.6-.6 1-.8.4-.2.9-.3 1.4-.3.6 0 1 .1 1.4.3.4.2.7.5 1 .8.3.3.5.8.6 1.2.1.5.2 1 .2 1.6zm-1.3.1c0-.4 0-.8-.1-1.2-.1-.4-.1-.8-.3-1.1-.1-.3-.3-.6-.6-.8-.2-.2-.6-.3-1-.3-.3 0-.5 0-.7.1-.2.1-.4.2-.5.4-.1.2-.2.3-.3.6-.1.2-.2.5-.2.7-.1.3-.1.5-.1.8v.8c0 .4 0 .8.1 1.1 0 .4.1.7.3 1 .1.3.3.5.6.7.2.2.6.3 1 .3s.7-.1 1-.3c.3-.2.4-.4.6-.7.1-.3.2-.6.3-1-.1-.4-.1-.8-.1-1.1zM79.6 47.6v-4.8-.6c0-.2 0-.4-.1-.6-.1-.2-.2-.3-.3-.4-.1-.1-.3-.2-.6-.2s-.5.1-.7.2c-.2.1-.4.2-.6.4-.2.2-.3.4-.4.6-.1.2-.2.5-.3.7-.1.3-.1.5-.2.8 0 .3-.1.5-.1.8v3.2h-1.1v-7.4h1.1v1.8c.1-.2.2-.5.4-.7.2-.2.3-.5.6-.6.2-.2.5-.3.7-.5.3-.1.6-.2 1-.2.3 0 .6.1.8.2.2.1.4.3.5.5l.3.6c.1.2.1.4.1.7v5.6h-1.1zM95.8 47.6h-1.4l-2.5-9-2.5 9H88l-2-10.7h1.3l1.6 9.2 2.6-9.2h1.1L95 46l1.6-9.1h1.1l-1.9 10.7zM100 43.1c0 .3 0 .6.1.9 0 .3.1.6.2.9l.3.9c.1.3.3.5.5.7.2.2.5.4.8.5.3.1.6.2 1 .2h.7c.1 0 .2 0 .3-.1.1 0 .2 0 .3-.1v.7c-.2 0-.3.1-.4.1-.1 0-.3.1-.4.1-.1 0-.3 0-.5.1h-.6c-.6 0-1.1-.1-1.5-.3-.4-.2-.8-.4-1.2-.8-.3-.3-.6-.8-.7-1.3-.2-.5-.3-1.1-.3-1.8 0-.5.1-1 .2-1.5.1-.4.3-.8.5-1.2.2-.3.5-.6.9-.8.4-.2.8-.3 1.4-.3.4 0 .8.1 1.1.2.3.1.6.3.7.5.2.2.3.4.5.6.1.2.2.5.2.7 0 .2.1.4.1.6v.4H100zm3.1-1.3c0-.2-.1-.4-.2-.6-.1-.2-.3-.3-.5-.4-.2-.1-.5-.2-.8-.2-.2 0-.4 0-.6.1-.2.1-.3.1-.4.2l-.3.3c-.1.1-.1.3-.2.4 0 .1-.1.2-.1.4v.3h3.1v-.5zM110.2 45.6c0 .3-.1.6-.2.8-.1.3-.3.5-.5.7-.2.2-.5.4-.9.5-.3.1-.8.2-1.3.2s-.9 0-1.3-.1c-.3-.1-.6-.1-.8-.2v-1.2s.1.1.3.1c.1.1.3.2.5.2.2.1.4.2.6.2.2.1.5.1.7.1.2 0 .4 0 .6-.1.2 0 .4-.1.5-.2.1-.1.3-.2.3-.4.1-.1.1-.3.1-.5s0-.3-.1-.5c-.1-.1-.2-.3-.3-.4-.1-.1-.3-.2-.5-.3-.2-.1-.4-.2-.6-.4-.2-.1-.5-.3-.7-.4-.2-.1-.5-.3-.6-.4-.2-.2-.4-.4-.5-.6-.1-.2-.2-.5-.2-.8 0-.6.2-1.1.6-1.5.4-.4 1.1-.5 1.9-.5h.6c.2 0 .3 0 .5.1.1 0 .3.1.4.1.1 0 .2 0 .3.1v1.1c-.1 0-.2-.1-.3-.2-.1-.1-.3-.1-.4-.2-.2-.1-.3-.1-.5-.2-.2 0-.4-.1-.6-.1-.2 0-.3 0-.5.1-.2 0-.3.1-.4.2l-.3.3c-.1.1-.1.2-.1.4s.1.4.2.6c.1.2.3.3.5.4.2.1.5.3.8.4.3.1.6.3.9.5.2.1.3.2.5.3.2.1.3.3.4.4.1.2.2.3.3.5.1.4.1.7.1.9zM113.5 40.9v5c0 .2.1.4.1.5.1.2.2.3.4.4.2.1.4.1.7.1h.4c.1 0 .2 0 .3-.1v.8c-.2 0-.3.1-.5.1h-.4c-.8 0-1.3-.1-1.7-.4-.4-.3-.5-.8-.5-1.4v-5H111v-.7h1.3v-1.7l1.1-.7v2.4h2v.7h-1.9zM121.1 37.7c-.2-.1-.4-.1-.7-.1-.3 0-.6.1-.8.2-.2.1-.4.2-.5.4-.1.2-.2.4-.2.6v1.5h2.1v.7h-2.1v6.7h-1.1V41h-1.4v-.7h1.4v-.5-.7c0-.2.1-.5.1-.7.1-.2.1-.4.3-.6.1-.2.3-.3.5-.5.2-.1.4-.2.7-.3.3-.1.6-.1 1-.1h.8c.2 0 .4.1.5.1v.9c-.2-.1-.4-.1-.6-.2zM126.1 47.6v-1c-.1.1-.1.2-.3.3l-.4.4-.6.3c-.2.1-.5.1-.8.1-.3 0-.6 0-.8-.2-.2-.1-.5-.2-.6-.4-.2-.2-.3-.4-.4-.6-.1-.2-.1-.5-.1-.7 0-.4.1-.7.2-.9.1-.3.3-.5.6-.6.2-.2.5-.3.8-.4.3-.1.6-.2.9-.2.3-.1.6-.1.9-.1.3 0 .6 0 .8-.1v-1-.6c0-.2-.1-.4-.2-.6-.1-.2-.2-.3-.4-.5-.2-.1-.4-.2-.7-.2-.3 0-.5.1-.7.2-.2.1-.3.2-.4.4-.1.1-.1.3-.2.5 0 .2 0 .3-.1.5h-1.3c0-.2.1-.5.1-.7.1-.2.2-.5.4-.7.2-.2.5-.4.8-.5.3-.1.8-.2 1.3-.2.4 0 .7 0 .9.1.3.1.5.2.7.3.2.1.3.3.4.4.1.2.2.3.3.5.1.2.1.4.1.6V47.7h-1.2zm0-3.4h-.4c-.2 0-.4 0-.6.1-.2 0-.4.1-.7.1l-.6.3c-.2.1-.4.3-.5.4-.1.2-.2.4-.2.7 0 .4.1.7.3.9.2.2.5.3.8.3.2 0 .5-.1.7-.2.2-.1.4-.2.6-.4.2-.2.3-.4.4-.6.1-.2.1-.5.1-.8v-.8zM129.8 47.6V36.9h1.1v10.7h-1.1zM134.2 43.1c0 .3 0 .6.1.9 0 .3.1.6.2.9l.3.9c.1.3.3.5.5.7.2.2.5.4.8.5.3.1.6.2 1 .2h.7c.1 0 .2 0 .3-.1.1 0 .2 0 .3-.1v.7c-.2 0-.3.1-.4.1-.1 0-.3.1-.4.1-.1 0-.3 0-.4.1h-.6c-.6 0-1.1-.1-1.5-.3-.4-.2-.8-.4-1.2-.8-.3-.3-.6-.8-.7-1.3-.2-.5-.3-1.1-.3-1.8 0-.5.1-1 .2-1.5.1-.4.3-.8.5-1.2.2-.3.5-.6.9-.8.4-.2.8-.3 1.4-.3.4 0 .8.1 1.1.2.3.1.5.3.7.5.2.2.3.4.5.6.1.2.2.5.2.7 0 .2.1.4.1.6v.4h-4.3zm3.1-1.3c0-.2-.1-.4-.2-.6-.1-.2-.3-.3-.5-.4-.2-.1-.5-.2-.8-.2-.2 0-.4 0-.6.1-.2.1-.3.1-.4.2l-.3.3c-.1.1-.1.3-.2.4 0 .1-.1.2-.1.4v.3h3.1v-.5zM144.9 47.6v-4.8-.6c0-.2 0-.4-.1-.6-.1-.2-.2-.3-.3-.4-.1-.1-.3-.2-.6-.2s-.5.1-.7.2c-.2.1-.4.2-.6.4-.2.2-.3.4-.4.6-.1.2-.2.5-.3.7-.1.3-.1.5-.2.8 0 .3-.1.5-.1.8v3.2h-1.1v-7.4h1.1v1.8c.1-.2.2-.5.4-.7.2-.2.3-.5.6-.6.2-.2.5-.3.7-.5.3-.1.6-.2 1-.2.3 0 .6.1.8.2.2.1.4.3.5.5l.3.6c.1.2.1.4.1.7v5.6h-1.1z"/></svg>
