<svg xmlns="http://www.w3.org/2000/svg" viewBox="0 0 180 90"><path fill="#FFF" d="M88.3 43v5.3h12.1V43h-3.3V26.8L109 48.5h7.1v-25h9.3V43h-4.6v5.3h17.6c6.3 0 14.5-4.5 14.5-14.7 0-10.3-6.5-15.5-16.6-15.5h-29.7v5.3h3.6V36l-9.8-17.9H75.1v5.3h2.8v17.4c0 2.2-1.9 2.7-5 2.7s-4-1.7-4-3.5V23.5H72v-5.3H57.8v5.3h3.4v17.7c0 2.7 2.6 7.3 7.8 7.3h6.5c3.1 0 8.3-3.1 8.3-7.8V23.5h7.4V43h-2.9zm48-19.5c3.6 0 8.7 1.8 8.7 9.9 0 8.7-6.3 9.6-10.2 9.6h-1.7V23.5h3.2zM55.6 27.6v-9.5H29v5.4h4.6V43H29v5.4h16.9V43h-4.6v-7.6H48v-5.3h-6.7v-6.6h8.3v4.1M103.7 68.2h-6.5V53.9h3v-3.5H88.4v3.5h3.2v14.3h-3.2v3.6h19.2V61.5h-3.9M45 60.3s2.8-1 2.8-4.1c0-4.4-2.2-5.8-8.8-5.8H29v3.5h2.6v14.3H29v3.5h10c7.2 0 9.6-2 9.6-6.2 0-3.7-3.6-5.2-3.6-5.2m-2.7-4.2c0 1.8-1.5 2.7-3.2 2.7h-1.8v-4.9h1.2c1.9 0 3.8.5 3.8 2.2M39 68.2h-1.6v-5.7H39c2.5 0 3.8 1.3 3.8 2.7 0 1.5-1.2 3-3.8 3M83.7 53.9h3.2v-3.5H74.7v3.5H78v14.3h-3.3v3.6h12.2v-3.6h-3.2M108.9 50.4v3.5h2.7v14.3h-2.7v3.6h19.2v-6.9h-4v3.3h-6.8v-5.6h5.3v-4h-5.3v-4.7h6.8v3.4h4v-6.9M146.1 61.6c.5-.3 3.7-2.5 3.7-5.4 0-4.4-2.2-5.8-8.8-5.8h-10.9v3.5h2.6v14.3h-2.6v3.5h11.2v-3.5h-2.9v-5.7h2.6l4.7 9.3h6.7v-3.5h-3l-3.3-6.7zm-7.7-7.7h2c1.9 0 3.8.5 3.8 2.2 0 1.8-1.5 2.7-3.2 2.7h-2.6v-4.9z"/><path fill="#FFF" d="M61.9 50c-1.1 0-2.2.1-3.2.3-.1-.5-.1-1.1-.1-1.5 0-2.6.6-4.2.6-5.4 0-5.2-4.2-10.5-8.3-11.6 3.2 4.6 4.3 7.9 4.3 9.6 0 2.2-.4 3.5-.4 6.4 0 1.2.1 2.3.4 3.5-3.1 1.3-5.2 3.4-5.2 5.8v9.1c0 3.9 5.3 7 11.8 7s11.8-3.1 11.8-7V57c.2-3.9-5.1-7-11.7-7m-.3 14.3c-5.1 0-9.2-2.1-9.2-5.8 0-2.2 1.5-3.9 3.8-4.8 1.1 2.2 3 4.1 6.1 5.3-1.4-1.4-2.5-3.7-3.1-6.1.8-.1 1.5-.2 2.4-.2 5.2 0 9.2 2.1 9.2 5.8 0 3.7-4.1 5.8-9.2 5.8"/></svg>
