<?xml version="1.0" encoding="UTF-8" standalone="no"?>
<svg width="200px" height="59px" viewBox="0 0 200 59" version="1.1" xmlns="http://www.w3.org/2000/svg" xmlns:xlink="http://www.w3.org/1999/xlink">
    <!-- Generator: Sketch 3.6.1 (26313) - http://www.bohemiancoding.com/sketch -->
    <title>logo</title>
    <desc>Created with Sketch.</desc>
    <defs>
        <path id="path-ge-1" d="M0,0.337939203 L199.704554,0.337939203 L199.704554,58.8235294 L0,58.8235294 L0,0.337939203 Z"></path>
        <path id="path-ge-3" d="M0,0.337939203 L199.704554,0.337939203 L199.704554,58.8235294 L0,58.8235294"></path>
    </defs>
    <g id="Page-ge-1" stroke="none" stroke-width="1" fill="none" fill-rule="evenodd">
        <g id="Desktop-HD" transform="translate(-648.000000, -2745.000000)">
            <g id="case-study-quote" transform="translate(-2.000000, 2596.000000)">
                <g id="Group" transform="translate(98.000000, 96.000000)">
                    <g id="logo" transform="translate(552.000000, 53.000000)">
                        <path d="M157.115723,27.8341492 C156.730376,26.3051323 156.776317,25.2640742 156.430574,25.2640742 C156.260277,25.2640742 156.220673,25.3406632 156.173545,25.3876431 C155.061465,26.9660087 154.160871,28.2506514 151.150178,28.2506514 C148.195723,28.2506514 145.844832,26.6758389 145.844832,23.6446506 C145.844832,20.0303593 150.68404,18.5400316 153.563644,17.2119621 C156.002455,16.0907619 156.605228,16.0050928 156.605228,13.3134228 C156.605228,11.230912 155.790574,9.65254639 153.254337,9.65254639 C149.182653,9.65254639 150.866614,13.638334 148.066218,13.638334 C147.13196,13.638334 146.490772,13.1807738 146.490772,12.1831425 C146.490772,9.36869325 150.809188,8.40264508 154.111366,8.40264508 C157.160475,8.40264508 159.779881,9.06707462 159.779881,11.7642716 L159.779881,20.9087643 C159.779881,23.3552704 159.650376,25.8827083 160.982653,27.5881958 L157.115723,27.8341492 Z M152.742257,25.9273194 C155.322059,25.9273194 156.605228,23.6916305 156.605228,21.3173707 L156.605228,17.1274773 L154.296317,18.2482827 C151.124832,19.7836163 149.445624,20.6170154 149.445624,22.982195 C149.445624,24.976668 150.809188,25.9273194 152.742257,25.9273194 L152.742257,25.9273194 Z" id="Fill-1" fill="#1C449C"></path>
                        <path d="M168.417545,23.0699171 L168.417545,10.6301224 C170.39299,10.39167 172.300713,9.83580734 173.118139,8.54721674 C171.603683,8.67828662 170.020317,8.74500592 168.417545,8.78566917 L168.417545,2.92779313 L165.415564,3.72368733 L165.234574,8.82080537 C164.553782,8.83067509 163.880911,8.83067509 163.229426,8.83067509 L163.229426,10.8180418 L165.234574,10.8180418 L165.234574,23.6917094 C165.234574,26.2227004 166.27101,28.0099092 169.092,28.0099092 C170.728832,28.0099092 172.741505,26.7647454 172.781109,26.3908804 L172.957347,24.6032767 C172.484871,25.0604422 171.11101,25.6005132 170.339921,25.6005132 C168.624673,25.6005132 168.417545,24.4390446 168.417545,23.0699171" id="Fill-3" fill="#1C449C"></path>
                        <path d="M145.793782,53.8771023 L145.793782,41.4436242 C147.771604,41.1992499 149.67695,40.6453612 150.497545,39.3547967 C148.988238,39.4913936 147.39497,39.5581129 145.793782,39.5912752 L145.793782,33.7428741 L142.804079,34.5316621 L142.621505,39.6323332 L140.618337,39.6323332 L140.618337,41.630754 L142.621505,41.6272009 L142.621505,54.5048164 C142.621505,57.0322542 143.649624,58.81591 146.478931,58.81591 C148.113386,58.81591 150.120911,57.5719305 150.163287,57.1980655 L150.344277,55.4124358 C149.869426,55.8727596 148.501901,56.4100671 147.736752,56.4100671 C146.009624,56.4100671 145.793782,55.2482037 145.793782,53.8771023" id="Fill-5" fill="#1C449C"></path>
                        <path d="M111.400198,5.38073431 C108.490099,3.0921437 106.037426,2.26269246 102.737624,2.26269246 C96.1039604,2.26269246 92.4560396,7.70011844 92.4560396,13.7676273 C92.4560396,21.4502171 96.0148515,26.4277142 104.279802,26.4277142 C105.393861,26.4277142 106.391089,26.3005922 107.464356,26.1399131 C107.901584,24.7222266 107.901584,23.2694039 107.901584,21.8607975 L107.901584,19.8209238 C107.901584,18.4660087 107.878218,16.947651 107.51703,15.680379 C107.301188,14.8979076 106.547921,14.8979076 105.494455,14.3890249 L111.729703,14.3890249 L111.753861,23.9812081 C111.753861,25.0530596 111.880594,26.5508883 112.050099,27.5879984 C109.429901,28.0084485 105.919802,28.2551915 102.916238,28.2551915 C93.8762376,28.2551915 87.9982178,24.3957363 87.9982178,15.0562179 C87.9982178,5.00529017 95.3328713,0.439557837 104.928911,0.439557837 C107.071485,0.439557837 109.214059,0.727358863 111.400198,0.897907619 L111.400198,5.38073431" id="Fill-7" fill="#1C449C"></path>
                        <path d="M117.111842,15.7135018 C117.111842,12.7699566 117.111842,9.90063166 115.995802,9.0226214 C117.579168,8.99459139 119.082139,8.82088433 119.594218,8.82088433 C120.365307,8.82088433 119.888079,10.8982629 120.365307,10.8982629 C120.582733,10.8982629 121.993426,8.40793525 124.529267,8.40793525 C126.029861,8.40793525 126.877386,8.99459139 126.877386,9.98077379 C126.877386,10.7707462 126.449663,11.3538492 125.376,11.3538492 C124.566099,11.3538492 123.710653,11.2267272 122.678178,11.2267272 C120.543921,11.2267272 120.286495,12.6795499 120.286495,14.514923 L120.286495,23.0660482 C120.286495,24.5994078 120.286495,26.3893802 121.05996,27.593486 L116.331248,27.593486 C117.111842,26.3893802 117.111842,24.5994078 117.111842,23.0660482 L117.111842,15.7135018" id="Fill-9" fill="#1C449C"></path>
                        <path d="M131.492277,15.6332807 C131.407921,16.4236478 131.321188,17.0849191 131.321188,17.9609554 C131.321188,21.8219897 133.124356,25.5187919 137.58297,25.5187919 C139.682376,25.5187919 141.736634,24.6814449 142.774653,23.5645874 L142.774653,24.0241216 C142.774653,26.2203316 139.171881,28.2507304 135.995644,28.2507304 C130.377822,28.2507304 127.717624,23.3514015 127.717624,18.3285038 C127.717624,12.9341098 130.80396,8.4078563 136.68198,8.4078563 C140.794455,8.4078563 143.237228,11.0249112 143.237228,13.7244769 C143.237228,15.6332807 141.834059,15.6332807 139.171881,15.6332807 L131.492277,15.6332807 Z M136.228515,14.39167 C138.326337,14.39167 139.440792,14.39167 139.440792,12.8093565 C139.440792,11.2677063 138.282772,9.6542045 136.187327,9.6542045 C133.480396,9.6542045 132.32,12.1832215 131.811881,14.39167 L136.228515,14.39167 L136.228515,14.39167 Z" id="Fill-11" fill="#1C449C"></path>
                        <path d="M92.6896634,56.4964469 L97.8397624,56.4964469 C100.494416,56.4964469 103.235802,55.866364 105.254812,54.1292933 L104.478178,57.9413739 C103.320158,58.0278326 101.905505,58.1510067 100.367683,58.1510067 L87.8643168,58.1510067 C88.8167921,56.7424003 88.9320396,54.5797473 88.9320396,52.7096328 L88.9320396,37.1071852 C88.9320396,35.2370707 88.9320396,33.0783656 87.9981782,31.6658113 L103.063129,31.6658113 L103.235802,34.8639953 C101.732832,33.6156731 99.425505,33.3286617 96.8944158,33.3286617 L92.6896634,33.3286617 L93.1443168,42.6018555 C96.446495,42.6018555 99.6781782,43.2469404 102.976792,42.9571654 C101.479762,45.324319 96.4235248,45.324319 93.7649109,45.324319 L92.6896634,45.324319 L92.6896634,56.4964469" id="Fill-13" fill="#1C449C"></path>
                        <g id="Group-17">
                            <mask id="mask-ge-2" fill="white">
                                <use xlink:href="#path-ge-1"></use>
                            </mask>
                            <g id="Clip-ge-16"></g>
                            <path d="M118.750139,58.3932886 C118.373505,56.8658508 118.402812,55.8350572 118.059446,55.8350572 C117.897069,55.8350572 117.853505,55.9136202 117.802416,55.9527043 C116.697861,57.5350178 115.787762,58.8236084 112.789347,58.8236084 C109.830535,58.8236084 107.473703,57.2397158 107.473703,54.209317 C107.473703,50.5930517 112.322416,49.102724 115.196475,47.7726806 C117.630139,46.6499013 118.240436,46.5721279 118.240436,43.8725622 C118.240436,41.7959732 117.414297,40.2191867 114.892713,40.2191867 C110.825386,40.2191867 112.487168,44.2053691 109.70697,44.2053691 C108.759248,44.2053691 108.113703,43.7474141 108.113703,42.7497829 C108.113703,39.9238847 112.448356,38.9752073 115.738257,38.9752073 C118.793307,38.9752073 121.400832,39.6325306 121.400832,42.3356494 L121.400832,51.4698776 C121.400832,53.914015 121.281228,56.4469799 122.611525,58.1473352 L118.750139,58.3932886 Z M114.376673,56.4963285 C116.953307,56.4963285 118.240436,54.2511646 118.240436,51.8875642 L118.240436,47.6909593 L115.920436,48.8133439 C112.752119,50.3486775 111.080832,51.1785235 111.080832,53.5425188 C111.080832,55.5393604 112.448356,56.4963285 114.376673,56.4963285 L114.376673,56.4963285 Z" id="Fill-15" fill="#1C449C" mask="url(#mask-ge-2)"></path>
                        </g>
                        <g id="Group-20">
                            <mask id="mark-ge-4" fill="white">
                                <use xlink:href="#path-ge-3"></use>
                            </mask>
                            <g id="Clip-ge-19"></g>
                            <path d="M138.179287,52.8816423 C138.179287,56.8247927 134.246614,58.8236084 130.607406,58.8236084 C128.890178,58.8236084 127.438297,58.4872483 125.843446,57.9005922 C125.376119,57.73636 125.111564,57.5721279 125.111564,56.9929728 C125.111564,55.9953415 125.287802,54.990604 125.333743,53.9558626 C126.663248,56.0328464 127.730574,57.321437 130.567802,57.321437 C133.09097,57.321437 134.592356,56.1639163 134.592356,53.7916305 C134.592356,48.730833 126.096119,49.5567311 126.096119,43.4165811 C126.096119,40.3016976 128.588396,38.9677063 132.61097,38.9677063 C133.898099,38.9677063 135.22998,39.1765495 136.524634,39.4679037 C136.648594,39.5089617 137.070772,39.5891038 137.070772,39.8413739 C137.070772,40.5847612 137.035129,41.7959732 136.990376,42.6680616 C135.320277,40.6341098 134.458495,40.2191867 132.480673,40.2191867 C130.815327,40.2191867 129.273149,40.962574 129.273149,42.7497829 C129.273149,47.6846427 138.179287,47.110225 138.179287,52.8816423" id="Fill-18" fill="#1C449C" mask="url(#mark-ge-4)"></path>
                        </g>
                        <path d="M156.16198,46.1964864 C156.083168,46.9908014 156.004752,47.6437821 156.004752,48.5221871 C156.004752,52.3788788 157.80198,56.0816028 162.246337,56.0816028 C164.357228,56.0816028 166.401584,55.2482037 167.445941,54.1293723 L167.445941,54.5794315 C167.445941,56.78788 163.841584,58.823411 160.673267,58.823411 C155.05505,58.823411 152.396436,53.9181603 152.396436,48.8952625 C152.396436,43.4992894 155.486733,38.9675089 161.347723,38.9675089 C165.470495,38.9675089 167.914851,41.5900908 167.914851,44.2817608 C167.914851,46.1964864 166.490693,46.1964864 163.841584,46.1964864 L156.16198,46.1964864 Z M160.83802,44.9489538 C162.93703,44.9489538 164.05703,44.9489538 164.05703,43.3721674 C164.05703,41.8368338 162.903762,40.2189893 160.79604,40.2189893 C158.09901,40.2189893 156.942574,42.7499803 156.42495,44.9489538 L160.83802,44.9489538 L160.83802,44.9489538 Z" id="Fill-21" fill="#1C449C"></path>
                        <path d="M171.972594,46.2828267 C171.972594,43.3309909 171.972594,40.4660087 170.861703,39.5951046 C172.445069,39.5544414 173.950416,39.3894197 174.466455,39.3894197 C175.239129,39.3894197 174.756356,41.4589025 175.239129,41.4589025 C175.449426,41.4589025 176.86804,38.9752862 179.392792,38.9752862 C180.890614,38.9752862 181.751208,39.5544414 181.751208,40.5512831 C181.751208,41.3400711 181.323485,41.9223845 180.248634,41.9223845 C179.428436,41.9223845 178.575366,41.7913146 177.544871,41.7913146 C175.399921,41.7913146 175.139327,43.244927 175.139327,45.0700355 L175.139327,53.6251086 C175.139327,55.1584682 175.139327,56.9535728 175.912,58.1549151 L171.211406,58.1549151 C171.972594,56.9535728 171.972594,55.1584682 171.972594,53.6251086 L171.972594,46.2828267" id="Fill-23" fill="#1C449C"></path>
                        <path d="M187.910891,39.3894591 L187.910891,40.8489933 C187.910891,41.1675878 187.877624,41.5043427 188.171485,41.5043427 C188.558416,41.5043427 190.444356,38.9678247 193.789703,38.9678247 C197.011485,38.9678247 199.020198,40.5082906 199.020198,44.367351 L199.020198,53.66818 C199.020198,55.2058824 199.020198,56.9930912 199.704554,58.1589025 L195.845545,58.1589025 L195.845545,46.7755626 C195.845545,44.1229767 195.46495,41.2169364 192.028911,41.2169364 C188.650297,41.2169364 187.999208,44.1585077 187.999208,46.9867746 L187.999208,53.66818 C187.999208,55.2058824 187.999208,56.9930912 188.776634,58.1589025 L184.063366,58.1589025 C184.824554,56.9930912 184.824554,55.2058824 184.824554,53.66818 L184.824554,43.7905645 C184.824554,42.085077 184.824554,40.4660482 183.931881,39.6322542 L187.910891,39.3894591" id="Fill-25" fill="#1C449C"></path>
                        <path d="M61.8331881,17.6049349 C61.8331881,17.6049349 61.9179406,21.6929728 68.031604,19.3084485 C69.7131881,18.649546 72.252198,17.9377418 73.592,18.2504145 C74.0632871,18.3558231 72.5226931,16.9476115 68.1927921,18.6649428 C63.6878416,20.4450454 61.8331881,17.6049349 61.8331881,17.6049349 M76.4961584,10.7707462 C76.4961584,10.7707462 77.3361584,10.270154 77.2553663,8.78574812 C77.2201188,7.96419266 77.2458614,7.42254244 77.2458614,7.42254244 C77.2458614,7.42254244 77.4597228,7.39332807 77.7460594,7.14500592 C78.0834851,6.85878405 78.2739802,6.56348204 78.0482376,6.1 C77.7872475,5.56229767 77.5658614,6.25673115 76.782495,6.1 C76.0232871,5.95353336 74.7599208,6.24133439 75.2462574,6.56782471 C75.701703,6.86707462 76.7294257,7.42254244 76.7294257,7.42254244 C76.7294257,7.42254244 76.8062574,7.73560995 76.8062574,8.89155152 C76.8062574,10.0455191 76.4961584,10.7707462 76.4961584,10.7707462 M68.861703,6.61677852 L69.3638812,5.58401105 C69.3638812,5.58401105 68.522297,5.05183577 67.5179406,4.94445322 C66.3539802,4.82088433 64.9393267,5.55637584 64.9393267,5.55637584 C64.9393267,5.55637584 66.2854653,5.30213186 67.262495,5.60532965 C68.3611089,5.94366364 68.861703,6.61677852 68.861703,6.61677852 M62.9242772,35.4091196 C63.7484356,36.471891 66.801505,38.2985788 67.0644752,36.2835768 C66.801505,37.621516 63.7912079,35.3175286 62.9302178,33.8331228 C62.0490297,32.3096328 61.992,30.9476115 61.4232871,30.7873273 C61.1072475,30.698105 59.7397228,32.0119621 59.7397228,34.5433478 C60.6284356,32.8023293 61.0327921,32.0119621 61.4684356,32.9278721 C61.7250693,33.4592578 62.3258614,34.6467825 62.9242772,35.4091196 M54.2751683,33.9720884 C56.0213069,36.8666798 58.6058614,37.0190683 58.9666535,37.0190683 C58.6058614,37.0190683 55.5290297,35.5563758 54.0533861,31.883261 C53.2510099,29.8722069 53.0411089,28.7024477 53.0411089,28.7024477 C52.2288317,28.3956968 51.9971485,32.2646269 51.4830891,32.2646269 C50.9654653,32.2646269 49.491802,30.9476115 48.0712079,27.9436636 C47.5393267,26.8118042 47.6351683,24.6542835 47.6474455,21.8098302 C46.8173465,25.2796289 46.9741782,26.946822 47.902099,29.5165022 C48.7147723,31.7660087 51.2652673,34.1051323 51.7813069,34.0889459 C52.7294257,34.0545993 52.142495,31.0123569 52.9626931,31.3100276 C52.9626931,31.3100276 53.1432871,32.1213186 54.2751683,33.9720884 M57.471604,5.17343071 C58.8137822,4.86036321 59.9535842,6.00209238 59.9535842,6.00209238 C59.9535842,6.00209238 59.3298218,4.14066325 57.2636832,4.45333597 C55.1975446,4.76245559 54.3753663,6.40556652 55.3092277,8.26383735 C56.2351683,10.1217134 57.8874455,10.0119621 57.8874455,10.0119621 C57.8874455,10.0119621 57.8874455,12.3791157 58.7175446,13.7182392 C59.541703,15.0605211 60.8874455,16.3941176 60.8874455,16.3941176 C60.8874455,16.3941176 59.3298218,13.7182392 59.1373465,12.4786024 C58.9135842,11.2444927 58.9135842,9.29226214 58.9135842,9.29226214 C58.9135842,9.29226214 56.8494257,9.08499803 56.3432871,7.95471773 C55.8193267,6.82009475 55.7666535,5.5682195 57.471604,5.17343071 M81.081505,53.1809317 C81.8038812,54.3645085 83.1500198,56.4217529 82.3159604,57.7032373 C81.4993267,58.9918279 78.5151683,58.3191078 75.8213069,58.0099882 C73.1432871,57.7032373 71.6910099,58.0609159 70.7294257,58.0609159 C69.7365545,58.0609159 69.1678416,57.3455586 68.6613069,56.5180813 C68.141703,55.7036321 68.031604,55.4422819 68.0826931,54.3645085 C68.141703,53.2863403 67.9844752,53.9026056 66.7504158,51.1252665 C65.5183366,48.3463482 64.2292277,47.1686932 63.342495,46.6459929 C62.4593267,46.1378997 62.622099,45.8248322 62.7242772,45.5701934 C62.8304158,45.3120016 63.1947723,44.698105 62.3686337,42.8007501 C61.5488317,40.8923411 60.9167525,40.2306751 60.9167525,40.2306751 C59.4335842,41.5007106 55.4605149,42.4884722 55.4605149,42.4884722 C55.4605149,42.4884722 55.4605149,43.6673115 56.1725941,47.1686932 C56.7963564,50.1781682 57.9797228,52.7683774 58.4411089,52.9720884 C58.9096238,53.1809317 60.4363564,52.2934465 61.6272475,52.3266088 C63.5226931,52.3791157 63.5912079,53.8769443 64.0114059,55.8015397 C64.4232871,57.6791552 63.9052673,58.2685748 62.6731881,58.1702724 C61.4411089,58.0609159 56.2276436,58.0099882 54.1183366,57.9120805 C51.9971485,57.810225 52.4114059,57.3964864 51.6874455,56.5705882 C50.9654653,55.7494276 51.2731881,54.5717726 51.1690297,53.9495855 C51.0652673,53.3356889 48.9480396,49.634544 48.4359604,48.8643111 C47.921901,48.0917094 47.3512079,48.0917094 46.8411089,47.4758389 C46.3167525,46.8572049 46.5836832,46.1378997 46.7389307,45.5701934 C46.8937822,45.0076194 46.6858614,43.8761548 46.6858614,43.8761548 C46.6858614,43.8761548 45.1397228,43.9626135 43.5896238,43.9626135 C42.0474455,43.9626135 40.6466535,43.720608 40.6466535,43.720608 C40.6466535,43.720608 39.1551683,45.1106593 37.0403168,45.8248322 C34.9286337,46.5488749 32.6098218,47.0099882 32.0466535,47.3191078 C31.4696238,47.6258587 31.881505,48.2969996 32.5036832,50.2022503 C33.1199208,52.1051323 34.2011089,53.3491117 34.2011089,53.3491117 L35.7567525,52.8422029 C36.8339802,52.4829451 37.771802,52.5469009 38.2799208,52.9464272 C39.2747723,53.7091591 40.0304158,56.1872483 39.9282376,57.4193841 C39.8264554,58.647572 38.1230891,58.2444927 33.9987327,58.1371101 C29.8747723,58.0317015 29.3032871,58.2444927 28.6383366,58.0317015 C27.9634851,57.8264114 27.6573465,56.9535334 27.5967525,56.4395184 C27.5591287,55.9251086 27.8632871,55.7762732 26.5777426,53.253178 C25.2850693,50.7344256 25.4399208,50.3001579 24.302099,49.5721674 C23.1678416,48.8643111 23.1147723,48.9582708 22.9579406,48.0917094 C22.6379406,46.2575207 23.9939802,46.0336755 25.3892277,45.4138571 C26.7761584,44.7999605 27.4494257,43.2077773 27.4494257,43.2077773 L26.0561584,43.3096328 C26.0561584,43.3096328 24.6648713,45.0585472 20.3856634,45.9811686 C16.0965545,46.9120805 13.5714059,47.5125543 11.7995248,48.8173312 C10.8201188,49.5413739 9.45457426,53.3234505 9.45457426,53.3234505 C9.45457426,53.3234505 9.96665347,53.0613107 11.2050693,52.698105 C12.4371485,52.3495065 12.6941782,52.698105 13.732198,54.6574418 C14.7603168,56.6061192 14.3464554,58.2567311 12.4371485,58.3076589 C10.5361584,58.3585867 10.841901,57.7032373 7.17853465,57.9590604 C3.52348515,58.2176471 2.97972277,58.692578 2.23041584,57.9006317 C1.65932673,57.3060797 1.81813861,56.1323727 1.82605941,55.3621398 C1.84744554,54.3645085 2.52071287,53.9926174 3.0129901,53.0111725 C3.31120792,52.4221477 4.30011881,50.3641137 4.91437624,49.0680221 C5.91873267,46.9906435 6.04071287,45.6898144 6.19952475,44.4908409 C6.28982178,43.8315436 7.54368317,42.8437821 8.56982178,42.9570865 C10.7868515,43.1682985 11.9801188,41.3558231 12.8569505,40.2306751 C13.732198,39.0964469 14.7052673,37.3984603 14.7052673,37.3984603 C14.7052673,37.3984603 10.4945743,39.5461113 5.30487129,38.2535728 C0.0248712871,36.9491907 -0.983445545,32.1138176 0.833584158,29.2290959 C2.31081188,26.87576 5.95437624,25.2717331 9.54130693,24.7754836 C13.6656634,24.2038295 16.1769505,24.3234505 16.5927921,23.3435847 C16.7773465,22.9097118 15.7298218,21.2741019 16.2985347,19.4043822 C16.8205149,17.7067904 17.652198,17.1039479 18.9377426,15.8797079 C20.2264554,14.6436242 20.081505,13.6112515 20.081505,13.6112515 C20.081505,13.6112515 22.9131881,18.700079 21.3591287,21.5776944 C18.6787327,26.5725622 12.5432871,26.2073826 8.98605941,27.0814449 C5.43041584,27.9515594 2.552,30.1402685 2.58922772,32.3250296 C2.66407921,36.4284643 10.8007129,37.2227793 13.1159604,34.4683379 C15.8906139,31.1398737 18.282297,27.9105014 27.3413069,27.423332 C34.9797228,27.0107777 36.8339802,27.881287 42.5595248,23.87576 C43.2284356,23.4162258 43.8133861,22.9681405 44.3294257,22.5532175 C44.1801188,21.4584682 44.211802,20.0107777 44.6668515,18.1450059 C45.361505,15.277655 47.0490297,12.6878405 46.8371485,12.4786024 C46.6272475,12.2812081 45.4969505,13.6151994 45.1888317,13.1023687 C44.8708119,12.5903277 46.5428911,8.59230162 48.1809109,6.7162653 C50.8688317,3.63375444 53.7571485,3.31910778 54.1710099,2.80864587 C54.5832871,2.29186735 52.2090297,2.70086854 52.5155644,2.18606396 C52.8252673,1.67204895 54.9991287,0.338057639 59.9535842,0.338057639 C65.4379406,0.330161863 64.0838812,1.36687722 65.9401188,1.78140545 C67.7979406,2.18606396 69.5658614,2.5015002 70.4902178,2.80864587 C71.4201188,3.11539676 71.8403168,4.04433478 72.352396,4.34753257 C72.8644752,4.65665219 73.1745743,4.55716542 75.2387327,4.76245559 C77.3104158,4.96577181 78.2149703,5.51334386 78.2993267,6.1 C78.4442772,7.07828662 78.3444752,8.6740229 77.9108119,9.88286617 C77.5302178,10.9701145 76.1745743,11.1426372 76.1745743,11.1426372 C76.1745743,11.1426372 74.7246733,11.5571654 72.1401188,10.9353731 C69.5658614,10.3210817 68.7361584,10.3210817 68.7361584,13.1023687 C68.7361584,15.8860245 69.3539802,15.6724437 72.4486337,15.6724437 C75.5484356,15.6724437 76.2704158,14.3384524 76.782495,14.3384524 C77.3104158,14.3384524 77.3104158,14.9586656 77.3104158,15.9839321 C77.3104158,17.0143308 77.2026931,18.0470983 76.6925941,18.4576786 C76.1745743,18.8643111 74.4692277,18.3909593 74.4692277,18.3909593 C74.4692277,18.3909593 75.4700198,19.7719305 75.6308119,20.670075 C76.5472475,26.0838137 72.8525941,29.6337544 72.342495,29.5591394 C71.4787327,29.4418871 71.6007129,25.7683774 70.6256634,26.5042637 C70.1900198,26.8347019 70.6256634,29.0356494 69.3226931,31.000908 L69.6189307,33.4359653 C69.6189307,33.4359653 70.311604,39.7063956 72.052198,45.4138571 C73.812198,51.1252665 75.5207129,52.3558231 75.8739802,52.9172128 C76.2391287,53.4876826 77.212198,52.7213976 78.6094257,52.3064745 C79.9987327,51.896289 80.3674455,51.9981445 81.081505,53.1809317" id="Fill-27" fill="#ED1A2D"></path>
                        <path d="M71.5241584,13.9747335 C71.5241584,13.9747335 72.3776238,12.2810896 73.9277228,12.0442163 C75.4778218,11.8132649 76.910297,12.4413739 78.269901,12.0228977 C79.1372277,11.7453612 79.8061386,11.3501777 79.8061386,11.3501777 C79.8061386,11.3501777 79.2215842,12.816818 78.3447525,13.5057244 C77.1768317,14.4401895 76.0861386,14.3012238 73.8473267,13.7398342 C72.6093069,13.4311094 71.5241584,13.9747335 71.5241584,13.9747335" id="Fill-29" fill="#ED1A2D"></path>
                    </g>
                </g>
            </g>
        </g>
    </g>
</svg>