<svg xmlns="http://www.w3.org/2000/svg" viewBox="422 83 180 90"><path fill="#FFF" d="M586.566 106.463c-4 0-7.3 1.2-9.8 3.1v.1c1.8-.9 4.7-1.5 7.4-1.5 9.1 0 17.6 6.1 17.6 16.7h.1c.1-.6.2-1.4.2-2.1-.1-11-7.9-16.3-15.5-16.3zm-1.7 6.3c-1.1.1-1.9 1.3-1.9 2.7 0 1.4.8 2.5 1.8 2.4 1.1-.1 1.9-1.2 2-2.6 0-1.5-.8-2.6-1.9-2.5zm-12.3.2c-3.7 3.1-5.2 7.3-5.2 12.1 0 8.4 6.5 16.3 16.7 16.3 7.5 0 14.1-4.4 16.4-11.5-1.7 3.5-4.8 6.2-8.5 7.6.9-5 2.1-9.8 2.7-15.5l-.1-.1c-.7.9-3.6 2.5-5.6 2.8-.4 3.8-.2 7.9-.9 13.6-.4.1-1.1.3-1.6.3.3-6.7 1.1-12.7 1.5-16.9.9.1 2.4.5 3.1.9 1.1-.1 2.5-.6 3.1-1.1v-.1c-2.4-1.2-6.3-2.5-9.7-2.5-2.3 0-6.2 1.3-9.4 3.1.4.3 1.2.7 1.9.7 1.2-.6 2.8-1 3.9-1.1.1 2.2 1 10.5 1.1 16.6-.5-.1-1.3-.3-1.6-.4-.4-5.7-.1-10.2-.4-13.1-1.8-.3-4.4-1.4-5.1-2.1l-.1.1c.6 6.8 1.3 9 1.9 13.7-4.7-2.8-7.5-7.5-7.5-12.8.2-4.4 1.2-8 3.4-10.6zm21.7 3c-.9.1-1.7 1.2-1.6 2.4 0 1.2.8 2.1 1.8 2 .9-.1 1.7-1.1 1.6-2.4-.1-1.2-.9-2.1-1.8-2zm-18.6.3c-1 0-1.8.9-1.8 2.2-.1 1.2.6 2.2 1.6 2.2.9.1 1.7-.7 1.8-2.1 0-1.2-.7-2.3-1.6-2.3z"/><path id="path2758" fill="#FFF" d="M485.166 140.463l-.2 1.1h1l.2-1.1h-1zm8.9 0c0 .1 0 .3-.1.4 0 .2-.1.6-.2.8l-1 4.6c0 .2-.1.6-.2.8 0 .2-.1.3-.1.4h1.1c0-.2 0-.5.1-1 .2-1 .5-1.7.8-2.1.3-.5.8-.8 1.1-.8.2 0 .3.1.3.4 0 .1 0 .3-.1.7l-.4 1.7c-.1.7-.2.9-.3 1.2h1.1c0-.3 0-.5.2-1.2l.4-1.9c.1-.6.2-.8.2-1 0-.5-.3-.8-.9-.8-.7 0-1.2.3-1.8 1.1.1-.3.2-.7.2-.9l.2-1.2c.1-.7.2-.9.3-1.2h-.9zm-32 .5c.1.3.1.3.3 1.2v.2l.8 5.1h1l3-5.2c.1-.1.3-.5.5-.8.1-.2.2-.3.3-.5h-1.3c-.1.3-.2.5-.4 1l-2.2 4.2-.5-4c-.1-.5-.1-.8-.1-1v-.2h-1.4zm8.8 1.6c-.7 0-1.2.2-1.7.8-.5.6-.9 1.6-.9 2.5 0 1 .5 1.6 1.4 1.6.6 0 1.4-.3 2.2-.8l-.3-.7c-.6.4-1.2.6-1.6.6-.5 0-.7-.3-.7-.9v-.2c1.6 0 2.8-.9 2.8-1.9.1-.6-.4-1-1.2-1zm6.5 0c-.6 0-1 .3-1.6 1.1l.2-1h-1c0 .3-.1.6-.2 1.2l-.5 2.3c-.1.4-.2 1-.3 1.2h1.1c0-.7.4-2 .6-2.7.3-.7.9-1.2 1.4-1.2h.1l.2-.9zm3.7 0c-1.2 0-2.1.7-2.1 1.6 0 .5.2.8.9 1.1.7.4.8.5.8.8 0 .4-.5.8-1 .8-.4 0-.7-.1-1.1-.2l-.4.7c.3.2.8.2 1.4.2 1.2 0 2.1-.7 2.1-1.7 0-.6-.2-.9-1-1.3-.6-.3-.7-.4-.7-.6 0-.4.4-.6.9-.6.4 0 .6 0 .9.2l.3-.7c-.3-.2-.6-.3-1-.3zm9.1 0c-.8 0-1.4.2-1.9.7-.5.6-.9 1.6-.9 2.6s.6 1.6 1.5 1.6c.6 0 1.3-.2 2-.7l-.3-.7c-.5.3-1.1.6-1.5.6-.4 0-.7-.3-.7-.9 0-.7.3-1.5.6-2 .3-.4.6-.5 1-.5.3 0 .6.1 1 .2l.4-.7c-.3-.1-.7-.2-1.2-.2zm11.5 0c-.7 0-1.2.2-1.7.8-.5.6-.9 1.6-.9 2.5 0 1 .5 1.6 1.4 1.6.6 0 1.4-.3 2.2-.8l-.4-.7c-.6.4-1.1.6-1.6.6s-.7-.3-.7-.9v-.2c1.6 0 2.8-.9 2.8-1.9.1-.6-.3-1-1.1-1zm6.5 0c-.6 0-1 .3-1.6 1.1l.2-1h-1c0 .3-.1.6-.2 1.2l-.5 2.3c-.1.4-.2 1-.3 1.2h1.1c0-.7.4-2 .6-2.7.3-.7.9-1.2 1.4-1.2h.1l.2-.9zm11.2 0c-.7 0-1.3.4-1.9 1.2.1-.2.1-.3.2-.6l.1-.5h-1c0 .2-.1.6-.2 1.2l-.5 2.3c-.1.6-.2 1-.3 1.2h1.1c0-.2 0-.5.1-1 .2-1 .5-1.7.8-2.1.3-.4.8-.8 1.1-.8.2 0 .3.1.3.4 0 .1 0 .4-.1.7l-.4 1.7c-.1.6-.2.9-.3 1.2h1.1c0-.3.1-.5.2-1.2l.4-2c.1-.4.1-.7.1-.8 0-.6-.3-.9-.8-.9zm5.3 0c-.6 0-1.1.3-1.6.8-.5.6-.9 1.8-.9 2.8 0 .9.4 1.4 1.1 1.4.7 0 1.3-.4 1.8-1.2-.1.4-.2.6-.2.8l-.1.2c-.2 1-.6 1.3-1.5 1.3-.5 0-.9-.1-1.3-.3l-.4.8c.5.2 1.1.4 1.7.4.6 0 1.1-.1 1.6-.4.5-.3.7-.7.9-1.7l.8-3.5c.1-.5.2-1 .3-1.2h-1.1l-.1.4c-.2-.4-.5-.6-1-.6zm6.4 0c-1.2 0-2.1.7-2.1 1.6 0 .5.2.8.8 1.1.7.4.8.5.8.8 0 .4-.5.8-1 .8-.4 0-.7-.1-1.1-.2l-.4.7c.3.2.8.2 1.4.2 1.2 0 2.1-.7 2.1-1.7 0-.6-.2-.9-1-1.3-.6-.3-.7-.4-.7-.6 0-.4.4-.6.9-.6.4 0 .6 0 .9.2l.3-.7c-.2-.2-.5-.3-.9-.3zm5.3 0c-.6 0-1.1.3-1.5.8-.5.6-.9 1.8-.9 2.8 0 .9.4 1.4 1.1 1.4.7 0 1.3-.4 1.8-1.2-.1.4-.2.6-.2.8l-.1.2c-.2 1-.6 1.3-1.5 1.3-.5 0-.8-.1-1.3-.3l-.4.8c.5.2 1.1.4 1.7.4.6 0 1.2-.1 1.6-.4.5-.3.7-.7.9-1.7l.7-3.5c.1-.5.2-1 .3-1.2h-1.1l-.1.4c-.2-.4-.6-.6-1-.6zm7.2 0c-.6 0-1 .3-1.6 1.1l.2-1h-1c0 .3-.1.6-.2 1.2l-.5 2.3c-.1.4-.2 1-.3 1.2h1.1c0-.7.4-2 .6-2.7.3-.7.9-1.2 1.4-1.2h.1l.2-.9zm11.1 0c-.7 0-1.2.3-1.8 1.1.1-.2.1-.4.2-.5l.1-.4h-1c0 .3-.1.6-.2 1.2l-.9 4.3c-.1.7-.2 1-.3 1.2h1.1c0-.3.1-.6.2-1.2l.2-1.2c.3.4.6.5 1.1.5.7 0 1.2-.2 1.6-.8.5-.6.9-1.8.9-2.8-.1-.9-.5-1.4-1.2-1.4zm6.4 0c-.7 0-1.2.3-1.8 1.1.1-.2.1-.4.2-.5l.1-.4h-1c0 .3-.1.6-.2 1.2l-.9 4.3c-.1.7-.2 1-.3 1.2h1.1c0-.3.1-.6.2-1.2l.3-1.2c.3.4.6.5 1.1.5.7 0 1.2-.2 1.6-.8.5-.6.8-1.8.8-2.8-.1-.9-.5-1.4-1.2-1.4zm5.6 0c-.7 0-1.2.2-1.7.8-.5.6-.9 1.6-.9 2.5 0 1 .5 1.6 1.4 1.6.6 0 1.4-.3 2.2-.8l-.4-.7c-.6.4-1.2.6-1.6.6-.5 0-.7-.3-.7-.9v-.2c1.6 0 2.8-.9 2.8-1.9.2-.6-.3-1-1.1-1zm-82 .1v.4c0 .3-.1.6-.2.8l-.5 2.3c-.1.6-.2 1-.3 1.2h1.1c0-.2.1-.6.2-1.2l.5-2.3c.1-.4.2-1 .3-1.2h-1.1zm25.6 0v.4c0 .2-.1.6-.2.8l-.4 1.9c-.1.4-.1.7-.1.9 0 .5.3.8.8.8.7 0 1.4-.5 1.9-1.3-.1.2-.2.6-.2.7l-.1.5h1c0-.3.2-1.2.2-1.2l.5-2.3c.1-.6.2-1 .3-1.2h-1.1c0 .3-.1.6-.2 1.1-.2.9-.4 1.6-.7 2-.3.5-.8.8-1.1.8-.2 0-.3-.1-.3-.3 0-.1 0-.4.1-.7l.4-1.7c.1-.3.2-.8.2-.8 0-.2.1-.3.1-.4h-1.1zm35.4 0v.4c0 .2-.1.6-.2.8l-.4 1.9c-.1.4-.1.7-.1.9 0 .5.4.8.8.8.7 0 1.4-.5 1.9-1.3-.1.2-.2.6-.2.7l-.1.5h1c0-.3.2-1.2.2-1.2l.5-2.3c.1-.6.2-1 .3-1.2h-1.1c0 .3-.1.6-.2 1.1-.2.9-.4 1.6-.7 2-.3.5-.8.8-1.1.8-.2 0-.3-.1-.3-.3 0-.1 0-.4.1-.7l.4-1.7c.1-.3.2-.8.2-.8 0-.2.1-.3.1-.4h-1.1zm-74.9.6c.3 0 .4.2.4.4 0 .6-.7 1.1-1.8 1.2.3-.9.9-1.6 1.4-1.6zm30.8 0c.3 0 .4.2.4.4 0 .6-.7 1.1-1.8 1.2.2-.9.8-1.6 1.4-1.6zm65 0c.3 0 .4.2.4.4 0 .6-.7 1.1-1.8 1.2.3-.9.9-1.6 1.4-1.6zm-41.9.1c.4 0 .7.2.9.5-.2 1-.4 1.4-.6 1.9-.3.6-.8 1-1.3 1-.3 0-.5-.2-.5-.7 0-.6.2-1.4.4-1.9.4-.5.7-.8 1.1-.8zm11.7 0c.4 0 .7.2.9.5-.2 1-.4 1.4-.6 1.9-.3.6-.8 1-1.3 1-.3 0-.5-.2-.5-.7 0-.6.2-1.4.5-1.9s.6-.8 1-.8zm17.9 0c.3 0 .5.2.5.7 0 .5-.2 1.4-.4 1.9-.3.5-.6.8-1 .8s-.6-.2-.8-.5v-.1c0-.2.1-.4.1-.6.1-.5.3-.8.5-1.1.3-.7.7-1.1 1.1-1.1zm6.5 0c.3 0 .5.2.5.7 0 .5-.2 1.4-.4 1.9-.3.5-.6.8-1.1.8-.4 0-.6-.2-.8-.5v-.1c0-.2.1-.4.2-.6.1-.5.3-.8.5-1.1.2-.7.7-1.1 1.1-1.1z"/><path id="path2798" fill="#FFF" d="M524.866 117.363c.1.6.1 1.3.1 2.2v11.1c0 .9 0 1.6-.1 2.2h2.9c-.1-.5-.2-1.3-.2-2.2v-3l2.7 3.3c.6.7 1.1 1.4 1.3 1.8h3.6c-.5-.4-1.2-1.1-2-2l-3.2-3.9 3.1-3.1c1.2-1.1 1.3-1.3 1.9-1.6h-3.2c-.2.3-.5.7-1.1 1.2l-3 2.9v-6.9c0-.9.1-1.7.2-2.2h-3zm-102.9.3c.1.6.1 1.3.1 2.3v10.6c0 .9 0 1.7-.1 2.3h3.1c-.1-.5-.1-1.4-.1-2.3v-4.8c1.2 0 2.3-.1 3.4-.1 1.2 0 2.8 0 3.5.1v4.8c0 1 0 1.8-.1 2.3h3.1c-.1-.5-.1-1.3-.1-2.3v-10.6c0-1 0-1.8.1-2.3h-3.1c.1.5.1 1.3.1 2.3v4c-.8 0-2.5-.1-3.5-.1-.9 0-2.6 0-3.4.1v-4c0-.9 0-1.8.1-2.3h-3.1zm64.5 0c0 .3.1.5.1.8 0 .3 0 .9-.1 1.5l-.6 10.3c0 .4-.1 1.2-.1 1.6 0 .5-.1.7-.2 1.1h2.7c-.1-.5-.1-.7-.1-1.6v-.7l.4-10 4 12.3h2.4l4-12.3.4 9.9v1.6c0 .3 0 .6-.1.7h3c-.2-.7-.2-.6-.3-2.6l-.6-10.2c-.1-.7-.1-1.3-.1-1.7 0-.3 0-.5.1-.7h-3.5l-4 12.4-4-12.4h-3.4zm-43.1 4.4c-1.7 0-3.7.5-5.6 1.4l.8 1.5c1.3-.7 3-1.2 4.3-1.2 1 0 1.4.4 1.4 1.5v.8c-4.6.3-7.2 1.8-7.2 4.2 0 1.7 1.3 2.9 3.1 2.9 1.4 0 2.8-.6 4.2-1.7v1.5h2.7c-.1-.5-.1-1.3-.1-2.2v-5.1c0-1.6-.1-2-.5-2.5-.7-.7-1.8-1.1-3.1-1.1zm13.6 0c-1.4 0-3.2.8-4.2 1.8v-1.5h-2.7c.1.6.1 1.3.1 2.2v6.2c0 .9 0 1.6-.1 2.2h2.9c-.1-.5-.2-1.3-.2-2.2v-5c1.1-1 2.3-1.6 3.1-1.6.8 0 1.1.5 1.1 1.9v4.7c0 .9-.1 1.7-.2 2.2h2.9c-.1-.5-.1-1.3-.1-2.2v-5.2c0-1.4-.1-2-.4-2.5-.5-.6-1.2-1-2.2-1zm9.8 0c-2.8 0-4.5 1.2-4.5 3.1 0 1.3.7 2.1 2.4 2.8 1.8.7 1.7.7 2.1.8.7.3 1 .8 1 1.3 0 .8-.9 1.4-2.3 1.4-1 0-2-.2-2.9-.6l-.6 1.7c1.1.4 2.2.5 3.6.5 2.9 0 4.8-1.4 4.8-3.4 0-1.6-.7-2.3-3.2-3.2-1.9-.7-2.3-1-2.3-1.6 0-.7.7-1.1 1.9-1.1.8 0 1.6.2 2.5.5l.5-1.7c-1-.4-2-.5-3-.5zm10.6 0c-3.1 0-5.2 2.2-5.2 5.6 0 3.5 1.7 5.5 4.8 5.5 1.7 0 3.5-.7 5.1-1.9l-1.1-1.3c-1.2.8-2.6 1.3-3.6 1.3-1.6 0-2.5-1.2-2.5-3.3.8 0 2.3-.1 3.4-.1 1.2 0 2.7 0 3.7.1v-.8c.1-3.2-1.6-5.1-4.6-5.1zm32.3 0c-3.1 0-5.2 2.2-5.2 5.6 0 3.5 1.7 5.5 4.8 5.5 1.6 0 3.5-.7 5.1-1.9l-1.1-1.3c-1.2.8-2.5 1.3-3.6 1.3-1.6 0-2.5-1.2-2.5-3.3.8 0 2.3-.1 3.4-.1 1.2 0 2.7 0 3.7.1v-.8c0-3.2-1.7-5.1-4.6-5.1zm13.2 0c-1.2 0-2.5.7-3.5 1.9v-1.6h-2.6c.1.6.2 1.3.2 2.2v6.2c0 .9-.1 1.6-.2 2.2h2.9c-.1-.5-.1-1.3-.1-2.2v-4.6c1-1.3 2-1.8 3.1-1.8h.4v-2.3zm32.6 0c-1.2 0-2.5.7-3.5 1.9v-1.6h-2.7c.1.6.1 1.3.1 2.2v6.2c0 .9 0 1.6-.1 2.2h2.9c-.1-.5-.2-1.3-.2-2.2v-4.6c1-1.3 2-1.8 3.1-1.8h.4v-2.3zm-19 .3c.1.6.1 1.3.1 2.2v5.1c0 1.4.1 1.9.4 2.5.4.7 1.2 1 2.2 1 1.4 0 3-.7 4.2-1.7v1.5h2.7c-.1-.4-.1-1.2-.1-2.2v-6.2c0-.9.1-1.7.2-2.2h-2.9c.1.5.2 1.3.2 2.2v5c-.8.8-2.3 1.5-3.1 1.5-.9 0-1.1-.4-1.1-1.8v-4.7c0-.9 0-1.7.1-2.2h-2.9zm-59.1 1.3c1.3 0 2 .9 2.1 2.8-.5 0-1.5-.1-2.1-.1-.7 0-1.6 0-2.5.1.2-1.7 1.1-2.8 2.5-2.8zm32.2 0c1.3 0 2 .9 2.1 2.8-.5 0-1.5-.1-2.1-.1-.7 0-1.6 0-2.5.1.2-1.7 1.1-2.8 2.5-2.8zm-65.3 3.8v2.2c-1.2 1-2.4 1.6-3.4 1.6-.8 0-1.3-.5-1.3-1.3.1-1.4 1.8-2.3 4.7-2.5z"/></svg>
