<svg xmlns="http://www.w3.org/2000/svg" viewBox="306 261 180 90"><path fill="#FFF" d="M383.1 331.3l.4-.7-2.8-1.5-.4.7 1 .5-3 5.7.9.5 3-5.7.9.5zm1.6 4l.3-.8-1.3-.5.9-2.1 1.5.6.3-.8-2.4-1-2.7 6.7 2.4 1 .3-.8-1.5-.6.9-2.3 1.3.6zm3.5-.9c-.2.7-.6 1.1-1.2.9l.6-2.3h.1c.7.1.7.7.5 1.4zm-.2-2.2l-1.1-.3-1.9 7 .9.3.9-3.4.3 3.8 1 .3-.4-3.8c.8.1 1.3-.9 1.5-1.5.5-1.9-.6-2.2-1.2-2.4zm4.5 3.5l-.2 2.9-.9-5.7-.9-.1-1 7.2 1 .1.4-2.6.2-2.4v-.5l.9 5.8.9.1 1-7.2-1-.1-.4 2.5zm-25.4-28.2c-.6-1.8-1.9-2.2-1.9-2.2 1.5 2.8.4 4.7.4 4.7s1.6.2 2.6-.6c.8-2.4-1-4.4-1-4.4.2 1.1-.1 2.5-.1 2.5zm12.5 20.9l-1.5 2.1-1.5 2.5 1.8-5.5-.8-.5-4.2 6 .8.6 1.5-2.2 1.3-2.1.2-.4-1.8 5.6.7.5 4.2-6-.7-.6zm-3.4-2.7l-4.9 5.4.7.6 4.9-5.4-.7-.6zm50.7-20.2c0 .2.8.4 1.9 1 1.1.7 2.4 1.8 3.8 3 .1.1 0 .3-.1.3-3.8-3-7.5-3.4-7.5-2.9 0 .2.9.2 1.9.6 1.5.6 3.7 1.7 5.2 2.8.1.1 0 .2-.1.2-4.4-1.6-8.4-2.5-8.3-1.9 0 .2 1.3.2 2.8.7 2.1.6 4.9 1.7 6.7 2.4.1 0 .3.1.8-.4.4-.4.4-.6.4-.6-3.9-4.6-7.4-5.7-7.5-5.2zm-31 37.9h-.2v-.6h.2c.3 0 .4.1.4.3.1.2 0 .3-.4.3zm.5.3c.2-.1.4-.3.4-.6 0-.4-.3-.7-.9-.7-.2 0-.4 0-.6.1v2.2h.4v-.9h.1c.1 0 .2.1.3.2l.4.8h.5l-.4-.9c-.1-.1-.1-.2-.2-.2zm5-10.9l1.4 7.1.9-.2-1.4-7.1-.9.2zm11.7-3.2l1.7 2 .7.8-1 .6-1.4-3.4zm-1.1-1l2.6 6.9.8-.5-.5-1.3 1.2-.8 1 1 .8-.5-5.3-5.2-.6.4zm-49.1-29c-.2 3.8 3 2.5 3 2.5-2-.6-3-2.5-3-2.5zm44 38.5c-.7.2-1.2-1-1.7-2.4-.5-1.5-.8-2.7-.1-2.9.7-.2 1.2 1 1.7 2.4s.8 2.6.1 2.9zm-2.1-6.2c-1.8.6-1 2.9-.6 4.1.4 1.2 1.2 3.5 2.9 3s1.1-2.9.6-4.1c-.3-1.3-1.1-3.6-2.9-3zm-8.8 13.3c-.9 0-1.6-.7-1.6-1.6 0-.9.7-1.6 1.6-1.6.9 0 1.6.7 1.6 1.6 0 .9-.7 1.6-1.6 1.6zm0-3.6c-1.1 0-2 .9-2 2s.9 2 2 2 2-.9 2-2-.9-2-2-2zm4.7-8.7l-3.2.4.1.8 1.1-.1.8 6.4 1-.1-.8-6.4 1.1-.1-.1-.9zm-4.1 5.5h-1.2l.5-3.7.4 2.6.3 1.1zm-1-5.1l-1.5 7.3h.9l.2-1.4h1.4l.3 1.4h1l-1.7-7.2-.6-.1zm23.5-2l-4.1-4.9-.7.6 4.7 5.6 2-1.7-.5-.6-1.4 1zm-60.4-20.8s-.6.5-.6.7c.1.4.6.2.7 0 2.2-2.3 6.2-3.7 6.2-3.9-.1-.2-3.5.8-6.3 3.2zm49.6 6.6h-21v-2.8h.9c1 0 1.8-.8 1.8-1.9v-18c0-1-.8-1.9-1.9-1.9h-.9v-2.1h12.2v2.1h-1c-1 0-1.9.9-1.9 1.9v19.2h6.1c.8 0 1.6-.8 1.5-1.6 0-.3-.1-.6-.1-.9 0-1.6.9-3 2.3-3.7l1.4 1.4c-.7.7-1.2 1.6-1.2 2.6 0 1.2.6 2.3 1.6 3l.2 2.7zM396 283.3c-11.7 0-21.2 9.5-21.2 21.2s9.5 21.2 21.2 21.2 21.2-9.5 21.2-21.2-9.5-21.2-21.2-21.2zm43.9 24.5v.2l-.8-.6-.4.4c-1.9-1.6-3.5-1.2-3.5-1.2l-1.9 1.2c2.6.2 3.2 2 3.2 3.5-.2.2-.4.3-.6.5h-.1l-.5.5-.5.5-.1.1-.5.5c-.3.3-.6.5-1 .5-.6 0-1.3-.3-1.9-.8-.2-.1-.3-.2-.5-.3-.8-.6-1.5-1.2-2-1.4-.6-.2-2-.6-3.6-.6H424.3 424h-.4c-.1 0-.2 0-.3.1-1.1.2-2.2.6-3.2 1.4.1-.3.2-.7.3-1.1 1.4-.7 3.7-1.4 6.8-1 0 0-1.9-.6-4.9-.4l-.5-.6s-.5.2-1.1.7c.1-.3.1-.5.2-.8.7-.5 1.5-.7 1.5-.7l.5-1.8c-.2 0-.8-.3-1.7-.8v-1c1.2.5 2.3 1 2.7 1.2 0 0-.4-1.3 1.9-1.6 0 0-2.1-.4-4.6-.9v-.5c3.1.4 6.2.3 8.1-1.1 0 0-1.6.3-3.5.2 0 0 1.8-.6 3.2-2.3 0 0-1.6.8-4.1.6 0 0 2.5-1.2 3.2-2.3 0 0-2.9 1.2-5 1.2 0 0 1.9-.8 2.7-1.6l-2.5.2.7-1s-3.3-1-4-3.7l1.2.1s-1-3.7 1.2-4.7c-.3-.3-2.2-.8-2.2-.8s2.3-.1 3.3.3c0 0-.2-.4-.7-.7-.5-.4-1.2-.6-1.2-.6s2.5-.1 3.3.6c0 0-.8-1.4-1.4-1.9 0 0 1.5.5 2.4 1.5l.6-.1s-.1-1.4-.8-2.6c0 0 1.4 1 2 2.7 0 0 .5.7 1.8.5v.2s.2.5.5 1.1c.3.5.7 1.1 1.2 1.5.1.2.2.6.5 1.1.3.6.8 1.2 1.4 1.6 0 .3 0 1.1.1 1.8s.2 1.4.6 1.9c.6.8 3.4 5 5.4 8.8.4.8.7 1.5.7 2v.3zm-10 7.6c.3-.3.7-.9 1.1-1.7.5.3 1 .6 1.5.7-.5.4-1.4.8-2.6 1zm-4.2 4.6c-.1 0-1.8-.4-2.7-2.2-1-1.8.5-2-.6-2.8-1.1-.8-1.3-1.9-.4-2.2.5-.2.9-.1 1.7.4.8.5.6 1.3.7 3.6.1 2.4 1.4 3.2 1.3 3.2zm2.6 1.9c.3 0 .6 0 .8-.1.1.1.2.4.3.7.2.8-.2.8-.3.9-2 .8-2 3.4-3.2 2.9-1.4-.6.3-4.3.3-4.3s-2.7 1-3.2.6c-.6-.4.5-1.6.5-1.6s-2.3.6-2.8.3.3-1.5.3-1.5-1.6.8-2.3.4c-.7-.4.7-1.7.7-1.7s-1.5.6-2 .3c-.1-.1-.1-.2-.1-.4.6-1 1.2-2 1.7-3.1v.3c-.1.3-.1.7-.1 1 0 .6.1 1.2.5 1.7.6.6 2 1.5 3.7 2.3 1.6.6 3.6 1.3 5.2 1.3zm1-3.8c.2.6.3 1.2.3 1.6 0 .5-.1 1-.2 1.2v.1l-.2.1c-.2.1-.6.1-.8.1-.2 0-.4 0-.6-.1.8-.8 1.3-2.2 1.5-3zm-4.8 14.2c0 .1-.2.2-.2.3-6.6 6.9-15.7 10.7-25 11.4-.1 1.7-1.6 3.1-3.3 3.1-1.7 0-3.2-1.4-3.3-3.1-9.3-.7-18.4-4.5-25-11.4 0-.1-.2-.2-.2-.3-.2-.2-.2-.5-.2-.8 0-.5.3-.8.6-1.1l.6-.6s.1-.2.2-.3v-.4c-.1-.4-.2-.8-.2-1.2 0-2.7 2.2-4.8 4.8-4.9.4 0 .8 0 1.2.1h.4c.3 0 .3-.2.4-.2.1-.1.4-.5.7-.7.3-.3.6-.5 1-.5.5 0 .8.3 1.1.6 2.3 2.4 5 4.1 7.9 5.4 3 1.3 6.4 2 9.9 2s6.8-.7 9.9-2c3-1.2 5.7-3 8-5.4.3-.4.7-.6 1.2-.6.4 0 .7.2 1 .5.4.3.6.6.7.7.1.1.1.2.4.2h.4c.4-.1.8-.2 1.2-.1 2.7 0 4.8 2.2 4.8 4.9 0 .4-.1.8-.2 1.2v.4c0 .2.2.3.2.3l.6.6c.2.2.6.6.6 1.1.1.3 0 .6-.2.8zm-60.2-38.4c.2 0 .3.1.4.1.2 1.4-.1 2-.7 2.2-.6.2-1.7-.5-2-2.1.1-.1.3-.1.4-.1.2.6.6 1.6 1.3 2 0 0 .1-.1.1-.2 0-.6-.1-1.6.5-1.9zm4 18.7c.2-.2.7-.2.9-.1.5.4.1.8-.3 1.5-.7 1.2.2 2.1-.4 3.4-.6 1.2-1.4 1.6-1.7 1.4-.4-.3.2-1 .4-1.6.4-1.2-.6-2.9 1.1-4.6zm-2.1 9.9s-.1.3-.1.7c0 0-1.2-.2-1.5-.7 0 0 .1 1.1.3 2 0 0-1.6-1.8-1.8-2.3 0 0 .1 2.2.8 3.4 0 0-1.6-1.2-1.5-4.3.2.1.4.2.5.2h.4c.7 0 1.2-.3 1.5-.4h.4c.7 0 1.2-.3 1.4-.6.1-.1.2-.2.2-.3.3 0 .5.1.7.1 1 0 1.8-.4 2.2-.8.3-.3.5-.6.6-.7 1.8-.4 2.2-1.9 2.3-1.9v-.2c-.3-4.1-2.1-5.8-2.1-5.9l-.1-.1h-.1c-.8-.2-1.6-.3-2.4-.3h-.6-.6c-.2 0-.4 0-.5.1h-.1c-.2 0-.3.1-.5.1s-.3.1-.5.1h-.1c-.2 0-.3.1-.5.1s-.3.1-.5.1h-.1c-.2 0-.3.1-.4.1-.2.1-.3.1-.4.2h-.1c-.1.1-.3.1-.4.2-.1.1-.3.1-.4.2h-.1c-.1.1-.3.1-.4.2-.1.1-.2.1-.4.2h-.1c-.1.1-.2.1-.3.2-.1.1-.2.1-.3.2h-.1c-.1 0-.2.1-.2.1-.5.3-.9.5-1.1.7l-1.3-.2c-.1-.1-.1-.3-.2-.4v-.1c-.1-.1-.1-.3-.2-.4v-.1c-.1-.1-.2-.3-.2-.4-.1-.1-.2-.2-.3-.4v-.1l-.3-.3-.3-.3-.3-.3-.3-.3.5-.2c.7-2.2 3-2.3 3-2.3-.3-1.7.4-3 .4-3l-1.2 1.1c-3 .3-4.7 1.3-5.7 2.1-.2-.3-.3-.5-.4-.8v-.1-.1-.1-.1-.2c0-.4.1-.8.3-1.1.1-.1.1-.2.2-.3 0-.1.1-.1.1-.1v-.1c.7-1.8 2.4-4.4 3.9-6.5 1.5-2.1 2.9-3.8 2.9-3.8l.1-.1v-.1c-.1-.4-.1-.8-.1-1.2 0-1.8.7-3 1.4-3.8.3-.4.7-.7.9-.9.1-.1.2-.2.3-.2.1 0 .1-.1.1-.1l.2-.1-.1-1.9c1.1-1.8 1.9-4.1 2.1-4.6.2-.1.4-.2.5-.3.1 0 .1-.1.2-.1.1-.1.2-.1.3-.2.1 0 .1-.1.2-.1.1-.1.2-.1.3-.2.1 0 .1-.1.2-.1.1-.1.2-.1.3-.2l.1-.1c.1-.1.2-.1.3-.2 0 0 .1 0 .1-.1.2-.2.4-.3.5-.4l.2.2c-.1.4-.1.8-.1 1.2-.7.4-1.5.7-2.3 1l-1.3 2.5s1.6-.1 2.1 2.2c0 0 1-1.4 2.6-2.2.1.1.1.2.2.3-.7.5-1.4 1.2-1.7 2.3l.6.3s1.1-.9 2.3-1.4c.2.2.5.3.7.5-.8.4-1.6 1-1.9 1.4l.4.4s1.8-1 2.2.9c.3 2-1.7 2.3-2.4 2.3 0 0 .1.7.8 1.5 0 0-1.6 1.3-3.9 0s-3.1-1.1-5-.7c0 0-.7 1-.3 2.2-.4.4-.7.4-1.2 1.7-.2.9-1.1 1.5-1.1 1.5s2.4.2 4.3-2c0 0 1.5 1.6 3.7-1.1 0 0 1.7 1.6 4.6-.2 0 0-1.3 1.5-3.7 1.4 0 0 1.1 1.1 1.5 2.2 0 0-.9-.8-3-1 0 0 .3 1.5 1.2 2.5 0 0-1.2-1-3.4-.6 0 0 2 2.8 4.9 3.1 0 0-1.1.4-1.7 1 0 0 1.1.7 2.9.1 0 0-1.8 1-2.6 1.3 0 0 1.2.4 3.8-.4v.7c0 .5-.1 1.1-.5 1.7 0 0-1.2-1.1-2.4-1.3 0 0 1.4 2 .6 4.2 0 0 .5.8 2.5.7h.4c.6 2.6 1.6 5.1 2.9 7.4-.4.2-.8.3-1.1.3l1.2.7s-2 .7-2.8.8c0 0 .5.5.9.7 0 0-2.4 1.1-3.3 1 0 0 .5.5.8.6 0 0-1.5.4-2 .1l-.1 1.1c-.3.4-1.6.6-2 .1zm-3.1-5c.2.8.7 2.2 1.5 3.2-.2.1-.6.3-1.1.3-.2 0-.4 0-.6-.1-.1-.3-.3-.8-.3-1.5.1-.5.2-1.1.5-1.9zm-1.7-2.3c-1-.1-1.7-.5-2-.9l-.1-.1.1-.1s.2-.2.7-.4c.1-.1.2-.1.3-.2.4.8.7 1.4 1 1.7zm57.9-10.6c0 6.4-2.6 12.3-6.8 16.5-4.2 4.2-10.1 6.8-16.5 6.8-6.5 0-12.3-2.6-16.5-6.8-4.2-4.2-6.8-10.1-6.8-16.5s2.6-12.3 6.8-16.5c4.2-4.2 10.1-6.8 16.5-6.8s12.3 2.6 16.5 6.8c4.2 4.2 6.8 10 6.8 16.5zm-.8-15.5s.1 2.2 1.6 3c-.6 0-2.6.3-1.6-3zm-50.8-12.5c7.3-7.2 17.3-11.5 28.3-11.5s20.9 4.4 28.2 11.5l.1.1c.2.2.4.6.4 1s-.1.7-.4 1l-.8.7c-.2.2-.2.4-.2.6v.2c.1.4.1.8.1 1.2 0 2.7-2.2 4.9-4.9 4.9-.4 0-.7 0-1-.1h-.2c-.2 0-.4.1-.6.3l-.7.7c-.2.3-.6.4-1 .4s-.7-.2-1-.4c-2.6-2.6-5.8-4.7-9.3-5.9-2.7-1-5.7-1.6-8.8-1.6-3.1 0-6 .6-8.8 1.6-3.5 1.3-6.7 3.3-9.3 6-.2.3-.6.4-1 .4s-.7-.2-1-.4l-.7-.7c-.1-.2-.4-.2-.6-.2h-.2c-.3.1-.7.1-1 .1-2.7 0-4.9-2.2-4.9-4.9 0-.4 0-.8.1-1.2v-.2c0-.2-.1-.4-.2-.6l-.8-.7c-.3-.3-.4-.6-.4-1 .2-.7.3-1 .6-1.3zm73.3 31c0-.8-.3-1.7-.8-2.5-2-3.9-4.8-8-5.6-9-.1-.2-.3-.8-.4-1.4-.1-.6-.1-1.3-.1-1.7-.1-.4-.3-.6-.5-.9-.2-.3-.5-.7-.8-1.1-.4-.6-.9-1.2-1.2-1.8-.4-.5-.6-.9-.7-1-.2-.3-.3-.5-.4-.6v-.1c.1-.3.1-.7.1-1.3 0-1.5-.6-4-3.4-5.6-.7-.4-1.3-.7-1.8-1.1.5-.5.9-1.3.9-2.1s-.3-1.6-.9-2.2l-.1-.1c-7.5-7.4-17.9-11.9-29.4-11.9-11.4 0-21.8 4.6-29.4 12-.6.6-.9 1.3-.9 2.2 0 .6.2 1.1.5 1.6-.3.2-.8.4-1.2.7-.7.5-1.4.9-1.7 1.6-.2.6-.2.8-.4 1.3-.2.4-.5 1-.8 1.5-.3.5-.5 1-.7 1.2-.1.3-.2.7-.2 1.1 0 .4 0 .8.1 1.1-.9.6-2.8 2.4-2.8 5.7 0 .3 0 .7.1 1-1 1.3-5.4 6.8-6.8 10.3-.1.3-.7.9-.7 2 0 .7.2 1.5 1 2.3l.3.2h.1s.1.1.5.3c1 .6 3.1 2.1 4.1 4.4v.1c0 .1.1.2.2.3.1.1.1.1.2.1s.2 0 .3.1c.4 0 1 .1 1 .1h.1c.1 0 .1 0 .2-.1l.1.1c.5.5 1.5 1 3.1 1.1.1 0 .2-.1.2-.2s-.1-.2-.2-.3c-.1 0-.7-.3-1.3-2 1-.5 2.5-1.2 4.1-1.6.5.2.9.5 1.1.8 0 0-.9 2.2-.3 4.6 0 0-1.1.8-1.5 1.9-.1 0-.1.1-.2.1-.1-.2-.2-.4-.2-.6-.4-.9-.5-1.7-.5-1.7 0-.1-.1-.2-.2-.2s-.2 0-.2.1c-.5 1.1-.7 2-.7 2.8v.4h-.3-.1c-.3 0-.4.2-.5.4-.1.1-.1.2-.1.3 0 0-.2 1-.2 2.2 0 1 .1 2.3.9 3.2l3.4 3.4s.3.3.8.5c-.3.5-.5 1.1-.5 1.7 0 .8.3 1.6.9 2.2l.1.1c6.5 6.4 15.1 10.6 24.7 11.7.7 1.9 2.5 3.2 4.6 3.2 2.1 0 3.9-1.3 4.6-3.2 9.6-1 18.3-5.3 24.9-11.7 0 0 .2-.3.5-.7.2-.4.5-.9.5-1.5s-.2-1.2-.5-1.6c.6-.2 1-.5 1.2-.8.1-.1.1-.2.2-.3.2-.4.5-1.2.9-1.9.3-.7.7-1.5.9-1.7.2-.3 1.2-1 1.2-2.1v-.1c0-.4-.2-.8-.4-1.2-.1-.2-.1-.3-.2-.4v-.1c.1-.3.3-.9.3-1.6 0-.7-.2-1.5-.6-2.5 0-.1-.1-.1-.2-.1s-.2.1-.2.2c0 0-.1.7-.5 1.5-.1.3-.3.7-.5 1-3.2-2.3-2.7-6.5-2.7-6.5 1.6-.6 3.3-.5 4.7-.3.1.1.2.2.3.2.1 0 .1.1.2.1-.3.7-.6 1.2-.9 1.5-.2.3-.4.4-.5.5-.1 0-.1.1-.1.1-.1 0-.2.2-.1.3 0 .1.1.2.2.2 1.6-.1 2.8-.6 3.5-1.1h.5c.6 0 1.3-.3 1.8-.8 1.6-1.8 4.2-3.5 5.3-4.7.5-.3.7-.9.7-1.6zm-4.8-3.5c1.7 1.9 1.8.7 1.8.7-.5.3-1.8-.7-1.8-.7zm-59-19.5l4.6-3.8-1.6-2-2.3 1.9-4.9-5.7-2.2 1.8.1.1 6.3 7.7zm33.5-4.2c.4 1.2 1.2 2.2 2.3 3 .7.5 1.6.9 2.6.9h.3c1.1-.1 1.9-.8 2.5-1.7.4-.5.5-1 .5-1.5 0-.8-.4-1.6-1-2.3l-.4-.5c-.2-.2-.3-.4-.4-.6-.1-.1-.1-.2-.1-.3 0-.3.2-.4.6-.5.2 0 .4.1.6.2.5.3.8.9 1 1.4v.2l2.3-1.2-.1-.1c-.5-1-1.3-1.9-2.1-2.5-.7-.5-1.4-.7-2.1-.7-1 0-2 .5-2.7 1.5-.4.6-.6 1.1-.6 1.6 0 .9.5 1.6 1.2 2.4.3.3.7.9.7 1.3 0 .1 0 .2-.1.3-.2.2-.4.3-.6.3-.2 0-.5-.1-.7-.3-.7-.5-1-1.2-1.2-2.1v-.2l-2.4 1.2-.1.2zm-18.5-10.5h.2c1.3 0 2.4 1 2.5 2.1v.3c0 1.4-1 2.5-2.3 2.7h-.2c-1.3 0-2.4-1-2.6-2.5v-.2c0-1.1 1-2.3 2.4-2.4zm.1 7.9h.6c3-.3 5-2.5 5-5.4v-.6c-.3-2.8-2.8-4.7-5.4-4.7h-.5c-2.7.3-5 2.4-5 5.2v.5c.2 3 2.4 5 5.3 5zm11.6-5.1l2.3 6.7 2.7.9 3.2-9.5-2.8-.9-1.8 5.3-2.3-6.7-2.7-.9-3.2 9.5 2.8.9 1.8-5.3zm-20.3 7.3l2.7-1.2-4-9.3-2.7 1.2.1.1 3.9 9.2zm-24.4 31.5s-.6.5-.5.7c.1.4.5.1.6 0 2-2.1 5.5-3.4 5.5-3.6-.1-.2-3.1.7-5.6 2.9zm-3.2-10.7c-.3.6-.6 1.1-1 1.6l-1 2c.6.1 1.2 0 1.9-.5.1-1.9 1.9-5.8 1.9-5.8-.5.7-1.3 2-1.8 2.7zm53.6 29.2l1.1 2.3 1.4 2.5-3.9-4.3-.8.4 3.1 6.6.9-.4-1.1-2.4-1.2-2.1-.2-.4 3.9 4.4.8-.4-3.1-6.6-.9.4zm-44.7-23.7c0-.3-3.9.8-7 3.3 0 0-.7.5-.7.8.1.5.7.2.8 0 2.5-2.4 6.9-3.8 6.9-4.1zm69.7-7.3c-1.2-1.6-1.7-2.1-2.2-5.1-.4-2.6-6.1 0-6.1 0-2.8.7-3.9 0-4.3-.6 0 0-.1-.1-.1.1 1.5 3.4 4.9 1.7 4.9 1.7l.6.6c-.1-.4-.2-.9-.1-1.7.1 0 .4-.1.6-.2.2.2.2.3.2.7 0 .3-.2.7-.2 1 0 .3.2.4.2.4.6-.4 1.1-1.3 1.4-1.9.2 0 .3.1.5.1-.3 1.6-1.4 2.3-2 2.1h-.1c-2 .9-.8 1.2-.8 1.2 1.6 0 3.1-1.1 3.1-1.1.6.3 1.1 1.6 1.1 1.6.6.1 1.6.6 1.6.6 1.2.9 1.7.5 1.7.5zm.6 1s0 .8-1.6.2c0 0 .8 1.2 1.8 1.4 1.2.3.4-.9-.2-1.6zm1.7 2.7s-.2.7-2-.5c0 0 1.1 1.4 1.9 1.6.8.2.4-.9.1-1.1"/></svg>
