<?xml version="1.0" encoding="utf-8"?>
<!-- Generator: Adobe Illustrator 19.1.0, SVG Export Plug-In . SVG Version: 6.00 Build 0)  -->
<svg version="1.1" id="Layer_1" xmlns="http://www.w3.org/2000/svg" xmlns:xlink="http://www.w3.org/1999/xlink" x="0px" y="0px"
	 viewBox="0 0 180 90" style="enable-background:new 0 0 180 90;" xml:space="preserve">
<style type="text/css">
	.st0{fill:#909295;}
</style>
<g>
	<g>
		<g>
			<path class="st0" d="M54.3,17.4c3.8,0,7,1.2,10,3.3l-1.8,2.6c-2.1-1.7-5.7-2.7-8.4-2.7c-7.6,0-12.1,5.4-12.1,13
				C41.9,41.8,47.2,47,54,47c2.9,0,5.8-0.7,8.2-2.3l1.7,2.6c-2.9,2-6.7,3-10.1,3c-11.3,0-17.1-7.8-17.1-16.5
				C36.7,25.7,42.9,17.4,54.3,17.4z"/>
		</g>
		<g>
			<polygon class="st0" points="87.5,17.9 92.4,17.9 92.4,49.7 87.5,49.7 87.5,34 72.1,34 72.1,49.7 67.2,49.7 67.2,17.9 72.1,17.9 
				72.1,30.7 87.5,30.7 			"/>
		</g>
		<g>
			<path class="st0" d="M118.2,16.5c6.9,2.3,11.8,8.8,11.8,16.4c0,9.5-7.7,17.3-17.3,17.3c-7.7,0-14.3-5.1-16.5-12
				c2.7,4.9,8,8.3,14,8.3c8.8,0,16-7.2,16-16C126.3,24.5,123,19.3,118.2,16.5z"/>
			<path class="st0" d="M110.3,17.4c6,0,11,4,12.5,9.5c-2.1-3.4-5.8-5.7-10.1-5.7c-6.5,0-11.7,5.3-11.7,11.7c0,4.2,2.2,7.9,5.6,10
				c-5.4-1.6-9.3-6.6-9.3-12.5C97.2,23.3,103.1,17.4,110.3,17.4z"/>
		</g>
		<g>
			<polygon class="st0" points="141.7,21.2 141.7,49.7 136.8,49.7 136.8,21.2 129.1,21.2 129.1,17.9 149.3,17.9 149.3,21.2 			"/>
		</g>
		<g>
			<polygon class="st0" points="164.1,21.2 164.1,49.7 159.2,49.7 159.2,21.2 151.6,21.2 151.6,17.9 171.8,17.9 171.8,21.2 			"/>
		</g>
		<g>
			<path class="st0" d="M23.5,17.4c3.5,0,7.2,1.2,10,3.4l-1.6,2.7c-2.3-1.6-5.2-2.7-8.1-2.7c-5.2,0-7.4,2.1-7.4,4.7
				c0,2.4,2.9,3.9,8.7,5.9c5,1.7,10.1,4,9.7,10.2c-0.3,5.1-5.6,8.8-12.3,8.8c-3.7,0-8.2-1.4-11.2-3.7l1.9-2.9
				c2.6,1.9,5.7,3.2,9.1,3.2c4,0,7.5-2,7.5-5.6c0-3.8-7-5.4-9.7-6.5c-5.6-2.1-8.8-4.6-8.6-9.2C11.8,20.6,16.6,17.4,23.5,17.4z"/>
		</g>
	</g>
	<g>
		<path class="st0" d="M9.5,68.9c0,3.3-2.3,4.6-5,4.6c-1.4,0-2.9-0.2-4-0.9l0.5-1c1.2,0.6,2.3,0.8,3.5,0.8c2,0,3.2-1.1,3.2-3.4v-1.2
			h0c-0.7,0.8-1.7,1.5-3.3,1.5c-2.7,0-4.4-1.8-4.4-4.6c0-2.2,1.9-4.4,4.7-4.4c1.2,0,2.4,0.5,3,1.4h0v-1.2h1.8V68.9z M7.7,64.7
			c0-1.6-1-3.1-2.9-3.1c-2,0-2.9,1.4-2.9,3.2c0,1.8,0.9,3.5,2.8,3.5C6.8,68.3,7.7,66.6,7.7,64.7z"/>
		<path class="st0" d="M13,69.2V56.7h1.8v12.5H13z"/>
		<path class="st0" d="M22.9,68.3c-0.7,0.6-1.5,1.1-2.4,1.1c-1.6,0-2.8-1-2.8-2.6c0-1.5,1.4-2.4,3.5-2.9l2.4-0.6c-0.1-1-1-1.7-2-1.7
			c-1.1,0-1.9,0.4-2.6,0.9l-0.7-0.8c1-0.8,2-1.2,3.3-1.2c1.5,0,3.6,0.4,3.6,2.9v3.7c0,0.6,0.1,1.5,0.4,2.1h-1.9
			c-0.2-0.4-0.3-0.9-0.3-1.4L22.9,68.3z M21.9,64.6c-1.5,0.4-2.3,1.1-2.3,2.1c0,0.9,0.7,1.4,1.4,1.4c1.3,0,2.9-1.3,2.6-4L21.9,64.6z
			"/>
		<path class="st0" d="M33.5,62.1c-0.7-0.4-1.3-0.5-1.8-0.5c-0.6,0-1.4,0.3-1.4,1c0,0.7,0.9,1.1,2,1.8c1.3,0.8,2.1,1.5,2.1,2.7
			c0,1.4-1.6,2.4-3.4,2.4c-1.1,0-2.4-0.4-3-1.1l0.9-0.9c0.6,0.5,1.3,0.9,2.1,0.9c0.8,0,1.7-0.4,1.7-1.2c0-1-1-1.4-1.9-2
			c-1.1-0.7-2.1-1.3-2.1-2.4c0-1.3,1.5-2.2,3.2-2.2c1,0,1.9,0.3,2.4,0.8L33.5,62.1z"/>
		<path class="st0" d="M41.9,62.1c-0.7-0.4-1.3-0.5-1.8-0.5c-0.6,0-1.4,0.3-1.4,1c0,0.7,0.9,1.1,2,1.8c1.3,0.8,2.1,1.5,2.1,2.7
			c0,1.4-1.6,2.4-3.4,2.4c-1.1,0-2.4-0.4-3-1.1l0.9-0.9c0.6,0.5,1.3,0.9,2.1,0.9c0.8,0,1.7-0.4,1.7-1.2c0-1-1-1.4-1.9-2
			c-1.1-0.7-2.1-1.3-2.1-2.4c0-1.3,1.5-2.2,3.2-2.2c1,0,1.9,0.3,2.4,0.8L41.9,62.1z"/>
		<path class="st0" d="M53.9,61.7c0.8-0.8,2-1.3,3.1-1.3c1.5,0,2.5,0.6,3.1,1.3c0.9-0.7,2.3-1.3,3.4-1.3c2.2,0,3.3,1.2,3.3,3v5.7H65
			v-5.1c0-1.2-0.4-2.4-2.2-2.4c-1.5,0-2.5,0.7-2.5,2.4v5.1h-1.8v-5.1c0-1.6-0.8-2.4-2.2-2.4c-1.5,0-2.4,0.8-2.4,2.5v5.1h-1.8v-8.5
			h1.7V61.7z"/>
		<path class="st0" d="M75,68.3c-0.7,0.6-1.5,1.1-2.4,1.1c-1.6,0-2.8-1-2.8-2.6c0-1.5,1.4-2.4,3.5-2.9l2.4-0.6c-0.1-1-1-1.7-2-1.7
			c-1.1,0-1.9,0.4-2.6,0.9l-0.7-0.8c1-0.8,2-1.2,3.3-1.2c1.5,0,3.6,0.4,3.6,2.9v3.7c0,0.6,0.1,1.5,0.4,2.1h-1.9
			c-0.2-0.4-0.3-0.9-0.3-1.4L75,68.3z M73.9,64.6c-1.5,0.4-2.3,1.1-2.3,2.1c0,0.9,0.7,1.4,1.4,1.4c1.3,0,2.9-1.3,2.6-4L73.9,64.6z"
			/>
		<path class="st0" d="M88,67.9L88,67.9c-0.7,0.8-1.8,1.5-3.4,1.5c-2.6,0-4.3-1.8-4.3-4.6c0-2.2,1.8-4.4,4.5-4.4
			c1.3,0,2.5,0.4,3.1,1.3h0v-5.1h1.8v12.5H88V67.9z M88,64.7c0-1.6-1-3.1-2.9-3.1c-2,0-2.9,1.4-2.9,3.2c0,1.8,0.9,3.5,2.8,3.5
			C87.1,68.3,88,66.6,88,64.7z"/>
		<path class="st0" d="M94.6,65c0,1.7,1.4,3.3,3.3,3.3c0.9,0,2-0.3,2.7-0.7l0.5,0.8c-1,0.6-2.2,1-3.3,1c-3.1,0-5.1-1.6-5.1-4.6
			c0-2.9,2.4-4.3,4.6-4.3c3,0,4,2.3,3.8,4.6H94.6z M99.5,64c0-1.3-0.6-2.5-2.2-2.5c-1.9,0-2.6,1.4-2.7,2.5H99.5z"/>
		<path class="st0" d="M109.8,64.8c0-2.8,2.3-4.4,4.8-4.4c2.5,0,4.8,1.6,4.8,4.4c0,2.6-1.9,4.6-4.8,4.6
			C111.8,69.4,109.8,67.5,109.8,64.8z M111.7,64.8c0,1.6,0.6,3.5,2.9,3.5c2.3,0,2.9-1.9,2.9-3.5c0-1.5-0.7-3.3-2.9-3.3
			C112.5,61.6,111.7,63.3,111.7,64.8z"/>
		<path class="st0" d="M122.7,69.2v-7.6h-1.6v-0.9h1.6v-1c0-2.3,1.8-3,2.9-3c0.5,0,1.1,0.1,1.5,0.4l-0.4,0.8c-0.3-0.1-0.6-0.1-1-0.1
			c-0.3,0-1.3,0.1-1.3,1.4v1.5h2.3v0.9h-2.3v7.6H122.7z"/>
		<path class="st0" d="M137.3,60.7v8.5h-1.8v-8.5H137.3z M135.3,57.9c0-0.4,0.4-0.9,1.1-0.9c0.7,0,1.1,0.5,1.1,0.9
			c0,0.5-0.3,1-1.1,1S135.3,58.3,135.3,57.9z"/>
		<path class="st0" d="M147.8,67.9L147.8,67.9c-0.7,0.8-1.8,1.5-3.4,1.5c-2.6,0-4.3-1.8-4.3-4.6c0-2.2,1.8-4.4,4.5-4.4
			c1.3,0,2.5,0.4,3.1,1.3h0v-5.1h1.8v12.5h-1.8V67.9z M147.8,64.7c0-1.6-1-3.1-2.9-3.1c-2,0-2.9,1.4-2.9,3.2c0,1.8,0.9,3.5,2.8,3.5
			C146.9,68.3,147.8,66.6,147.8,64.7z"/>
		<path class="st0" d="M154.4,65c0,1.7,1.4,3.3,3.3,3.3c0.9,0,2-0.3,2.7-0.7l0.5,0.8c-1,0.6-2.2,1-3.2,1c-3.1,0-5.1-1.6-5.1-4.6
			c0-2.9,2.4-4.3,4.6-4.3c3,0,4,2.3,3.8,4.6H154.4z M159.4,64c0-1.3-0.6-2.5-2.2-2.5c-1.9,0-2.6,1.4-2.7,2.5H159.4z"/>
		<path class="st0" d="M168.5,68.3c-0.7,0.6-1.5,1.1-2.4,1.1c-1.6,0-2.8-1-2.8-2.6c0-1.5,1.4-2.4,3.5-2.9l2.4-0.6
			c-0.1-1-1-1.7-2-1.7c-1.1,0-1.9,0.4-2.6,0.9l-0.7-0.8c1-0.8,2-1.2,3.3-1.2c1.5,0,3.6,0.4,3.6,2.9v3.7c0,0.6,0.1,1.5,0.4,2.1h-1.9
			c-0.2-0.4-0.3-0.9-0.3-1.4L168.5,68.3z M167.5,64.6c-1.5,0.4-2.3,1.1-2.3,2.1c0,0.9,0.7,1.4,1.4,1.4c1.3,0,2.9-1.3,2.6-4
			L167.5,64.6z"/>
		<path class="st0" d="M179.1,62.1c-0.7-0.4-1.3-0.5-1.8-0.5c-0.6,0-1.4,0.3-1.4,1c0,0.7,0.9,1.1,2,1.8c1.3,0.8,2.1,1.5,2.1,2.7
			c0,1.4-1.6,2.4-3.4,2.4c-1.1,0-2.4-0.4-3-1.1l0.9-0.9c0.6,0.5,1.3,0.9,2.1,0.9c0.8,0,1.7-0.4,1.7-1.2c0-1-1-1.4-1.9-2
			c-1.1-0.7-2.1-1.3-2.1-2.4c0-1.3,1.5-2.2,3.2-2.2c1,0,1.9,0.3,2.4,0.8L179.1,62.1z"/>
	</g>
</g>
</svg>
