<svg id="Layer_1" xmlns="http://www.w3.org/2000/svg" viewBox="0 0 180 90"><path fill="#FFF" d="M54.3 17.4c3.8 0 7 1.2 10 3.3l-1.8 2.6c-2.1-1.7-5.7-2.7-8.4-2.7-7.6 0-12.1 5.4-12.1 13-.1 8.2 5.2 13.4 12 13.4 2.9 0 5.8-.7 8.2-2.3l1.7 2.6c-2.9 2-6.7 3-10.1 3-11.3 0-17.1-7.8-17.1-16.5 0-8.1 6.2-16.4 17.6-16.4zM87.5 17.9h4.9v31.8h-4.9V34H72.1v15.7h-4.9V17.9h4.9v12.8h15.4zM118.2 16.5c6.9 2.3 11.8 8.8 11.8 16.4 0 9.5-7.7 17.3-17.3 17.3-7.7 0-14.3-5.1-16.5-12 2.7 4.9 8 8.3 14 8.3 8.8 0 16-7.2 16-16 .1-6-3.2-11.2-8-14z"/><path fill="#FFF" d="M110.3 17.4c6 0 11 4 12.5 9.5-2.1-3.4-5.8-5.7-10.1-5.7-6.5 0-11.7 5.3-11.7 11.7 0 4.2 2.2 7.9 5.6 10-5.4-1.6-9.3-6.6-9.3-12.5-.1-7.1 5.8-13 13-13zM141.7 21.2v28.5h-4.9V21.2h-7.7v-3.3h20.2v3.3zM164.1 21.2v28.5h-4.9V21.2h-7.6v-3.3h20.2v3.3z"/><path fill="#FFF" d="M23.5 17.4c3.5 0 7.2 1.2 10 3.4l-1.6 2.7c-2.3-1.6-5.2-2.7-8.1-2.7-5.2 0-7.4 2.1-7.4 4.7 0 2.4 2.9 3.9 8.7 5.9 5 1.7 10.1 4 9.7 10.2-.3 5.1-5.6 8.8-12.3 8.8-3.7 0-8.2-1.4-11.2-3.7l1.9-2.9c2.6 1.9 5.7 3.2 9.1 3.2 4 0 7.5-2 7.5-5.6 0-3.8-7-5.4-9.7-6.5-5.6-2.1-8.8-4.6-8.6-9.2.3-5.1 5.1-8.3 12-8.3z"/><path fill="#FFF" d="M9.5 68.9c0 3.3-2.3 4.6-5 4.6-1.4 0-2.9-.2-4-.9l.5-1c1.2.6 2.3.8 3.5.8 2 0 3.2-1.1 3.2-3.4v-1.2c-.7.8-1.7 1.5-3.3 1.5-2.7 0-4.4-1.8-4.4-4.6 0-2.2 1.9-4.4 4.7-4.4 1.2 0 2.4.5 3 1.4v-1.2h1.8v8.4zm-1.8-4.2c0-1.6-1-3.1-2.9-3.1-2 0-2.9 1.4-2.9 3.2 0 1.8.9 3.5 2.8 3.5 2.1 0 3-1.7 3-3.6zM13 69.2V56.7h1.8v12.5H13zM22.9 68.3c-.7.6-1.5 1.1-2.4 1.1-1.6 0-2.8-1-2.8-2.6 0-1.5 1.4-2.4 3.5-2.9l2.4-.6c-.1-1-1-1.7-2-1.7-1.1 0-1.9.4-2.6.9l-.7-.8c1-.8 2-1.2 3.3-1.2 1.5 0 3.6.4 3.6 2.9v3.7c0 .6.1 1.5.4 2.1h-1.9c-.2-.4-.3-.9-.3-1.4l-.5.5zm-1-3.7c-1.5.4-2.3 1.1-2.3 2.1 0 .9.7 1.4 1.4 1.4 1.3 0 2.9-1.3 2.6-4l-1.7.5zM33.5 62.1c-.7-.4-1.3-.5-1.8-.5-.6 0-1.4.3-1.4 1s.9 1.1 2 1.8c1.3.8 2.1 1.5 2.1 2.7 0 1.4-1.6 2.4-3.4 2.4-1.1 0-2.4-.4-3-1.1l.9-.9c.6.5 1.3.9 2.1.9s1.7-.4 1.7-1.2c0-1-1-1.4-1.9-2-1.1-.7-2.1-1.3-2.1-2.4 0-1.3 1.5-2.2 3.2-2.2 1 0 1.9.3 2.4.8l-.8.7zM41.9 62.1c-.7-.4-1.3-.5-1.8-.5-.6 0-1.4.3-1.4 1s.9 1.1 2 1.8c1.3.8 2.1 1.5 2.1 2.7 0 1.4-1.6 2.4-3.4 2.4-1.1 0-2.4-.4-3-1.1l.9-.9c.6.5 1.3.9 2.1.9s1.7-.4 1.7-1.2c0-1-1-1.4-1.9-2-1.1-.7-2.1-1.3-2.1-2.4 0-1.3 1.5-2.2 3.2-2.2 1 0 1.9.3 2.4.8l-.8.7zM53.9 61.7c.8-.8 2-1.3 3.1-1.3 1.5 0 2.5.6 3.1 1.3.9-.7 2.3-1.3 3.4-1.3 2.2 0 3.3 1.2 3.3 3v5.7H65V64c0-1.2-.4-2.4-2.2-2.4-1.5 0-2.5.7-2.5 2.4v5.1h-1.8V64c0-1.6-.8-2.4-2.2-2.4-1.5 0-2.4.8-2.4 2.5v5.1h-1.8v-8.5h1.7v1zM75 68.3c-.7.6-1.5 1.1-2.4 1.1-1.6 0-2.8-1-2.8-2.6 0-1.5 1.4-2.4 3.5-2.9l2.4-.6c-.1-1-1-1.7-2-1.7-1.1 0-1.9.4-2.6.9l-.7-.8c1-.8 2-1.2 3.3-1.2 1.5 0 3.6.4 3.6 2.9v3.7c0 .6.1 1.5.4 2.1h-1.9c-.2-.4-.3-.9-.3-1.4l-.5.5zm-1.1-3.7c-1.5.4-2.3 1.1-2.3 2.1 0 .9.7 1.4 1.4 1.4 1.3 0 2.9-1.3 2.6-4l-1.7.5zM88 67.9c-.7.8-1.8 1.5-3.4 1.5-2.6 0-4.3-1.8-4.3-4.6 0-2.2 1.8-4.4 4.5-4.4 1.3 0 2.5.4 3.1 1.3v-5.1h1.8v12.5H88v-1.2zm0-3.2c0-1.6-1-3.1-2.9-3.1-2 0-2.9 1.4-2.9 3.2 0 1.8.9 3.5 2.8 3.5 2.1 0 3-1.7 3-3.6zM94.6 65c0 1.7 1.4 3.3 3.3 3.3.9 0 2-.3 2.7-.7l.5.8c-1 .6-2.2 1-3.3 1-3.1 0-5.1-1.6-5.1-4.6 0-2.9 2.4-4.3 4.6-4.3 3 0 4 2.3 3.8 4.6h-6.5zm4.9-1c0-1.3-.6-2.5-2.2-2.5-1.9 0-2.6 1.4-2.7 2.5h4.9zM109.8 64.8c0-2.8 2.3-4.4 4.8-4.4s4.8 1.6 4.8 4.4c0 2.6-1.9 4.6-4.8 4.6-2.8 0-4.8-1.9-4.8-4.6zm1.9 0c0 1.6.6 3.5 2.9 3.5s2.9-1.9 2.9-3.5c0-1.5-.7-3.3-2.9-3.3-2.1.1-2.9 1.8-2.9 3.3zM122.7 69.2v-7.6h-1.6v-.9h1.6v-1c0-2.3 1.8-3 2.9-3 .5 0 1.1.1 1.5.4l-.4.8c-.3-.1-.6-.1-1-.1-.3 0-1.3.1-1.3 1.4v1.5h2.3v.9h-2.3v7.6h-1.7zM137.3 60.7v8.5h-1.8v-8.5h1.8zm-2-2.8c0-.4.4-.9 1.1-.9.7 0 1.1.5 1.1.9 0 .5-.3 1-1.1 1s-1.1-.6-1.1-1zM147.8 67.9c-.7.8-1.8 1.5-3.4 1.5-2.6 0-4.3-1.8-4.3-4.6 0-2.2 1.8-4.4 4.5-4.4 1.3 0 2.5.4 3.1 1.3v-5.1h1.8v12.5h-1.8v-1.2zm0-3.2c0-1.6-1-3.1-2.9-3.1-2 0-2.9 1.4-2.9 3.2 0 1.8.9 3.5 2.8 3.5 2.1 0 3-1.7 3-3.6zM154.4 65c0 1.7 1.4 3.3 3.3 3.3.9 0 2-.3 2.7-.7l.5.8c-1 .6-2.2 1-3.2 1-3.1 0-5.1-1.6-5.1-4.6 0-2.9 2.4-4.3 4.6-4.3 3 0 4 2.3 3.8 4.6h-6.6zm5-1c0-1.3-.6-2.5-2.2-2.5-1.9 0-2.6 1.4-2.7 2.5h4.9zM168.5 68.3c-.7.6-1.5 1.1-2.4 1.1-1.6 0-2.8-1-2.8-2.6 0-1.5 1.4-2.4 3.5-2.9l2.4-.6c-.1-1-1-1.7-2-1.7-1.1 0-1.9.4-2.6.9l-.7-.8c1-.8 2-1.2 3.3-1.2 1.5 0 3.6.4 3.6 2.9v3.7c0 .6.1 1.5.4 2.1h-1.9c-.2-.4-.3-.9-.3-1.4l-.5.5zm-1-3.7c-1.5.4-2.3 1.1-2.3 2.1 0 .9.7 1.4 1.4 1.4 1.3 0 2.9-1.3 2.6-4l-1.7.5zM179.1 62.1c-.7-.4-1.3-.5-1.8-.5-.6 0-1.4.3-1.4 1s.9 1.1 2 1.8c1.3.8 2.1 1.5 2.1 2.7 0 1.4-1.6 2.4-3.4 2.4-1.1 0-2.4-.4-3-1.1l.9-.9c.6.5 1.3.9 2.1.9s1.7-.4 1.7-1.2c0-1-1-1.4-1.9-2-1.1-.7-2.1-1.3-2.1-2.4 0-1.3 1.5-2.2 3.2-2.2 1 0 1.9.3 2.4.8l-.8.7z"/></svg>
