<?xml version="1.0" encoding="utf-8"?>
<!-- Generator: Adobe Illustrator 19.1.0, SVG Export Plug-In . SVG Version: 6.00 Build 0)  -->
<svg version="1.1" id="Layer_1" xmlns="http://www.w3.org/2000/svg" xmlns:xlink="http://www.w3.org/1999/xlink" x="0px" y="0px"
	 viewBox="0 0 180 90" style="enable-background:new 0 0 180 90;" xml:space="preserve">
<style type="text/css">
	.st0{fill:#909295;}
</style>
<g>
	<path class="st0" d="M171.3,32.4h-55.5c-2-12.6-12.8-22.4-26-22.4s-24,9.8-25.8,22.3H8.6C3.9,32.4,0,36.3,0,41v30.5
		C0,76,3.9,80,8.6,80h162.9c4.7,0,8.6-3.9,8.6-8.6V41C179.9,36.2,176,32.4,171.3,32.4z M89.9,15.4c9.3,0,17.7,6.8,19.4,15.5l0,0l0,0
		c0,1.2-1,1.5-1.4,1.5h-36c-0.4,0-1.4-0.3-1.4-1.5C72.2,22.2,80.6,15.4,89.9,15.4z M174.5,71c0,2.1-1.6,3.6-3.8,3.6H8.9
		c-2.1,0-3.8-1.6-3.8-3.6V41.4c0-2.1,1.7-3.8,3.8-3.8h161.9c2.1,0,3.8,1.7,3.8,3.8L174.5,71L174.5,71z"/>
	<path class="st0" d="M17,69.2c-3.6,0-5.2-2.6-5.5-6.8l3.9-0.8c0.3,3,0.8,3.8,1.6,3.8c1.1,0,1.5-0.6,1.5-2.2c0-2.4-0.8-3.5-3-6
		c-2.6-2.5-3.8-4.9-3.8-7.8c0-3.5,1.7-6.2,5.1-6.2s5,2.4,5.4,6L18.4,50c-0.3-2.4-0.8-3.2-1.6-3.2c-0.9,0-1.3,0.6-1.3,2.3
		c0,1.8,0.6,2.9,2.6,5c2.8,3,4.2,5.4,4.2,8.9C22.4,66.5,20.4,69.2,17,69.2z"/>
	<path class="st0" d="M24.6,68.7v-25h9.3v3.8h-5.4v6.3h4v3.8h-4v7.6h5.7V69h-9.6V68.7z"/>
	<path class="st0" d="M41.1,69.2c-3.6,0-5.2-2.6-5.5-6.8l3.9-0.8c0.3,3,0.9,3.8,1.6,3.8c1.1,0,1.5-0.6,1.5-2.2c0-2.4-0.8-3.5-3-6
		c-2.5-2.5-3.8-4.9-3.8-7.8c0-3.5,1.7-6.2,5.1-6.2c3.4,0,4.9,2.4,5.4,6L42.5,50c-0.3-2.4-0.8-3.2-1.6-3.2c-0.9,0-1.4,0.6-1.4,2.3
		c0,1.8,0.6,2.9,2.6,5c2.8,3,4.2,5.4,4.2,8.9C46.5,66.5,44.6,69.2,41.1,69.2z"/>
	<path class="st0" d="M54.6,59.6h-2.2l0.6-4.5c0.1-1.8,0.4-3.9,0.6-5.9c0.1,1.9,0.3,4,0.6,5.9L54.6,59.6z M59.7,68.7l-3.9-25.1h-4.4
		l-3.9,25.1h3.9l0.6-5.6h3l0.8,5.6H59.7z"/>
	<path class="st0" d="M72.2,68.7v-6.6c0-3,0.1-6,0.1-8.6c-0.3,2-1.2,5.7-1.8,8.3l-1.6,7.7l-1.8-7.7c-0.6-2.4-1.3-6.3-1.8-8.2
		c0,2.4,0.2,5.5,0.2,8.6v6.6h-3.6V43.7H66l1.6,7.7c0.6,2.2,1.1,5.1,1.4,7.2c0.1-2.1,0.8-4.9,1.3-7.2l1.7-7.7h3.9v25.1
		C75.8,68.7,72.2,68.7,72.2,68.7z"/>
	<path class="st0" d="M79.1,68.7v-25h9.3v3.8H83v6.3h4v3.8h-4v7.6h5.7V69h-9.6V68.7z"/>
	<path class="st0" d="M102.3,69.2c-3.6,0-5.2-2.6-5.5-6.8l3.9-0.8c0.3,3,0.9,3.8,1.6,3.8c1,0,1.5-0.6,1.5-2.2c0-2.4-0.8-3.5-3-6
		c-2.5-2.5-3.8-4.9-3.8-7.8c0-3.5,1.7-6.2,5.1-6.2s5,2.4,5.4,6l-3.8,0.8c-0.3-2.4-0.8-3.2-1.6-3.2c-0.9,0-1.4,0.6-1.4,2.3
		c0,1.8,0.6,2.9,2.5,5c2.9,3,4.2,5.4,4.2,8.9C107.7,66.5,105.8,69.2,102.3,69.2z"/>
	<path class="st0" d="M115.7,47.4v21.3h-4V47.4h-3.3v-3.8h10.8v3.8H115.7z"/>
	<path class="st0" d="M128,50.7c0,2.7-0.8,3.6-2.1,3.6h-0.8V47h0.9C127.4,47.1,128,48,128,50.7z M132.2,68.7l-2.4-12.2
		c1.3-1,2.2-3.1,2.2-6c0-5.2-2.6-6.9-5.7-6.9h-5.2v25.1h3.9v-11h1l2.1,11H132.2z"/>
	<path class="st0" d="M134.9,68.7v-25h9.5v3.8H139v6.3h4v3.8h-4v7.6h5.7V69h-9.8V68.7z"/>
	<path class="st0" d="M147.2,68.7v-25h9.3v3.8h-5.4v6.3h4.1v3.8h-4.1v7.6h5.7V69h-9.6V68.7z"/>
	<path class="st0" d="M165.5,47.4v21.3h-4V47.4h-3.3v-3.8H169v3.8H165.5z"/>
	<path class="st0" d="M172.5,71c0,0.9-0.8,1.6-1.7,1.6s-1.6-0.8-1.6-1.6c0-1.1,0.8-1.7,1.6-1.7C171.8,69.2,172.5,69.9,172.5,71z
		 M172.8,71c0-1.2-0.9-2.1-2.1-2.1c-1.2,0-2.1,0.9-2.1,2.1s0.9,2.1,2.1,2.1S172.8,72.2,172.8,71z M171.8,70.5c0-0.4-0.3-0.8-0.8-0.8
		h-1V72h0.5v-0.9h0.4l0.5,0.9h0.6l-0.4-0.9C171.6,71,171.8,70.8,171.8,70.5z M171.3,70.5c0,0.2-0.1,0.3-0.3,0.3h-0.6v-0.6h0.6
		C171.2,70.2,171.3,70.2,171.3,70.5z"/>
	<g>
		<path class="st0" d="M82.2,20.5c-0.2,0.6-0.5,1-1.4,1.2l0,0v1H82V29l0,0h1.5v-8.5H82.2L82.2,20.5z"/>
		<path class="st0" d="M90,25.3c0.8-0.6,1.3-1.3,1.3-2.5c0-1.5-1.1-2.4-2.6-2.4c-1,0-1.8,0.5-2.4,1.2l0,0l1.1,1.2l0,0
			c0.4-0.5,0.8-0.8,1.3-0.8c0.6,0,0.9,0.3,0.9,0.9c0,0.5-0.2,0.9-0.8,1.2c-1.7,1.2-2.4,2.2-2.6,4.9l0,0l0,0h4.9v-1.6h-3
			C88.4,26.7,89,26.1,90,25.3z"/>
		<path class="st0" d="M97.5,24.6c0.6-0.3,1-0.9,1-1.8c0-1.5-1-2.4-2.5-2.4c-1.2,0-1.8,0.5-2.4,1.2l0,0l1.1,1l0,0
			c0.4-0.4,0.8-0.6,1.2-0.6c0.8,0,0.9,0.5,0.9,0.9c0,0.6-0.3,0.9-1.1,0.9h-0.6l0,0v1.6h0.8c0.8,0,1.4,0.3,1.4,1.2
			c0,0.6-0.5,1.1-1,1.1c-0.6,0-0.9-0.3-1.4-0.9l0,0l-1.3,0.9l0,0c0.6,1.1,1.5,1.6,2.7,1.6l0,0c1.8,0,2.8-1.1,2.8-2.7
			C98.9,25.5,98.1,24.8,97.5,24.6z"/>
	</g>
</g>
</svg>
