<svg version="1.1" xmlns="http://www.w3.org/2000/svg" xmlns:xlink="http://www.w3.org/1999/xlink"
	 viewBox="0 0 180 90" style="enable-background:new 0 0 180 90;" xml:space="preserve">
	<path fill="#FFF" d="M14.5,31.6v21.9c0,1.5,0.1,2.6,0.3,3c0.3,0.9,1.2,1.3,2.7,1.3h2.6v1.4H4.9v-1.4h2.6c1.2,0,1.9-0.3,2.3-0.6
	c0.4-0.4,0.6-1.7,0.6-3.6V31.6H9.5c-1.4,0-2.7,0.4-3.7,1.2c-1.7,1.3-4.2,3.7-4.5,7.5H0l0.3-10.2h24.7l0.1,10.2h-1.3
	c-0.5-4.2-3.5-6.9-5.4-8c-0.9-0.4-1.9-0.6-3.2-0.6L14.5,31.6L14.5,31.6z"/>
	<polygon fill="#FFF" points="0,49 0,42.9 6,42.9 6,49 		"/>
	<polygon fill="#FFF" points="17.9,49 17.9,42.9 24,42.9 24,49 		"/>
	<polygon fill="#FFF" points="35.9,49 35.9,42.9 41.9,42.9 41.9,49 		"/>
	<polygon fill="#FFF" points="53.7,49 53.7,42.9 59.8,42.9 59.8,49 		"/>
	<path fill="#FFF" d="M74.7,59.1h-1.3L66,33.4v18.5c0,1.9,0.1,3.1,0.3,3.6c0.4,1.4,1.4,2.2,3,2.2h0.5v1.4h-8.7v-1.4h0.6
	c1,0,1.8-0.4,2.3-1.3c0.4-0.8,0.5-2.2,0.5-4.5V35.6c0-1,0-1.7-0.1-1.9c-0.1-0.6-0.5-1-1.2-1.3c-0.4-0.1-0.8-0.1-1.4-0.1h-0.8v-1.4
	h8.2l6,20.7l6.2-20.7h8.4v1.4h-0.5c-1.2,0-1.8,0.3-2.3,0.6c-0.4,0.4-0.6,1.5-0.6,3.5v17.1c0,1.5,0.1,2.4,0.3,2.8
	c0.3,0.9,1.2,1.3,2.7,1.3h0.5v1.5H79.1v-1.4h0.4c1,0,1.8-0.3,2.3-0.8c0.4-0.4,0.6-1.5,0.6-3.5V33.6L74.7,59.1L74.7,59.1z"/>
	<path fill="#FFF" d="M102.3,43.1c0.6,1.4,1,3.6,1,6.4c0,5.9-1.5,9-4.5,9s-4.5-3-4.5-9c0-2.7,0.4-4.9,1-6.3
	c0.8-1.7,1.9-2.6,3.5-2.6C100.4,40.5,101.6,41.4,102.3,43.1L102.3,43.1z M92.3,42.2c-1.4,1.9-2.1,4.4-2.1,7.2c0,3,0.8,5.4,2.2,7.2
	c1.7,2.1,3.7,3.1,6.4,3.1s4.8-1,6.4-3.1c1.4-1.8,2.2-4.2,2.2-7.2s-0.8-5.4-2.2-7.2c-1.7-2.1-3.7-3.1-6.3-3.1
	C96,39.1,93.9,40.1,92.3,42.2L92.3,42.2z"/>
	<path fill="#FFF" d="M122.1,49.2c0,5.9-1.4,8.9-4.1,8.9c-1.7,0-2.8-0.8-3.6-2.4c-0.6-1.5-1-3.6-1-6.3s0.4-4.8,1.3-6.3
	c0.9-1.5,2.1-2.3,3.5-2.3C120.7,40.8,122.1,43.6,122.1,49.2L122.1,49.2z M113.7,30.6l-6,0.3v1.4h0.3c0.8,0,1.4,0.1,1.7,0.5
	c0.4,0.4,0.5,1.3,0.5,2.8V55c0,1.9,0,3.1-0.3,3.5c-0.1,0.3-0.1,0.5-0.3,0.8h1.4c0.8-1.3,1.4-2.1,1.7-2.1c0.3,0,0.4,0.1,0.8,0.4
	c0.8,0.6,1.2,0.9,1.4,1c1,0.6,2.2,1,3.5,1c2.6,0,4.6-1.2,6-3.5c1.3-1.9,1.8-4.2,1.8-7.1c0-3.2-0.9-5.7-2.6-7.6
	c-1.3-1.4-3-2.2-5-2.2c-2.4,0-4.1,1-5,3.1V30.6H113.7z"/>
	<path fill="#FFF" d="M134.7,39.3v15.2c0,1.5,0.1,2.6,0.5,3c0.3,0.4,0.8,0.5,1.7,0.5h0.6v1.3h-9.1V58h0.6c0.8,0,1.3-0.1,1.7-0.5
	c0.3-0.4,0.5-1.3,0.5-3V44.4c0-1.5-0.1-2.6-0.5-3c-0.3-0.4-0.9-0.5-1.7-0.5h-0.5v-1.3L134.7,39.3L134.7,39.3z M132.7,30.7
	c0.6,0,1.2,0.3,1.5,0.6c0.5,0.5,0.6,1,0.6,1.7s-0.3,1.2-0.6,1.7c-0.4,0.4-1,0.6-1.7,0.6s-1.2-0.3-1.7-0.6c-0.5-0.5-0.6-1-0.6-1.7
	s0.3-1.2,0.6-1.7C131.5,31,132,30.7,132.7,30.7L132.7,30.7z"/>
	<path fill="#FFF" d="M145.4,30.6v23.9c0,1.5,0.1,2.6,0.5,3c0.3,0.4,0.9,0.5,1.7,0.5h0.6v1.3h-9.1V58h0.6c0.8,0,1.3-0.1,1.7-0.5
	c0.3-0.4,0.5-1.3,0.5-3V35.6c0-1.5-0.1-2.4-0.5-2.8c-0.3-0.4-0.9-0.5-1.7-0.5h-0.5V31L145.4,30.6L145.4,30.6z"/>
	<path fill="#FFF" d="M152.7,47.8c0-1.4,0.1-2.6,0.4-3.6c0.6-2.4,1.8-3.7,3.5-3.7c1.4,0,2.4,0.9,3.1,2.7c0.4,1.3,0.6,2.8,0.6,4.6
	H152.7L152.7,47.8z M163,43.5c-1.4-3-3.6-4.4-6.6-4.4c-1.9,0-3.6,0.8-5,2.3c-1.8,1.9-2.7,4.6-2.7,8c0,3.6,0.9,6.3,2.7,8.2
	c1.4,1.5,3.2,2.3,5.5,2.3c3.1,0,5.4-1.8,7.2-5.4l-1.3-0.6c-0.5,1.2-1,2.1-1.7,2.6c-1,1.2-2.2,1.8-3.7,1.8c-1.9,0-3.2-0.9-4-2.8
	c-0.5-1.3-0.9-3.3-0.9-6h11.6C164.3,46.9,163.8,45,163,43.5L163,43.5z"/>
	<polygon fill="#FFF" points="168.4,49 168.4,42.9 174.5,42.9 174.5,49 		"/>
	<path fill="#FFF" d="M179.6,40.4c0,1-0.8,1.8-1.8,1.8s-1.8-0.8-1.8-1.8c0-1,0.8-1.8,1.8-1.8C178.8,38.4,179.6,39.3,179.6,40.4z
 	M180,40.4c0-1.3-0.9-2.2-2.2-2.2c-1.3,0-2.2,0.9-2.2,2.2c0,1.3,0.9,2.2,2.2,2.2C179.1,42.6,180,41.5,180,40.4z M178.8,39.9
	c0-0.5-0.4-0.8-0.8-0.8h-1.2v2.4h0.5v-0.9h0.4l0.4,0.9h0.5l-0.5-0.9C178.6,40.4,178.8,40.2,178.8,39.9z M178.3,39.9
	c0,0.3-0.1,0.3-0.4,0.3h-0.5v-0.6h0.5C178.2,39.6,178.3,39.6,178.3,39.9z"/>
</svg>
