<?xml version="1.0" encoding="UTF-8" standalone="no"?>
<svg width="260px" height="44px" viewBox="0 0 260 44" version="1.1" xmlns="http://www.w3.org/2000/svg" xmlns:xlink="http://www.w3.org/1999/xlink">
    <!-- Generator: Sketch 3.6.1 (26313) - http://www.bohemiancoding.com/sketch -->
    <title>t mobile logo</title>
    <desc>Created with Sketch.</desc>
    <defs>
        <path id="path-1" d="M0,0.272229965 L259.792091,0.272229965 L259.792091,43.0313589 L0,43.0313589 L0,0.272229965 Z"></path>
        <path id="path-3" d="M0,0.272229965 L259.792091,0.272229965 L259.792091,43.0313589 L0,43.0313589 L0,0.272229965 Z"></path>
    </defs>
    <g id="Page-1" stroke="none" stroke-width="1" fill="none" fill-rule="evenodd">
        <g id="Desktop-HD" transform="translate(-1070.000000, -296.000000)">
            <g id="featured-cs" transform="translate(960.000000, 0.000000)">
                <g id="t-mobile-logo" transform="translate(110.000000, 296.000000)">
                    <g id="Group-3">
                        <mask id="mask-2" fill="white">
                            <use xlink:href="#path-1"></use>
                        </mask>
                        <g id="Clip-2"></g>
                        <path d="M20.9425923,2.4050453 L20.9425923,33.869122 C20.9425923,36.148878 21.0558328,37.5485296 21.2800488,38.0803066 C21.6881672,39.3562997 22.991338,39.9999582 25.1968084,39.9999582 L28.9156237,39.9999582 L28.9156237,42.1306899 L7.13405575,42.1306899 L7.13405575,39.9999582 L10.8551359,39.9999582 C12.4445784,39.9999582 13.5493519,39.6837909 14.1735331,39.0401324 C14.7959024,38.4010035 15.1048223,36.6738606 15.1048223,33.869122 L15.1048223,2.4050453 L13.8220348,2.4050453 C11.8031847,2.4050453 9.98544948,2.99163066 8.37517073,4.16480139 C5.94639024,5.93950523 2.22395122,9.50703136 1.83757491,14.8628502 L0.00217421603,14.8628502 L0.338271777,0.27204878 L35.9165993,0.27204878 L36.1602927,14.8628502 L34.2909199,14.8628502 C33.5122787,8.71842509 29.3617909,4.88954007 26.4610244,3.37619512 C25.2094913,2.72800697 23.6893519,2.4050453 21.8929059,2.4050453 L20.9425923,2.4050453 Z" id="Fill-1" fill="#EC008B" mask="url(#mask-2)"></path>
                    </g>
                    <mask id="mask-4" fill="white">
                        <use xlink:href="#path-3"></use>
                    </mask>
                    <g id="Clip-5"></g>
                    <path d="M0,18.6765157 L8.75167247,18.6765157 L8.75167247,27.430453 L0,27.430453 L0,18.6765157 Z" id="Fill-4" fill="#989B9D" mask="url(#mask-4)"></path>
                    <path d="M25.8709059,18.6765157 L34.6248432,18.6765157 L34.6248432,27.430453 L25.8709059,27.430453 L25.8709059,18.6765157 Z" id="Fill-6" fill="#989B9D" mask="url(#mask-4)"></path>
                    <path d="M51.7431707,18.6765157 L60.4962021,18.6765157 L60.4962021,27.430453 L51.7431707,27.430453 L51.7431707,18.6765157 Z" id="Fill-7" fill="#989B9D" mask="url(#mask-4)"></path>
                    <path d="M77.6140767,18.6765157 L86.3680139,18.6765157 L86.3680139,27.430453 L77.6140767,27.430453 L77.6140767,18.6765157 Z" id="Fill-8" fill="#989B9D" mask="url(#mask-4)"></path>
                    <path d="M107.735847,42.1551045 L105.851979,42.1551045 L95.0905157,5.05844948 L95.0905157,31.7292857 C95.0905157,34.455662 95.1987735,36.1710279 95.4189129,36.8894251 C96.055777,39.0110976 97.4635819,40.0769164 99.6396098,40.0769164 L100.448146,40.0769164 L100.448146,42.1551045 L87.7629547,42.1551045 L87.7629547,40.0769164 L88.7572056,40.0769164 C90.2836864,40.0769164 91.3689826,39.4445819 92.0126411,38.1722125 C92.5321882,37.1399129 92.7903763,34.9910627 92.7903763,31.737892 L92.7903763,8.19339721 C92.7903763,6.78513937 92.7319443,5.84977352 92.6132683,5.39273519 C92.3709338,4.44151568 91.8391568,3.83726481 91.0152195,3.57590592 C90.536439,3.41963415 89.8302718,3.33402439 88.9075889,3.33402439 L87.7629547,3.33402439 L87.7629547,1.37043554 L99.5992962,1.37043554 L108.270794,31.2636411 L117.16515,1.37043554 L129.202606,1.37043554 L129.202606,3.33402439 L128.391805,3.33402439 C126.804627,3.33402439 125.701666,3.6506446 125.088808,4.27210801 C124.480481,4.89810105 124.17292,6.58719512 124.17292,9.32444251 L124.17292,34.0928397 C124.17292,36.2942334 124.283895,37.6626307 124.507659,38.2007491 C124.889052,39.4504704 126.180899,40.0769164 128.391805,40.0769164 L129.202606,40.0769164 L129.202606,42.1551045 L113.787868,42.1551045 L113.787868,40.0769164 L114.326892,40.0769164 C115.900934,40.0769164 117.011596,39.7294948 117.649819,39.0314808 C118.207868,38.4181707 118.487798,36.7684843 118.487798,34.0819686 L118.487798,5.04984321 L107.735847,42.1551045 Z" id="Fill-9" fill="#989B9D" mask="url(#mask-4)"></path>
                    <path d="M133.236638,17.6526864 C131.196951,20.4094111 130.180958,23.897669 130.180958,28.1088537 C130.180958,32.383453 131.217787,35.8504216 133.29507,38.5038711 C135.650923,41.5201429 138.75054,43.031223 142.607962,43.031223 C146.436847,43.031223 149.532387,41.5201429 151.884617,38.5038711 C153.96507,35.8504216 155.004164,32.3662404 155.004164,28.0472509 C155.004164,23.7178432 153.96507,20.2313972 151.884617,17.5933484 C149.512456,14.5770767 146.465383,13.0678084 142.752909,13.0678084 C138.663571,13.0678084 135.489669,14.597007 133.236638,17.6526864 M147.677962,18.803662 C148.62284,20.9040453 149.099355,23.9878084 149.099355,28.0472509 C149.099355,36.649899 146.931028,40.9530348 142.607962,40.9530348 C138.257265,40.9530348 136.086672,36.6145679 136.086672,27.9353693 C136.086672,23.9638014 136.558206,20.9212578 137.504895,18.803662 C138.590192,16.3653693 140.253014,15.1437317 142.484756,15.1437317 C144.859634,15.1437317 146.592666,16.3653693 147.677962,18.803662" id="Fill-10" fill="#989B9D" mask="url(#mask-4)"></path>
                    <path d="M164.041564,0.825432056 L155.292157,1.26299303 L155.292157,3.22431707 L155.744666,3.22431707 C156.895641,3.22431707 157.692854,3.46574564 158.143551,3.9472439 C158.653132,4.48536237 158.896826,5.86961324 158.896826,8.09909059 L158.896826,36.1161289 C158.896826,38.868324 158.806686,40.5293345 158.61146,41.1050488 C158.499125,41.4302753 158.380449,41.7749791 158.255432,42.1550139 L160.278359,42.1550139 C161.473725,40.2199617 162.299474,39.2510767 162.761042,39.2510767 C163.050484,39.2510767 163.406965,39.4091603 163.804213,39.7207979 C164.860972,40.5578711 165.533167,41.0737944 165.833934,41.267662 C167.347732,42.225223 169.006024,42.6972091 170.813794,42.6972091 C174.539857,42.6972091 177.443794,41.0389164 179.532854,37.7087422 C181.305746,34.885885 182.190833,31.5031672 182.190833,27.5886725 C182.190833,22.9883937 180.967383,19.3375226 178.524561,16.6247352 C176.637976,14.5488118 174.210101,13.5097178 171.251355,13.5097178 C167.773516,13.5097178 165.372819,14.9922613 164.041564,17.9713902 L164.041564,0.825432056 Z M176.28376,27.8214948 C176.28376,36.3552927 174.276233,40.6194739 170.260275,40.6194739 C167.940659,40.6194739 166.227105,39.4331672 165.117801,37.0433415 C164.105432,34.8727491 163.604456,31.8524007 163.604456,27.9709721 C163.604456,24.0537596 164.191042,21.035676 165.38822,18.9266864 C166.631599,16.7012857 168.305293,15.5856411 170.405676,15.5856411 C174.321983,15.5856411 176.28376,19.6650139 176.28376,27.8214948 L176.28376,27.8214948 Z" id="Fill-11" fill="#989B9D" mask="url(#mask-4)"></path>
                    <path d="M191.584216,1.04525436 C192.467038,1.04525436 193.240244,1.37908711 193.88662,2.042223 C194.53662,2.70581185 194.859582,3.48807666 194.859582,4.37950523 C194.859582,5.30898258 194.53662,6.09985366 193.88662,6.7435122 C193.240244,7.38943554 192.452091,7.7101324 191.518084,7.7101324 C190.606725,7.7101324 189.822195,7.38490592 189.16993,6.7281115 C188.513589,6.07358188 188.190174,5.29131707 188.190174,4.37950523 C188.190174,3.44640418 188.517213,2.65326829 189.183066,2.00960976 C189.84892,1.36368641 190.648397,1.04525436 191.584216,1.04525436 L191.584216,1.04525436 Z M194.530279,13.5098537 L194.530279,35.3163345 C194.530279,37.5748014 194.776237,38.9875889 195.268153,39.5451847 C195.69892,40.0479721 196.472125,40.2984599 197.598641,40.2984599 L198.578397,40.2984599 L198.578397,42.1551498 L185.345575,42.1551498 L185.345575,40.2984599 L186.314007,40.2984599 C187.441429,40.2984599 188.2323,40.0307596 188.700209,39.4994355 C189.152718,38.974 189.389617,37.5748014 189.389617,35.3140697 L189.389617,20.7232683 C189.389617,18.4652544 189.137317,17.0615261 188.634077,16.5256725 C188.194704,16.0441742 187.402021,15.8027456 186.252404,15.8027456 L185.562997,15.8027456 L185.562997,13.9247666 L194.530279,13.5098537 Z" id="Fill-12" fill="#989B9D" mask="url(#mask-4)"></path>
                    <path d="M209.933557,0.825432056 L209.933557,35.3166516 C209.933557,37.5769303 210.18178,38.987453 210.66962,39.5450488 C211.099934,40.0482892 211.882199,40.298777 213.002373,40.298777 L213.971258,40.298777 L213.971258,42.1550139 L200.747042,42.1550139 L200.747042,40.298777 L201.717739,40.298777 C202.840178,40.298777 203.631049,40.0310767 204.101223,39.4992997 C204.558261,38.9743171 204.790631,37.5751185 204.790631,35.3166516 L204.790631,8.01302787 C204.790631,5.78808014 204.542861,4.39975261 204.04415,3.84170383 C203.593906,3.36065854 202.80077,3.12557143 201.660666,3.12557143 L200.96854,3.12557143 L200.96854,1.2385331 L209.933557,0.825432056 Z" id="Fill-13" fill="#989B9D" mask="url(#mask-4)"></path>
                    <path d="M235.310463,19.4167456 C233.201474,15.1856307 230.03799,13.0675819 225.835864,13.0675819 C222.997606,13.0675819 220.583321,14.1995331 218.56447,16.457547 C216.014296,19.3112056 214.74238,23.1201603 214.74238,27.873993 C214.74238,33.0427387 216.014296,36.9989059 218.56447,39.7343415 C220.624993,41.9239582 223.250359,43.0314495 226.461857,43.0314495 C230.827049,43.0314495 234.295376,40.4436794 236.867746,35.2794634 L235.03778,34.3237143 C234.260498,35.933993 233.480498,37.2013798 232.700498,38.1127387 C231.283634,39.786885 229.522066,40.6194286 227.406735,40.6194286 C224.69123,40.6194286 222.771125,39.2836446 221.657293,36.6102648 C220.853739,34.7146202 220.447432,31.7844111 220.427502,27.8300557 L237.190707,27.8300557 C237.074296,24.4953519 236.443774,21.6906132 235.310463,19.4167456 L235.310463,19.4167456 Z M220.427502,25.7477909 C220.447432,23.7090105 220.651718,21.953784 221.060289,20.4975122 C222.041857,16.9299861 223.72008,15.1435052 226.092693,15.1435052 C228.179941,15.1435052 229.686491,16.4729477 230.611439,19.1309268 C231.231091,20.9323554 231.543181,23.1400906 231.543181,25.7477909 L220.427502,25.7477909 Z" id="Fill-14" fill="#989B9D" mask="url(#mask-4)"></path>
                    <path d="M243.069199,18.6765157 L251.823136,18.6765157 L251.823136,27.430453 L243.069199,27.430453 L243.069199,18.6765157 Z" id="Fill-15" fill="#989B9D" mask="url(#mask-4)"></path>
                    <path d="M257.416261,14.1917875 C257.416261,14.4880244 257.230547,14.646561 256.927969,14.646561 L256.102672,14.646561 L256.102672,13.7655505 L256.927969,13.7655505 C257.220129,13.7655505 257.416261,13.889662 257.416261,14.1917875 M258.152324,14.1786516 C258.152324,13.4357944 257.626436,13.0910906 256.971906,13.0910906 L255.367063,13.0910906 L255.367063,16.537223 L256.102672,16.537223 L256.102672,15.2852369 L256.697411,15.2852369 L257.309815,16.537223 L258.12107,16.537223 L257.450686,15.1819617 C257.832533,15.0374669 258.152324,14.7697666 258.152324,14.1786516 M259.792045,14.8866307 C259.792045,13.0852021 258.43769,11.7086516 256.645774,11.7086516 C254.857934,11.7086516 253.496331,13.0852021 253.496331,14.8866307 C253.496331,16.6613345 254.857934,18.0365261 256.645774,18.0365261 C258.43769,18.0365261 259.792045,16.6613345 259.792045,14.8866307 M259.238073,14.8866307 C259.238073,16.3451672 258.12107,17.459 256.645774,17.459 C255.180895,17.459 254.04985,16.3451672 254.04985,14.8866307 C254.04985,13.4009164 255.180895,12.2802892 256.645774,12.2802892 C258.12107,12.2802892 259.238073,13.4009164 259.238073,14.8866307" id="Fill-16" fill="#989B9D" mask="url(#mask-4)"></path>
                </g>
            </g>
        </g>
    </g>
</svg>