<svg version="1.1" xmlns="http://www.w3.org/2000/svg" xmlns:xlink="http://www.w3.org/1999/xlink"
	 viewBox="0 0 180 90" xml:space="preserve">
<path fill="#D73648" d="M10,27v31.1L36.3,67l26.3-8.9V27H10z M28.3,57.1v-2.8h-0.1c-1.6,2.2-3.8,3.3-7.1,3.3
	c-3.9,0-7.5-2.4-7.5-7.4v-15h8.3v11.5c0,2.5,0.3,4.3,2.7,4.3c1.4,0,3.3-0.7,3.3-4.2V35.2h8.3v21.9H28.3z M48.8,57.7
	c-5.1,0-10.8-2.1-10.9-7.7h8c0,0.8,0.4,1.4,1,1.9c0.4,0.4,1.2,0.6,2.2,0.6c1.1,0,2.8-0.4,2.8-1.7s-0.7-1.6-4.6-2.3
	c-6.4-1.1-8.9-3.1-8.9-6.9c0-5.5,5.9-6.9,10.3-6.9c4.7,0,10.4,1.3,10.6,6.9h-7.5c0-0.7-0.4-1.3-1-1.6c-0.5-0.4-1.2-0.6-1.9-0.6
	c-1.2,0-2.5,0.3-2.5,1.7c0,0.6,0.5,0.9,1,1.1c1.4,0.6,4.5,0.8,7.3,1.7c2.8,0.9,5.2,2.5,5.2,6.1C59.9,56.1,54.1,57.7,48.8,57.7z"
	/>
<path fill="#00458D" d="M65.6,27H74v10.6l0,0c1.3-1.9,3.5-2.9,6-2.9c7.3,0,9.3,6.2,9.3,11.4c0,5.5-3,11.6-9.2,11.6
	c-4.1,0-5.3-1.6-6.4-2.9h-0.1v2.4h-8C65.6,57.2,65.6,27,65.6,27z M77.3,40.7c-3,0-3.7,2.8-3.7,5.4c0,2.6,0.7,5.4,3.7,5.4
	s3.7-2.8,3.7-5.4C81,43.6,80.3,40.7,77.3,40.7z"/>
<path fill="#00458D" d="M112.6,52.2c0,1.6,0.1,3.5,1,4.9h-8.5c-0.2-0.6-0.3-1.5-0.3-2.1h-0.1c-1.8,2-4.3,2.6-7,2.6
	c-4.2,0-7.7-2-7.7-6.6c0-6.9,8.1-6.7,12.3-7.5c1.1-0.2,2.3-0.5,2.3-1.9c0-1.5-1.4-2-2.7-2c-2.6,0-3.1,1.3-3.1,2.2H91
	c0.3-6.1,6.1-7.2,11.2-7.2c10.4,0,10.4,4.3,10.4,8.6V52.2z M104.6,47.3c-1,0.5-2.1,0.8-3.3,1.1c-1.9,0.4-2.8,0.9-2.8,2.4
	c0,1,1.1,2,2.6,2c1.9,0,3.4-1.1,3.5-3.4C104.6,49.4,104.6,47.3,104.6,47.3z"/>
<path fill="#00458D" d="M115.6,35.2h8V38h0.1c1.6-2.2,3.8-3.3,7.1-3.3c3.9,0,7.5,2.4,7.5,7.4v15H130V45.6c0-2.5-0.3-4.3-2.7-4.3
	c-1.4,0-3.3,0.7-3.3,4.2V57h-8.3L115.6,35.2L115.6,35.2z"/>
<path fill="#00458D" d="M141.3,27h8.3v14.5l5.3-6.3h9.4l-7.8,8.3l9,13.6h-10l-4.5-7.9l-1.5,1.6v6.3h-8.3V27H141.3z"/>
</svg>
