<svg width="0" height="0" style="position:absolute"><symbol viewBox="0 0 80.371 80.371" id="Calendar_Icon-08"><path fill="#2BBCB1" d="M80.371-.339H40.186L0-.338v80.709H80.371V40.016z"/><path fill="#FFF" d="M8.344-.339h4.926v13.827H8.344zM23.121-.339h4.927v13.827h-4.927zM37.899-.339h4.927v13.827h-4.927zM52.678-.339h4.926v13.827h-4.926zM67.455-.339h4.927v13.827h-4.927z"/><g fill="#FFF"><path d="M12.565 49.829l5.514-4.52c2.059-1.704 2.864-2.604 2.864-3.977 0-1.396-.923-2.153-2.225-2.153-1.278 0-2.154.71-3.384 2.225l-2.556-2.059c1.633-2.225 3.219-3.432 6.177-3.432 3.432 0 5.703 2.012 5.703 5.111v.048c0 2.769-1.42 4.142-4.354 6.413l-2.698 2.083h7.218v3.147H12.565v-2.886zM27.428 44.48v-.047c0-4.805 2.982-8.567 7.384-8.567 4.378 0 7.336 3.716 7.336 8.521v.047c0 4.805-2.958 8.567-7.383 8.567-4.426-.001-7.337-3.716-7.337-8.521zm10.982 0v-.047c0-3.006-1.467-5.277-3.645-5.277s-3.598 2.201-3.598 5.23v.047c0 3.029 1.444 5.277 3.645 5.277s3.598-2.224 3.598-5.23zM47.521 39.723l-2.887.71-.758-2.981 4.758-1.42h2.484v16.685H47.52V39.723zM56.539 51.225c-1.207-1.207-1.964-2.981-1.964-6.271v-.047c0-5.112 2.319-9.041 7.266-9.041 2.249 0 3.716.663 5.183 1.822l-1.916 2.816c-1.09-.828-1.965-1.325-3.385-1.325-2.059 0-3.101 1.656-3.337 3.834.828-.544 1.798-1.065 3.432-1.065 3.29 0 5.821 1.822 5.821 5.278v.047c0 3.385-2.721 5.728-6.318 5.728-2.155-.001-3.622-.616-4.782-1.776zm7.479-3.786v-.048c0-1.396-1.088-2.414-2.887-2.414s-2.84.994-2.84 2.391v.048c0 1.396 1.088 2.461 2.887 2.461s2.84-1.018 2.84-2.438z"/></g></symbol><symbol viewBox="0 0 80.371 80.37" id="Call_for_paper_Icon-12"><g fill="#2BBCB1"><path d="M61.37 18.925h19.114v-.001L61.449-.112h-.079z"/><path d="M61.37 24.877h-5.952V-.112H0V80.37h80.484V24.877z"/></g></symbol><symbol viewBox="0 0 51.838 51.836" id="Clock_icon"><path fill="#2BBCB1" d="M51.838 0H0v25.918l.001 25.918h51.837V25.918z"/><path fill="#FFF" d="M25.92 8.855c9.408 0 17.062 7.654 17.062 17.062 0 9.409-7.654 17.064-17.062 17.064-9.409 0-17.063-7.655-17.063-17.064C8.856 16.51 16.511 8.855 25.92 8.855m0-2c-10.529 0-19.063 8.535-19.063 19.062 0 10.529 8.534 19.064 19.063 19.064 10.527 0 19.062-8.535 19.062-19.064 0-10.526-8.535-19.062-19.062-19.062z"/><path fill="#FFF" d="M24.92 14.193h2V28.31h-2z"/><path fill="#FFF" d="M26.11 26.738l7.877 5.895-1.199 1.602-7.876-5.895z"/></symbol><symbol viewBox="0 0 334.623 467.201" id="DevconMicrositeBanner"><path fill="#B6E0EA" d="M3.396 320.946h144.65v146.256H3.396z"/><path fill="#1477A8" d="M3.395 59.349h144.652v190.288H3.395z"/><path fill="#2BBCB1" d="M240.355 151.366h94.268v130.883h-94.268z"/><path fill="#024D77" d="M252.938 0h81.678v59.164h-81.678z"/><path fill="#0A3D59" d="M148.047 148.866h186.576v5H148.047z"/><path fill="#0A3D59" d="M237.855 151.366h5v130.883h-5z"/><path fill="#1477A8" d="M148.047 282.249h186.568v38.289H148.047z"/><path fill="#0A3D59" d="M0 0h5v467.201H0z"/><path fill="#0A3D59" d="M3.398 56.849h331.217v5H3.398z"/><path fill="#0A3D59" d="M250.438 0h5v59.349h-5zM3.229 246.953h144.822v5H3.229zM148.053 279.749h186.57v5h-186.57z"/><path fill="#0A3D59" d="M145.547 59.349h5v407.854h-5z"/><path fill="#0A3D59" d="M3.398 318.445h331.217v5H3.398z"/></symbol><symbol viewBox="0 0 480 152.854" id="DevconMobileBanner"><path fill="#2BBCB1" d="M81.711 2.486h125.712v147.976H81.711z"/><path fill="#024D77" d="M0 1.575h82.512v64.093H0zM207.423 76.019h162.784v74.442H207.423z"/><path fill="#1477A8" d="M370.205 1.575h66.615v72.344h-66.615z"/><path fill="#B6E0EA" d="M437.374 2.487H480v147.617h-42.626z"/><path fill="none" stroke="#0A3D59" stroke-width="5" stroke-miterlimit="10" d="M437.374 150.461l-.003-148.886M207.423 1.569l.153 148.892M82.762 150.461V1.575M0 65.667h82.762M370.205 1.57l.002 148.892M0 2.486h480M0 150.461h480M207.497 75.539H436.82"/></symbol><symbol viewBox="0 0 665.072 266.947" id="Devcon_Title_Image"><g fill="#36A6CD"><path d="M171.497 204.006l-3.117.767-.816-3.219 5.133-1.532h2.683v18.008h-3.882v-14.024zM189.169 214.172h-8.736l-.638-2.783 9.809-11.367h3.32v10.958h2.401v3.192h-2.401v3.857h-3.755v-3.857zm0-3.193v-5.568l-4.751 5.568h4.751zM199.151 208.246h7.867v3.729h-7.867v-3.729zM214.116 204.006l-3.115.767-.818-3.219 5.135-1.532H218v18.008h-3.883v-14.024zM225.122 216.42c-1.303-1.303-2.119-3.219-2.119-6.769v-.051c0-5.518 2.502-9.757 7.842-9.757 2.426 0 4.01.715 5.594 1.967l-2.069 3.04c-1.175-.895-2.12-1.432-3.653-1.432-2.222 0-3.346 1.789-3.602 4.139.895-.588 1.941-1.149 3.705-1.149 3.55 0 6.283 1.967 6.283 5.696v.051c0 3.652-2.938 6.182-6.82 6.182-2.325-.001-3.909-.665-5.161-1.917zm8.072-4.087v-.051c0-1.507-1.176-2.605-3.117-2.605-1.94 0-3.064 1.073-3.064 2.579v.052c0 1.507 1.175 2.656 3.116 2.656s3.065-1.099 3.065-2.631zM250.888 200.148h3.627l8.379 11.01v-11.01h3.883v17.881h-3.347l-8.659-11.367v11.367h-3.883v-17.881zM271.546 209.141v-.051c0-5.084 4.011-9.247 9.527-9.247 5.518 0 9.477 4.112 9.477 9.195v.052c0 5.082-4.01 9.246-9.527 9.246s-9.477-4.113-9.477-9.195zm14.892 0v-.051c0-3.066-2.248-5.62-5.416-5.62-3.167 0-5.363 2.503-5.363 5.568v.052c0 3.064 2.247 5.619 5.414 5.619 3.168 0 5.365-2.504 5.365-5.568zM293.788 200.148h4.342l4.675 12.594 4.675-12.594h4.24l-7.229 18.009h-3.474l-7.229-18.009zM315.749 200.148h13.487v3.5h-9.579v3.627h8.43v3.5h-8.43v3.754h9.707v3.5h-13.615v-17.881zM334.136 200.148h4.24l4.7 7.562 4.7-7.562h4.24v17.881h-3.908v-11.674l-5.032 7.639h-.103l-4.98-7.562v11.597h-3.857v-17.881zM357.578 200.148h8.302c2.043 0 3.652.562 4.674 1.584.818.818 1.227 1.814 1.227 3.04v.051c0 2.019-1.072 3.142-2.35 3.857 2.068.792 3.346 1.992 3.346 4.394v.051c0 3.27-2.656 4.904-6.692 4.904h-8.506v-17.881zm7.458 7.23c1.738 0 2.836-.562 2.836-1.89v-.052c0-1.175-.92-1.839-2.58-1.839h-3.883v3.78h3.627zm1.048 7.203c1.737 0 2.784-.613 2.784-1.941v-.052c0-1.199-.895-1.94-2.912-1.94h-4.547v3.934h4.675zM377.292 200.148h13.486v3.5H381.2v3.627h8.43v3.5h-8.43v3.754h9.707v3.5h-13.615v-17.881zM395.679 200.148h8.174c2.273 0 4.035.639 5.211 1.814.996.996 1.532 2.4 1.532 4.086v.052c0 2.886-1.558 4.7-3.831 5.543l4.367 6.386h-4.598l-3.832-5.722h-3.09v5.722h-3.934v-17.881zm7.918 8.686c1.916 0 3.014-1.021 3.014-2.529v-.051c0-1.686-1.174-2.555-3.09-2.555h-3.908v5.135h3.984zM413.937 220.559c1.763-.18 2.631-1.073 2.504-2.529h-1.584v-4.087h4.138v3.448c0 3.371-1.687 4.726-4.726 4.777l-.332-1.609zM432.042 214.913l5.951-4.879c2.223-1.839 3.091-2.81 3.091-4.291 0-1.507-.996-2.325-2.401-2.325-1.379 0-2.324.768-3.652 2.402l-2.759-2.223c1.763-2.401 3.474-3.704 6.667-3.704 3.703 0 6.156 2.171 6.156 5.518v.051c0 2.989-1.533 4.47-4.701 6.923l-2.911 2.247h7.79v3.397h-13.23v-3.116zM449.354 209.141v-.051c0-5.186 3.219-9.247 7.97-9.247 4.726 0 7.919 4.011 7.919 9.195v.052c0 5.185-3.193 9.246-7.97 9.246s-7.919-4.01-7.919-9.195zm11.853 0v-.051c0-3.244-1.583-5.697-3.934-5.697s-3.883 2.376-3.883 5.646v.052c0 3.27 1.558 5.695 3.934 5.695s3.883-2.401 3.883-5.645zM472.44 204.006l-3.115.767-.818-3.219 5.135-1.532h2.682v18.008h-3.883v-14.024zM483.446 216.42c-1.303-1.303-2.121-3.219-2.121-6.769v-.051c0-5.518 2.504-9.757 7.842-9.757 2.428 0 4.012.715 5.596 1.967l-2.07 3.04c-1.174-.895-2.119-1.432-3.652-1.432-2.223 0-3.346 1.789-3.602 4.139.895-.588 1.941-1.149 3.703-1.149 3.551 0 6.285 1.967 6.285 5.696v.051c0 3.652-2.938 6.182-6.82 6.182-2.325-.001-3.909-.665-5.161-1.917zm8.073-4.087v-.051c0-1.507-1.176-2.605-3.117-2.605s-3.064 1.073-3.064 2.579v.052c0 1.507 1.174 2.656 3.115 2.656s3.066-1.099 3.066-2.631zM135.399 244.838h6.973c5.619 0 9.502 3.857 9.502 8.889v.052c0 5.032-3.883 8.94-9.502 8.94h-6.973v-17.881zm6.973 14.33c3.219 0 5.391-2.172 5.391-5.339v-.051c0-3.167-2.172-5.39-5.391-5.39h-3.039v10.779h3.039zM162.775 244.711h3.628l7.662 18.008h-4.112l-1.635-4.011h-7.561l-1.635 4.011h-4.011l7.664-18.008zm4.138 10.523l-2.375-5.799-2.375 5.799h4.75zM178.096 244.838h8.174c2.273 0 4.036.639 5.211 1.813.996.997 1.532 2.401 1.532 4.087v.051c0 2.887-1.558 4.701-3.831 5.543l4.368 6.387h-4.598l-3.832-5.723h-3.091v5.723h-3.934v-17.881zm7.919 8.684c1.916 0 3.014-1.021 3.014-2.528v-.051c0-1.687-1.175-2.555-3.091-2.555h-3.908v5.134h3.985zM197.835 244.838h4.24l4.701 7.561 4.699-7.561h4.24v17.881h-3.908v-11.674l-5.031 7.638h-.104l-4.98-7.562v11.598h-3.857v-17.881zM220.052 260.113l2.324-2.785c1.609 1.328 3.295 2.172 5.339 2.172 1.609 0 2.58-.639 2.58-1.686v-.052c0-.996-.613-1.507-3.603-2.272-3.602-.92-5.926-1.916-5.926-5.467v-.051c0-3.244 2.605-5.391 6.259-5.391 2.604 0 4.827.818 6.642 2.273l-2.044 2.963c-1.584-1.098-3.142-1.762-4.649-1.762-1.506 0-2.299.689-2.299 1.559v.051c0 1.175.767 1.558 3.857 2.35 3.627.945 5.67 2.248 5.67 5.364v.051c0 3.551-2.707 5.543-6.564 5.543-2.707.001-5.44-.944-7.586-2.86zM243.062 248.465h-5.44v-3.627h14.815v3.627h-5.441v14.254h-3.934v-14.254zM262.853 244.711h3.627l7.663 18.008h-4.112l-1.635-4.011h-7.561l-1.635 4.011h-4.01l7.663-18.008zm4.138 10.523l-2.376-5.799-2.376 5.799h4.752zM278.173 244.838h6.973c5.619 0 9.502 3.857 9.502 8.889v.052c0 5.032-3.883 8.94-9.502 8.94h-6.973v-17.881zm6.973 14.33c3.219 0 5.391-2.172 5.391-5.339v-.051c0-3.167-2.172-5.39-5.391-5.39h-3.039v10.779h3.039zM303.582 248.465h-5.44v-3.627h14.814v3.627h-5.44v14.254h-3.934v-14.254zM317.421 244.838h3.935v17.881h-3.935v-17.881zM326.819 255.055v-10.217h3.934v10.115c0 2.912 1.455 4.419 3.856 4.419s3.856-1.456 3.856-4.291v-10.243h3.934v10.09c0 5.415-3.039 8.071-7.842 8.071-4.8 0-7.738-2.682-7.738-7.944zM347.683 244.838h4.24l4.699 7.561 4.7-7.561h4.24v17.881h-3.908v-11.674l-5.032 7.638h-.102l-4.981-7.562v11.598h-3.856v-17.881zM369.644 265.247c1.762-.179 2.631-1.073 2.503-2.528h-1.584v-4.088h4.138v3.449c0 3.371-1.686 4.725-4.725 4.776l-.332-1.609zM387.851 253.829v-.051c0-5.083 3.959-9.247 9.374-9.247 3.219 0 5.159.869 7.024 2.452l-2.478 2.989c-1.38-1.15-2.605-1.814-4.675-1.814-2.86 0-5.134 2.529-5.134 5.568v.052c0 3.27 2.247 5.671 5.415 5.671 1.431 0 2.707-.357 3.703-1.073v-2.554h-3.959v-3.398h7.766v7.766c-1.84 1.559-4.367 2.836-7.637 2.836-5.568-.001-9.399-3.909-9.399-9.197zM409.939 244.838h13.487v3.5h-9.579v3.627h8.429v3.499h-8.429v3.755h9.706v3.5h-13.614v-17.881zM428.325 244.838h8.174c2.273 0 4.037.639 5.211 1.813.996.997 1.533 2.401 1.533 4.087v.051c0 2.887-1.559 4.701-3.832 5.543l4.368 6.387h-4.598l-3.831-5.723h-3.092v5.723h-3.934v-17.881zm7.919 8.684c1.916 0 3.015-1.021 3.015-2.528v-.051c0-1.687-1.176-2.555-3.092-2.555h-3.908v5.134h3.985zM448.065 244.838h4.24l4.7 7.561 4.7-7.561h4.24v17.881h-3.908v-11.674l-5.032 7.638h-.103l-4.98-7.562v11.598h-3.857v-17.881zM477.638 244.711h3.627l7.664 18.008h-4.113l-1.635-4.011h-7.561l-1.635 4.011h-4.01l7.663-18.008zm4.138 10.523l-2.375-5.799-2.377 5.799h4.752zM492.958 244.838h3.627l8.379 11.01v-11.01h3.883v17.881h-3.346l-8.66-11.367v11.367h-3.883v-17.881zM519.44 255.668l-6.871-10.83h4.598l4.266 7.178 4.344-7.178h4.469l-6.871 10.754v7.127h-3.934v-7.051z"/></g><g fill="#0A3D59"><path d="M1.763 1.882H41.12c31.717 0 53.631 21.772 53.631 50.171v.29c0 28.399-21.914 50.456-53.631 50.456H1.763V1.882zM41.12 82.759c18.164 0 30.42-12.252 30.42-30.131v-.285c0-17.879-12.256-30.421-30.42-30.421H23.964v60.837H41.12zM121.69 1.882h76.121v19.751h-54.062v20.475h47.575v19.748h-47.575v21.193h54.783v19.75H121.69V1.882zM216.823 1.882h24.508l26.383 71.076 26.382-71.076h23.935L277.229 103.52h-19.606l-40.8-101.638zM329.837 52.628v-.285c0-28.688 21.623-52.189 52.619-52.189 19.031 0 30.42 6.341 39.792 15.568l-14.132 16.291c-7.783-7.063-15.713-11.389-25.803-11.389-17.012 0-29.266 14.13-29.266 31.429v.29c0 17.299 11.963 31.715 29.266 31.715 11.535 0 18.596-4.613 26.525-11.819l14.128 14.271c-10.38 11.104-21.915 18.021-41.376 18.021-29.696-.001-51.753-22.925-51.753-51.903zM440.539 52.628v-.285c0-28.688 22.632-52.189 53.773-52.189 31.141 0 53.484 23.212 53.484 51.899v.29c0 28.688-22.631 52.188-53.773 52.188-31.137-.001-53.484-23.211-53.484-51.903zm84.047 0v-.285c0-17.301-12.684-31.719-30.562-31.719-17.876 0-30.272 14.13-30.272 31.429v.29c0 17.299 12.688 31.715 30.562 31.715 17.877 0 30.272-14.126 30.272-31.43zM574.738 1.882h20.471l47.287 62.138V1.882h21.91v100.917h-18.883l-48.877-64.151v64.151h-21.908V1.882z"/></g><g fill="#1477A8"><path d="M0 152.811h2.754v-17.085H0v-2.556h8.666v2.556H5.874v16.947h7.701v-3.555h2.747v6.126H0v-2.433zM22.737 152.811h2.764v-17.236h-2.764v-2.404h8.668v2.404h-2.783v17.236h2.783v2.434h-8.668v-2.434zM38.569 152.811h2.77v-17.236h-2.77v-2.404h15.295v5.232h-2.711v-2.541h-6.707v7.312h7.638v2.564h-7.638v7.072h3.014v2.434h-8.891v-2.433zM60.497 152.811h2.757v-17.236h-2.757v-2.404h15.997v5.127h-2.728v-2.571h-7.383v7.104H74.2v2.562h-7.816v7.28h7.911v-2.641h2.72v5.212H60.497v-2.433zM84.161 152.811h2.752v-17.236h-2.752v-2.404h9.566c1.568 0 2.852.06 4.068.463 2.319.788 3.846 2.725 3.846 5.729 0 3.183-1.742 5.476-4.574 6.191v.062s.582.313.934 1.032l3.135 5.45c.35.576.758.714 1.551.714h.654v2.434h-1.887c-1.875 0-2.316-.329-3.075-1.647l-3.405-6.05c-.559-.94-.963-1.216-2.301-1.216h-2.639v6.479h2.722v2.434h-8.595v-2.435zm10.324-9.04c2.407 0 3.996-1.565 3.996-4.172 0-1.717-.686-2.898-2.066-3.46-.713-.278-1.65-.414-2.705-.414h-3.676v8.046h4.451zM108.679 152.811h2.131l7.054-19.641h3.522l7.028 19.641h2.144v2.434h-7.654v-2.434h2.327l-1.722-4.903h-7.819l-1.728 4.903h2.395v2.434h-7.678v-2.434zm14.047-7.418l-2.68-7.664c-.32-.904-.385-1.684-.385-1.684h-.084s-.103.779-.389 1.684l-2.719 7.664h6.257zM138.94 152.811h2.785v-6.91l-6.199-10.326h-2.104v-2.404h7.604v2.404h-2.298l4.083 6.945c.252.469.439.94.439.94h.064s.186-.472.464-.94l4.108-6.945h-2.299v-2.404h7.549v2.404h-2.088l-6.192 10.326v6.91h2.773v2.434h-8.69v-2.434zM170.698 152.811h2.747v-17.236h-2.747v-2.404h9.416c1.852 0 3.214.098 4.694.525 4.229 1.313 6.968 5.135 6.968 10.52 0 5.338-2.662 9.066-6.968 10.444-1.441.475-2.912.585-4.667.585h-9.443v-2.434zm9.254-.138c1.434 0 2.637-.116 3.766-.549 2.967-1.032 4.805-3.887 4.805-7.909 0-4.078-1.838-6.925-4.781-7.984-1.229-.435-2.355-.505-3.789-.505h-3.382v16.947h3.381zM198.732 152.811h2.751v-17.236h-2.751v-2.404h15.987v5.127h-2.727v-2.571h-7.398v7.104h7.834v2.562h-7.834v7.28h7.941v-2.641h2.71v5.212h-16.514v-2.433zM223.256 135.574h-2.157v-2.404h7.885v2.404h-2.44l4.937 14.542c.248.786.371 1.722.371 1.722h.104s.121-.936.373-1.722l4.939-14.542h-2.439v-2.404h7.887v2.404h-2.181l-6.984 19.67h-3.323l-6.972-19.67zM248.593 152.811h2.764v-17.236h-2.764v-2.404h15.987v5.127h-2.71v-2.571h-7.395v7.104h7.817v2.562h-7.817v7.28h7.908v-2.641h2.734v5.212h-16.525v-2.433zM272.284 152.811h2.746v-17.085h-2.746v-2.556h8.671v2.556h-2.791v16.947h7.694v-3.555h2.743v6.126h-16.317v-2.433zM306.222 132.793c6.381 0 11.365 4.906 11.365 11.266 0 6.5-4.984 11.572-11.365 11.572-6.41 0-11.353-5.072-11.353-11.572 0-6.36 4.943-11.266 11.353-11.266zm0 20.065c4.482 0 8.104-3.831 8.104-8.8 0-4.827-3.621-8.519-8.104-8.519-4.506 0-8.131 3.691-8.131 8.519 0 4.969 3.625 8.8 8.131 8.8zM324.405 152.811h2.75v-17.236h-2.75v-2.404h10.282c1.352 0 2.71.098 3.786.599 2.295.962 3.766 3.315 3.766 6.25 0 3.091-1.633 5.596-4.17 6.477-1.035.368-2.096.462-3.314.462h-4.469v5.854h2.781v2.434h-8.662v-2.436zm9.98-8.41c1.002 0 1.763-.162 2.462-.439 1.422-.638 2.232-2.039 2.232-3.943 0-1.784-.727-3.089-1.978-3.755-.679-.373-1.638-.538-2.695-.538h-4.12v8.676h4.099zM348.709 152.811h2.751v-17.236h-2.751v-2.404h15.985v5.127h-2.717v-2.571h-7.387v7.104h7.825v2.562h-7.825v7.28h7.912v-2.641h2.734v5.212h-16.528v-2.433zM372.36 152.811h2.75v-17.236h-2.75v-2.404h9.564c1.57 0 2.844.06 4.074.463 2.307.788 3.855 2.725 3.855 5.729 0 3.183-1.757 5.476-4.574 6.191v.062s.574.313.934 1.032l3.134 5.45c.348.576.752.714 1.528.714h.648v2.434h-1.859c-1.886 0-2.32-.329-3.066-1.647l-3.404-6.05c-.57-.94-.972-1.216-2.327-1.216h-2.624v6.479h2.719v2.434h-8.602v-2.435zm10.332-9.04c2.396 0 3.992-1.565 3.992-4.172 0-1.717-.686-2.898-2.06-3.46-.741-.278-1.661-.414-2.728-.414h-3.654v8.046h4.45zM421.071 132.793c2.662 0 8.42.976 8.42 4.379v2.695h-2.916v-1.73c0-1.931-3.354-2.66-5.383-2.66-4.709 0-8.193 3.483-8.193 8.485 0 5.221 3.559 8.935 8.388 8.935 1.58 0 5.515-.551 5.515-2.587v-1.724h2.904v2.694c0 3.248-5.535 4.351-8.613 4.351-6.623 0-11.418-5.1-11.418-11.55-.001-6.472 4.923-11.288 11.296-11.288zM448.268 132.793c6.366 0 11.356 4.906 11.356 11.266 0 6.5-4.99 11.572-11.356 11.572-6.428 0-11.353-5.072-11.353-11.572 0-6.36 4.925-11.266 11.353-11.266zm0 20.065c4.478 0 8.096-3.831 8.096-8.8 0-4.827-3.618-8.519-8.096-8.519-4.518 0-8.146 3.691-8.146 8.519 0 4.969 3.628 8.8 8.146 8.8zM466.442 152.811h2.758v-17.236h-2.758v-2.404h5.844l10.854 15.834c.377.612.77 1.583.77 1.583h.078s-.16-1.09-.16-1.776v-13.236h-2.826v-2.404h8.75v2.404h-2.789v19.67h-3.053l-10.868-15.819c-.404-.626-.756-1.601-.756-1.601h-.087s.149 1.092.122 1.775v13.211h2.842v2.434h-8.721v-2.435zM496.531 152.811h2.758v-17.236h-2.758v-2.404h15.293v5.232H509.1v-2.541h-6.67v7.312h7.609v2.564h-7.609v7.072h2.988v2.434h-8.887v-2.433zM518.461 152.811h2.758v-17.236h-2.758v-2.404h15.984v5.127h-2.709v-2.571h-7.385v7.104h7.816v2.562h-7.816v7.28h7.91v-2.641h2.723v5.212h-16.523v-2.433zM542.115 152.811h2.76v-17.236h-2.76v-2.404h9.568c1.58 0 2.867.06 4.074.463 2.316.788 3.85 2.725 3.85 5.729 0 3.183-1.76 5.476-4.564 6.191v.062s.562.313.949 1.032l3.137 5.45c.33.576.736.714 1.506.714h.66v2.434h-1.863c-1.887 0-2.322-.329-3.066-1.647l-3.426-6.05c-.557-.94-.949-1.216-2.307-1.216h-2.623v6.479h2.719v2.434h-8.613v-2.435zm10.328-9.04c2.41 0 4.014-1.565 4.014-4.172 0-1.717-.699-2.898-2.074-3.46-.717-.278-1.656-.414-2.723-.414h-3.65v8.046h4.433zM567.809 152.811h2.76v-17.236h-2.76v-2.404h15.984v5.127h-2.723v-2.571h-7.377v7.104h7.824v2.562h-7.824v7.28h7.904v-2.641h2.732v5.212h-16.521v-2.433zM591.453 152.811h2.756v-17.236h-2.756v-2.404h5.854l10.857 15.834c.377.612.75 1.583.75 1.583h.09s-.148-1.09-.148-1.776v-13.236h-2.814v-2.404h8.723v2.404h-2.791v19.67h-3.059l-10.857-15.819c-.402-.626-.75-1.601-.75-1.601h-.09s.154 1.092.119 1.775v13.211h2.836v2.434h-8.719v-2.435zM632.572 132.793c2.668 0 8.412.976 8.412 4.379v2.695h-2.912v-1.73c0-1.931-3.348-2.66-5.375-2.66-4.727 0-8.195 3.483-8.195 8.485 0 5.221 3.57 8.935 8.387 8.935 1.551 0 5.512-.551 5.512-2.587v-1.724h2.889v2.694c0 3.248-5.529 4.351-8.592 4.351-6.629 0-11.43-5.1-11.43-11.55 0-6.472 4.92-11.288 11.304-11.288zM648.551 152.811h2.766v-17.236h-2.766v-2.404h15.988v5.127h-2.717v-2.571h-7.396v7.104h7.832v2.562h-7.832v7.28h7.932v-2.641h2.715v5.212h-16.521v-2.433z"/></g></symbol><symbol viewBox="0 0 177.463 177.465" id="Devcon_icon-18"><path fill="#1477A8" d="M0 0h177.463v177.465H0z"/><g fill="#FFF"><path d="M26.827 57.182h16.096c12.971 0 21.933 8.902 21.933 20.518v.118c0 11.616-8.962 20.636-21.933 20.636H26.827V57.182zm16.096 33.076c7.429 0 12.44-5.012 12.44-12.322v-.118c0-7.312-5.012-12.44-12.44-12.44h-7.017v24.881l7.017-.001zM74.875 57.182h31.131v8.077h-22.11v8.372h19.457v8.078H83.896v8.667h22.405v8.077H74.875V57.182zM112.782 57.182h10.023l10.789 29.066 10.79-29.066h9.787l-16.687 41.566h-8.02l-16.682-41.566z"/></g><g fill="#FFF"><path d="M24.999 131.438v-.119c0-11.732 8.844-21.344 21.521-21.344 7.782 0 12.44 2.596 16.272 6.368l-5.778 6.662c-3.184-2.889-6.427-4.657-10.554-4.657-6.958 0-11.969 5.777-11.969 12.854v.117c0 7.076 4.894 12.972 11.969 12.972 4.717 0 7.606-1.888 10.849-4.835l5.778 5.838c-4.245 4.539-8.962 7.369-16.921 7.369-12.146-.002-21.167-9.376-21.167-21.225zM66.386 131.438v-.119c0-11.732 9.257-21.344 21.992-21.344 12.734 0 21.874 9.492 21.874 21.227v.117c0 11.732-9.257 21.344-21.992 21.344-12.735-.001-21.874-9.494-21.874-21.225zm34.373 0v-.119c0-7.074-5.188-12.971-12.499-12.971-7.311 0-12.382 5.777-12.382 12.854v.117c0 7.076 5.188 12.972 12.5 12.972 7.31-.002 12.381-5.78 12.381-12.853zM117.382 110.684h8.372l19.339 25.41v-25.41h8.963v41.271h-7.725l-19.988-26.237v26.237h-8.961v-41.271z"/></g><g fill="#FFF"><path d="M25.689 41.353h2.326V26.919h-2.326v-2.168h7.323v2.168h-2.353v14.328h6.503v-3.014h2.326v5.181H25.689v-2.061zM44.755 41.353h2.326V26.787h-2.326v-2.036h7.322v2.036h-2.353v14.566h2.353v2.062h-7.322v-2.062zM57.976 41.353h2.326V26.787h-2.326v-2.036h12.927v4.416h-2.3v-2.142h-5.657v6.186h6.451v2.168h-6.451v5.974h2.538v2.062h-7.507l-.001-2.062zM76.354 41.353h2.326V26.787h-2.326v-2.036h13.508v4.335h-2.299v-2.167h-6.239v6.001h6.609v2.167h-6.609v6.16h6.688V39h2.299v4.415H76.354v-2.062zM96.187 41.353h2.326V26.787h-2.326v-2.036h8.09c1.322 0 2.406.053 3.438.397 1.957.661 3.251 2.3 3.251 4.837 0 2.697-1.479 4.627-3.858 5.235v.052s.476.265.793.873l2.643 4.599c.292.503.637.608 1.297.608h.555v2.062h-1.584c-1.588 0-1.957-.291-2.593-1.401l-2.882-5.102c-.477-.793-.818-1.031-1.956-1.031h-2.221v5.472h2.3v2.062h-7.27v-2.061h-.003zm8.723-7.64c2.036 0 3.384-1.322 3.384-3.517 0-1.454-.581-2.458-1.744-2.934-.607-.238-1.4-.343-2.301-.343h-3.094v6.794h3.755zM116.76 41.353h1.798l5.948-16.602h2.987l5.947 16.602h1.799v2.062h-6.479v-2.062h1.983l-1.454-4.15h-6.609l-1.453 4.15h2.01v2.062h-6.479l.002-2.062zm11.87-6.266l-2.273-6.476c-.265-.767-.317-1.428-.317-1.428h-.078s-.079.662-.317 1.428l-2.3 6.476h5.285zM142.171 41.353h2.354v-5.842l-5.234-8.724h-1.771v-2.036h6.424v2.036h-1.955l3.463 5.869c.211.396.369.793.369.793h.054s.158-.396.396-.793l3.463-5.869h-1.93v-2.036h6.371v2.036h-1.771l-5.233 8.724v5.842h2.354v2.062h-7.351l-.003-2.062z"/></g></symbol><symbol viewBox="0 0 80.371 80.37" id="Evening_party_icon-11"><path fill="#2BBCB1" d="M80.369 0H40.184L0 .001V80.37h80.369l.002-40.184z"/><g fill="none" stroke="#FFF" stroke-width="4" stroke-miterlimit="10"><path d="M26.887 45.866c3.277 3.941 8.654 4.706 14.178 4.706 5.85 0 11.465-1.326 15.01-5.444 7.595-8.826-1.602-27.553-1.602-27.553H27.38c0-.001-8.374 18.808-.493 28.291zM47.001 50.571c-7.553 16.479-3.526 27.724-3.526 27.724M39.983 78.266s3.153-11.215-4.398-27.694"/><path d="M58.773 34.555c0 3.325-14.439 4.401-20.836.184-6.911-4.557-14.146-2.094-14.146-2.094M28.768 78.266h26.107"/></g></symbol><symbol viewBox="0 0 80.371 80.37" id="Map_Icon-15"><path fill="#2BBCB1" d="M80.371 0H40.187L0 .004v66.937h5.32v4.431H0v9.001h80.372V0zM18.059 71.372H9.066v-4.431h8.992v4.431zm12.738 0h-8.99v-4.431h8.99v4.431zm12.739 0h-8.991v-4.431h8.991v4.431zm11.284 0h-7.535v-4.431h3.102v-3.106h4.434v7.537zm0-11.448h-4.434V50.53h4.434v9.394zm0-13.305h-4.434v-5.318h4.434v5.318zm8.415-9.103l-3.783 3.785-7.367-7.369-7.367 7.369-3.78-3.785 7.364-7.367-7.364-7.367 3.78-3.783 7.367 7.367 7.367-7.367 3.783 3.783-7.367 7.367 7.367 7.367z"/></symbol><symbol viewBox="0 0 80.371 80.37" id="Person_Icon-06"><path fill="#2BBCB1" d="M80.371 0H0v80.37H80.371V40.185z"/><path fill="#FFF" d="M40.385 14.298c12.622 0 22.891 10.268 22.891 22.889 0 12.623-10.269 22.893-22.891 22.893a22.65 22.65 0 0 1-10.472-2.53c-7.66-3.95-12.419-11.753-12.419-20.363 0-12.622 10.269-22.889 22.891-22.889m0-4c-14.85 0-26.891 12.039-26.891 26.889 0 10.418 5.924 19.451 14.586 23.918a26.79 26.79 0 0 0 12.305 2.975c14.852 0 26.891-12.041 26.891-26.893-.001-14.85-12.04-26.889-26.891-26.889z"/><path fill="none" stroke="#FFF" stroke-width="4" stroke-miterlimit="10" d="M25.076 57.294S9.053 64.078 9.053 80.37M55.295 57.294s16.023 6.784 16.023 23.076"/></symbol><symbol viewBox="0 0 80.371 80.37" id="Sessions_Icon-09"><path fill="#2BBCB1" d="M80.371 0H40.17L-.031.001v80.4h80.402v-40.2z"/><path fill="#FFF" d="M32.656 65.126h4.594v15.428h-4.594zM43.677 65.126h4.593v15.428h-4.593z"/><path fill="none" stroke="#FFF" stroke-width="4" stroke-miterlimit="10" d="M56.407 49.643c0 9.057-7.342 16.401-16.401 16.401-9.057 0-16.4-7.344-16.4-16.401V32.588c0-9.059 7.344-16.402 16.4-16.402 9.06 0 16.401 7.343 16.401 16.402v17.055zM40.793 32.22h15.941M40.793 50.009h15.941"/></symbol><symbol viewBox="0 0 80.371 80.37" id="Speakers_Icon"><path fill="#2BBCB1" d="M0 61.609h17.803v18.733l20.402-18.733h42.137V0H0z"/><path fill="#FFF" d="M80.342 51.635h-9.306v9.792l-10.665-9.792H38.346V19.433h41.996z"/></symbol><symbol viewBox="0 0 80.371 80.37" id="Unconference_Icon-13"><path fill="#2BBCB1" d="M80.371 0H40.184L0 .001V80.37h80.372V0zm-8.802 59.111h-7.196L45.748 34.664v24.447h-8.351v-3.397c-2.909 2.666-6.985 4.001-11.95 4.001-10.328 0-16.646-5.769-16.646-17.086V20.655h8.461v21.756c0 6.261 3.131 9.503 8.296 9.503s8.293-3.131 8.293-9.229v-22.03h11.348L63.22 44.333V20.655h8.351v38.456z"/></symbol><symbol viewBox="0 0 80.371 80.37" id="Venue_Icon-14"><path fill="#2BBCB1" d="M80.372 0H0v80.37h80.372V40.184z"/><path fill="none" stroke="#FFF" stroke-width="4" stroke-miterlimit="10" d="M40.186 11.494L24.75 20.368V60l15.436 8.877L55.62 60V20.368z"/><g fill="none" stroke="#FFF" stroke-width="4" stroke-miterlimit="10"><path d="M56.688 26.515h23.684M56.688 53.854h23.684M56.688 40.186h23.684"/></g><g fill="none" stroke="#FFF" stroke-width="4" stroke-miterlimit="10"><path d="M0 26.515h25.654M0 53.854h25.654M0 40.186h25.654"/></g></symbol><symbol viewBox="0 1 11 11" id="external_link_icon"><path fill="none" stroke="#939598" stroke-miterlimit="10" d="M10.501 9.663V11.5H.5v-10h1.837M10.501 1.5L3.459 8.541M10.501 5.582V1.5H6.419"/></symbol><symbol viewBox="0 0 80.371 80.37" id="workshop_icons-10"><path fill="#2BBCB1" d="M80.371 0H40.186L0 .001V80.37H80.371V40.186z"/><path fill="none" stroke="#FFF" stroke-width="4" stroke-miterlimit="10" d="M64.242 36.121a23.914 23.914 0 0 0-1.281-4.661l3.768-3.819-1.368-2.315-1.366-2.318-5.201 1.463a24.163 24.163 0 0 0-2.898-2.878l1.467-5.219-2.316-1.366-2.317-1.368-3.912 3.862a23.954 23.954 0 0 0-4.52-1.199l-1.419-5.352h-5.381l-1.432 5.41a23.916 23.916 0 0 0-4.414 1.236l-4.008-3.957-2.315 1.368-2.318 1.366 1.539 5.477c-.962.83-1.862 1.73-2.682 2.7l-5.49-1.542-1.366 2.315-1.366 2.318 4.027 4.085a24.145 24.145 0 0 0-1.168 4.297l-5.551 1.473v5.379l5.545 1.47a24.139 24.139 0 0 0 1.164 4.311l-4.018 4.073 1.366 2.317 1.366 2.314 5.459-1.531a24.75 24.75 0 0 0 2.705 2.723l-1.531 5.441 2.316 1.367 2.317 1.367 3.978-3.927c1.428.555 2.915.976 4.456 1.251l1.42 5.368h5.381l1.407-5.311a24.16 24.16 0 0 0 4.564-1.212l3.881 3.83 2.315-1.367 2.316-1.367-1.457-5.183a24.18 24.18 0 0 0 2.919-2.903l5.171 1.453 1.366-2.314 1.368-2.317-3.756-3.809a24.242 24.242 0 0 0 1.277-4.675l5.17-1.37v-5.379l-5.177-1.375z"/><circle fill="none" stroke="#FFF" stroke-width="4" stroke-miterlimit="10" cx="40.188" cy="40.185" r="12.125"/></symbol></svg>