<?xml version="1.0" encoding="utf-8"?>
<!-- Generator: Adobe Illustrator 16.0.4, SVG Export Plug-In . SVG Version: 6.00 Build 0)  -->
<!DOCTYPE svg PUBLIC "-//W3C//DTD SVG 1.1//EN" "http://www.w3.org/Graphics/SVG/1.1/DTD/svg11.dtd">
<svg version="1.1" id="Layer_1" xmlns="http://www.w3.org/2000/svg" xmlns:xlink="http://www.w3.org/1999/xlink" x="0px" y="0px"
	 width="80.371px" height="80.371px" viewBox="0 0 80.371 80.371" enable-background="new 0 0 80.371 80.371" xml:space="preserve">
<g>
	<polygon fill="#2BBCB1" points="80.371,-0.339 40.186,-0.339 0,-0.338 0,40.016 0,80.371 40.186,80.371 80.371,80.371 
		80.371,40.016 	"/>
	<g>
		<rect x="8.344" y="-0.339" fill="#FFFFFF" width="4.926" height="13.827"/>
	</g>
	<g>
		<rect x="23.121" y="-0.339" fill="#FFFFFF" width="4.927" height="13.827"/>
	</g>
	<g>
		<rect x="37.899" y="-0.339" fill="#FFFFFF" width="4.927" height="13.827"/>
	</g>
	<g>
		<rect x="52.678" y="-0.339" fill="#FFFFFF" width="4.926" height="13.827"/>
	</g>
	<g>
		<rect x="67.455" y="-0.339" fill="#FFFFFF" width="4.927" height="13.827"/>
	</g>
	<g enable-background="new    ">
		<path fill="#FFFFFF" d="M12.565,49.829l5.514-4.52c2.059-1.704,2.864-2.604,2.864-3.977c0-1.396-0.923-2.153-2.225-2.153
			c-1.278,0-2.154,0.71-3.384,2.225l-2.556-2.059c1.633-2.225,3.219-3.432,6.177-3.432c3.432,0,5.703,2.012,5.703,5.111v0.048
			c0,2.769-1.42,4.142-4.354,6.413l-2.698,2.083h7.218v3.147H12.565V49.829z"/>
		<path fill="#FFFFFF" d="M27.428,44.48v-0.047c0-4.805,2.982-8.567,7.384-8.567c4.378,0,7.336,3.716,7.336,8.521v0.047
			c0,4.805-2.958,8.567-7.383,8.567C30.339,53,27.428,49.285,27.428,44.48z M38.41,44.48v-0.047c0-3.006-1.467-5.277-3.645-5.277
			s-3.598,2.201-3.598,5.23v0.047c0,3.029,1.444,5.277,3.645,5.277C37.013,49.71,38.41,47.486,38.41,44.48z"/>
		<path fill="#FFFFFF" d="M47.521,39.723l-2.887,0.71l-0.758-2.981l4.758-1.42h2.484v16.685h-3.598V39.723z"/>
		<path fill="#FFFFFF" d="M56.539,51.225c-1.207-1.207-1.964-2.981-1.964-6.271v-0.047c0-5.112,2.319-9.041,7.266-9.041
			c2.249,0,3.716,0.663,5.183,1.822l-1.916,2.816c-1.09-0.828-1.965-1.325-3.385-1.325c-2.059,0-3.101,1.656-3.337,3.834
			c0.828-0.544,1.798-1.065,3.432-1.065c3.29,0,5.821,1.822,5.821,5.278v0.047c0,3.385-2.721,5.728-6.318,5.728
			C59.166,53,57.699,52.385,56.539,51.225z M64.018,47.439v-0.048c0-1.396-1.088-2.414-2.887-2.414s-2.84,0.994-2.84,2.391v0.048
			c0,1.396,1.088,2.461,2.887,2.461S64.018,48.859,64.018,47.439z"/>
	</g>
</g>
</svg>
