<?xml version="1.0" encoding="utf-8"?>
<!-- Generator: Adobe Illustrator 16.0.4, SVG Export Plug-In . SVG Version: 6.00 Build 0)  -->
<!DOCTYPE svg PUBLIC "-//W3C//DTD SVG 1.1//EN" "http://www.w3.org/Graphics/SVG/1.1/DTD/svg11.dtd">
<svg version="1.1" id="Layer_1" xmlns="http://www.w3.org/2000/svg" xmlns:xlink="http://www.w3.org/1999/xlink" x="0px" y="0px"
	 width="51.838px" height="51.836px" viewBox="0 0 51.838 51.836" enable-background="new 0 0 51.838 51.836" xml:space="preserve">
<g>
	<polygon fill="#2BBCB1" points="51.838,0 25.919,0 0,0 0,25.918 0.001,51.836 25.919,51.836 51.838,51.836 51.838,25.918 	"/>
	<g>
		<path fill="#FFFFFF" d="M25.92,8.855c9.408,0,17.062,7.654,17.062,17.062c0,9.409-7.654,17.064-17.062,17.064
			c-9.409,0-17.063-7.655-17.063-17.064C8.856,16.51,16.511,8.855,25.92,8.855 M25.92,6.855c-10.529,0-19.063,8.535-19.063,19.062
			c0,10.529,8.534,19.064,19.063,19.064c10.527,0,19.062-8.535,19.062-19.064C44.982,15.391,36.447,6.855,25.92,6.855L25.92,6.855z"
			/>
	</g>
	<g>
		<rect x="24.92" y="14.193" fill="#FFFFFF" width="2" height="14.117"/>
	</g>
	<g>
		
			<rect x="24.531" y="29.486" transform="matrix(0.8006 0.5992 -0.5992 0.8006 24.1394 -11.5671)" fill="#FFFFFF" width="9.838" height="2.001"/>
	</g>
</g>
</svg>
