<?xml version="1.0" encoding="utf-8"?>
<!-- Generator: Adobe Illustrator 16.0.4, SVG Export Plug-In . SVG Version: 6.00 Build 0)  -->
<!DOCTYPE svg PUBLIC "-//W3C//DTD SVG 1.1//EN" "http://www.w3.org/Graphics/SVG/1.1/DTD/svg11.dtd">
<svg version="1.1" id="Layer_1" xmlns="http://www.w3.org/2000/svg" xmlns:xlink="http://www.w3.org/1999/xlink" x="0px" y="0px"
	 width="665.072px" height="266.947px" viewBox="0 0 665.072 266.947" enable-background="new 0 0 665.072 266.947"
	 xml:space="preserve">
<g>
	<path fill="#36A6CD" d="M171.497,204.006l-3.117,0.767l-0.816-3.219l5.133-1.532h2.683v18.008h-3.882V204.006z"/>
	<path fill="#36A6CD" d="M189.169,214.172h-8.736l-0.638-2.783l9.809-11.367h3.32v10.958h2.401v3.192h-2.401v3.857h-3.755V214.172z
		 M189.169,210.979v-5.568l-4.751,5.568H189.169z"/>
	<path fill="#36A6CD" d="M199.151,208.246h7.867v3.729h-7.867V208.246z"/>
	<path fill="#36A6CD" d="M214.116,204.006l-3.115,0.767l-0.818-3.219l5.135-1.532h2.682v18.008h-3.883V204.006z"/>
	<path fill="#36A6CD" d="M225.122,216.42c-1.303-1.303-2.119-3.219-2.119-6.769V209.6c0-5.518,2.502-9.757,7.842-9.757
		c2.426,0,4.01,0.715,5.594,1.967l-2.069,3.04c-1.175-0.895-2.12-1.432-3.653-1.432c-2.222,0-3.346,1.789-3.602,4.139
		c0.895-0.588,1.941-1.149,3.705-1.149c3.55,0,6.283,1.967,6.283,5.696v0.051c0,3.652-2.938,6.182-6.82,6.182
		C227.958,218.336,226.374,217.672,225.122,216.42z M233.194,212.333v-0.051c0-1.507-1.176-2.605-3.117-2.605
		c-1.94,0-3.064,1.073-3.064,2.579v0.052c0,1.507,1.175,2.656,3.116,2.656S233.194,213.865,233.194,212.333z"/>
	<path fill="#36A6CD" d="M250.888,200.148h3.627l8.379,11.01v-11.01h3.883v17.881h-3.347l-8.659-11.367v11.367h-3.883V200.148z"/>
	<path fill="#36A6CD" d="M271.546,209.141v-0.051c0-5.084,4.011-9.247,9.527-9.247c5.518,0,9.477,4.112,9.477,9.195v0.052
		c0,5.082-4.01,9.246-9.527,9.246S271.546,214.223,271.546,209.141z M286.438,209.141v-0.051c0-3.066-2.248-5.62-5.416-5.62
		c-3.167,0-5.363,2.503-5.363,5.568v0.052c0,3.064,2.247,5.619,5.414,5.619C284.241,214.709,286.438,212.205,286.438,209.141z"/>
	<path fill="#36A6CD" d="M293.788,200.148h4.342l4.675,12.594l4.675-12.594h4.24l-7.229,18.009h-3.474L293.788,200.148z"/>
	<path fill="#36A6CD" d="M315.749,200.148h13.487v3.5h-9.579v3.627h8.43v3.5h-8.43v3.754h9.707v3.5h-13.615V200.148z"/>
	<path fill="#36A6CD" d="M334.136,200.148h4.24l4.7,7.562l4.7-7.562h4.24v17.881h-3.908v-11.674l-5.032,7.639h-0.103l-4.98-7.562
		v11.597h-3.857V200.148z"/>
	<path fill="#36A6CD" d="M357.578,200.148h8.302c2.043,0,3.652,0.562,4.674,1.584c0.818,0.818,1.227,1.814,1.227,3.04v0.051
		c0,2.019-1.072,3.142-2.35,3.857c2.068,0.792,3.346,1.992,3.346,4.394v0.051c0,3.27-2.656,4.904-6.692,4.904h-8.506V200.148z
		 M365.036,207.378c1.738,0,2.836-0.562,2.836-1.89v-0.052c0-1.175-0.92-1.839-2.58-1.839h-3.883v3.78H365.036z M366.084,214.581
		c1.737,0,2.784-0.613,2.784-1.941v-0.052c0-1.199-0.895-1.94-2.912-1.94h-4.547v3.934H366.084z"/>
	<path fill="#36A6CD" d="M377.292,200.148h13.486v3.5H381.2v3.627h8.43v3.5h-8.43v3.754h9.707v3.5h-13.615V200.148z"/>
	<path fill="#36A6CD" d="M395.679,200.148h8.174c2.273,0,4.035,0.639,5.211,1.814c0.996,0.996,1.532,2.4,1.532,4.086v0.052
		c0,2.886-1.558,4.7-3.831,5.543l4.367,6.386h-4.598l-3.832-5.722h-3.09v5.722h-3.934V200.148z M403.597,208.834
		c1.916,0,3.014-1.021,3.014-2.529v-0.051c0-1.686-1.174-2.555-3.09-2.555h-3.908v5.135H403.597z"/>
	<path fill="#36A6CD" d="M413.937,220.559c1.763-0.18,2.631-1.073,2.504-2.529h-1.584v-4.087h4.138v3.448
		c0,3.371-1.687,4.726-4.726,4.777L413.937,220.559z"/>
	<path fill="#36A6CD" d="M432.042,214.913l5.951-4.879c2.223-1.839,3.091-2.81,3.091-4.291c0-1.507-0.996-2.325-2.401-2.325
		c-1.379,0-2.324,0.768-3.652,2.402l-2.759-2.223c1.763-2.401,3.474-3.704,6.667-3.704c3.703,0,6.156,2.171,6.156,5.518v0.051
		c0,2.989-1.533,4.47-4.701,6.923l-2.911,2.247h7.79v3.397h-13.23V214.913z"/>
	<path fill="#36A6CD" d="M449.354,209.141v-0.051c0-5.186,3.219-9.247,7.97-9.247c4.726,0,7.919,4.011,7.919,9.195v0.052
		c0,5.185-3.193,9.246-7.97,9.246S449.354,214.326,449.354,209.141z M461.207,209.141v-0.051c0-3.244-1.583-5.697-3.934-5.697
		s-3.883,2.376-3.883,5.646v0.052c0,3.27,1.558,5.695,3.934,5.695S461.207,212.385,461.207,209.141z"/>
	<path fill="#36A6CD" d="M472.44,204.006l-3.115,0.767l-0.818-3.219l5.135-1.532h2.682v18.008h-3.883V204.006z"/>
	<path fill="#36A6CD" d="M483.446,216.42c-1.303-1.303-2.121-3.219-2.121-6.769V209.6c0-5.518,2.504-9.757,7.842-9.757
		c2.428,0,4.012,0.715,5.596,1.967l-2.07,3.04c-1.174-0.895-2.119-1.432-3.652-1.432c-2.223,0-3.346,1.789-3.602,4.139
		c0.895-0.588,1.941-1.149,3.703-1.149c3.551,0,6.285,1.967,6.285,5.696v0.051c0,3.652-2.938,6.182-6.82,6.182
		C486.282,218.336,484.698,217.672,483.446,216.42z M491.519,212.333v-0.051c0-1.507-1.176-2.605-3.117-2.605
		s-3.064,1.073-3.064,2.579v0.052c0,1.507,1.174,2.656,3.115,2.656S491.519,213.865,491.519,212.333z"/>
	<path fill="#36A6CD" d="M135.399,244.838h6.973c5.619,0,9.502,3.857,9.502,8.889v0.052c0,5.032-3.883,8.94-9.502,8.94h-6.973
		V244.838z M142.372,259.168c3.219,0,5.391-2.172,5.391-5.339v-0.051c0-3.167-2.172-5.39-5.391-5.39h-3.039v10.779H142.372z"/>
	<path fill="#36A6CD" d="M162.775,244.711h3.628l7.662,18.008h-4.112l-1.635-4.011h-7.561l-1.635,4.011h-4.011L162.775,244.711z
		 M166.913,255.234l-2.375-5.799l-2.375,5.799H166.913z"/>
	<path fill="#36A6CD" d="M178.096,244.838h8.174c2.273,0,4.036,0.639,5.211,1.813c0.996,0.997,1.532,2.401,1.532,4.087v0.051
		c0,2.887-1.558,4.701-3.831,5.543l4.368,6.387h-4.598l-3.832-5.723h-3.091v5.723h-3.934V244.838z M186.015,253.522
		c1.916,0,3.014-1.021,3.014-2.528v-0.051c0-1.687-1.175-2.555-3.091-2.555h-3.908v5.134H186.015z"/>
	<path fill="#36A6CD" d="M197.835,244.838h4.24l4.701,7.561l4.699-7.561h4.24v17.881h-3.908v-11.674l-5.031,7.638h-0.104
		l-4.98-7.562v11.598h-3.857V244.838z"/>
	<path fill="#36A6CD" d="M220.052,260.113l2.324-2.785c1.609,1.328,3.295,2.172,5.339,2.172c1.609,0,2.58-0.639,2.58-1.686v-0.052
		c0-0.996-0.613-1.507-3.603-2.272c-3.602-0.92-5.926-1.916-5.926-5.467v-0.051c0-3.244,2.605-5.391,6.259-5.391
		c2.604,0,4.827,0.818,6.642,2.273l-2.044,2.963c-1.584-1.098-3.142-1.762-4.649-1.762c-1.506,0-2.299,0.689-2.299,1.559v0.051
		c0,1.175,0.767,1.558,3.857,2.35c3.627,0.945,5.67,2.248,5.67,5.364v0.051c0,3.551-2.707,5.543-6.564,5.543
		C224.931,262.974,222.198,262.029,220.052,260.113z"/>
	<path fill="#36A6CD" d="M243.062,248.465h-5.44v-3.627h14.815v3.627h-5.441v14.254h-3.934V248.465z"/>
	<path fill="#36A6CD" d="M262.853,244.711h3.627l7.663,18.008h-4.112l-1.635-4.011h-7.561l-1.635,4.011h-4.01L262.853,244.711z
		 M266.991,255.234l-2.376-5.799l-2.376,5.799H266.991z"/>
	<path fill="#36A6CD" d="M278.173,244.838h6.973c5.619,0,9.502,3.857,9.502,8.889v0.052c0,5.032-3.883,8.94-9.502,8.94h-6.973
		V244.838z M285.146,259.168c3.219,0,5.391-2.172,5.391-5.339v-0.051c0-3.167-2.172-5.39-5.391-5.39h-3.039v10.779H285.146z"/>
	<path fill="#36A6CD" d="M303.582,248.465h-5.44v-3.627h14.814v3.627h-5.44v14.254h-3.934V248.465z"/>
	<path fill="#36A6CD" d="M317.421,244.838h3.935v17.881h-3.935V244.838z"/>
	<path fill="#36A6CD" d="M326.819,255.055v-10.217h3.934v10.115c0,2.912,1.455,4.419,3.856,4.419s3.856-1.456,3.856-4.291v-10.243
		h3.934v10.09c0,5.415-3.039,8.071-7.842,8.071C329.757,262.999,326.819,260.317,326.819,255.055z"/>
	<path fill="#36A6CD" d="M347.683,244.838h4.24l4.699,7.561l4.7-7.561h4.24v17.881h-3.908v-11.674l-5.032,7.638h-0.102l-4.981-7.562
		v11.598h-3.856V244.838z"/>
	<path fill="#36A6CD" d="M369.644,265.247c1.762-0.179,2.631-1.073,2.503-2.528h-1.584v-4.088h4.138v3.449
		c0,3.371-1.686,4.725-4.725,4.776L369.644,265.247z"/>
	<path fill="#36A6CD" d="M387.851,253.829v-0.051c0-5.083,3.959-9.247,9.374-9.247c3.219,0,5.159,0.869,7.024,2.452l-2.478,2.989
		c-1.38-1.15-2.605-1.814-4.675-1.814c-2.86,0-5.134,2.529-5.134,5.568v0.052c0,3.27,2.247,5.671,5.415,5.671
		c1.431,0,2.707-0.357,3.703-1.073v-2.554h-3.959v-3.398h7.766v7.766c-1.84,1.559-4.367,2.836-7.637,2.836
		C391.682,263.025,387.851,259.117,387.851,253.829z"/>
	<path fill="#36A6CD" d="M409.939,244.838h13.487v3.5h-9.579v3.627h8.429v3.499h-8.429v3.755h9.706v3.5h-13.614V244.838z"/>
	<path fill="#36A6CD" d="M428.325,244.838h8.174c2.273,0,4.037,0.639,5.211,1.813c0.996,0.997,1.533,2.401,1.533,4.087v0.051
		c0,2.887-1.559,4.701-3.832,5.543l4.368,6.387h-4.598l-3.831-5.723h-3.092v5.723h-3.934V244.838z M436.244,253.522
		c1.916,0,3.015-1.021,3.015-2.528v-0.051c0-1.687-1.176-2.555-3.092-2.555h-3.908v5.134H436.244z"/>
	<path fill="#36A6CD" d="M448.065,244.838h4.24l4.7,7.561l4.7-7.561h4.24v17.881h-3.908v-11.674l-5.032,7.638h-0.103l-4.98-7.562
		v11.598h-3.857V244.838z"/>
	<path fill="#36A6CD" d="M477.638,244.711h3.627l7.664,18.008h-4.113l-1.635-4.011h-7.561l-1.635,4.011h-4.01L477.638,244.711z
		 M481.776,255.234l-2.375-5.799l-2.377,5.799H481.776z"/>
	<path fill="#36A6CD" d="M492.958,244.838h3.627l8.379,11.01v-11.01h3.883v17.881h-3.346l-8.66-11.367v11.367h-3.883V244.838z"/>
	<path fill="#36A6CD" d="M519.44,255.668l-6.871-10.83h4.598l4.266,7.178l4.344-7.178h4.469l-6.871,10.754v7.127h-3.934V255.668z"/>
</g>
<g>
	<g>
		<path fill="#0A3D59" d="M1.763,1.882H41.12c31.717,0,53.631,21.772,53.631,50.171v0.29c0,28.399-21.914,50.456-53.631,50.456
			H1.763V1.882z M41.12,82.759c18.164,0,30.42-12.252,30.42-30.131v-0.285c0-17.879-12.256-30.421-30.42-30.421H23.964v60.837H41.12
			z"/>
		<path fill="#0A3D59" d="M121.69,1.882h76.121v19.751h-54.062v20.475h47.575v19.748h-47.575v21.193h54.783v19.75H121.69V1.882z"/>
		<path fill="#0A3D59" d="M216.823,1.882h24.508l26.383,71.076l26.382-71.076h23.935L277.229,103.52h-19.606L216.823,1.882z"/>
		<path fill="#0A3D59" d="M329.837,52.628v-0.285c0-28.688,21.623-52.189,52.619-52.189c19.031,0,30.42,6.341,39.792,15.568
			l-14.132,16.291c-7.783-7.063-15.713-11.389-25.803-11.389c-17.012,0-29.266,14.13-29.266,31.429v0.29
			c0,17.299,11.963,31.715,29.266,31.715c11.535,0,18.596-4.613,26.525-11.819l14.128,14.271
			c-10.38,11.104-21.915,18.021-41.376,18.021C351.894,104.53,329.837,81.606,329.837,52.628z"/>
		<path fill="#0A3D59" d="M440.539,52.628v-0.285c0-28.688,22.632-52.189,53.773-52.189c31.141,0,53.484,23.212,53.484,51.899v0.29
			c0,28.688-22.631,52.188-53.773,52.188C462.886,104.53,440.539,81.32,440.539,52.628z M524.586,52.628v-0.285
			c0-17.301-12.684-31.719-30.562-31.719c-17.876,0-30.272,14.13-30.272,31.429v0.29c0,17.299,12.688,31.715,30.562,31.715
			C512.191,84.058,524.586,69.932,524.586,52.628z"/>
		<path fill="#0A3D59" d="M574.738,1.882h20.471l47.287,62.138V1.882h21.91v100.917h-18.883l-48.877-64.151v64.151h-21.908V1.882z"
			/>
	</g>
	<g>
		<path fill="#1477A8" d="M0,152.811h2.754v-17.085H0v-2.556h8.666v2.556H5.874v16.947h7.701v-3.555h2.747v6.126H0V152.811z"/>
		<path fill="#1477A8" d="M22.737,152.811h2.764v-17.236h-2.764v-2.404h8.668v2.404h-2.783v17.236h2.783v2.434h-8.668V152.811z"/>
		<path fill="#1477A8" d="M38.569,152.811h2.77v-17.236h-2.77v-2.404h15.295v5.232h-2.711v-2.541h-6.707v7.312h7.638v2.564h-7.638
			v7.072h3.014v2.434h-8.891V152.811z"/>
		<path fill="#1477A8" d="M60.497,152.811h2.757v-17.236h-2.757v-2.404h15.997v5.127h-2.728v-2.571h-7.383v7.104H74.2v2.562h-7.816
			v7.28h7.911v-2.641h2.72v5.212H60.497V152.811z"/>
		<path fill="#1477A8" d="M84.161,152.811h2.752v-17.236h-2.752v-2.404h9.566c1.568,0,2.852,0.06,4.068,0.463
			c2.319,0.788,3.846,2.725,3.846,5.729c0,3.183-1.742,5.476-4.574,6.191v0.062c0,0,0.582,0.313,0.934,1.032l3.135,5.45
			c0.35,0.576,0.758,0.714,1.551,0.714h0.654v2.434h-1.887c-1.875,0-2.316-0.329-3.075-1.647l-3.405-6.05
			c-0.559-0.94-0.963-1.216-2.301-1.216h-2.639v6.479h2.722v2.434h-8.595V152.811z M94.485,143.771c2.407,0,3.996-1.565,3.996-4.172
			c0-1.717-0.686-2.898-2.066-3.46c-0.713-0.278-1.65-0.414-2.705-0.414h-3.676v8.046H94.485z"/>
		<path fill="#1477A8" d="M108.679,152.811h2.131l7.054-19.641h3.522l7.028,19.641h2.144v2.434h-7.654v-2.434h2.327l-1.722-4.903
			h-7.819l-1.728,4.903h2.395v2.434h-7.678V152.811z M122.726,145.393l-2.68-7.664c-0.32-0.904-0.385-1.684-0.385-1.684h-0.084
			c0,0-0.103,0.779-0.389,1.684l-2.719,7.664H122.726z"/>
		<path fill="#1477A8" d="M138.94,152.811h2.785v-6.91l-6.199-10.326h-2.104v-2.404h7.604v2.404h-2.298l4.083,6.945
			c0.252,0.469,0.439,0.94,0.439,0.94h0.064c0,0,0.186-0.472,0.464-0.94l4.108-6.945h-2.299v-2.404h7.549v2.404h-2.088
			l-6.192,10.326v6.91h2.773v2.434h-8.69V152.811z"/>
		<path fill="#1477A8" d="M170.698,152.811h2.747v-17.236h-2.747v-2.404h9.416c1.852,0,3.214,0.098,4.694,0.525
			c4.229,1.313,6.968,5.135,6.968,10.52c0,5.338-2.662,9.066-6.968,10.444c-1.441,0.475-2.912,0.585-4.667,0.585h-9.443V152.811z
			 M179.952,152.673c1.434,0,2.637-0.116,3.766-0.549c2.967-1.032,4.805-3.887,4.805-7.909c0-4.078-1.838-6.925-4.781-7.984
			c-1.229-0.435-2.355-0.505-3.789-0.505h-3.382v16.947H179.952z"/>
		<path fill="#1477A8" d="M198.732,152.811h2.751v-17.236h-2.751v-2.404h15.987v5.127h-2.727v-2.571h-7.398v7.104h7.834v2.562
			h-7.834v7.28h7.941v-2.641h2.71v5.212h-16.514V152.811z"/>
		<path fill="#1477A8" d="M223.256,135.574h-2.157v-2.404h7.885v2.404h-2.44l4.937,14.542c0.248,0.786,0.371,1.722,0.371,1.722
			h0.104c0,0,0.121-0.936,0.373-1.722l4.939-14.542h-2.439v-2.404h7.887v2.404h-2.181l-6.984,19.67h-3.323L223.256,135.574z"/>
		<path fill="#1477A8" d="M248.593,152.811h2.764v-17.236h-2.764v-2.404h15.987v5.127h-2.71v-2.571h-7.395v7.104h7.817v2.562h-7.817
			v7.28h7.908v-2.641h2.734v5.212h-16.525V152.811z"/>
		<path fill="#1477A8" d="M272.284,152.811h2.746v-17.085h-2.746v-2.556h8.671v2.556h-2.791v16.947h7.694v-3.555h2.743v6.126
			h-16.317V152.811z"/>
		<path fill="#1477A8" d="M306.222,132.793c6.381,0,11.365,4.906,11.365,11.266c0,6.5-4.984,11.572-11.365,11.572
			c-6.41,0-11.353-5.072-11.353-11.572C294.869,137.699,299.812,132.793,306.222,132.793z M306.222,152.858
			c4.482,0,8.104-3.831,8.104-8.8c0-4.827-3.621-8.519-8.104-8.519c-4.506,0-8.131,3.691-8.131,8.519
			C298.091,149.027,301.716,152.858,306.222,152.858z"/>
		<path fill="#1477A8" d="M324.405,152.811h2.75v-17.236h-2.75v-2.404h10.282c1.352,0,2.71,0.098,3.786,0.599
			c2.295,0.962,3.766,3.315,3.766,6.25c0,3.091-1.633,5.596-4.17,6.477c-1.035,0.368-2.096,0.462-3.314,0.462h-4.469v5.854h2.781
			v2.434h-8.662V152.811z M334.385,144.401c1.002,0,1.763-0.162,2.462-0.439c1.422-0.638,2.232-2.039,2.232-3.943
			c0-1.784-0.727-3.089-1.978-3.755c-0.679-0.373-1.638-0.538-2.695-0.538h-4.12v8.676H334.385z"/>
		<path fill="#1477A8" d="M348.709,152.811h2.751v-17.236h-2.751v-2.404h15.985v5.127h-2.717v-2.571h-7.387v7.104h7.825v2.562
			h-7.825v7.28h7.912v-2.641h2.734v5.212h-16.528V152.811z"/>
		<path fill="#1477A8" d="M372.36,152.811h2.75v-17.236h-2.75v-2.404h9.564c1.57,0,2.844,0.06,4.074,0.463
			c2.307,0.788,3.855,2.725,3.855,5.729c0,3.183-1.757,5.476-4.574,6.191v0.062c0,0,0.574,0.313,0.934,1.032l3.134,5.45
			c0.348,0.576,0.752,0.714,1.528,0.714h0.648v2.434h-1.859c-1.886,0-2.32-0.329-3.066-1.647l-3.404-6.05
			c-0.57-0.94-0.972-1.216-2.327-1.216h-2.624v6.479h2.719v2.434h-8.602V152.811z M382.692,143.771c2.396,0,3.992-1.565,3.992-4.172
			c0-1.717-0.686-2.898-2.06-3.46c-0.741-0.278-1.661-0.414-2.728-0.414h-3.654v8.046H382.692z"/>
		<path fill="#1477A8" d="M421.071,132.793c2.662,0,8.42,0.976,8.42,4.379v2.695h-2.916v-1.73c0-1.931-3.354-2.66-5.383-2.66
			c-4.709,0-8.193,3.483-8.193,8.485c0,5.221,3.559,8.935,8.388,8.935c1.58,0,5.515-0.551,5.515-2.587v-1.724h2.904v2.694
			c0,3.248-5.535,4.351-8.613,4.351c-6.623,0-11.418-5.1-11.418-11.55C409.774,137.609,414.698,132.793,421.071,132.793z"/>
		<path fill="#1477A8" d="M448.268,132.793c6.366,0,11.356,4.906,11.356,11.266c0,6.5-4.99,11.572-11.356,11.572
			c-6.428,0-11.353-5.072-11.353-11.572C436.915,137.699,441.84,132.793,448.268,132.793z M448.268,152.858
			c4.478,0,8.096-3.831,8.096-8.8c0-4.827-3.618-8.519-8.096-8.519c-4.518,0-8.146,3.691-8.146,8.519
			C440.122,149.027,443.75,152.858,448.268,152.858z"/>
		<path fill="#1477A8" d="M466.442,152.811h2.758v-17.236h-2.758v-2.404h5.844l10.854,15.834c0.377,0.612,0.77,1.583,0.77,1.583
			h0.078c0,0-0.16-1.09-0.16-1.776v-13.236h-2.826v-2.404h8.75v2.404h-2.789v19.67h-3.053l-10.868-15.819
			c-0.404-0.626-0.756-1.601-0.756-1.601h-0.087c0,0,0.149,1.092,0.122,1.775v13.211h2.842v2.434h-8.721V152.811z"/>
		<path fill="#1477A8" d="M496.531,152.811h2.758v-17.236h-2.758v-2.404h15.293v5.232H509.1v-2.541h-6.67v7.312h7.609v2.564h-7.609
			v7.072h2.988v2.434h-8.887V152.811z"/>
		<path fill="#1477A8" d="M518.461,152.811h2.758v-17.236h-2.758v-2.404h15.984v5.127h-2.709v-2.571h-7.385v7.104h7.816v2.562
			h-7.816v7.28h7.91v-2.641h2.723v5.212h-16.523V152.811z"/>
		<path fill="#1477A8" d="M542.115,152.811h2.76v-17.236h-2.76v-2.404h9.568c1.58,0,2.867,0.06,4.074,0.463
			c2.316,0.788,3.85,2.725,3.85,5.729c0,3.183-1.76,5.476-4.564,6.191v0.062c0,0,0.562,0.313,0.949,1.032l3.137,5.45
			c0.33,0.576,0.736,0.714,1.506,0.714h0.66v2.434h-1.863c-1.887,0-2.322-0.329-3.066-1.647l-3.426-6.05
			c-0.557-0.94-0.949-1.216-2.307-1.216h-2.623v6.479h2.719v2.434h-8.613V152.811z M552.443,143.771c2.41,0,4.014-1.565,4.014-4.172
			c0-1.717-0.699-2.898-2.074-3.46c-0.717-0.278-1.656-0.414-2.723-0.414h-3.65v8.046H552.443z"/>
		<path fill="#1477A8" d="M567.809,152.811h2.76v-17.236h-2.76v-2.404h15.984v5.127h-2.723v-2.571h-7.377v7.104h7.824v2.562h-7.824
			v7.28h7.904v-2.641h2.732v5.212h-16.521V152.811z"/>
		<path fill="#1477A8" d="M591.453,152.811h2.756v-17.236h-2.756v-2.404h5.854l10.857,15.834c0.377,0.612,0.75,1.583,0.75,1.583
			h0.09c0,0-0.148-1.09-0.148-1.776v-13.236h-2.814v-2.404h8.723v2.404h-2.791v19.67h-3.059l-10.857-15.819
			c-0.402-0.626-0.75-1.601-0.75-1.601h-0.09c0,0,0.154,1.092,0.119,1.775v13.211h2.836v2.434h-8.719V152.811z"/>
		<path fill="#1477A8" d="M632.572,132.793c2.668,0,8.412,0.976,8.412,4.379v2.695h-2.912v-1.73c0-1.931-3.348-2.66-5.375-2.66
			c-4.727,0-8.195,3.483-8.195,8.485c0,5.221,3.57,8.935,8.387,8.935c1.551,0,5.512-0.551,5.512-2.587v-1.724h2.889v2.694
			c0,3.248-5.529,4.351-8.592,4.351c-6.629,0-11.43-5.1-11.43-11.55C621.268,137.609,626.188,132.793,632.572,132.793z"/>
		<path fill="#1477A8" d="M648.551,152.811h2.766v-17.236h-2.766v-2.404h15.988v5.127h-2.717v-2.571h-7.396v7.104h7.832v2.562
			h-7.832v7.28h7.932v-2.641h2.715v5.212h-16.521V152.811z"/>
	</g>
</g>
</svg>
