<?xml version="1.0" encoding="utf-8"?>
<!-- Generator: Adobe Illustrator 16.0.4, SVG Export Plug-In . SVG Version: 6.00 Build 0)  -->
<!DOCTYPE svg PUBLIC "-//W3C//DTD SVG 1.1//EN" "http://www.w3.org/Graphics/SVG/1.1/DTD/svg11.dtd">
<svg version="1.1" id="Layer_1" xmlns="http://www.w3.org/2000/svg" xmlns:xlink="http://www.w3.org/1999/xlink" x="0px" y="0px"
	 width="177.463px" height="177.465px" viewBox="0 0 177.463 177.465" enable-background="new 0 0 177.463 177.465"
	 xml:space="preserve">
<g>
	<rect fill="#1477A8" width="177.463" height="177.465"/>
</g>
<g enable-background="new    ">
	<path fill="#FFFFFF" d="M26.827,57.182h16.096c12.971,0,21.933,8.902,21.933,20.518v0.118c0,11.616-8.962,20.636-21.933,20.636
		H26.827V57.182z M42.923,90.258c7.429,0,12.44-5.012,12.44-12.322v-0.118c0-7.312-5.012-12.44-12.44-12.44h-7.017v24.881
		L42.923,90.258L42.923,90.258z"/>
	<path fill="#FFFFFF" d="M74.875,57.182h31.131v8.077h-22.11v8.372h19.457v8.078H83.896v8.667h22.405v8.077H74.875V57.182z"/>
	<path fill="#FFFFFF" d="M112.782,57.182h10.023l10.789,29.066l10.79-29.066h9.787l-16.687,41.566h-8.02L112.782,57.182z"/>
</g>
<g enable-background="new    ">
	<path fill="#FFFFFF" d="M24.999,131.438v-0.119c0-11.732,8.844-21.344,21.521-21.344c7.782,0,12.44,2.596,16.272,6.368
		l-5.778,6.662c-3.184-2.889-6.427-4.657-10.554-4.657c-6.958,0-11.969,5.777-11.969,12.854v0.117
		c0,7.076,4.894,12.972,11.969,12.972c4.717,0,7.606-1.888,10.849-4.835l5.778,5.838c-4.245,4.539-8.962,7.369-16.921,7.369
		C34.02,152.661,24.999,143.287,24.999,131.438z"/>
	<path fill="#FFFFFF" d="M66.386,131.438v-0.119c0-11.732,9.257-21.344,21.992-21.344c12.734,0,21.874,9.492,21.874,21.227v0.117
		c0,11.732-9.257,21.344-21.992,21.344C75.525,152.662,66.386,143.169,66.386,131.438z M100.759,131.438v-0.119
		c0-7.074-5.188-12.971-12.499-12.971c-7.311,0-12.382,5.777-12.382,12.854v0.117c0,7.076,5.188,12.972,12.5,12.972
		C95.688,144.289,100.759,138.511,100.759,131.438z"/>
	<path fill="#FFFFFF" d="M117.382,110.684h8.372l19.339,25.41v-25.41h8.963v41.271h-7.725l-19.988-26.237v26.237h-8.961V110.684z"/>
</g>
<g enable-background="new    ">
	<path fill="#FFFFFF" d="M25.689,41.353h2.326V26.919h-2.326v-2.168h7.323v2.168h-2.353v14.328h6.503v-3.014h2.326v5.181H25.689
		V41.353z"/>
	<path fill="#FFFFFF" d="M44.755,41.353h2.326V26.787h-2.326v-2.036h7.322v2.036h-2.353v14.566h2.353v2.062h-7.322V41.353z"/>
	<path fill="#FFFFFF" d="M57.976,41.353h2.326V26.787h-2.326v-2.036h12.927v4.416h-2.3v-2.142h-5.657v6.186h6.451v2.168h-6.451
		v5.974h2.538v2.062h-7.507L57.976,41.353L57.976,41.353z"/>
	<path fill="#FFFFFF" d="M76.354,41.353h2.326V26.787h-2.326v-2.036h13.508v4.335h-2.299v-2.167h-6.239v6.001h6.609v2.167h-6.609
		v6.16h6.688V39h2.299v4.415H76.354V41.353z"/>
	<path fill="#FFFFFF" d="M96.187,41.353h2.326V26.787h-2.326v-2.036h8.09c1.322,0,2.406,0.053,3.438,0.397
		c1.957,0.661,3.251,2.3,3.251,4.837c0,2.697-1.479,4.627-3.858,5.235v0.052c0,0,0.476,0.265,0.793,0.873l2.643,4.599
		c0.292,0.503,0.637,0.608,1.297,0.608h0.555v2.062h-1.584c-1.588,0-1.957-0.291-2.593-1.401l-2.882-5.102
		c-0.477-0.793-0.818-1.031-1.956-1.031h-2.221v5.472h2.3v2.062h-7.27v-2.061H96.187z M104.91,33.713
		c2.036,0,3.384-1.322,3.384-3.517c0-1.454-0.581-2.458-1.744-2.934c-0.607-0.238-1.4-0.343-2.301-0.343h-3.094v6.794H104.91z"/>
	<path fill="#FFFFFF" d="M116.76,41.353h1.798l5.948-16.602h2.987l5.947,16.602h1.799v2.062h-6.479v-2.062h1.983l-1.454-4.15h-6.609
		l-1.453,4.15h2.01v2.062h-6.479L116.76,41.353L116.76,41.353z M128.63,35.087l-2.273-6.476c-0.265-0.767-0.317-1.428-0.317-1.428
		h-0.078c0,0-0.079,0.662-0.317,1.428l-2.3,6.476H128.63z"/>
	<path fill="#FFFFFF" d="M142.171,41.353h2.354v-5.842l-5.234-8.724h-1.771v-2.036h6.424v2.036h-1.955l3.463,5.869
		c0.211,0.396,0.369,0.793,0.369,0.793h0.054c0,0,0.158-0.396,0.396-0.793l3.463-5.869h-1.93v-2.036h6.371v2.036h-1.771
		l-5.233,8.724v5.842h2.354v2.062h-7.351L142.171,41.353L142.171,41.353z"/>
</g>
</svg>
