<?xml version="1.0" encoding="utf-8"?>
<!-- Generator: Adobe Illustrator 16.0.4, SVG Export Plug-In . SVG Version: 6.00 Build 0)  -->
<!DOCTYPE svg PUBLIC "-//W3C//DTD SVG 1.1//EN" "http://www.w3.org/Graphics/SVG/1.1/DTD/svg11.dtd">
<svg version="1.1" id="Layer_1" xmlns="http://www.w3.org/2000/svg" xmlns:xlink="http://www.w3.org/1999/xlink" x="0px" y="0px"
	 width="1440px" height="540.521px" viewBox="0 0 1440 540.521" enable-background="new 0 0 1440 540.521" xml:space="preserve">
<g>
	<rect x="0.001" fill="#FFFFFF" width="1440.001" height="540.521"/>
</g>
<g>
	<rect x="1108.775" y="320.946" fill="#B6E0EA" width="144.65" height="146.256"/>
</g>
<g>
	<rect x="1108.773" y="59.349" fill="#1477A8" width="144.652" height="190.288"/>
</g>
<g>
	<rect x="1345.734" y="151.366" fill="#2BBCB1" width="94.268" height="130.883"/>
</g>
<g>
	<rect y="467.201" fill="#2BBCB1" width="144.364" height="73.32"/>
</g>
<g>
	<rect x="144.364" y="467.201" fill="#024D77" width="1295.638" height="73.32"/>
</g>
<g>
	<rect x="1358.316" fill="#024D77" width="81.678" height="59.164"/>
</g>
<g>
	<rect x="1253.426" y="148.866" fill="#0A3D59" width="186.576" height="5"/>
</g>
<g>
	<rect x="1343.234" y="151.366" fill="#0A3D59" width="5" height="130.883"/>
</g>
<g>
	<rect x="1253.426" y="282.249" fill="#1477A8" width="186.568" height="38.289"/>
</g>
<g>
	<rect x="1105.379" fill="#0A3D59" width="5" height="467.201"/>
</g>
<g>
	<rect x="141.864" y="467.201" fill="#0A3D59" width="5" height="73.32"/>
</g>
<g>
	<rect x="1108.777" y="56.849" fill="#0A3D59" width="331.217" height="5"/>
</g>
<g>
	<rect x="1355.816" fill="#0A3D59" width="5" height="59.349"/>
</g>
<g>
	<rect x="1108.607" y="246.953" fill="#0A3D59" width="144.822" height="5"/>
</g>
<g>
	<rect x="1253.432" y="279.749" fill="#0A3D59" width="186.57" height="5"/>
</g>
<g>
	<rect x="1250.926" y="59.349" fill="#0A3D59" width="5" height="407.854"/>
</g>
<g>
	<rect y="464.701" fill="#0A3D59" width="1440.002" height="5"/>
</g>
<g>
	<rect x="1108.777" y="318.445" fill="#0A3D59" width="331.217" height="5"/>
</g>
</svg>
