<?xml version="1.0" encoding="utf-8"?>
<!-- Generator: Adobe Illustrator 16.0.4, SVG Export Plug-In . SVG Version: 6.00 Build 0)  -->
<!DOCTYPE svg PUBLIC "-//W3C//DTD SVG 1.1//EN" "http://www.w3.org/Graphics/SVG/1.1/DTD/svg11.dtd">
<svg version="1.1" id="Layer_1" xmlns="http://www.w3.org/2000/svg" xmlns:xlink="http://www.w3.org/1999/xlink" x="0px" y="0px"
	 width="480px" height="499.289px" viewBox="0 0 480 499.289" enable-background="new 0 0 480 499.289" xml:space="preserve">
<g>
	<rect y="0" fill="#FFFFFF" width="480" height="499.289"/>
</g>
<g>
	<rect x="81.711" y="348.92" fill="#2BBCB1" width="125.712" height="147.976"/>
</g>
<g>
	<rect y="348.009" fill="#024D77" width="82.512" height="64.093"/>
</g>
<g>
	<rect x="207.423" y="422.454" fill="#024D77" width="162.784" height="74.442"/>
</g>
<g>
	<rect x="370.205" y="348.01" fill="#1477A8" width="66.615" height="72.344"/>
</g>
<g>
	<rect x="437.374" y="348.922" fill="#B6E0EA" width="42.626" height="147.617"/>
</g>
<g>
	<rect x="434.873" y="348.009" fill="#0A3D59" width="5" height="148.887"/>
</g>
<g>
	<rect x="133.053" y="419.95" transform="matrix(0.001 1 -1 0.001 629.7354 214.5153)" fill="#0A3D59" width="148.893" height="5"/>
</g>
<g>
	<rect x="80.262" y="348.009" fill="#0A3D59" width="5" height="148.887"/>
</g>
<g>
	<rect y="409.602" fill="#0A3D59" width="82.762" height="5"/>
</g>
<g>
	<rect x="367.706" y="348.004" fill="#0A3D59" width="5" height="148.892"/>
</g>
<g>
	<rect y="346.42" fill="#0A3D59" width="480" height="5"/>
</g>
<g>
	<rect y="494.396" fill="#0A3D59" width="480" height="5"/>
</g>
<g>
	<rect x="207.497" y="419.474" fill="#0A3D59" width="229.323" height="5"/>
</g>
</svg>
