<?xml version="1.0" encoding="utf-8"?>
<!-- Generator: Adobe Illustrator 16.0.4, SVG Export Plug-In . SVG Version: 6.00 Build 0)  -->
<!DOCTYPE svg PUBLIC "-//W3C//DTD SVG 1.1//EN" "http://www.w3.org/Graphics/SVG/1.1/DTD/svg11.dtd">
<svg version="1.1" id="Layer_1" xmlns="http://www.w3.org/2000/svg" xmlns:xlink="http://www.w3.org/1999/xlink" x="0px" y="0px"
	 width="80.371px" height="80.37px" viewBox="0 0 80.371 80.37" enable-background="new 0 0 80.371 80.37" xml:space="preserve">
<g>
	<polygon fill="#2BBCB1" points="80.369,0 40.184,0 0,0.001 0,40.186 0,80.37 40.184,80.37 80.369,80.37 80.371,40.186 	"/>
	<g>
		<path fill="none" stroke="#FFFFFF" stroke-width="4" stroke-miterlimit="10" d="M26.887,45.866
			c3.277,3.941,8.654,4.706,14.178,4.706c5.85,0,11.465-1.326,15.01-5.444c7.595-8.826-1.602-27.553-1.602-27.553H27.38
			C27.38,17.574,19.006,36.383,26.887,45.866z"/>
		<g>
			<path fill="none" stroke="#FFFFFF" stroke-width="4" stroke-miterlimit="10" d="M47.001,50.571
				c-7.553,16.479-3.526,27.724-3.526,27.724"/>
			<path fill="none" stroke="#FFFFFF" stroke-width="4" stroke-miterlimit="10" d="M39.983,78.266c0,0,3.153-11.215-4.398-27.694"/>
		</g>
		<path fill="none" stroke="#FFFFFF" stroke-width="4" stroke-miterlimit="10" d="M58.773,34.555c0,3.325-14.439,4.401-20.836,0.184
			c-6.911-4.557-14.146-2.094-14.146-2.094"/>
		<line fill="none" stroke="#FFFFFF" stroke-width="4" stroke-miterlimit="10" x1="28.768" y1="78.266" x2="54.875" y2="78.266"/>
	</g>
</g>
</svg>
