<?xml version="1.0" encoding="utf-8"?>
<!-- Generator: Adobe Illustrator 16.0.4, SVG Export Plug-In . SVG Version: 6.00 Build 0)  -->
<!DOCTYPE svg PUBLIC "-//W3C//DTD SVG 1.1//EN" "http://www.w3.org/Graphics/SVG/1.1/DTD/svg11.dtd">
<svg version="1.1" id="Layer_1" xmlns="http://www.w3.org/2000/svg" xmlns:xlink="http://www.w3.org/1999/xlink" x="0px" y="0px"
	 width="80.371px" height="80.37px" viewBox="0 0 80.371 80.37" enable-background="new 0 0 80.371 80.37" xml:space="preserve">
<g>
	<path fill="#2BBCB1" d="M80.371,0H40.187L0,0.004v40.185v26.752h5.32v4.431H0v9.001h40.187h40.185V40.188V0z M18.059,71.372H9.066
		v-4.431h8.992V71.372z M30.797,71.372h-8.99v-4.431h8.99V71.372z M43.536,71.372h-8.991v-4.431h8.991V71.372z M54.82,71.372h-7.535
		v-4.431h3.102v-3.106h4.434V71.372z M54.82,59.924h-4.434V50.53h4.434V59.924z M54.82,46.619h-4.434v-5.318h4.434V46.619z
		 M63.235,37.516l-3.783,3.785l-7.367-7.369l-7.367,7.369l-3.78-3.785l7.364-7.367l-7.364-7.367l3.78-3.783l7.367,7.367l7.367-7.367
		l3.783,3.783l-7.367,7.367L63.235,37.516z"/>
</g>
</svg>