<?xml version="1.0" encoding="utf-8"?>
<!-- Generator: Adobe Illustrator 16.0.4, SVG Export Plug-In . SVG Version: 6.00 Build 0)  -->
<!DOCTYPE svg PUBLIC "-//W3C//DTD SVG 1.1//EN" "http://www.w3.org/Graphics/SVG/1.1/DTD/svg11.dtd">
<svg version="1.1" id="Layer_1" xmlns="http://www.w3.org/2000/svg" xmlns:xlink="http://www.w3.org/1999/xlink" x="0px" y="0px"
	 width="80.371px" height="80.37px" viewBox="0 0 80.371 80.37" enable-background="new 0 0 80.371 80.37" xml:space="preserve">
<g>
	<polygon fill="#2BBCB1" points="80.371,0 40.186,0 0,0 0,40.185 0,80.37 40.186,80.37 80.371,80.37 80.371,40.185 	"/>
	<g>
		<g>
			<g>
				<path fill="#FFFFFF" d="M40.385,14.298c12.622,0,22.891,10.268,22.891,22.889c0,12.623-10.269,22.893-22.891,22.893
					c-3.691,0-7.215-0.852-10.472-2.53c-7.66-3.95-12.419-11.753-12.419-20.363C17.494,24.565,27.763,14.298,40.385,14.298
					 M40.385,10.298c-14.85,0-26.891,12.039-26.891,26.889c0,10.418,5.924,19.451,14.586,23.918c3.688,1.9,7.871,2.975,12.305,2.975
					c14.852,0,26.891-12.041,26.891-26.893C67.275,22.337,55.236,10.298,40.385,10.298L40.385,10.298z"/>
			</g>
		</g>
		<path fill="none" stroke="#FFFFFF" stroke-width="4" stroke-miterlimit="10" d="M25.076,57.294c0,0-16.023,6.784-16.023,23.076"/>
		<path fill="none" stroke="#FFFFFF" stroke-width="4" stroke-miterlimit="10" d="M55.295,57.294c0,0,16.023,6.784,16.023,23.076"/>
	</g>
</g>
</svg>
