<?xml version="1.0" encoding="utf-8"?>
<!-- Generator: Adobe Illustrator 16.0.4, SVG Export Plug-In . SVG Version: 6.00 Build 0)  -->
<!DOCTYPE svg PUBLIC "-//W3C//DTD SVG 1.1//EN" "http://www.w3.org/Graphics/SVG/1.1/DTD/svg11.dtd">
<svg version="1.1" id="Layer_1" xmlns="http://www.w3.org/2000/svg" xmlns:xlink="http://www.w3.org/1999/xlink" x="0px" y="0px"
	 width="80.371px" height="80.37px" viewBox="0 0 80.371 80.37" enable-background="new 0 0 80.371 80.37" xml:space="preserve">
<g>
	<polygon fill="#2BBCB1" points="80.371,0 40.17,0 -0.031,0.001 -0.031,40.201 -0.031,80.401 40.17,80.401 80.371,80.401 
		80.371,40.201 	"/>
	<g>
		<path fill="none" stroke="#FFFFFF" stroke-width="4" stroke-miterlimit="10" d="M28.527,66.044"/>
		<g>
			<rect x="32.656" y="65.126" fill="#FFFFFF" width="4.594" height="15.428"/>
		</g>
		<g>
			<rect x="43.677" y="65.126" fill="#FFFFFF" width="4.593" height="15.428"/>
		</g>
		<path fill="none" stroke="#FFFFFF" stroke-width="4" stroke-miterlimit="10" d="M56.407,49.643
			c0,9.057-7.342,16.401-16.401,16.401l0,0c-9.057,0-16.4-7.344-16.4-16.401V32.588c0-9.059,7.344-16.402,16.4-16.402l0,0
			c9.06,0,16.401,7.343,16.401,16.402V49.643z"/>
		<line fill="none" stroke="#FFFFFF" stroke-width="4" stroke-miterlimit="10" x1="40.793" y1="32.22" x2="56.734" y2="32.22"/>
		<line fill="none" stroke="#FFFFFF" stroke-width="4" stroke-miterlimit="10" x1="40.793" y1="50.009" x2="56.734" y2="50.009"/>
	</g>
</g>
</svg>
