<?xml version="1.0" encoding="utf-8"?>
<!-- Generator: Adobe Illustrator 16.0.4, SVG Export Plug-In . SVG Version: 6.00 Build 0)  -->
<!DOCTYPE svg PUBLIC "-//W3C//DTD SVG 1.1//EN" "http://www.w3.org/Graphics/SVG/1.1/DTD/svg11.dtd">
<svg version="1.1" id="Layer_1" xmlns="http://www.w3.org/2000/svg" xmlns:xlink="http://www.w3.org/1999/xlink" x="0px" y="0px"
	 width="80.371px" height="80.37px" viewBox="0 0 80.371 80.37" enable-background="new 0 0 80.371 80.37" xml:space="preserve">
<g>
	<polygon fill="#2BBCB1" points="80.371,0 40.186,0 0,0.001 0,40.186 0,80.37 40.186,80.37 80.371,80.37 80.371,40.186 	"/>
	<g>
		<g>
			<path fill="none" stroke="#FFFFFF" stroke-width="4" stroke-miterlimit="10" d="M64.242,36.121
				c-0.271-1.614-0.706-3.173-1.281-4.661l3.768-3.819l-1.368-2.315l-1.366-2.318l-5.201,1.463
				c-0.887-1.039-1.852-2.006-2.898-2.878l1.467-5.219l-2.316-1.366l-2.317-1.368l-3.912,3.862c-1.446-0.541-2.955-0.942-4.52-1.199
				l-1.419-5.352h-2.689h-2.692l-1.432,5.41c-1.527,0.271-2.997,0.691-4.414,1.236l-4.008-3.957l-2.315,1.368l-2.318,1.366
				l1.539,5.477c-0.962,0.83-1.862,1.73-2.682,2.7l-5.49-1.542l-1.366,2.315l-1.366,2.318l4.027,4.085
				c-0.514,1.38-0.91,2.813-1.168,4.297l-5.551,1.473v2.689v2.69l5.545,1.47c0.258,1.487,0.648,2.927,1.164,4.311l-4.018,4.073
				l1.366,2.317l1.366,2.314l5.459-1.531c0.828,0.977,1.734,1.884,2.705,2.723l-1.531,5.441l2.316,1.367l2.317,1.367l3.978-3.927
				c1.428,0.555,2.915,0.976,4.456,1.251l1.42,5.368h2.692h2.689l1.407-5.311c1.579-0.258,3.102-0.666,4.564-1.212l3.881,3.83
				l2.315-1.367l2.316-1.367l-1.457-5.183c1.055-0.879,2.026-1.855,2.919-2.903l5.171,1.453l1.366-2.314l1.368-2.317l-3.756-3.809
				c0.575-1.495,1.004-3.057,1.277-4.675l5.17-1.37v-2.69v-2.689L64.242,36.121z"/>
		</g>
		<circle fill="none" stroke="#FFFFFF" stroke-width="4" stroke-miterlimit="10" cx="40.188" cy="40.185" r="12.125"/>
	</g>
</g>
</svg>
