<?xml version="1.0" encoding="utf-8"?>
<!-- Generator: Adobe Illustrator 16.0.4, SVG Export Plug-In . SVG Version: 6.00 Build 0)  -->
<!DOCTYPE svg PUBLIC "-//W3C//DTD SVG 1.1//EN" "http://www.w3.org/Graphics/SVG/1.1/DTD/svg11.dtd">
<svg version="1.1" id="Layer_1" xmlns="http://www.w3.org/2000/svg" xmlns:xlink="http://www.w3.org/1999/xlink" x="0px" y="0px"
	 width="612.5px" height="203.203px" viewBox="0 32.5 612.5 203.203" enable-background="new 0 32.5 612.5 203.203"
	 xml:space="preserve">
<g>
	<path fill="#FFFFFF" d="M72.505,39.261c-37.219,0-67.496,30.279-67.496,67.502c0,18.578,7.377,35.876,20.789,48.729
		c0.038,0.054,0.085,0.104,0.139,0.153c0.142,0.162,10.513,11.375,16.459,26.826c0.042,0.104,0.09,0.203,0.124,0.305
		c2.344,6.15,3.967,12.967,3.967,20.01c0,0.147,0.017,0.291,0.05,0.442c0.219,4.058,3.809,7.604,9.399,9.962
		c0.854,8.42,7.986,15.014,16.628,15.014c8.662,0,15.796-6.621,16.627-15.07c5.503-2.344,9.034-5.857,9.282-9.881
		c0.034-0.146,0.055-0.307,0.055-0.467c0-22.242,16.246-42.202,19.843-46.346c0.234-0.204,0.461-0.402,0.69-0.615
		c0.189-0.183,0.335-0.392,0.432-0.616c13.228-12.823,20.512-29.993,20.512-48.445c0-18.039-7.016-34.984-19.768-47.737
		C107.481,46.277,90.533,39.258,72.505,39.261z M72.563,224.176c-5.893,0-10.847-4.048-12.266-9.51
		c3.624,0.97,7.765,1.515,12.207,1.515c4.494,0,8.684-0.558,12.332-1.544C83.434,220.111,78.474,224.176,72.563,224.176z
		 M116.198,152.811c-0.109,0.105-0.206,0.212-0.289,0.33c-0.113,0.127-0.273,0.307-0.458,0.52
		c-11.744,10.752-26.918,16.68-42.887,16.68c-1.113,0-2.018,0.906-2.018,2.014c0,1.114,0.905,2.012,2.018,2.012
		c12.291,0,24.145-3.305,34.483-9.461c-5.87,9.16-12.441,22.686-12.546,37.512c-0.028,0.131-0.038,0.27-0.038,0.409
		c0,2.063-2,4.235-5.421,5.97c-0.602,0.295-1.229,0.586-1.91,0.855c-0.612,0.246-1.26,0.482-1.94,0.697
		c-3.489,1.111-7.806,1.807-12.686,1.807c-4.821,0-9.1-0.683-12.572-1.772c-0.685-0.214-1.327-0.448-1.95-0.688
		c-0.677-0.27-1.307-0.557-1.904-0.861c-3.49-1.732-5.527-3.943-5.527-6.047c0-0.133-0.009-0.266-0.038-0.394
		c-0.043-4.82-0.763-9.511-1.926-13.957c5.793,3.418,14.422,5.483,23.917,5.483c1.11,0,2.018-0.896,2.018-2.012
		c0-1.111-0.908-2.012-2.018-2.012c-11.891,0-22.824-3.675-26.262-8.773c-5.73-15.017-15.372-26.029-17.125-27.953
		c-0.088-0.131-0.185-0.252-0.294-0.357c-12.761-12.113-19.79-28.463-19.79-46.048c0-35.002,28.478-63.477,63.47-63.477
		c16.956,0,32.895,6.601,44.882,18.59c11.984,11.986,18.596,27.926,18.596,44.887C135.983,124.348,128.955,140.697,116.198,152.811z
		"/>
	<path fill="#FFFFFF" d="M73.931,79.749c-0.753-0.754-2.09-0.754-2.845,0l-32.82,32.824c-0.576,0.569-0.749,1.44-0.437,2.191
		c0.314,0.755,1.046,1.242,1.866,1.242l30.852-0.011v32.777c0,1.116,0.905,2.014,2.018,2.014c1.106,0,2.01-0.897,2.01-2.014v-34.797
		c0-0.53-0.211-1.04-0.589-1.418c-0.378-0.382-0.888-0.591-1.421-0.591h-0.009l-28.001,0.015l27.951-27.96l31.344,31.341
		c0.781,0.784,2.059,0.784,2.842,0c0.782-0.79,0.782-2.064,0-2.851L73.931,79.749z"/>
	<polygon fill="#FFFFFF" points="220.642,77.399 215.327,77.399 215.327,194.999 277.98,194.998 277.98,191.053 220.642,191.053 	
		"/>
	<path fill="#FFFFFF" d="M389.213,93.125c-4.881-5.043-10.822-8.965-17.655-11.655c-6.867-2.702-14.556-4.072-22.851-4.072
		l-42.495,0v117.6h42.495c8.299,0,15.986-1.371,22.851-4.072c6.834-2.689,12.774-6.611,17.655-11.656
		c4.885-5.05,8.73-11.268,11.428-18.481c2.709-7.245,4.083-15.532,4.083-24.634c0-9.043-1.374-17.302-4.083-24.548
		C397.944,104.395,394.098,98.176,389.213,93.125z M395.543,159.417c-2.41,6.819-5.876,12.669-10.301,17.388
		c-4.434,4.73-9.826,8.388-16.031,10.87c-6.17,2.468-13.068,3.72-20.504,3.72h-37.18V81.002l37.18,0
		c7.436,0,14.334,1.251,20.504,3.719c6.201,2.48,11.596,6.137,16.031,10.869c4.425,4.719,7.891,10.569,10.301,17.387
		c2.395,6.778,3.609,14.576,3.609,23.177C399.153,144.814,397.938,152.641,395.543,159.417z"/>
	<path fill="#FFFFFF" d="M492.5,141.885c-2.714-2.17-5.841-4.001-9.295-5.443c-3.566-1.486-7.281-2.867-11.04-4.103
		c-3.792-1.245-7.563-2.53-11.206-3.821c-3.74-1.324-7.136-2.986-10.094-4.938c-3.041-2.007-5.529-4.482-7.393-7.355
		c-1.919-2.955-2.893-6.702-2.893-11.137c0-3.352,0.635-6.599,1.886-9.65c1.256-3.064,3.12-5.799,5.54-8.128
		c2.416-2.323,5.438-4.177,8.984-5.512c3.521-1.324,7.631-1.995,12.213-1.996c4.573,0,8.502,0.582,11.678,1.73
		c3.104,1.124,5.74,2.377,7.839,3.725c2.063,1.327,3.738,2.566,4.975,3.681c1.195,1.081,1.697,1.133,1.703,1.133
		c0.18,0,0.393,0,0.67-0.523l1.447-2.772c-3.684-3.477-7.763-6.125-12.146-7.879c-4.764-1.904-10.23-2.87-16.252-2.87
		c-5.342,0-10.148,0.837-14.285,2.486c-4.131,1.647-7.64,3.855-10.426,6.562c-2.78,2.7-4.92,5.854-6.361,9.377
		c-1.446,3.537-2.18,7.259-2.18,11.062c0,4.894,0.814,8.991,2.422,12.178c1.619,3.213,3.782,5.93,6.428,8.072
		c2.708,2.193,5.828,4.021,9.275,5.432c3.551,1.454,7.261,2.791,11.029,3.972c3.783,1.187,7.557,2.429,11.217,3.695
		c3.738,1.296,7.134,2.928,10.094,4.851c3.053,1.984,5.548,4.497,7.417,7.468c1.91,3.04,2.879,6.909,2.879,11.501
		c0,4.143-0.732,8.088-2.178,11.729c-1.455,3.668-3.593,6.884-6.357,9.557c-2.754,2.662-6.16,4.789-10.128,6.322
		c-3.95,1.525-8.481,2.3-13.468,2.301c-3.607,0-6.889-0.363-9.753-1.08c-2.841-0.709-5.397-1.598-7.599-2.641
		c-2.2-1.039-4.168-2.191-5.848-3.422c-1.627-1.189-3.049-2.316-4.227-3.347c-1.137-0.993-2.102-1.831-2.896-2.513
		c-0.628-0.538-0.91-0.613-0.913-0.613c-0.071,0.007-0.418,0.008-0.893,0.569l-1.623,2.55c3.968,4.259,8.579,7.691,13.725,10.213
		c5.493,2.691,12.174,4.057,19.854,4.057c5.91,0,11.22-0.923,15.783-2.742c4.548-1.813,8.438-4.318,11.564-7.443
		c3.119-3.119,5.535-6.847,7.179-11.078c1.652-4.254,2.49-8.864,2.49-13.701c0-4.656-0.811-8.573-2.41-11.643
		C497.311,146.652,495.146,144.004,492.5,141.885z"/>
	<polygon fill="#FFFFFF" points="605.492,81.17 605.492,77.396 536.42,77.396 536.42,194.996 541.734,194.996 541.734,139.367 
		596.934,139.366 596.934,135.592 541.734,135.592 541.734,81.17 	"/>
</g>
</svg>
