<?xml version="1.0" encoding="utf-8"?>
<!-- Generator: Adobe Illustrator 16.0.4, SVG Export Plug-In . SVG Version: 6.00 Build 0)  -->
<!DOCTYPE svg PUBLIC "-//W3C//DTD SVG 1.1 Tiny//EN" "http://www.w3.org/Graphics/SVG/1.1/DTD/svg11-tiny.dtd">
<svg version="1.1" baseProfile="tiny" id="Layer_1" xmlns="http://www.w3.org/2000/svg" xmlns:xlink="http://www.w3.org/1999/xlink"
	 x="0px" y="0px" width="349.585px" height="76px" viewBox="0 0 349.585 76" xml:space="preserve">
<g>
	<g>
		<path fill="#4d4d4f" d="M343.184,62.109c0-0.947-0.559-1.418-1.728-1.418h-1.884v4.97h0.771V63.52h0.786l1.361,2.142h0.806
			l-1.421-2.2C342.607,63.382,343.184,63.014,343.184,62.109z M341.112,62.904h-0.769v-1.603h0.981c0.511,0,1.1,0.082,1.1,0.767
			C342.424,62.873,341.77,62.904,341.112,62.904z M341.2,58.942c-2.34,0-4.242,1.812-4.242,4.243c0,2.403,1.902,4.238,4.242,4.238
			c2.311,0,4.238-1.835,4.238-4.238C345.438,60.755,343.51,58.942,341.2,58.942z M341.2,66.801c-1.949,0-3.49-1.571-3.49-3.615
			c0-2.058,1.541-3.635,3.49-3.635c1.944,0,3.483,1.577,3.483,3.635C344.683,65.229,343.144,66.801,341.2,66.801z"/>
		<g>
			<path fill="#4d4d4f" d="M123.307,62.728h-17.29V12.221c0-0.794,0.094-1.646,0.277-2.526l0.232-1.118h-8.228l0.231,1.118
				c0.184,0.883,0.276,1.734,0.276,2.526v51.728c0,0.733-0.092,1.523-0.271,2.346l-0.25,1.13h28.357v-5.299l-1.189,0.345
				C124.866,62.642,124.143,62.728,123.307,62.728z"/>
			<path fill="#4d4d4f" d="M140.372,63.823V12.178c0-1.042,0.086-1.849,0.254-2.402l0.369-1.199h-8.351l0.242,1.125
				c0.182,0.852,0.273,1.686,0.273,2.476v51.646c0,0.791-0.091,1.624-0.273,2.479l-0.238,1.121h8.348l-0.369-1.202
				C140.458,65.675,140.372,64.865,140.372,63.823z"/>
			<path fill="#4d4d4f" d="M152.648,9.702c0.184,0.852,0.277,1.671,0.277,2.437v51.685c0,0.791-0.093,1.624-0.277,2.479
				l-0.238,1.121h8.243l-0.242-1.121c-0.184-0.854-0.275-1.687-0.275-2.479V39.576h14.382c1.037,0,1.928,0.089,2.641,0.266
				l1.152,0.282v-5.268l-1.135,0.257c-0.909,0.205-1.776,0.31-2.578,0.31h-14.463V12.983h16.571c1.013,0,2.015,0.079,2.971,0.237
				l1.079,0.178V8.577h-28.347L152.648,9.702z"/>
			<path fill="#4d4d4f" d="M212.161,35.17h-17.037V12.983h17.669c0.762,0,1.514,0.123,2.232,0.367l1.226,0.418V8.577h-28.947
				l0.35,1.192c0.174,0.582,0.258,1.407,0.258,2.452v51.603c0,0.782-0.068,1.637-0.2,2.533l-0.159,1.067h28.743v-5.271l-1.072,0.166
				c-1.953,0.305-2.708,0.393-2.934,0.408h-17.165V39.327h17.119c1.266,0,2.258,0.065,2.953,0.191l1.099,0.203v-5.277l-1.189,0.347
				C214.236,35.044,213.247,35.17,212.161,35.17z"/>
			<path fill="#4d4d4f" d="M310.331,63.999l-19.859-53.39c-0.118-0.325-0.218-0.744-0.292-1.245l-0.121-0.788h-6.5l-0.108,0.802
				c-0.126,0.914-0.247,1.344-0.335,1.567l-19.134,53.036c-0.113,0.291-0.288,0.677-0.506,1.133c-0.555-0.41-1.04-0.826-1.426-1.243
				L240.77,40.12c5.26-0.569,9.398-2.065,12.318-4.449c3.332-2.719,5.021-6.521,5.021-11.301c0-3.245-0.923-6.183-2.744-8.722
				c-1.638-2.302-3.858-4.052-6.589-5.2c-2.889-1.241-6.229-1.872-9.938-1.872h-13.717l0.241,1.125
				c0.184,0.852,0.278,1.686,0.278,2.476v51.646c0,0.791-0.095,1.624-0.278,2.479l-0.239,1.121h8.241l-0.24-1.121
				c-0.18-0.854-0.273-1.686-0.273-2.479v-22.02l20.429,23.008c0.696,0.792,1.186,1.491,1.457,2.074l0.25,0.538h7.336h4.728h0.974
				l0.026-0.903c0.029-1.084,0.148-1.623,0.24-1.881l6.06-16.587h22.36l6.094,16.566c0.227,0.68,0.368,1.336,0.417,1.951l0.07,0.854
				h9.05l-0.916-1.431C310.87,65.133,310.502,64.461,310.331,63.999z M295.004,43.898H275.74l9.448-26.114L295.004,43.898z
				 M232.851,12.983h4.006c3.978,0,7.062,0.743,9.169,2.212c1.467,1.019,2.626,2.377,3.451,4.036
				c0.831,1.671,1.252,3.512,1.252,5.474c0,4.384-1.777,7.535-5.43,9.626c-2.266,1.277-4.82,1.925-7.599,1.925h-4.85V12.983z"/>
			<path fill="#4d4d4f" d="M339.42,8.577l-0.203,0.654c-0.207,0.667-0.485,1.333-0.816,1.968L325.31,35.666l-12.799-24.281
				c-0.699-1.379-0.892-1.918-0.946-2.116l-0.183-0.692h-9.055l1.154,1.496c0.331,0.433,0.729,1.088,1.181,1.957l15.45,29.105
				v22.689c0,0.794-0.089,1.626-0.273,2.479l-0.241,1.121h8.244l-0.24-1.121c-0.182-0.854-0.274-1.686-0.274-2.479V41.134
				l15.653-29.343c0.32-0.575,0.697-1.16,1.118-1.735l1.087-1.479H339.42z"/>
		</g>
	</g>
	<path fill="#4d4d4f" d="M76.244,0.902H6.248c-1.155,0-2.1,0.945-2.1,2.1v69.996c0,1.156,0.945,2.101,2.1,2.101h69.997
		c1.155,0,2.1-0.944,2.1-2.101V3.002C78.344,1.847,77.399,0.902,76.244,0.902z M24.615,52.073H11.823V39.279h12.792V52.073z
		 M24.615,36.721H11.823V23.928h12.792V36.721z M24.616,21.37H11.823V8.577h12.793V21.37z M39.966,67.424H27.173V54.632h12.793
		V67.424z M39.966,36.721H27.174V23.928h12.792V36.721z M39.967,21.37H27.174V8.577h12.793V21.37z M55.318,67.424H42.525V54.632
		h12.793V67.424z M55.318,52.073H42.525V39.279h12.792V52.073z M55.318,21.37H42.525V8.577h12.793V21.37z M70.669,67.424H57.876
		V54.632h12.793V67.424z M70.669,52.073H57.876V39.279h12.793V52.073z M70.669,36.723H57.876V23.929h12.793V36.723z"/>
</g>
</svg>
