<svg version="1.1" xmlns="http://www.w3.org/2000/svg" xmlns:xlink="http://www.w3.org/1999/xlink"
	 viewBox="0 0 560 320" xml:space="preserve">
<g>
	<path fill="#154780" d="M489.9,10h-270c-8.3,0-15,6.7-15,14.9V295c0,8.3,6.7,15,15,15H490c8.3,0,15.1-6.8,15.1-15.1v-270
		C505,16.6,498.2,10,489.9,10z M354.6,279.8L234.7,159.9L354.8,39.8l119.9,119.9L354.6,279.8z"/>
	<path fill="#154780" d="M159.8,25v270c0,8.3-6.7,15.1-15,15.1h-45c-8.3,0-15-6.7-15-15V86.3c0-0.8-0.9-1.3-1.7-1.3h-27
		c-0.8,0-2.2-1-2.2-1.8v-42c0-0.8,0.8-1.9,1.4-2.5l28-27.8c0.6-0.6,1.9-0.9,2.8-0.9h58.7C153.1,10,159.8,16.7,159.8,25z"/>
</g>
<g>
	<path fill="#154780" d="M84.8,130.3V295c0,8.3,6.7,15,15,15h45c8.3,0,15-6.8,15-15.1V85.1l-14.9-14.9L84.8,130.3z"/>
	<path fill="#1F76B9" d="M84.9,10.2c-0.6,0.2-1.1,0.4-1.4,0.7L55.4,38.7c-0.6,0.6-1.4,1.7-1.4,2.5v42c0,0.8,1.3,1.8,2.2,1.8h27
		c0.8,0,1.9,0.4,1.9,1.3v44.1l60-60.1L84.9,10.2z"/>
	<path fill="#1F76B9" d="M234.7,159.9L234.7,159.9L234.7,159.9L234.7,159.9l-29.8-29.8v164.8c0,8.3,6.7,15,15,15h104.5l30.2-30.2
		L234.7,159.9z"/>
	<path fill="#154780" d="M474.8,159.7L474.8,159.7L474.8,159.7L324.4,310h165.5c8.3,0,15.1-6.8,15.1-15.1v-105L474.8,159.7z"/>
	<path fill="#005C97" d="M415,99.9l85.6-85.6c-2.7-2.7-6.5-4.4-10.6-4.4H384.6l-29.8,29.8"/>
	<path fill="#1F76B9" d="M500.6,14.4L415.1,100l89.9,89.8V24.9C505,20.8,503.3,17.1,500.6,14.4z"/>
	<path fill="#0AB7B8" d="M159.8,25c0-8.3-6.7-15-15-15H86.2c-0.3,0-0.6,0-1,0.1l74.7,74.6L159.8,25z"/>
	<path fill="#0AB7B8" d="M384.6,10H219.9c-8.3,0-15,6.7-15,14.9v104.8l30,30L384.6,10z"/>
</g>
<g id="orange_tag">
	<path fill="#F4A120" d="M283.6,278.3v-87c0-0.8,0.7-1.4,1.6-1.4H550l-90,90H285.2C284.4,279.9,283.6,279.2,283.6,278.3z"/>
</g>
<g id="years">
	<path fill="#FFFFFF" d="M315.2,221.4l-3,0.4l5.7,12h0.2l5.7-12l-3-0.4V217h13.9v4.4l-3.1,0.5l-10,18.8v7.7l3.9,0.8v4.4h-15.2v-4.4
		l3.9-0.8v-8.1l-9.8-18.5l-3.1-0.5v-4.4h13.9V221.4z"/>
	<path fill="#FFFFFF" d="M362.9,237.5h-12.4V248h11.8l0.3-4.4h5.6v10h-29v-4.4l3.9-0.8v-26.3l-3.9-0.8v-4.4h3.9h25.1v10h-5.6
		l-0.3-4.4h-11.7v9.2H363L362.9,237.5L362.9,237.5z"/>
	<path fill="#FFFFFF" d="M373.3,249.2l2.6-0.4l11.2-31.9h7.5l11.1,31.9l2.6,0.4v4.4h-12.5v-4.4l2.5-0.5l-1.6-5h-11.9l-1.6,5l2.5,0.5
		v4.4h-12.5L373.3,249.2L373.3,249.2z M386.6,238.3h8.4l-4.1-12.9h-0.2L386.6,238.3z"/>
	<path fill="#FFFFFF" d="M429.3,216.9c4.2,0,7.4,1,9.8,2.9s3.6,4.5,3.6,7.9c0,1.8-0.5,3.4-1.5,4.8c-1,1.4-2.4,2.5-4.4,3.3
		c2.2,0.6,3.7,1.7,4.7,3.2c0.9,1.5,1.4,3.3,1.4,5.5v1.9c0,0.8,0.2,1.4,0.5,1.9c0.3,0.4,0.8,0.7,1.6,0.8l0.9,0.1v4.4h-3.8
		c-2.4,0-4.1-0.6-5.1-1.9c-1-1.3-1.5-3-1.5-5v-2.1c0-1.8-0.5-3.2-1.4-4.2s-2.3-1.5-4-1.6h-6v9.7l3.9,0.8v4.4h-15.2v-4.4l3.9-0.8
		v-26.3l-3.9-0.8V217h3.9L429.3,216.9L429.3,216.9z M424.1,233.1h5.1c2,0,3.6-0.4,4.6-1.3c1-0.9,1.5-2.1,1.5-3.8
		c0-1.6-0.5-3-1.5-3.9c-1-1-2.5-1.5-4.5-1.5h-5.2V233.1z"/>
	<path fill="#FFFFFF" d="M477.7,228.7h-5.5l-1-5c-0.6-0.4-1.6-0.8-2.8-1.1c-1.2-0.3-2.5-0.5-3.9-0.5c-2,0-3.6,0.4-4.7,1.3
		c-1.1,0.8-1.6,1.9-1.6,3.3c0,1.2,0.6,2.3,1.7,3.1c1.2,0.8,3.1,1.6,6,2.5c4,1.1,7.1,2.6,9.2,4.5c2.1,1.8,3.1,4.3,3.1,7.3
		c0,3.1-1.2,5.6-3.7,7.4c-2.5,1.8-5.8,2.7-9.8,2.7c-2.9,0-5.5-0.5-7.9-1.4c-2.3-0.9-4.3-2.2-5.9-3.8v-7.7h5.7l0.8,5.2
		c0.7,0.6,1.7,1.1,3,1.5s2.7,0.6,4.2,0.6c2,0,3.5-0.4,4.6-1.2c1-0.8,1.6-1.9,1.6-3.3c0-1.4-0.5-2.5-1.5-3.4s-2.8-1.7-5.3-2.4
		c-4.3-1.3-7.6-2.8-9.9-4.5c-2.2-1.7-3.3-4.1-3.3-7.1s1.3-5.4,3.8-7.3c2.5-1.9,5.7-2.9,9.5-2.9c2.8,0,5.4,0.4,7.7,1.3
		c2.3,0.9,4.3,2,5.8,3.4L477.7,228.7L477.7,228.7z"/>
</g>
</svg>
