<svg version="1.1" xmlns="http://www.w3.org/2000/svg" xmlns:xlink="http://www.w3.org/1999/xlink"
	 viewBox="0 0 180 90" width="180" height="90" xml:space="preserve">
<path fill="#909295" d="M164,3.5C159.6-3.9,136.6,0.9,108,14c1.5,1.1,2.9,2.4,4.1,3.7c22-9.4,39.1-12.3,42.6-6.2
	c4.1,7-12,24.3-37.8,41.5l0.3,0.3C148.6,33,168.9,11.9,164,3.5L164,3.5L164,3.5z"/>
<path fill="#909295" d="M28.2,84.5C25.8,80.2,31,71.9,41.4,62l0,0c-0.8-0.2-1.6-0.5-2.4-0.8c-0.2,0-0.2-0.2-0.2-0.2
	c-0.8-0.3-1.6-0.6-2.4-1C23.9,71.6,17.5,81.3,20.4,86.5c3.6,6,19,4.1,39.5-3.6l-0.2-0.3C43.3,88.3,31.1,89.4,28.2,84.5L28.2,84.5
	L28.2,84.5z"/>
<path fill="#909295" d="M15.3,34.1C15.3,16.5,38.6,2,67.3,2c28.8,0,52.2,14.4,52.2,32.1c0,17.8-23.3,32.2-52.2,32.2
	C38.6,66.4,15.3,52,15.3,34.1L15.3,34.1L15.3,34.1L15.3,34.1z M44.8,9.2l9.9,33.5l0,0L65,4.8C57.7,5.1,50.8,6.6,44.8,9.2L44.8,9.2
	L44.8,9.2L44.8,9.2z M64.5,23.1l-5.3,19.6H70L64.5,23.1L64.5,23.1L64.5,23.1z M79.9,42.7l9.4-33.9C83.2,6.4,76.2,5,68.9,4.8
	L79.9,42.7L79.9,42.7L79.9,42.7L79.9,42.7z M44.6,42.7l-5.3-19.6l-5.3,19.6H44.6L44.6,42.7L44.6,42.7z M106.3,46.6
	c2.6-3.7,4.1-7.9,4.1-12.5c0-8.6-5.3-16.2-14.1-21.7L106.3,46.6L106.3,46.6L106.3,46.6z M95.3,42.7l-5.5-19.6l-5.3,19.6H95.3
	L95.3,42.7L95.3,42.7z M96.4,46.6H83.3l-1.1,4.2l3.1,10c5-1.5,9.6-3.7,13.3-6.5L96.4,46.6L96.4,46.6L96.4,46.6z M49.6,60.9
	l-3.9-14.3h-13l-1.1,4.1c4.5,4.5,10.7,8.1,18,10.4L49.6,60.9L49.6,60.9L49.6,60.9z M71.2,46.6H58l-4.2,15.6c4.2,1,8.8,1.5,13.4,1.5
	c2.9,0,5.7-0.2,8.4-0.6L71.2,46.6L71.2,46.6L71.2,46.6z M37.5,13.1c-8.1,5.3-13.1,12.8-13.1,21.1c0,4.5,1.5,8.6,3.9,12.3L37.5,13.1
	L37.5,13.1z"/>
</svg>
