<?xml version="1.0" encoding="utf-8"?>
<!-- Generator: Adobe Illustrator 19.1.0, SVG Export Plug-In . SVG Version: 6.00 Build 0)  -->
<svg version="1.1" id="Layer_1" xmlns="http://www.w3.org/2000/svg" xmlns:xlink="http://www.w3.org/1999/xlink" x="0px" y="0px"
	 viewBox="0 0 180 90" style="enable-background:new 0 0 180 90;" xml:space="preserve">
<style type="text/css">
	.st0{fill:#909295;}
</style>
<g>
	<polygon class="st0" points="170.6,58.4 9.4,58.4 9.4,57.1 170.6,57.1 	"/>
	<path class="st0" d="M48.3,87.9c-1.3,1.5-3.1,2.1-5,2.1s-3.7-0.6-5.1-1.9c-1.8-1.9-1.8-3.8-1.8-8c0-4,0-5.9,1.8-7.8
		c1.4-1.3,3.1-1.9,5.1-1.9c3.7,0,6.2,2.3,6.8,5.7H48c-0.6-2.3-2.3-4-4.7-4c-1.4,0-2.5,0.6-3.3,1.5c-1.2,1.3-1.4,2.5-1.4,6.5
		c0,4.2,0.2,5.4,1.4,6.7c0.8,0.8,1.9,1.5,3.3,1.5c1.4,0,2.7-0.6,3.7-1.7c0.8-1,1-2.1,1-3.6v-1.5h-4.7v-1.9h6.8v3.1
		C50.1,85.2,49.7,86.6,48.3,87.9L48.3,87.9z"/>
	<path class="st0" d="M71.9,90l-4.3-8.6h-4.7V90h-2.1V70.5h7.4c3.5,0,5.8,2.1,5.8,5.4c0,2.9-1.8,4.6-4.3,5.2l4.7,8.8L71.9,90
		L71.9,90z M68,72.4h-5.1v7.1H68c2.3,0,3.9-1.3,3.9-3.6C71.9,73.7,70.3,72.4,68,72.4L68,72.4z"/>
	<path class="st0" d="M95.6,88.1c-1.4,1.3-3.1,1.9-4.9,1.9c-2.1,0-3.7-0.6-5.1-1.9c-1.8-1.9-1.8-3.8-1.8-8c0-4,0-5.9,1.8-7.8
		c1.4-1.3,2.9-1.9,5.1-1.9c1.8,0,3.5,0.6,4.9,1.9c1.8,1.9,1.8,3.8,1.8,7.8C97.4,84.3,97.4,86.2,95.6,88.1L95.6,88.1z M94.1,73.7
		c-1-0.8-2.1-1.5-3.3-1.5c-1.4,0-2.5,0.6-3.5,1.5c-1.2,1.3-1.4,2.5-1.4,6.5c0,4.2,0.2,5.4,1.4,6.7c1,0.8,2.1,1.5,3.5,1.5
		c1.2,0,2.3-0.6,3.3-1.5c1.2-1.3,1.4-2.5,1.4-6.7C95.5,76.2,95.3,74.9,94.1,73.7L94.1,73.7z"/>
	<path class="st0" d="M114.7,90c-3.9,0-6.8-2.5-6.8-6.5v-13h2.1v12.8c0,2.9,2,5,4.7,5c2.9,0,4.7-2.1,4.7-5V70.5h2.1v13
		C121.6,87.5,118.6,90,114.7,90L114.7,90z"/>
	<path class="st0" d="M140.1,82h-5.3v8h-1.9V70.5h7.2c3.5,0,6,2.3,6,5.7C146.1,79.7,143.6,82,140.1,82L140.1,82z M139.9,72.4h-5.1
		v7.8h5.1c2.3,0,4.1-1.3,4.1-4C143.9,73.7,142.2,72.4,139.9,72.4L139.9,72.4z"/>
	<path class="st0" d="M175,9.6c-1.7,0-3-1.4-3-3c0-1.7,1.4-3,3-3c1.7,0,3,1.4,3,3C178,8.3,176.7,9.6,175,9.6L175,9.6z M175,4
		c-1.4,0-2.6,1.2-2.6,2.6s1.1,2.6,2.6,2.6c1.4,0,2.6-1.2,2.6-2.6C177.5,5.2,176.4,4,175,4L175,4z"/>
	<path class="st0" d="M175.7,8.3L175,6.9h-0.5v1.4H174V4.9h1.1c0.6,0,1.1,0.4,1.1,1c0,0.5-0.3,0.8-0.7,0.9l0.8,1.4h-0.6V8.3z
		 M175.1,5.3h-0.6v1.2h0.6c0.4,0,0.6-0.3,0.6-0.6C175.7,5.6,175.4,5.3,175.1,5.3L175.1,5.3z"/>
	<path class="st0" d="M71.8,7.4V0h7.4v7.4H71.8L71.8,7.4z M17.5,40.8C9,40.8,2,33.8,2,25.3C2,16.7,9,9.9,17.5,9.9
		c3.3,0,6.3,0.9,8.9,2.7v-2.4h7.3v30h-7.3v-2C23.9,39.9,20.9,40.8,17.5,40.8L17.5,40.8z M9.1,25.3c0,4.6,4,8.5,8.6,8.5
		c4.7,0,8.7-3.9,8.7-8.5s-4-8.6-8.7-8.6C13,16.7,9.1,20.7,9.1,25.3L9.1,25.3z M51.9,40.8c-8.6,0-15.6-7-15.6-15.5
		c0-8.6,7-15.4,15.6-15.4c3.3,0,6.2,0.9,8.8,2.7V0h7.4v40.1h-7.4v-2C58.2,39.9,55.2,40.8,51.9,40.8L51.9,40.8z M43.4,25.3
		c0,4.6,4,8.5,8.7,8.5s8.6-3.9,8.6-8.5s-4-8.6-8.6-8.6C47.4,16.7,43.4,20.7,43.4,25.3L43.4,25.3z M79.2,40.1h-7.4v-30h7.4V40.1
		L79.2,40.1z M106.6,0h7.3v40.1h-7.3v-2c-2.5,1.7-5.5,2.7-8.9,2.7c-8.5,0-15.5-7-15.5-15.5c0-8.6,7-15.4,15.5-15.4
		c3.4,0,6.3,0.9,8.9,2.7V0L106.6,0z M89.4,25.3c0,4.6,3.9,8.5,8.5,8.5c4.7,0,8.7-3.9,8.7-8.5s-3.9-8.6-8.7-8.6
		C93.4,16.7,89.4,20.7,89.4,25.3L89.4,25.3z M131.9,40.8c-8.5,0-15.5-7-15.5-15.5c0-8.6,7-15.4,15.5-15.4c3.3,0,6.3,0.9,8.8,2.7
		v-2.4h7.4v30h-7.4v-2C138.3,39.9,135.3,40.8,131.9,40.8L131.9,40.8z M123.6,25.3c0,4.6,4,8.5,8.6,8.5c4.7,0,8.5-3.9,8.5-8.5
		s-3.8-8.6-8.5-8.6C127.6,16.7,123.6,20.7,123.6,25.3L123.6,25.3z M164.6,40.8c-8.3,0-13.3-4.2-13.6-10.3h7.8c0,1.9,1.2,4.6,6.2,4.7
		c3.4,0,4.9-2,4.9-3.5c-0.2-2.4-3.2-2.6-6.3-3.1c-3.2-0.5-5.8-1.1-7.8-2.1c-2.5-1.3-4.1-4-4.1-7.2c0-5.3,4.6-9.6,12.4-9.6
		c7.5,0,12.3,4,12.8,9.8h-7.5c-0.1-1.6-0.4-4.1-4.9-4.1c-3,0-4.9,0.6-5.1,2.7c0,3.1,6.2,2.9,11.1,4.2c4.7,1.2,7.6,4.1,7.6,8.1
		C178,38,172,40.8,164.6,40.8L164.6,40.8z"/>
</g>
</svg>
