<?xml version="1.0" encoding="utf-8"?>
<!-- Generator: Adobe Illustrator 19.1.0, SVG Export Plug-In . SVG Version: 6.00 Build 0)  -->
<svg version="1.1" id="Layer_1" xmlns="http://www.w3.org/2000/svg" xmlns:xlink="http://www.w3.org/1999/xlink" x="0px" y="0px"
	 viewBox="0 0 180 90" style="enable-background:new 0 0 180 90;" xml:space="preserve">
<style type="text/css">
	.st0{fill:#909295;}
</style>
<g>
	<path id="path1894" class="st0" d="M135.8,46.9c-0.2,0-0.8-0.2-1.5-0.3c-5.8-1-10-5.1-10.3-10.2l-0.2-1.4h5.1h5.1l0.2,0.8
		c0.2,1.5,1,2.5,2.5,3.2c1.2,0.5,3.9,0.5,4.7,0c1.9-1,2.4-2.5,1.2-3.9c-0.7-0.8-1.4-1-6.4-2.5c-5.9-1.7-7.5-2.4-9.3-4.2
		c-1.4-1.4-1.9-2.4-2.4-4.1c-0.3-1.4-0.2-2.2,0.2-3.7c0.5-1.9,1-2.9,2.5-4.4c2-2,4.6-3,8.1-3.6c4.1-0.5,8.3,0,11.2,1.5
		c3,1.5,5.2,4.6,5.4,7.8v0.8H147h-4.9l-0.2-0.7c-0.2-1.5-1.7-2.7-3.9-2.9c-4.4-0.3-5.8,3.2-1.7,4.7c0.5,0.2,2.7,0.8,4.9,1.4
		c2.2,0.5,4.6,1.2,5.2,1.5c4.6,1.7,7.1,5.9,6.1,10.5c-0.3,1.5-1.5,3.9-2.5,4.9c-2.5,2.7-6.4,4.1-11.7,4.1
		C137.2,46.9,136,46.9,135.8,46.9z M64.3,30.1V14H74c8.3,0,9.8,0,11,0.3c3.2,0.7,5.4,2.5,6.4,5.4c0.5,1.5,0.5,3.9,0,5.2
		c-0.5,1.2-1.5,2.4-2.7,3.2l-0.8,0.5l1.2,0.7c1.9,1,2.9,2,3.6,3.4c0.7,1.5,1,2.9,0.8,4.4c-0.3,3.2-2.2,6.1-5.1,7.5
		c-2.5,1.2-2.5,1.2-13.9,1.4H64.3V30.1z M82,38.6c0.8-0.3,1.2-0.7,1.5-1.5c0.7-1.4,0.3-2.7-0.8-3.6c-0.5-0.3-0.7-0.3-4.6-0.3H74V36
		v2.9h3.6C80.6,38.9,81.4,38.7,82,38.6z M80.4,26.6c2.9-0.7,2.9-4.4,0.2-5.1c-0.5-0.2-2-0.2-3.7-0.2h-2.7v2.4c0,1.4,0,2.5,0,2.7
		C74.2,26.7,79.2,26.7,80.4,26.6z M91.9,45.9c0-0.2,0.2-0.7,0.3-1.2s1-2.7,1.7-4.7c1.4-3.6,4.9-13.2,7.5-20.3
		c0.7-1.7,1.4-3.6,1.5-4.4l0.5-1.4h5.2h5.2l5.9,15.9c3.2,8.8,5.9,15.9,5.9,16.1c0,0-2.4,0-5.2,0h-5.2l-0.8-2.4l-0.8-2.4h-4.9h-4.9
		l-0.5,2c-0.3,1.2-0.7,2.2-0.7,2.4l-0.2,0.3h-5.1C93.1,46.2,91.9,46,91.9,45.9z M111.4,34.2c0,0,0-0.3,0-0.5c0-0.2-0.7-2.4-1.4-4.7
		c-1.5-5.2-1.5-5.4-1.7-5.2s-2.7,10.3-2.5,10.5C105.8,34.3,111.3,34.3,111.4,34.2z M154.8,30.1V14h12.4h12.4v4.2v4.2H172h-7.5v2.7
		v2.7h6.6h6.6V32V36h-6.6h-6.6v4.9v4.9h-4.9h-4.9L154.8,30.1L154.8,30.1z"/>
	<path id="path1896" class="st0" d="M0,30.1V14h16.1h16.1v16.1v16.1H16.1H0V30.1z M21.8,30.1v-5.8h-5.8h-5.8v5.8v5.8h5.8H22
		L21.8,30.1z M42,30.1v-6.3h6.1h6.1v6.3v6.3h-6.1H42C42,36.4,42,30.1,42,30.1z"/>
	<path id="text1900" class="st0" d="M4.1,73.8V63.1H0.2v-1.4h9.5v1.4H5.8v10.7H4.1z M11,73.8v-12h1.5V66c0.7-0.8,1.5-1.2,2.5-1.2
		c0.7,0,1.2,0.2,1.7,0.3c0.5,0.2,0.8,0.7,1,1c0.2,0.5,0.3,1,0.3,2v5.6h-1.5v-5.6c0-0.7-0.2-1.4-0.5-1.5c-0.3-0.3-0.8-0.5-1.4-0.5
		s-0.8,0.2-1.2,0.3c-0.3,0.2-0.7,0.5-0.8,0.8c-0.2,0.3-0.2,0.8-0.2,1.5v4.7H11V73.8z M26.4,71.1l1.5,0.2c-0.2,0.8-0.7,1.5-1.4,2
		C25.9,73.8,25.1,74,24,74c-1.4,0-2.2-0.3-3-1.2c-0.7-0.8-1.2-1.9-1.2-3.2c0-1.5,0.3-2.5,1.2-3.4c0.7-0.8,1.7-1.2,2.9-1.2
		s2,0.3,2.9,1.2c0.7,0.8,1.2,1.9,1.2,3.4c0,0.2,0,0.2,0,0.3h-6.4c0,1,0.3,1.7,0.8,2.2c0.5,0.5,1,0.7,1.9,0.7c0.5,0,1-0.2,1.4-0.5
		C25.7,72.1,26.1,71.6,26.4,71.1L26.4,71.1z M21.5,68.7h4.9c0-0.7-0.2-1.4-0.5-1.7c-0.5-0.5-1-0.8-1.9-0.8c-0.7,0-1.2,0.2-1.7,0.7
		C21.8,67.2,21.5,67.9,21.5,68.7L21.5,68.7z M43.2,69.6l1.5,0.3c-0.3,1.4-1,2.4-1.9,3c-0.8,0.7-1.9,1-3.2,1c-1.4,0-2.4-0.3-3.2-0.8
		c-0.8-0.5-1.4-1.4-1.9-2.4c-0.3-1-0.7-2-0.7-3.2s0.2-2.4,0.7-3.2c0.5-0.8,1.2-1.7,2-2.2s1.9-0.7,2.9-0.7c1.2,0,2.2,0.3,3,0.8
		c0.8,0.7,1.4,1.5,1.7,2.5l-1.5,0.3c-0.3-0.8-0.7-1.5-1.2-1.9c-0.5-0.3-1.2-0.7-2-0.7s-1.7,0.2-2.4,0.7c-0.7,0.5-1,1-1.4,1.9
		c-0.2,0.7-0.3,1.5-0.3,2.4c0,1,0.2,1.9,0.5,2.7c0.3,0.7,0.7,1.4,1.4,1.7c0.7,0.3,1.4,0.5,2,0.5c0.8,0,1.7-0.3,2.2-0.8
		C42.5,71.4,42.8,70.6,43.2,69.6L43.2,69.6z M46.4,73.8v-12h1.5V66c0.7-0.8,1.5-1.2,2.5-1.2c0.7,0,1.2,0.2,1.7,0.3
		c0.5,0.2,0.8,0.7,1,1c0.2,0.5,0.3,1,0.3,2v5.6H52v-5.6c0-0.7-0.2-1.4-0.5-1.5c-0.3-0.3-0.8-0.5-1.4-0.5c-0.5,0-0.8,0.2-1.2,0.3
		c-0.3,0.2-0.7,0.5-0.8,0.8c-0.2,0.3-0.2,0.8-0.2,1.5v4.7h-1.5V73.8z M61.8,71.1l1.5,0.2c-0.2,0.8-0.7,1.5-1.4,2S60.5,74,59.4,74
		c-1.4,0-2.2-0.3-3-1.2c-0.7-0.8-1.2-1.9-1.2-3.2c0-1.5,0.3-2.5,1.2-3.4c0.7-0.8,1.7-1.2,2.9-1.2c1.2,0,2,0.3,2.9,1.2
		c0.7,0.8,1.2,1.9,1.2,3.4c0,0.2,0,0.2,0,0.3h-6.4c0,1,0.3,1.7,0.8,2.2c0.5,0.5,1,0.7,1.9,0.7c0.5,0,1-0.2,1.4-0.5
		C61.3,72.1,61.5,71.6,61.8,71.1L61.8,71.1z M56.9,68.7h4.9c0-0.7-0.2-1.4-0.5-1.7c-0.5-0.5-1-0.8-1.9-0.8c-0.7,0-1.2,0.2-1.7,0.7
		C57.2,67.2,56.9,67.9,56.9,68.7L56.9,68.7z M65.2,73.8v-8.6h1.4v1.2c0.3-0.5,0.7-0.8,1-1c0.5-0.3,1-0.3,1.5-0.3
		c0.7,0,1.2,0.2,1.5,0.3c0.3,0.3,0.7,0.7,0.8,1.2c0.7-1,1.5-1.5,2.7-1.5c0.8,0,1.5,0.2,2,0.7c0.5,0.5,0.7,1.2,0.7,2.2v5.9h-1.5v-5.4
		c0-0.5,0-1-0.2-1.4c-0.2-0.3-0.3-0.5-0.5-0.7c-0.2-0.2-0.5-0.2-0.8-0.2c-0.7,0-1.2,0.2-1.5,0.7c-0.3,0.3-0.7,1-0.7,2V74h-1.5v-5.6
		c0-0.7-0.2-1.2-0.3-1.5c-0.2-0.3-0.7-0.5-1.2-0.5c-0.3,0-0.8,0.2-1.2,0.3c-0.3,0.2-0.7,0.5-0.8,1c-0.2,0.3-0.2,1-0.2,1.9v4.6h-1.2
		V73.8z M79.1,63.5v-1.7h1.5v1.7H79.1z M79.1,73.8v-8.6h1.5v8.6H79.1z M88.6,70.6l1.5,0.2c-0.2,1-0.5,1.9-1.2,2.4
		c-0.7,0.5-1.5,0.8-2.4,0.8c-1.2,0-2.2-0.3-2.9-1.2c-0.7-0.8-1-1.9-1-3.4c0-1,0.2-1.7,0.5-2.5c0.3-0.7,0.8-1.2,1.4-1.5
		c0.7-0.3,1.4-0.5,2-0.5c1,0,1.7,0.2,2.4,0.7c0.7,0.5,1,1.2,1.2,2l-1.4,0.2c-0.2-0.5-0.3-1-0.7-1.4c-0.3-0.3-0.8-0.5-1.2-0.5
		c-0.7,0-1.4,0.3-1.9,0.8c-0.5,0.5-0.7,1.4-0.7,2.5s0.2,2,0.7,2.5s1,0.8,1.7,0.8c0.5,0,1-0.2,1.5-0.5C88.2,71.9,88.4,71.4,88.6,70.6
		L88.6,70.6z M96.9,72.8c-0.5,0.5-1,0.8-1.5,1c-0.5,0.2-1,0.3-1.7,0.3c-1,0-1.7-0.2-2.2-0.7c-0.5-0.5-0.8-1-0.8-1.9
		c0-0.5,0.2-0.8,0.3-1.2c0.2-0.3,0.5-0.7,0.7-0.8c0.3-0.2,0.7-0.3,1-0.5c0.3,0,0.7-0.2,1.4-0.2c1.2-0.2,2-0.3,2.7-0.5
		c0-0.2,0-0.3,0-0.3c0-0.7-0.2-1-0.3-1.2c-0.3-0.3-1-0.5-1.7-0.5s-1.2,0.2-1.5,0.3c-0.3,0.2-0.5,0.7-0.7,1.4l-1.5-0.5
		c0.2-0.7,0.3-1.2,0.7-1.5c0.3-0.3,0.7-0.7,1.4-0.8c0.5-0.2,1.2-0.3,2-0.3c0.7,0,1.4,0.2,1.9,0.3c0.5,0.2,0.8,0.3,1,0.7
		c0.2,0.3,0.3,0.7,0.5,1c0,0.2,0,0.7,0,1.4v2c0,1.4,0,2.2,0.2,2.5c0,0.3,0.2,0.7,0.3,1h-1.5C97,73.5,97,73.1,96.9,72.8L96.9,72.8z
		 M96.9,69.4c-0.5,0.2-1.4,0.3-2.4,0.5c-0.7,0.2-1,0.2-1.4,0.3c-0.2,0.2-0.5,0.3-0.5,0.5c-0.2,0.2-0.2,0.5-0.2,0.7
		c0,0.3,0.2,0.7,0.5,1c0.3,0.3,0.7,0.3,1.4,0.3c0.5,0,1-0.2,1.5-0.3c0.5-0.2,0.8-0.5,1-1c0.2-0.3,0.2-0.8,0.2-1.5v-0.5H96.9z
		 M100.6,73.8v-12h1.5v12H100.6z M117.7,69.6l1.5,0.3c-0.3,1.4-1,2.4-1.9,3c-0.8,0.7-1.9,1-3.2,1s-2.4-0.3-3.2-0.8
		c-0.8-0.5-1.4-1.4-1.9-2.4c-0.3-1-0.7-2-0.7-3.2s0.2-2.4,0.7-3.2c0.5-0.8,1.2-1.7,2-2.2c0.8-0.5,1.9-0.7,2.9-0.7
		c1.2,0,2.2,0.3,3,0.8c0.8,0.7,1.4,1.5,1.7,2.5l-1.5,0.3c-0.3-0.8-0.7-1.5-1.2-1.9c-0.5-0.3-1.2-0.7-2-0.7c-0.8,0-1.7,0.2-2.4,0.7
		c-0.7,0.5-1,1-1.4,1.9c-0.2,0.7-0.3,1.5-0.3,2.4c0,1,0.2,1.9,0.5,2.7c0.3,0.7,0.7,1.4,1.4,1.7c0.7,0.3,1.4,0.5,2,0.5
		c0.8,0,1.7-0.3,2.2-0.8C117,71.4,117.5,70.6,117.7,69.6L117.7,69.6z M120.6,69.4c0-1.7,0.5-2.9,1.4-3.6c0.7-0.7,1.7-1,2.7-1
		c1.2,0,2.2,0.3,2.9,1.2c0.7,0.8,1.2,1.9,1.2,3.2c0,1.2-0.2,2-0.5,2.7c-0.3,0.7-0.8,1.2-1.5,1.5c-0.7,0.3-1.4,0.5-2,0.5
		c-1.2,0-2.2-0.3-2.9-1.2C120.9,72.1,120.6,70.9,120.6,69.4L120.6,69.4z M122.1,69.4c0,1.2,0.2,1.9,0.7,2.5c0.5,0.5,1,0.8,1.9,0.8
		c0.7,0,1.4-0.3,1.9-0.8c0.5-0.5,0.7-1.4,0.7-2.5c0-1-0.2-1.9-0.7-2.4c-0.5-0.5-1-0.8-1.9-0.8c-0.7,0-1.4,0.3-1.9,0.8
		C122.3,67.5,122.1,68.4,122.1,69.4L122.1,69.4z M130.4,73.8v-8.6h1.4v1.2c0.3-0.5,0.7-0.8,1-1c0.5-0.3,1-0.3,1.5-0.3
		c0.7,0,1.2,0.2,1.5,0.3c0.3,0.3,0.7,0.7,0.8,1.2c0.7-1,1.5-1.5,2.7-1.5c0.8,0,1.5,0.2,2,0.7s0.7,1.2,0.7,2.2v5.9h-1.5v-5.4
		c0-0.5,0-1-0.2-1.4c-0.2-0.3-0.3-0.5-0.5-0.7c-0.2-0.2-0.5-0.2-0.8-0.2c-0.7,0-1.2,0.2-1.5,0.7c-0.3,0.3-0.7,1-0.7,2V74h-1.5v-5.6
		c0-0.7-0.2-1.2-0.3-1.5c-0.2-0.3-0.7-0.5-1.2-0.5c-0.3,0-0.8,0.2-1.2,0.3c-0.3,0.2-0.7,0.5-0.8,1c-0.2,0.3-0.2,1-0.2,1.9v4.6h-1.2
		V73.8z M144.4,77.2v-12h1.4v1.2c0.3-0.5,0.7-0.8,1-1c0.3-0.2,0.8-0.3,1.5-0.3c0.7,0,1.4,0.2,2,0.5c0.5,0.3,1,0.8,1.4,1.7
		c0.3,0.7,0.5,1.5,0.5,2.4c0,0.8-0.2,1.7-0.5,2.4c-0.3,0.7-0.8,1.2-1.4,1.7c-0.7,0.3-1.2,0.5-1.9,0.5c-0.5,0-1-0.2-1.4-0.3
		c-0.3-0.2-0.7-0.5-1-0.8v4.2C146.1,77.2,144.4,77.2,144.4,77.2z M145.6,69.6c0,1.2,0.2,1.9,0.7,2.5c0.5,0.5,1,0.8,1.7,0.8
		c0.7,0,1.2-0.3,1.7-0.8c0.5-0.5,0.7-1.4,0.7-2.5s-0.2-1.9-0.7-2.5c-0.5-0.5-1-0.8-1.7-0.8c-0.7,0-1.2,0.3-1.7,0.8
		C146,67.5,145.6,68.4,145.6,69.6L145.6,69.6z M159.3,72.8c-0.5,0.5-1,0.8-1.5,1c-0.5,0.2-1,0.3-1.7,0.3c-1,0-1.7-0.2-2.2-0.7
		c-0.5-0.5-0.8-1-0.8-1.9c0-0.5,0.2-0.8,0.3-1.2c0.2-0.3,0.5-0.7,0.7-0.8c0.3-0.2,0.7-0.3,1-0.5c0.3,0,0.7-0.2,1.4-0.2
		c1.2-0.2,2-0.3,2.7-0.5c0-0.2,0-0.3,0-0.3c0-0.7-0.2-1-0.3-1.2c-0.3-0.3-1-0.5-1.7-0.5s-1.2,0.2-1.5,0.3c-0.3,0.2-0.5,0.7-0.7,1.4
		l-1.5-0.2c0.2-0.7,0.3-1.2,0.7-1.5c0.3-0.3,0.7-0.7,1.4-0.8c0.5-0.2,1.2-0.3,2-0.3c0.7,0,1.4,0.2,1.9,0.3c0.5,0.2,0.8,0.3,1,0.7
		c0.2,0.3,0.3,0.7,0.5,1c0,0.2,0,0.7,0,1.4v2c0,1.4,0,2.2,0.2,2.5c0,0.3,0.2,0.7,0.3,1h-1.5C159.5,73.5,159.3,73.1,159.3,72.8
		L159.3,72.8z M159.2,69.4c-0.5,0.2-1.4,0.3-2.4,0.5c-0.7,0.2-1,0.2-1.4,0.3c-0.2,0.2-0.5,0.3-0.5,0.5c-0.2,0.2-0.2,0.5-0.2,0.7
		c0,0.3,0.2,0.7,0.5,1c0.3,0.3,0.7,0.3,1.4,0.3c0.5,0,1-0.2,1.5-0.3c0.5-0.2,0.8-0.5,1-1c0.2-0.3,0.2-0.8,0.2-1.5v-0.5H159.2z
		 M163.1,73.8v-8.6h1.4v1.2c0.7-1,1.5-1.4,2.7-1.4c0.5,0,1,0.2,1.5,0.3c0.5,0.2,0.8,0.5,1,0.7c0.2,0.3,0.3,0.7,0.5,1
		c0,0.3,0,0.7,0,1.4v5.4h-1.5v-5.2c0-0.7,0-1-0.2-1.4c-0.2-0.3-0.3-0.5-0.7-0.7s-0.7-0.3-1-0.3c-0.7,0-1.2,0.2-1.7,0.7
		c-0.5,0.3-0.7,1.2-0.7,2.2v4.7C164.4,73.8,163.1,73.8,163.1,73.8z M172.4,77.2l-0.2-1.4c0.3,0.2,0.7,0.2,0.8,0.2
		c0.3,0,0.5,0,0.8-0.2c0.2-0.2,0.3-0.3,0.5-0.5c0.2-0.2,0.2-0.5,0.5-1c0,0,0-0.2,0.2-0.3l-3.2-8.6h1.5l1.9,5.1
		c0.2,0.7,0.5,1.4,0.7,2c0.2-0.7,0.3-1.4,0.7-2l1.9-5.1h1.5l-3.4,8.8c-0.3,1-0.7,1.7-0.8,2c-0.3,0.5-0.5,0.8-0.8,1
		c-0.3,0.2-0.7,0.3-1.2,0.3C172.9,77.4,172.7,77.4,172.4,77.2L172.4,77.2z"/>
</g>
</svg>
