<?xml version="1.0" encoding="utf-8"?>
<!-- Generator: Adobe Illustrator 19.1.0, SVG Export Plug-In . SVG Version: 6.00 Build 0)  -->
<svg version="1.1" id="Layer_1" xmlns="http://www.w3.org/2000/svg" xmlns:xlink="http://www.w3.org/1999/xlink" x="0px" y="0px"
	 viewBox="0 0 180 90" style="enable-background:new 0 0 180 90;" xml:space="preserve">
<style type="text/css">
	.st0{fill:#909295;}
</style>
<g>
	<g>
		<path class="st0" d="M155.4,30.2c1.7-0.4,3.5,0.1,4.9,1c0.8,0.5,1.6,1.3,2.2,2.1c0.2,0.4,0.5,0.9,0.4,1.4
			c-0.4,0.1-0.9-0.1-1.3-0.1c-0.9,0-1.7,0.6-2.1,1.3c-0.5,0.9-0.5,2-0.5,3c0,0.9,0.3,1.8,0.9,2.5c0.7,0.8,1.8,1.3,2.9,1.4
			c1.5,0.1,3-0.2,4.1-1.3c1-1,1.4-2.4,1.4-3.8c0-1.6-0.4-3.1-0.9-4.6c-0.3-0.8-0.9-1.4-1.2-2.2c0-0.1,0.1-0.2,0.1-0.2
			c0.1,0,0.3,0,0.4,0.1c4.1,4.2,8.2,8.4,12.4,12.6c0.4,0.5,1,1.1,0.9,1.8c-0.2,0.7-0.7,1.3-1.2,1.8c-3.9,3.9-7.8,7.8-11.6,11.7
			c-0.3,0.3-0.5,0.6-0.9,0.7c0-0.1-0.1-0.2-0.1-0.3c0.1-0.6,0.4-1,0.6-1.6c0.2-0.5,0.5-1.1,0.7-1.6c0.2-0.8,0.5-1.7,0.6-2.6
			c0-1,0-2-0.2-3.1c-0.2-1-0.7-2-1.6-2.6c-1.1-0.9-2.7-1.2-4.1-0.9c-1.2,0.3-2.2,1.2-2.7,2.2c-0.7,1.1-0.8,2.5-0.5,3.7
			c0.2,0.6,0.4,1.3,0.8,1.8c0.5,0.6,1.3,0.9,2.1,0.7c0.2-0.1,0.5-0.2,0.7-0.1c0.4,0.4,0.2,1,0,1.4c-0.5,1-1.3,2-2.3,2.6
			c-1.3,0.7-2.9,1.1-4.4,0.8c-1.7-0.2-3.2-1.2-4.1-2.5c-1.4-1.9-2.1-4.2-2.5-6.6c-0.4-2.5-0.5-5.1-0.4-7.6c0.2-2.4,0.6-4.9,1.4-7.2
			c0.5-1.4,1.2-2.8,2.1-3.9C153.2,31.2,154.2,30.4,155.4,30.2L155.4,30.2z"/>
		<path class="st0" d="M145.2,31.5c0.3-0.2,0.5-0.5,0.8-0.7c0.1,0,0.2,0,0.3,0.1c0,0.4-0.2,0.7-0.4,1c-0.4,0.7-0.8,1.4-1.2,2
			c-1.2,1.9-1.7,4-2.1,6.2c-0.2,1.2-0.3,2.4-0.4,3.7c-0.2,2.4,0,4.8,0.6,7.1c0.5,2,1.2,4,2.3,5.8c0.4,0.8,0.9,1.5,1.3,2.2
			c0.1,0.1,0.1,0.3,0.1,0.5c-0.4,0.1-0.6-0.2-0.9-0.4c-4.2-4.1-8.3-8.2-12.5-12.2c-0.4-0.5-0.9-1-0.9-1.7c0.2-0.9,0.9-1.5,1.5-2.1
			C137.5,39.1,141.4,35.3,145.2,31.5L145.2,31.5z"/>
	</g>
	<path class="st0" d="M5.2,37.1c1.8-0.4,4.1-0.4,5.4,1.2c0.2-0.5,0.4-1.2,1.1-1.2c0.6-0.1,1.5,0,1.6,0.7c0.2,1,0,2,0,3
		c0,0.9,0.3,2-0.2,2.8c-0.5,0.6-1.5,0.6-2.2,0.4c-0.7-0.2-0.8-1-1-1.6c-0.2-0.8-0.3-1.7-1.1-2.1c-1-0.4-2.4-0.2-3.2,0.6
		c-1,1.1-1.2,2.7-1.2,4.1c0,1.4,0.2,2.9,1,4c0.9,1.3,3.1,1.5,4.2,0.3c0.7-0.8,0.3-2,0.7-2.9c0.8-1.2,3-0.8,3.4,0.6
		c0.3,1.2,0.2,2.5-0.5,3.6c-0.8,1.4-2.4,2.2-3.9,2.4c-1.8,0.3-3.8,0.3-5.4-0.5C2.2,51.6,1,50,0.5,48.3c-0.6-2-0.6-4.3,0-6.3
		C1,39.7,2.9,37.7,5.2,37.1L5.2,37.1z"/>
	<path class="st0" d="M71.7,38c0.9-0.9,2.4-1.1,3.6-1c1,0,2.2,0.2,3,0.9c0.6,0.6,0.8,1.6,0.4,2.3c-0.6,0.9-1.9,1-2.8,0.4
		c-0.4-0.3-0.4-0.9-0.5-1.4c-0.3,0-0.7-0.1-0.9,0.2c-0.5,0.5-0.3,1.3-0.4,2c0.7,0,1.3-0.1,2,0c1.1,0.3,1.1,2,0.3,2.5
		c-0.7,0.1-1.4,0-2.1,0.1c-0.1,2.1-0.1,4.2,0,6.3c0.7,0.1,1.4-0.2,2.1-0.1c0.9,0.2,1.1,1.5,0.7,2.2c-0.3,0.5-1,0.6-1.5,0.6
		c-1.9-0.1-3.8-0.2-5.6,0c-0.7,0-1.5,0.2-2-0.4c-0.5-0.7-0.3-2,0.6-2.3c0.7-0.1,1.4,0.1,2.1,0.1c0.2-1.3,0.1-2.7,0.1-4
		c0-0.8,0.1-1.6-0.2-2.4c-0.7,0-1.3,0.2-2,0c-0.9-0.4-0.8-1.7-0.3-2.3c0.7-0.5,1.7-0.2,2.5-0.2C70.8,40.3,70.8,38.9,71.7,38L71.7,38
		z"/>
	<path class="st0" d="M36,39.5c1-0.6,2.3-0.6,3.3-0.3c1.7,0.6,2.4,3.1,1.3,4.5c-0.8,0.8-2.5,0.7-3.1-0.3c-0.3-0.5-0.2-1.1-0.1-1.6
		c-0.5,0.2-1,0.3-1.4,0.8c-0.6,0.8-0.7,1.9-0.7,2.9c0,1-0.1,1.9,0.1,2.9c0.7,0,1.3-0.2,2-0.1c1.3,0.3,1.2,2.6-0.1,2.7
		c-1.3,0.1-2.7-0.2-4-0.1c-1.2,0-2.4,0.3-3.6,0.1c-0.6-0.1-0.8-0.7-0.8-1.2c0-0.6,0.1-1.3,0.7-1.5c0.6-0.1,1.2,0.1,1.8,0.1
		c0.1-1,0.1-2,0.1-3.1c0-1.2,0.1-2.3-0.1-3.5c-0.6,0-1.2,0.1-1.8,0.1c-1.2-0.4-1-2.7,0.4-2.7s2.8,0.1,4.2,0.1
		c0.2,0.7,0.2,1.5,0.1,2.2C34.8,40.7,35.2,40,36,39.5L36,39.5z"/>
	<path class="st0" d="M49,39.4c1.1-0.5,2.4-0.5,3.5,0.1c1.3,0.7,1.8,2.4,1.3,3.7c-0.5,1.3-2.6,1.5-3.4,0.4c-0.4-0.5-0.3-1.2-0.2-1.7
		c-1.3,0.2-2,1.5-2,2.7c-0.1,1.2-0.1,2.5,0,3.7c0.7,0.2,1.4-0.1,2,0c1.3,0.3,1.3,2.6-0.1,2.7c-1.2,0.1-2.4-0.1-3.6-0.1
		c-1.2-0.1-2.4,0.2-3.6,0.1c-1.3,0-1.4-1.9-0.7-2.6c0.7-0.3,1.4,0,2.1,0c0.2-1.1,0.1-2.2,0.1-3.3s0.1-2.2-0.1-3.3
		c-0.6,0-1.2,0.1-1.8,0.1c-0.9-0.3-0.9-1.6-0.4-2.2c0.5-0.6,1.3-0.5,2-0.4c1,0.1,2,0,3,0c0.1,0.7,0.1,1.5,0.1,2.2
		C47.7,40.6,48.2,39.8,49,39.4L49,39.4z"/>
	<path class="st0" d="M92.3,39c0.6-0.2,1.3,0,1.9,0c1.2,0.1,2.3-0.1,3.5,0c0.3,1,0.2,1.9,0.2,2.9c0,1.4,0,2.8,0,4.2
		c0,0.7,0.3,1.4,0.9,1.6c0.7,0.3,1.7,0.2,2.1-0.5c0.4-0.6,0.4-1.4,0.5-2.1c0-1.1,0-2.3-0.1-3.4c-0.7-0.1-1.6,0.2-2.2-0.3
		c-0.4-0.6-0.4-1.6,0.2-2.1c0.4-0.4,1-0.2,1.5-0.2c1.4,0.1,2.7-0.1,4.1,0c0.1,0.3,0.2,0.6,0.2,0.9c0.1,2.7-0.1,5.4,0.1,8.2
		c0.8,0.1,1.7-0.3,2.4,0.2c0.5,0.6,0.5,1.7-0.1,2.2c-0.5,0.5-1.3,0.2-1.9,0.2c-1.1-0.1-2.3,0.1-3.4,0c-0.1-0.6-0.1-1.3,0-1.9
		c-1.2,2.1-4.1,2.8-6.2,1.7c-0.9-0.5-1.5-1.3-1.6-2.3c-0.3-2.2,0-4.4-0.2-6.6c-0.7-0.1-1.4,0.1-2-0.1C91.2,41,91.4,39.4,92.3,39
		L92.3,39z"/>
	<path class="st0" d="M109.8,39.2c1.3,0,2.6,0.2,3.9,0c0.3,0.7,0.2,1.4,0.2,2.1c0.4-0.6,0.8-1.4,1.5-1.8c1.1-0.7,2.6-0.7,3.8-0.1
		c1.2,0.6,1.7,2.2,1.4,3.5c-0.3,1.5-2.6,1.9-3.5,0.7c-0.4-0.5-0.2-1.2-0.2-1.7c-0.5,0.1-0.9,0.3-1.3,0.7c-0.7,0.8-0.8,1.9-0.8,2.9
		c0,1-0.1,1.9,0.1,2.9c0.7,0,1.4-0.2,2.1-0.1c0.9,0.3,1,1.6,0.6,2.3c-0.4,0.5-1.1,0.5-1.6,0.5c-1.5-0.1-3.1-0.2-4.6-0.1
		c-0.7,0-1.5,0.2-2.2,0c-0.9-0.5-0.9-2-0.1-2.6c0.7-0.2,1.4,0.1,2.1,0c0.1-2.1,0.1-4.2,0-6.4c-0.8-0.3-1.8,0.5-2.3-0.4
		C108.1,40.7,108.6,39.1,109.8,39.2L109.8,39.2z"/>
	<path class="st0" d="M66.2,46.8c-0.6-0.6-1.6-0.6-2.3-0.3C63,46.8,63,48.3,62,48.4c-0.9,0.2-1.9,0-2.5-0.7
		c-0.5-0.6-0.6-1.4-0.6-2.2c2.2,0,4.4,0,6.6,0c0.3,0,0.7,0,1-0.1c0.5-0.5,0.4-1.3,0.3-2c-0.1-1.5-1-2.9-2.2-3.7
		c-1.5-0.9-3.3-1-5-0.7c-2.1,0.3-3.9,1.9-4.4,4c-0.5,1.8-0.4,3.9,0.6,5.6c0.9,1.4,2.4,2.4,4.1,2.5c1.7,0.2,3.6,0.1,5.2-0.8
		c0.7-0.5,1.4-1.2,1.5-2.1C66.6,47.7,66.6,47.1,66.2,46.8z M59.5,42c0.6-0.7,1.7-0.7,2.5-0.3c0.6,0.3,0.8,1.1,0.9,1.8
		c-1.3,0-2.7,0-4,0C59,42.9,59.1,42.3,59.5,42z"/>
	<path class="st0" d="M90.9,44c-0.2-1.6-1-3.2-2.4-4.1c-1.4-1-3.2-1.1-4.8-0.9c-2.3,0.2-4.3,2.1-4.7,4.4c-0.4,2-0.1,4.4,1.3,6
		c1.1,1.3,2.9,1.9,4.5,1.8c1.6,0,3.4-0.4,4.5-1.6C90.8,48.1,91.1,45.9,90.9,44z M86.9,47.1c-0.6,1.5-2.8,1.7-3.7,0.5
		c-0.7-0.9-0.8-2.1-0.7-3.2c0.1-0.9,0.4-2,1.3-2.5c1.1-0.6,2.6-0.2,3.2,1C87.4,44.2,87.5,45.8,86.9,47.1z"/>
	<path class="st0" d="M27.7,48.6c-0.5-0.3-1.1-0.3-1.7-0.5c-0.2-2.1,0.1-4.3-0.2-6.4c-0.1-0.8-0.4-1.5-1.1-1.9
		C23.6,39.1,22.3,39,21,39c-1.4,0-2.9,0.1-4.1,0.8c-0.9,0.5-1.3,1.8-0.8,2.7c0.7,1.1,2.3,1.1,3.3,0.5c0.7-0.4,0.4-1.2,0.5-1.8
		c0.5-0.1,1.1-0.3,1.6,0c0.5,0.2,0.8,0.8,0.8,1.3c-0.2,0.6-0.7,0.9-1.2,1.1c-1.2,0.4-2.5,0.4-3.8,0.8c-0.8,0.2-1.5,0.6-1.9,1.2
		c-0.6,0.8-0.6,1.9-0.5,2.8c0.2,1.4,1.5,2.4,2.9,2.7c1.9,0.3,3.9,0,5.5-1.1c0.8,1.3,2.6,1.6,3.9,0.9C28,50.4,28.2,49.3,27.7,48.6z
		 M21.7,48c-0.6,0.6-1.7,0.7-2.4,0.3c-0.7-0.4-0.8-1.6,0-2c1-0.4,2-0.5,2.9-0.8C22.2,46.4,22.3,47.3,21.7,48z"/>
</g>
</svg>
