<?xml version="1.0" encoding="utf-8"?>
<!-- Generator: Adobe Illustrator 19.1.0, SVG Export Plug-In . SVG Version: 6.00 Build 0)  -->
<svg version="1.1" id="Layer_1" xmlns="http://www.w3.org/2000/svg" xmlns:xlink="http://www.w3.org/1999/xlink" x="0px" y="0px"
	 viewBox="0 0 180 90" style="enable-background:new 0 0 180 90;" xml:space="preserve">
<style type="text/css">
	.st0{fill:#909295;}
</style>
<g>
	<g>
		<polygon class="st0" points="0,27.1 0,45 6.3,45 6.3,43.9 29.5,43.9 29.5,45 35.7,45 35.7,27.1 		"/>
		<polygon class="st0" points="29.5,45 29.5,46.1 6.3,46.1 6.3,45 0,45 0,62.9 35.7,62.9 35.7,45 		"/>
	</g>
	<g>
		<path class="st0" d="M60,31.3c-1.9-0.8-3.9-1.3-5.6-1.3c-2.7,0-3.9,0.5-3.9,1.6c0,2.9,11.6,0.5,11.6,6.7c0,2.5-2.4,4.5-7.2,4.5
			c-2.8,0-5.1-0.5-7.6-2l1.1-2.3c2.3,1.2,4.3,1.7,6.5,1.7c2.8,0,4.4-0.8,4.4-2c0-3.2-11.6-0.8-11.6-6.5c0-2.5,2.4-4.1,6.7-4.1
			c2.5,0,4.7,0.5,6.8,1.6L60,31.3"/>
		<path class="st0" d="M72.9,42.7c-4.7,0-8.5-3.1-8.5-7.7c0-4.5,3.9-7.7,8.5-7.7c4.7,0,8.4,3.2,8.4,7.7
			C81.3,39.7,77.6,42.7,72.9,42.7 M72.9,29.8c-3.3,0-5.7,2.3-5.7,5.2c0,3.1,2.3,5.2,5.7,5.2c3.5,0,5.6-2.3,5.6-5.2
			C78.5,32.1,76.4,29.8,72.9,29.8"/>
		<path class="st0" d="M92.4,42.7c-4.9,0-8.5-3.1-8.5-7.7c0-4.5,3.7-7.7,8.5-7.7c2.9,0,4.9,0.8,6.8,2.1l-1.5,2.3
			c-1.3-1.1-3.1-1.7-5.2-1.7c-3.6,0-5.7,2.3-5.7,5.2c0,3.1,2.3,5.2,5.7,5.2c2.3,0,4-0.7,5.3-1.7l1.5,2.1
			C97.5,41.9,95.3,42.7,92.4,42.7"/>
		<g>
			<rect x="102.3" y="27.8" class="st0" width="2.7" height="14.5"/>
		</g>
		<polyline class="st0" points="108.9,42.3 108.9,27.8 122.3,27.8 122.3,30.2 111.7,30.2 111.7,33.8 119.9,33.8 119.9,36.2 
			111.7,36.2 111.7,39.9 122.7,39.9 122.7,42.3 108.9,42.3 		"/>
		<polyline class="st0" points="132.8,30.2 132.8,42.3 130.1,42.3 130.1,30.2 124.1,30.2 124.1,27.8 138.7,27.8 138.7,30.2 
			132.8,30.2 		"/>
		<polyline class="st0" points="140.9,42.3 140.9,27.8 154.1,27.8 154.1,30.2 143.6,30.2 143.6,33.8 151.7,33.8 151.7,36.2 
			143.6,36.2 143.6,39.9 154.7,39.9 154.7,42.3 140.9,42.3 		"/>
	</g>
	<g>
		<path class="st0" d="M55.9,60.3c1.5,0,2.9-0.4,4.1-0.9v-4.3h2.7v5.6c-1.9,1.2-4.4,2-6.9,2c-4.8,0-8.5-3.1-8.5-7.7
			c0-4.5,3.7-7.6,8.5-7.6c2.8,0,4.9,0.8,6.8,2.1l-1.5,2.1c-1.3-1.1-3.1-1.7-5.2-1.7c-3.6-0.1-5.7,2.3-5.7,5.1
			C50.1,58.2,52.4,60.3,55.9,60.3"/>
		<polyline class="st0" points="66.3,62.5 66.3,48.1 79.5,48.1 79.5,50.3 68.9,50.3 68.9,53.9 77.1,53.9 77.1,56.3 68.9,56.3 
			68.9,60.1 80,60.1 80,62.5 66.3,62.5 		"/>
		<path class="st0" d="M85.2,62.5h-2.7V48.1h2.8L94.8,59l0,0c-0.1-2.8-0.1-4.9-0.1-7.1v-3.7h2.7v14.5h-2.7l-9.5-10.9l0,0
			c0.1,2.1,0.1,5.9,0.1,7.2v3.5"/>
		<polyline class="st0" points="101.1,62.5 101.1,48.1 114.4,48.1 114.4,50.3 103.9,50.3 103.9,53.9 112,53.9 112,56.3 103.9,56.3 
			103.9,60.1 114.8,60.1 114.8,62.5 101.1,62.5 		"/>
		<path class="st0" d="M124.7,57.1h-4.4v5.3h-2.7V48.1h9.3c3.1,0,5.1,1.9,5.1,4.7c0,2.5-1.9,4.1-4.1,4.5l4.3,5.5h-3.3L124.7,57.1
			 M126.7,54.7c1.7,0,2.7-0.9,2.7-2.1c0-1.3-0.8-2.3-2.4-2.3h-6.7v4.4H126.7z"/>
		<path class="st0" d="M137.7,59l-1.7,3.5h-2.9l7.1-14.5h2.8l7.1,14.5h-2.9l-1.7-3.5H137.7 M138.8,56.6h5.6l-2.8-5.9L138.8,56.6z"/>
		<polyline class="st0" points="152.1,62.5 152.1,48.1 154.8,48.1 154.8,60.1 164.5,60.1 164.5,62.5 152.1,62.5 		"/>
		<polyline class="st0" points="166.3,62.5 166.3,48.1 179.6,48.1 179.6,50.3 168.9,50.3 168.9,53.9 177.2,53.9 177.2,56.3 
			168.9,56.3 168.9,60.1 180,60.1 180,62.5 166.3,62.5 		"/>
	</g>
</g>
</svg>
