<svg xmlns="http://www.w3.org/2000/svg" width="21" height="21" viewBox="0 0 21 21"><path fill="none" d="M18 0H3C1.343 0 0 1.344 0 3v15c0 1.657 1.343 3 3 3h15c1.656 0 3-1.343 3-3V3c0-1.656-1.344-3-3-3zm2 18c0 1.103-.896 2-2 2H3c-1.103 0-2-.897-2-2V3c0-1.104.897-2 2-2h15c1.104 0 2 .896 2 2v15zM3.197 8.75c-.055 0-.11.002-.166.005v2.807c.112-.007.222-.017.333-.017 3.4 0 6.156 2.755 6.156 6.156 0 .102-.01.198-.016.3h2.808c.003-.045.004-.09.004-.134 0-5.036-4.082-9.115-9.12-9.115zM3.133 4c-.035 0-.07.003-.1.003v2.873c.128-.006.258-.01.39-.01 5.912 0 10.71 4.794 10.71 10.71 0 .143-.007.284-.012.425H17l.002-.134C17 10.21 10.79 4 3.133 4zm1.927 9.944c-1.12 0-2.028.908-2.028 2.028S3.94 18 5.06 18s2.028-.908 2.028-2.028-.908-2.028-2.028-2.028z"/></svg>