<svg xmlns="http://www.w3.org/2000/svg" width="21" height="21" viewBox="0 0 21 21"><path fill="none" d="M18 0H3C1.343 0 0 1.344 0 3v15c0 1.657 1.343 3 3 3h15c1.656 0 3-1.343 3-3V3c0-1.656-1.344-3-3-3zm2 18c0 1.103-.896 2-2 2H3c-1.103 0-2-.897-2-2V3c0-1.104.897-2 2-2h15c1.104 0 2 .896 2 2v15zM4 17h3V8H4v9zM5.5 2.7c-.995 0-1.8.806-1.8 1.8s.805 1.8 1.8 1.8 1.8-.806 1.8-1.8-.805-1.8-1.8-1.8zm9.044 4.89c-1.594 0-2.13.873-2.523 1.49v.03H12l.02-.03V8H9c.04.848 0 9 0 9h3.02v-5.21c0-.272.02-.54.1-.733.217-.54.53-1.098 1.358-1.098 1.085 0 1.52.826 1.52 2.04v5H18v-5.346c0-2.774-1.48-4.065-3.456-4.065z"/></svg>