<?xml version="1.0" encoding="utf-8"?>
<!-- Generator: Adobe Illustrator 16.0.4, SVG Export Plug-In . SVG Version: 6.00 Build 0)  -->
<!DOCTYPE svg PUBLIC "-//W3C//DTD SVG 1.1//EN" "http://www.w3.org/Graphics/SVG/1.1/DTD/svg11.dtd">
<svg version="1.1" id="Layer_1" xmlns="http://www.w3.org/2000/svg" xmlns:xlink="http://www.w3.org/1999/xlink" x="0px" y="0px"
	 width="300px" height="100px" viewBox="0 0 300 100" enable-background="new 0 0 300 100" xml:space="preserve">
<g>
	<g>
		<g>
			<path fill="#051E3C" d="M297.025,71.111c0-0.829-0.488-1.24-1.512-1.24h-1.649v4.352h0.675v-1.875h0.688l1.192,1.875h0.705
				l-1.244-1.926C296.52,72.229,297.025,71.904,297.025,71.111z M295.212,71.809h-0.674v-1.402h0.858
				c0.449,0,0.963,0.07,0.963,0.671C296.359,71.781,295.789,71.809,295.212,71.809z M295.288,68.34c-2.05,0-3.714,1.587-3.714,3.717
				c0,2.104,1.666,3.711,3.714,3.711c2.022,0,3.712-1.605,3.712-3.711C299,69.927,297.311,68.34,295.288,68.34z M295.288,75.223
				c-1.707,0-3.058-1.375-3.058-3.166c0-1.803,1.351-3.184,3.058-3.184c1.703,0,3.052,1.381,3.052,3.184
				C298.339,73.848,296.991,75.223,295.288,75.223z"/>
			<g>
				<path fill="#051E3C" d="M105.473,71.655H90.331V27.424c0-0.696,0.082-1.441,0.242-2.212l0.204-0.979h-7.205l0.202,0.979
					c0.161,0.772,0.242,1.519,0.242,2.212v45.301c0,0.644-0.081,1.332-0.238,2.053l-0.219,0.99h24.833v-4.64l-1.042,0.302
					C106.837,71.58,106.205,71.655,105.473,71.655z"/>
				<path fill="#051E3C" d="M120.417,72.613V27.387c0-0.913,0.075-1.619,0.223-2.104l0.324-1.051h-7.314l0.212,0.984
					c0.16,0.747,0.239,1.477,0.239,2.17v45.229c0,0.692-0.08,1.423-0.239,2.171l-0.209,0.982h7.311l-0.324-1.054
					C120.492,74.234,120.417,73.525,120.417,72.613z"/>
				<path fill="#051E3C" d="M131.168,25.217c0.161,0.747,0.243,1.464,0.243,2.135v45.262c0,0.692-0.082,1.423-0.243,2.171
					l-0.209,0.982h7.219l-0.212-0.982c-0.161-0.747-0.24-1.479-0.24-2.171V51.38h12.594c0.909,0,1.689,0.077,2.313,0.231l1.01,0.248
					v-4.612l-0.994,0.225c-0.797,0.181-1.557,0.272-2.257,0.272h-12.665V28.092h14.51c0.888,0,1.766,0.069,2.603,0.208l0.945,0.155
					v-4.223h-24.825L131.168,25.217z"/>
				<path fill="#051E3C" d="M183.284,47.521h-14.921v-19.43h15.476c0.667,0,1.325,0.107,1.954,0.322l1.073,0.366v-4.548h-25.351
					l0.307,1.044c0.152,0.51,0.227,1.231,0.227,2.147v45.189c0,0.686-0.061,1.433-0.175,2.218l-0.14,0.937h25.17V71.15l-0.938,0.146
					c-1.71,0.269-2.371,0.345-2.567,0.358h-15.032V51.162h14.993c1.105,0,1.977,0.055,2.584,0.167l0.961,0.178v-4.622l-1.041,0.304
					C185.102,47.411,184.234,47.521,183.284,47.521z"/>
				<path fill="#051E3C" d="M269.255,72.77l-17.392-46.756c-0.104-0.285-0.191-0.651-0.256-1.09l-0.105-0.69h-5.691l-0.096,0.701
					c-0.109,0.801-0.216,1.178-0.292,1.372l-16.756,46.446c-0.101,0.255-0.253,0.592-0.442,0.993
					c-0.485-0.36-0.912-0.726-1.248-1.09l-18.637-20.8c4.605-0.498,8.23-1.811,10.788-3.896c2.917-2.379,4.397-5.709,4.397-9.896
					c0-2.841-0.81-5.415-2.403-7.638c-1.435-2.016-3.379-3.549-5.771-4.554c-2.529-1.087-5.455-1.64-8.703-1.64h-12.012l0.211,0.984
					c0.158,0.747,0.241,1.477,0.241,2.17v45.229c0,0.693-0.083,1.423-0.241,2.171l-0.211,0.983h7.217l-0.209-0.983
					c-0.158-0.747-0.24-1.476-0.24-2.171V53.33l17.89,20.148c0.61,0.693,1.039,1.306,1.276,1.815l0.22,0.474h6.424h4.14h0.854
					l0.022-0.791c0.025-0.949,0.129-1.422,0.209-1.646l5.31-14.525h19.582l5.336,14.506c0.197,0.597,0.322,1.17,0.365,1.709
					l0.061,0.748h7.927l-0.803-1.252C269.727,73.76,269.404,73.172,269.255,72.77z M255.833,55.165h-16.871l8.274-22.869
					L255.833,55.165z M201.404,28.092h3.508c3.482,0,6.186,0.651,8.029,1.937c1.283,0.894,2.3,2.082,3.021,3.535
					c0.729,1.464,1.099,3.076,1.099,4.793c0,3.839-1.559,6.6-4.756,8.432c-1.984,1.118-4.223,1.685-6.654,1.685h-4.248V28.092
					H201.404z"/>
				<path fill="#051E3C" d="M294.73,24.232l-0.18,0.573c-0.181,0.584-0.425,1.166-0.714,1.723l-11.465,21.429l-11.208-21.265
					c-0.611-1.207-0.781-1.68-0.829-1.854l-0.161-0.605h-7.929l1.011,1.311c0.29,0.379,0.639,0.953,1.033,1.713l13.529,25.487v19.87
					c0,0.694-0.077,1.424-0.237,2.171l-0.212,0.982h7.22l-0.21-0.982c-0.16-0.747-0.238-1.477-0.238-2.171V52.745l13.707-25.697
					c0.279-0.504,0.609-1.016,0.979-1.521l0.951-1.295H294.73z"/>
			</g>
		</g>
		<path fill="#929497" d="M2.959,83.609C1.328,83.609,0,82.281,0,80.648V19.351c0-1.632,1.328-2.96,2.959-2.96h61.298
			c1.632,0,2.959,1.328,2.959,2.96v61.297c0,1.634-1.327,2.959-2.959,2.959H2.959V83.609z"/>
		<path fill="#FFFFFF" d="M66.097,80.648c0,1.013-0.828,1.84-1.839,1.84H2.959c-1.011,0-1.838-0.827-1.838-1.84V19.351
			c0-1.012,0.827-1.839,1.838-1.839h61.298c1.012,0,1.839,0.827,1.839,1.839L66.097,80.648L66.097,80.648z"/>
		<g>
			<rect x="7.842" y="24.232" fill="#051E3C" width="11.204" height="11.203"/>
			<rect x="21.286" y="24.232" fill="#1D396B" width="11.203" height="11.203"/>
			<rect x="34.729" y="24.232" fill="#79B3E1" width="11.203" height="11.203"/>
			<rect x="7.842" y="51.12" fill="#79B3E1" width="11.203" height="11.203"/>
			<rect x="7.842" y="37.677" fill="#1D396B" width="11.203" height="11.203"/>
			<rect x="21.286" y="37.677" fill="#79B3E1" width="11.203" height="11.203"/>
			<rect x="34.729" y="64.564" fill="#1D396B" width="11.203" height="11.203"/>
			<rect x="48.173" y="64.564" fill="#051E3C" width="11.203" height="11.203"/>
			<rect x="21.285" y="64.564" fill="#79B3E1" width="11.204" height="11.203"/>
			<rect x="48.173" y="37.677" fill="#79B3E1" width="11.203" height="11.203"/>
			<rect x="48.173" y="51.121" fill="#1D396B" width="11.203" height="11.204"/>
			<rect x="34.729" y="51.121" fill="#79B3E1" width="11.203" height="11.204"/>
		</g>
	</g>
</g>
</svg>
